<svg xmlns="http://www.w3.org/2000/svg" width="21.013" height="21.013" viewBox="0 0 21.013 21.013">
  <path id="Path_27975" data-name="Path 27975" d="M18.853,0H2.16A2.163,2.163,0,0,0,0,2.162V18.855a2.16,2.16,0,0,0,2.16,2.158H18.853a2.159,2.159,0,0,0,2.16-2.158V2.162A2.161,2.161,0,0,0,18.853,0M17.235,13.6c.006.857,0,1.715,0,2.572a.716.716,0,0,1-.656.771.578.578,0,0,1-.134,0A12.2,12.2,0,0,1,4.6,7.222a11.545,11.545,0,0,1-.246-2.375.72.72,0,0,1,.658-.777.611.611,0,0,1,.124,0c.418-.006.834,0,1.252,0s.851,0,1.276,0a.709.709,0,0,1,.761.654.521.521,0,0,1,0,.1A8.14,8.14,0,0,0,9.2,8.214a.726.726,0,0,1-.233,1,.643.643,0,0,1-.149.069c-.282.141-.561.277-.847.408-.105.048-.126.088-.059.191a10.158,10.158,0,0,0,3.522,3.52c.095.057.134.048.181-.053q.208-.444.429-.885a.712.712,0,0,1,.916-.418.577.577,0,0,1,.1.048,8.269,8.269,0,0,0,3.457.784.7.7,0,0,1,.719.677v.05" fill="#a1bbc7"/>
</svg>
