<svg xmlns="http://www.w3.org/2000/svg" width="41" height="41" viewBox="0 0 41 41">
  <g id="Group_21382" data-name="Group 21382" transform="translate(0.5 0.5)">
    <circle id="Ellipse_471" data-name="Ellipse 471" cx="20" cy="20" r="20" fill="none" stroke="#fff" stroke-width="1"/>
    <g id="Group_21381" data-name="Group 21381" transform="translate(7.966 7.753)">
      <path id="Path_28455" data-name="Path 28455" d="M35.88,20.89c-.009-.582-.017-1.054-.026-1.412s-.02-.743-.037-1.158a9.025,9.025,0,0,0-.573-3.023A6.526,6.526,0,0,0,31.6,11.652a9.117,9.117,0,0,0-3.02-.574l-1.173-.05c-.367-.017-.836-.026-1.412-.026H20.9c-.573,0-1.042.009-1.41.026l-1.172.05a8.958,8.958,0,0,0-3.023.574A6.534,6.534,0,0,0,11.65,15.3a8.942,8.942,0,0,0-.574,3.023q-.026.623-.039,1.158c-.009.358-.017.83-.023,1.412S11,22.322,11,23.435c0,1.133,0,1.989.014,2.574s.014,1.051.023,1.41.022.746.039,1.161a8.921,8.921,0,0,0,.574,3.02,6.552,6.552,0,0,0,3.644,3.647,9.025,9.025,0,0,0,3.023.573q.622.026,1.161.051c.356.017.827.022,1.41.022h5.1c.577,0,1.046-.005,1.412-.022s.757-.034,1.173-.051a9,9,0,0,0,3.02-.573A6.545,6.545,0,0,0,35.245,31.6a9,9,0,0,0,.573-3.02c.017-.415.028-.8.037-1.161s.017-.828.026-1.41.014-1.441.014-2.574c0-1.113-.006-1.963-.014-2.545m-2.235,5.068q0,.848-.026,1.373c-.017.35-.034.732-.048,1.15a6.844,6.844,0,0,1-.426,2.3,3.873,3.873,0,0,1-.924,1.447,3.65,3.65,0,0,1-1.421.924,6.887,6.887,0,0,1-2.322.424c-.418.017-.8.031-1.15.039s-.808.017-1.373.026-1.4.011-2.5.011q-1.674,0-2.52-.011t-1.372-.026c-.35-.009-.735-.022-1.15-.039a6.755,6.755,0,0,1-2.3-.424,4.363,4.363,0,0,1-1.45-.924,3.939,3.939,0,0,1-.924-1.447,6.862,6.862,0,0,1-.424-2.3c-.017-.418-.033-.8-.05-1.15s-.023-.808-.023-1.373v-5.02c0-.565.006-1.023.023-1.373s.033-.732.05-1.147a6.95,6.95,0,0,1,.424-2.322,3.741,3.741,0,0,1,.924-1.424,3.951,3.951,0,0,1,1.45-.924,6.772,6.772,0,0,1,2.3-.424c.368-.033.7-.053,1.012-.062s.678-.014,1.11-.014h5.419q.847,0,1.373.026c.35.017.732.034,1.15.05a6.9,6.9,0,0,1,2.322.424A4.078,4.078,0,0,1,33.146,16.1a6.932,6.932,0,0,1,.426,2.322c.014.415.031.8.048,1.147s.026.808.026,1.373Z" transform="translate(-11 -11.002)" fill="#fff"/>
      <path id="Path_28456" data-name="Path 28456" d="M31.314,22.123a6.47,6.47,0,0,0-9.154,0,6.483,6.483,0,0,0,0,9.165,6.5,6.5,0,0,0,9.154,0,6.483,6.483,0,0,0,0-9.165m-1.62,7.56a4.2,4.2,0,1,1-5.944-5.944,4.2,4.2,0,1,1,5.944,5.944" transform="translate(-14.277 -14.265)" fill="#fff"/>
      <path id="Path_28457" data-name="Path 28457" d="M40.8,19.047a1.426,1.426,0,0,1-.432,1.047,1.4,1.4,0,0,1-1.023.432,1.477,1.477,0,0,1-1.477-1.48,1.384,1.384,0,0,1,.433-1.02,1.422,1.422,0,0,1,1.044-.432,1.387,1.387,0,0,1,1.035.432,1.417,1.417,0,0,1,.421,1.02" transform="translate(-20.234 -13.268)" fill="#fff"/>
    </g>
  </g>
</svg>
