<svg id="Group_20633" data-name="Group 20633" xmlns="http://www.w3.org/2000/svg" width="21.202" height="21.013" viewBox="0 0 21.202 21.013">
  <path id="Path_27972" data-name="Path 27972" d="M8.4,1.951A6.406,6.406,0,1,0,14.81,8.358,6.415,6.415,0,0,0,8.4,1.951m0,10.9A4.5,4.5,0,1,1,12.9,8.358,4.5,4.5,0,0,1,8.4,12.853" transform="translate(2.198 2.149)" fill="#a1bbc7"/>
  <path id="Path_27973" data-name="Path 27973" d="M16.785,0H4.415A4.42,4.42,0,0,0,0,4.415V16.6a4.419,4.419,0,0,0,4.415,4.415H16.785A4.42,4.42,0,0,0,21.2,16.6V4.415A4.422,4.422,0,0,0,16.785,0m2.471,16.6a2.474,2.474,0,0,1-2.471,2.471H4.415A2.475,2.475,0,0,1,1.944,16.6V4.415A2.473,2.473,0,0,1,4.415,1.946H16.785a2.472,2.472,0,0,1,2.471,2.469Z" fill="#a1bbc7"/>
  <path id="Path_27974" data-name="Path 27974" d="M8.657,1.615A1.183,1.183,0,1,0,9.842,2.8,1.185,1.185,0,0,0,8.657,1.615" transform="translate(8.231 1.779)" fill="#a1bbc7"/>
</svg>
