<svg xmlns="http://www.w3.org/2000/svg" xmlns:xlink="http://www.w3.org/1999/xlink" width="110.669" height="29.061" viewBox="0 0 110.669 29.061">
  <defs>
    <clipPath id="clip-path">
      <rect id="Rectangle_6313" data-name="Rectangle 6313" width="38.707" height="29.061" fill="#fff"/>
    </clipPath>
  </defs>
  <g id="Group_4" data-name="Group 4" transform="translate(-49 49.914)">
    <g id="Group_3" data-name="Group 3" transform="translate(95.476 -41.107)">
      <path id="Path_3" data-name="Path 3" d="M859.939-965.5c.029-.308.029-.616.059-.924h2.427v9.131H860c-.03-.308-.03-.588-.059-1.008a4.169,4.169,0,0,1-3.8,1.232,4.386,4.386,0,0,1-2.837-1.6,5.011,5.011,0,0,1,.234-6.694A4.683,4.683,0,0,1,859.939-965.5Zm-5.293,3.613a2.524,2.524,0,0,0,2.632,2.633,2.554,2.554,0,0,0,2.691-2.549,2.563,2.563,0,0,0-2.661-2.633A2.513,2.513,0,0,0,854.646-961.886Z" transform="translate(-798.233 969.125)" fill="#fff"/>
      <path id="Path_4" data-name="Path 4" d="M149.367-965.487v-.953h2.267v9.14h-2.267v-.869c-.083,0-.138-.028-.138,0a4.212,4.212,0,0,1-6.941-1.879,5,5,0,0,1,1.189-5.467,4.077,4.077,0,0,1,5.669-.084Zm-2.6,6.224a2.493,2.493,0,0,0,2.6-2.551,2.484,2.484,0,0,0-2.461-2.635,2.455,2.455,0,0,0-2.572,2.551A2.462,2.462,0,0,0,146.768-959.263Z" transform="translate(-133.467 969.125)" fill="#fff"/>
      <path id="Path_5" data-name="Path 5" d="M587.822-957.271h-2.4c-.029-.309-.029-.589-.058-.9a.227.227,0,0,0-.146.028,4.615,4.615,0,0,1-7.527-2.413,5.008,5.008,0,0,1,1.933-5.359c1.582-1.122,4.246-1.066,5.506.281.029.056.117.084.2.14.03-.337.03-.645.059-.954h2.4C587.822-963.388,587.822-960.357,587.822-957.271Zm-5.125-1.992a2.569,2.569,0,0,0,2.694-2.609,2.539,2.539,0,0,0-2.665-2.581,2.5,2.5,0,0,0-2.665,2.609A2.5,2.5,0,0,0,582.7-959.263Z" transform="translate(-541.191 969.125)" fill="#fff"/>
      <path id="Path_6" data-name="Path 6" d="M321.859-966.418h2.463c.03.288.03.575.059.949a3.605,3.605,0,0,1,3.621-1.15,3.306,3.306,0,0,1,2.879,3.25c.119,2.1.03,4.2.03,6.356h-2.493v-5.349c0-1.323-.623-2.013-1.81-2.071a1.964,1.964,0,0,0-2.226,2.013c-.03,1.582,0,3.164-.03,4.745v.633h-2.493Z" transform="translate(-301.875 969.125)" fill="#fff"/>
      <path id="Path_7" data-name="Path 7" d="M9.377-959.185c.7-.364,1.362-.727,2.087-1.118a2.029,2.029,0,0,0,2.435,1.118.8.8,0,0,0,.754-.587c.087-.447-.2-.671-.551-.783-.783-.252-1.565-.475-2.319-.755a2.517,2.517,0,0,1-2-2.46,2.775,2.775,0,0,1,2-2.656,4.444,4.444,0,0,1,5.044,1.37,1.5,1.5,0,0,1,.174.308c-.7.363-1.333.7-2.029,1.09a1.733,1.733,0,0,0-1.594-.923,1.8,1.8,0,0,0-.667.168.587.587,0,0,0-.029,1.09,13.217,13.217,0,0,0,1.478.531c.493.168.986.28,1.449.447a2.649,2.649,0,0,1,.957,4.222c-1.42,1.51-5.624,1.677-6.986-.755A.648.648,0,0,1,9.377-959.185Z" transform="translate(-9.377 969.125)" fill="#fff"/>
      <path id="Path_8" data-name="Path 8" d="M474.951-999.628h-1.585v-2.319h1.585c0-.573-.028-1.059,0-1.546,0-.143.113-.372.226-.4.707-.229,1.415-.458,2.179-.687v2.6h2.066v2.347h-2.066c0,1.4-.028,2.777,0,4.122,0,.458.34.687.792.744.4.029.821,0,1.273,0v2.2a6.4,6.4,0,0,1-2.943-.172,2.22,2.22,0,0,1-1.443-2c-.085-1.145-.085-2.319-.113-3.492C474.922-998.683,474.951-999.112,474.951-999.628Z" transform="translate(-443.692 1004.58)" fill="#fff"/>
      <path id="Path_9" data-name="Path 9" d="M769.425-957.013H766.91v-9.373H769.4v1.294a9.117,9.117,0,0,1,1.318-1.093,8.42,8.42,0,0,1,1.647-.518v2.76a5.546,5.546,0,0,1-.689.029,2.209,2.209,0,0,0-2.246,2.3C769.4-960.09,769.425-958.595,769.425-957.013Z" transform="translate(-718.463 969.125)" fill="#fff"/>
    </g>
    <g id="Group_20965" data-name="Group 20965" transform="translate(49 -49.914)">
      <g id="Group_20965-2" data-name="Group 20965" clip-path="url(#clip-path)">
        <path id="Path_28431" data-name="Path 28431" d="M29.611,83.9c2.109-1.26,4.144-2.468,6.171-3.689a1.562,1.562,0,0,1,1.719.114c3.744,2.093,7.514,4.141,11.242,6.264a5.088,5.088,0,0,0,5.526-.08q4.125-2.468,8.264-4.91c.232-.137.472-.259.823-.451,0,2.363.015,4.61-.024,6.857,0,.23-.29.53-.522.669C59.062,90.927,55.3,93.16,51.546,95.4a1.166,1.166,0,0,1-1.313.091q-10.168-5.7-20.356-11.36a2.149,2.149,0,0,1-.265-.236" transform="translate(-24.651 -66.597)" fill="#fff"/>
        <path id="Path_28432" data-name="Path 28432" d="M33.774,11.672c-2.157,1.276-4.239,2.56-6.386,3.726a1.933,1.933,0,0,1-1.533-.183C22.232,13.25,18.6,11.288,15.05,9.2a5.564,5.564,0,0,0-6.339.078C6.124,10.919,3.454,12.427.817,13.989c-.23.136-.474.25-.814.427,0-2.331-.015-4.554.021-6.776a1.032,1.032,0,0,1,.473-.7Q6.187,3.509,11.915.146A1.445,1.445,0,0,1,13.124.12q10.17,5.606,20.3,11.283a3.694,3.694,0,0,1,.349.269" transform="translate(0 0)" fill="#fff"/>
      </g>
    </g>
  </g>
</svg>
