<svg xmlns="http://www.w3.org/2000/svg" width="40" height="41" viewBox="0 0 40 41">
  <g id="Group_21382" data-name="Group 21382" transform="translate(0.004 0.5)">
    <ellipse id="Ellipse_471" data-name="Ellipse 471" cx="19.5" cy="20" rx="19.5" ry="20" transform="translate(0.496)" fill="none" stroke="#fff" stroke-width="1"/>
    <path id="Path_28469" data-name="Path 28469" d="M339.131,13.644a12.929,12.929,0,0,1-1.181,1.369,8.157,8.157,0,0,1-1.448,1.181v.881a13,13,0,0,1-.885,4.5,14.715,14.715,0,0,1-4.373,6.075,15.739,15.739,0,0,1-17.766,1.113,11.038,11.038,0,0,0,1.4.071,10.887,10.887,0,0,0,4.865-1.206,11.6,11.6,0,0,0,1.5-.927,5.351,5.351,0,0,1-2.729-.79,5.161,5.161,0,0,1-2.212-2.667,8.221,8.221,0,0,0,.958.071h.812c.393-.078.59-.133.59-.163a4.244,4.244,0,0,1-.737-.185,5.688,5.688,0,0,1-1.819-1.09,4.849,4.849,0,0,1-1.6-3.619,5.365,5.365,0,0,0,2.309.6v-.048a3.967,3.967,0,0,1-1.031-.881,5,5,0,0,1-1.23-3.315,4.887,4.887,0,0,1,.689-2.39A15.9,15.9,0,0,0,318.76,15.2a18.462,18.462,0,0,0,5.038,1.971,19.039,19.039,0,0,0,2.309.254,5.048,5.048,0,0,1-.146-1.135,4.609,4.609,0,0,1,1.6-3.525,5.4,5.4,0,0,1,3.686-1.415,5.681,5.681,0,0,1,3.832,1.531,8.717,8.717,0,0,0,1.205-.279,11.479,11.479,0,0,0,2.113-.927,5.611,5.611,0,0,1-1.13,1.9,7.524,7.524,0,0,1-1.106.81v.048a9.3,9.3,0,0,0,2.949-.79Z" transform="translate(-306.658 -1.467)" fill="#fff"/>
  </g>
</svg>
