<svg xmlns="http://www.w3.org/2000/svg" width="15.647" height="17.584" viewBox="0 0 15.647 17.584">
  <g id="Group_16208" data-name="Group 16208" transform="translate(-611.077 -99.547)">
    <path id="Path_23360" data-name="Path 23360" d="M613.97,120.828c-.219-.041-.441-.07-.656-.124a2.669,2.669,0,0,1-2.225-2.463,7.825,7.825,0,0,1,.649-3.721,3.567,3.567,0,0,1,1.739-1.842,3.82,3.82,0,0,1,1.707-.36,1.434,1.434,0,0,1,.561.17c.278.133.536.3.806.444a4.656,4.656,0,0,0,4.709,0c.218-.118.441-.233.645-.367a1.739,1.739,0,0,1,1.235-.22,3.482,3.482,0,0,1,2.656,1.676,6.251,6.251,0,0,1,.855,2.672,11.656,11.656,0,0,1,.072,1.444,2.8,2.8,0,0,1-2.772,2.664.814.814,0,0,0-.119.031Zm4.927-.965q2.2,0,4.4,0a5.9,5.9,0,0,0,.6-.031,1.766,1.766,0,0,0,1.7-1.45,6.438,6.438,0,0,0-.084-1.939,5.177,5.177,0,0,0-.659-1.928,2.385,2.385,0,0,0-2.024-1.223.523.523,0,0,0-.256.052c-.278.145-.544.307-.819.456a5.9,5.9,0,0,1-5.8-.054c-.242-.135-.482-.273-.726-.406a.348.348,0,0,0-.166-.056,2.424,2.424,0,0,0-1.553.561,3.061,3.061,0,0,0-.762,1.051,7.194,7.194,0,0,0-.562,3.3,1.616,1.616,0,0,0,1.3,1.544,4,4,0,0,0,.973.12C615.94,119.87,617.419,119.863,618.9,119.863Z" transform="translate(0 -3.697)" fill="#d2b353"/>
    <path id="Path_23361" data-name="Path 23361" d="M624.606,104.061a4.521,4.521,0,1,1-4.541-4.514A4.536,4.536,0,0,1,624.606,104.061Zm-4.548,3.427a3.421,3.421,0,1,0-3.4-3.486A3.439,3.439,0,0,0,620.058,107.489Z" transform="translate(-1.299 0)" fill="#d2b353"/>
  </g>
</svg>
