<svg xmlns="http://www.w3.org/2000/svg" width="43.753" height="43.754" viewBox="0 0 43.753 43.754">
  <g id="Group_20535" data-name="Group 20535" transform="translate(-3083 22328)">
    <g id="Group_20534" data-name="Group 20534">
      <path id="Path_27105" data-name="Path 27105" d="M3090.362-22320.412l6.836-4.318s8.124-1.223,8.43-1.3,8.354,1.3,8.354,1.3l6.9,6.439s3.525,7.51,3.6,7.893.636,6.732.636,6.732v11.059l-2.491,4.895s-3.587,1.074-4.124,1.15-14.008.625-14.008.625l-7.758-1.775-5.824-3.986-4.445-6.82-2.108-7.508,2.108-7.514Z" fill="#d61b22"/>
      <g id="Group_20533" data-name="Group 20533" transform="translate(3083 -22328)">
        <path id="Path_23372" data-name="Path 23372" d="M-1525.5-1031.406h-12.073a21.826,21.826,0,0,1-14.969-5.917,21.784,21.784,0,0,1-6.874-14.546,21.791,21.791,0,0,1,4.944-15.308,21.825,21.825,0,0,1,14.083-7.792,21.66,21.66,0,0,1,8.9.668,21.707,21.707,0,0,1,7.886,4.177,21.881,21.881,0,0,1,5.541,6.924h0a21.826,21.826,0,0,1,2.349,8.545l0,13.464a9.74,9.74,0,0,1-2.871,6.917A9.761,9.761,0,0,1-1525.5-1031.406Zm-12.018-41.45a19.352,19.352,0,0,0-2.572.17,19.528,19.528,0,0,0-12.6,6.973,19.5,19.5,0,0,0-4.423,13.7,19.5,19.5,0,0,0,6.15,13.015,19.537,19.537,0,0,0,13.395,5.294h12.071a7.468,7.468,0,0,0,5.294-2.194,7.456,7.456,0,0,0,2.2-5.292v-13.277a19.5,19.5,0,0,0-2.1-7.684h0a19.563,19.563,0,0,0-4.96-6.2,19.343,19.343,0,0,0-7.055-3.737A19.372,19.372,0,0,0-1537.52-1072.857Z" transform="translate(1559.464 1075.161)" fill="#d2b353"/>
        <g id="Group_16377" data-name="Group 16377" transform="translate(9.917 12.842)">
          <rect id="Rectangle_4886" data-name="Rectangle 4886" width="14.044" height="3.859" rx="1.929" transform="translate(2)" fill="#d2b353"/>
          <rect id="Rectangle_4887" data-name="Rectangle 4887" width="23.919" height="3.859" rx="1.929" transform="translate(2 8.216)" fill="#d2b353"/>
          <rect id="Rectangle_4888" data-name="Rectangle 4888" width="23.919" height="3.859" rx="1.929" transform="translate(2 16.432)" fill="#d2b353"/>
        </g>
      </g>
    </g>
  </g>
</svg>
