<svg xmlns="http://www.w3.org/2000/svg" width="48.31" height="43.248" viewBox="0 0 48.31 43.248">
  <g id="Group_20530" data-name="Group 20530" transform="translate(-2812.763 22337.195)">
    <path id="Path_27103" data-name="Path 27103" d="M2878.986-22291.207l4.135-3.656,3.478-1.061h3.125l4.186,1.355,3.184,2.359,1.886,2.18,1.474,3.008.648,2.654v3.182l-1.061,5.07-5.719,8.783-9.374,9.078-2.771,1.889-2.417.352h-2.476l-2.653-.883-2.712-1.826-2.358-2.242-3.066-2.947-3.006-3.42-3.242-4.361-2.889-6.311-.624-4.836.8-4.361,1.779-3.453,2.424-2.518,1.919-1.221,1.639-.906,1.465-.348,2.442-.277h1.43l2.616.277,1.709.783,2.058,1.379,1.291,1.186Z" transform="translate(-42 -39.604)" fill="#d61b22"/>
    <path id="Path_27101" data-name="Path 27101" d="M-1497.216-1070.561a14.227,14.227,0,0,0-9.885-4.635h-.072a13.488,13.488,0,0,0-6.742,1.946,13.574,13.574,0,0,0-3.685,3.295,13.514,13.514,0,0,0-3.677-3.295,13.493,13.493,0,0,0-6.839-1.943,14.22,14.22,0,0,0-9.872,4.635,14.3,14.3,0,0,0-3.758,10.258c0,9.252,9.349,19.126,17.19,25.779a10.7,10.7,0,0,0,6.949,2.574,10.7,10.7,0,0,0,6.959-2.577c7.843-6.655,17.189-16.524,17.189-25.728A14.33,14.33,0,0,0-1497.216-1070.561Zm1.068,10.266c0,8.216-8.836,17.438-16.248,23.731a7.962,7.962,0,0,1-10.42,0c-7.412-6.288-16.248-15.52-16.248-23.784a11.684,11.684,0,0,1,3.063-8.4,11.517,11.517,0,0,1,7.942-3.76l.083-.007a10.785,10.785,0,0,1,5.308,1.566,10.979,10.979,0,0,1,3.894,4.092l1.174,2.165,1.174-2.162a10.89,10.89,0,0,1,3.9-4.089,10.752,10.752,0,0,1,5.338-1.559,11.531,11.531,0,0,1,7.976,3.76A11.709,11.709,0,0,1-1496.147-1060.3Z" transform="translate(4354.519 -21262)" fill="#d2b353"/>
  </g>
</svg>
