<svg xmlns="http://www.w3.org/2000/svg" width="61.078" height="75.358" viewBox="0 0 61.078 75.358">
  <g id="Group_57" data-name="Group 57" transform="translate(-299 -656)">
    <g id="Group_11" data-name="Group 11" transform="translate(276.417 644.417)">
      <g id="Group_68" data-name="Group 68" transform="translate(-869.579 -42.401)">
        <g id="Group_70" data-name="Group 70">
          <g id="Group_61" data-name="Group 61" transform="translate(892.162 100.308)">
            <path id="Path_34" data-name="Path 34" d="M953.222,341.715c-.015-.048-.031-.1-.047-.145-.031-.095-.062-.19-.089-.286a4.692,4.692,0,0,0-3.551-3.533,5.382,5.382,0,0,0-3.163.225c-2.1.73-4.241,1.466-6.31,2.178l-1.3.449q-1.095.377-2.193.75l-.526.179a5.115,5.115,0,0,0-1.291-3.656,5.365,5.365,0,0,0-4.252-1.733c-2.051.061-4.144.034-6.168.008l-.709-.009a2.238,2.238,0,0,1-.99-.265l-.195-.106c-1.594-.865-3.243-1.76-4.814-2.714a10.979,10.979,0,0,0-6.2-1.631c-1.688.049-3.409.037-5.074.026-.66,0-1.32-.009-1.981-.01a4.112,4.112,0,0,0-4.161-2.368c-1.344.03-2.713.024-4.037.018-.753,0-1.506-.007-2.26,0a1.58,1.58,0,0,0-1.748,1.746q0,10.4,0,20.8a1.572,1.572,0,0,0,1.781,1.762q1.091,0,2.183,0c1.407,0,2.863-.009,4.292.012a4.014,4.014,0,0,0,3.864-2.161.3.3,0,0,1,.094-.056,9.694,9.694,0,0,1,3.561,1.154c1.4.851,2.835,1.708,4.219,2.536l1.534.919a15.585,15.585,0,0,0,8.121,2.31,16.394,16.394,0,0,0,2.82-.249,21.042,21.042,0,0,0,4.932-1.724l.668-.3,4.235-1.866q7.893-3.478,15.788-6.955a4.865,4.865,0,0,0,2.557-2.534c.115-.258.2-.523.289-.78.038-.113.075-.226.115-.338l.022-.06v-1.535Zm-7.882,4.091-1.54.675q-2.529,1.113-5.056,2.229c-3.88,1.712-7.893,3.483-11.848,5.2a12.193,12.193,0,0,1-11.612-.778c-.963-.569-1.938-1.156-2.88-1.725q-.754-.455-1.508-.908a13.412,13.412,0,0,0-6.186-2.413V334.549c.075,0,.147-.007.217-.007h2.429c1.579,0,3.212,0,4.819-.006a6.3,6.3,0,0,1,3.241.849c1.019.584,2.06,1.168,3.066,1.733q1.313.737,2.622,1.479a4.934,4.934,0,0,0,2.543.664c2.49-.023,4.926-.023,7.239,0a2.065,2.065,0,0,1,1.7.853,1.947,1.947,0,0,1,.243,1.774,1.99,1.99,0,0,1-1.959,1.336c-3.83.005-7.659,0-11.488.006a3.059,3.059,0,0,0-.922.114,1.5,1.5,0,0,0-1.024,1.581,1.54,1.54,0,0,0,1.35,1.385,3.564,3.564,0,0,0,.489.015h.143q1.451,0,2.9-.005c2.272-.006,4.62-.012,6.929.019a12.977,12.977,0,0,0,4.67-.759c3.51-1.275,7.108-2.5,10.587-3.683q1.427-.485,2.853-.972a3.186,3.186,0,0,1,1.076-.2,1.626,1.626,0,0,1,1.669,1.419,1.789,1.789,0,0,1-1.034,2.009C947.832,344.716,946.565,345.27,945.34,345.806Zm-43.756,3.636a.751.751,0,0,1-.737.844c-1.407.016-2.846.013-4.238.011l-1.31,0V332.187l1.315,0c1.42,0,2.76-.005,4.13.009a.786.786,0,0,1,.84.874C901.592,338.492,901.592,344,901.584,349.442Z" transform="translate(-892.162 -329.074)" fill="#d2b353"/>
            <path id="Path_35" data-name="Path 35" d="M925.535,361.013h0a1.575,1.575,0,0,0-1.544,1.509,1.546,1.546,0,0,0,1.544,1.578h0a1.544,1.544,0,0,0,1.544-1.578A1.557,1.557,0,0,0,925.535,361.013Z" transform="translate(-919.272 -356.278)" fill="#d2b353"/>
          </g>
          <g id="Group_69" data-name="Group 69" transform="translate(-5.559 -2.51)">
            <g id="Group_63" data-name="Group 63" transform="translate(911.331 80.244)">
              <path id="Path_36" data-name="Path 36" d="M1031.472,229.107a10,10,0,1,1,10-10A10.008,10.008,0,0,1,1031.472,229.107Zm0-18.4a8.4,8.4,0,1,0,8.4,8.4A8.409,8.409,0,0,0,1031.472,210.711Z" transform="translate(-1021.475 -209.113)" fill="#d2b353"/>
              <g id="Group_62" data-name="Group 62" transform="translate(3.666 5.34)">
                <path id="Path_1" data-name="Path 1" d="M1044.417,247.134V245a.335.335,0,0,1,.141-.217c1.269-.743,2.523-1.472,3.777-2.215a.334.334,0,0,1,.361.031c1.5.837,3.009,1.658,4.513,2.494.626.356,1.269.7,1.9,1.054.062.031.125.078.219.124-.062.046-.11.093-.156.124-.659.387-1.317.775-1.959,1.162a.235.235,0,0,1-.267-.016c-1.269-.7-2.555-1.394-3.808-2.107a1.643,1.643,0,0,0-1.724.015c-.925.542-1.834,1.085-2.759,1.612-.047.031-.11.062-.156.093A.143.143,0,0,1,1044.417,247.134Z" transform="translate(-1044.417 -242.525)" fill="#d2b353"/>
                <path id="Path_2" data-name="Path 2" d="M1066.281,269.522v1.025c0,.357,0,.715.016,1.072a.344.344,0,0,1-.156.311c-1.238.73-2.492,1.476-3.73,2.206a.313.313,0,0,1-.329,0c-2.178-1.213-4.373-2.425-6.551-3.62-.047-.016-.078-.062-.141-.093.078-.046.125-.093.188-.124.643-.373,1.285-.746,1.912-1.134a.235.235,0,0,1,.282,0c1.269.715,2.554,1.414,3.824,2.128a1.614,1.614,0,0,0,1.708-.016c.925-.544,1.833-1.087,2.758-1.615A1.072,1.072,0,0,1,1066.281,269.522Z" transform="translate(-1053.636 -264.868)" fill="#d2b353"/>
              </g>
            </g>
            <g id="Group_65" data-name="Group 65" transform="translate(936.516 76.665)">
              <path id="Path_37" data-name="Path 37" d="M1200.051,199.963a10,10,0,1,1,10-10A10.008,10.008,0,0,1,1200.051,199.963Zm0-18.4a8.4,8.4,0,1,0,8.4,8.4A8.408,8.408,0,0,0,1200.051,181.567Z" transform="translate(-1190.054 -179.969)" fill="#d2b353"/>
              <g id="Group_64" data-name="Group 64" transform="translate(3.666 5.34)">
                <path id="Path_1-2" data-name="Path 1" d="M1213,217.991v-2.138a.335.335,0,0,1,.141-.217c1.269-.743,2.523-1.472,3.777-2.215a.334.334,0,0,1,.36.031c1.5.837,3.009,1.658,4.513,2.494.626.356,1.269.7,1.9,1.054.063.031.125.078.22.124-.063.046-.11.093-.157.124-.658.387-1.317.775-1.959,1.162a.234.234,0,0,1-.266-.016c-1.269-.7-2.555-1.394-3.808-2.107a1.643,1.643,0,0,0-1.724.015c-.924.542-1.833,1.085-2.758,1.612-.047.031-.11.062-.156.093A.142.142,0,0,1,1213,217.991Z" transform="translate(-1212.996 -213.382)" fill="#d2b353"/>
                <path id="Path_2-2" data-name="Path 2" d="M1234.86,240.379V241.4c0,.357,0,.715.016,1.072a.344.344,0,0,1-.157.311c-1.238.73-2.492,1.476-3.73,2.206a.313.313,0,0,1-.329,0c-2.178-1.212-4.373-2.425-6.551-3.62-.047-.016-.078-.062-.141-.093.078-.047.125-.093.188-.124.643-.373,1.285-.746,1.912-1.134a.235.235,0,0,1,.282,0c1.269.715,2.554,1.414,3.824,2.128a1.612,1.612,0,0,0,1.708-.016c.925-.544,1.834-1.087,2.758-1.615A1.078,1.078,0,0,1,1234.86,240.379Z" transform="translate(-1222.215 -235.725)" fill="#d2b353"/>
              </g>
            </g>
            <g id="Group_67" data-name="Group 67" transform="translate(920.25 56.493)">
              <path id="Path_38" data-name="Path 38" d="M1083.541,80.487a10,10,0,1,1,10-10A10.009,10.009,0,0,1,1083.541,80.487Zm0-18.4a8.4,8.4,0,1,0,8.4,8.4A8.408,8.408,0,0,0,1083.541,62.091Z" transform="translate(-1073.544 -60.493)" fill="#d2b353"/>
              <g id="Group_66" data-name="Group 66" transform="translate(3.666 5.34)">
                <path id="Path_1-3" data-name="Path 1" d="M1096.486,98.515V96.377a.335.335,0,0,1,.142-.217c1.269-.743,2.523-1.472,3.777-2.215a.334.334,0,0,1,.36.031c1.5.837,3.009,1.658,4.514,2.494.626.356,1.269.7,1.9,1.054.063.031.125.078.219.124-.062.047-.11.093-.156.124-.658.387-1.317.775-1.959,1.162a.235.235,0,0,1-.266-.016c-1.269-.7-2.555-1.394-3.808-2.107a1.643,1.643,0,0,0-1.724.015c-.925.542-1.834,1.085-2.758,1.612-.047.031-.11.062-.157.093A.144.144,0,0,1,1096.486,98.515Z" transform="translate(-1096.486 -93.906)" fill="#d2b353"/>
                <path id="Path_2-3" data-name="Path 2" d="M1118.35,120.9v1.025c0,.357,0,.715.016,1.072a.343.343,0,0,1-.156.311c-1.238.73-2.492,1.476-3.73,2.206a.312.312,0,0,1-.329,0c-2.178-1.212-4.373-2.425-6.551-3.62-.047-.016-.078-.062-.141-.093.078-.047.125-.093.188-.124.642-.373,1.285-.746,1.912-1.134a.234.234,0,0,1,.282,0c1.269.715,2.555,1.414,3.824,2.128a1.613,1.613,0,0,0,1.708-.016c.925-.544,1.833-1.087,2.758-1.615A1.087,1.087,0,0,1,1118.35,120.9Z" transform="translate(-1105.705 -116.249)" fill="#d2b353"/>
              </g>
            </g>
          </g>
        </g>
      </g>
    </g>
  </g>
</svg>
