<svg xmlns="http://www.w3.org/2000/svg" width="65.749" height="65.864" viewBox="0 0 65.749 65.864">
  <g id="Group_57" data-name="Group 57" transform="translate(-296.771 -662.616)">
    <g id="Group_11" data-name="Group 11" transform="translate(276.417 644.417)">
      <g id="Group_72" data-name="Group 72" transform="translate(-195.317 -152.801)">
        <path id="Path_39" data-name="Path 39" d="M246.883,171h3.338c.653.1,1.308.178,1.957.295a21.478,21.478,0,0,1,17.814,23.26c-.746,7.893-4.824,13.669-11.8,17.374a20.622,20.622,0,0,1-7.548,2.193v6.537a8.378,8.378,0,0,1,5.881,5.915c2.71,0,5.384-.016,8.057.014a.771.771,0,0,0,.889-.64,8.182,8.182,0,0,1,15.609.367c.126.426.229.859.343,1.288v2.058c-.044.138-.1.274-.129.415a8.144,8.144,0,0,1-5.891,6.476c-.424.133-.865.21-1.3.313h-1.8a2.5,2.5,0,0,0-.36-.115A7.78,7.78,0,0,1,266.7,233.6a27.786,27.786,0,0,1-1.627-2.909c-2.653,0-5.431.007-8.21-.008-.4,0-.419.248-.514.513a8.152,8.152,0,0,1-6.1,5.491c-.223.054-.443.119-.665.179h-2.054a.543.543,0,0,0-.159-.094,8.048,8.048,0,0,1-6.633-5.7c-.137-.406-.378-.381-.68-.381-2.544,0-5.089.014-7.633-.01-.446,0-.6.14-.752.556a8.066,8.066,0,0,1-6,5.426c-.289.071-.579.137-.868.205h-1.926a4.8,4.8,0,0,0-.48-.139,8.229,8.229,0,1,1,9.275-10.694.654.654,0,0,0,.753.553c2.566-.023,5.133-.018,7.7,0a.548.548,0,0,0,.624-.458,8.08,8.08,0,0,1,5.268-5.3c.37-.127.5-.274.492-.665-.025-1.2-.009-2.4-.009-3.6v-2.411c-.8-.128-1.52-.211-2.228-.363a21.612,21.612,0,0,1-1.464-41.992C244.142,171.44,245.523,171.259,246.883,171Zm-15.791,21.538a17.46,17.46,0,1,0,17.482-17.422A17.5,17.5,0,0,0,231.091,192.538Zm-7.171,31.977a4.116,4.116,0,1,0,4.087,4.15A4.116,4.116,0,0,0,223.92,224.515Zm24.644,8.231a4.116,4.116,0,1,0-4.12-4.119A4.129,4.129,0,0,0,248.564,232.746Zm28.745-4.113a4.107,4.107,0,1,0-4.129,4.113A4.118,4.118,0,0,0,277.309,228.633Z" transform="translate(0)" fill="#d2b353"/>
        <path id="Path_41" data-name="Path 41" d="M374.673,242.607c0,.407.016.791,0,1.173a2.05,2.05,0,0,1-4.1.01c-.017-.34,0-.682,0-1.114-1.05,0-2.068.02-3.085,0a2.044,2.044,0,0,1-1.859-2.908,2.007,2.007,0,0,1,1.957-1.2c2.01,0,4.021.009,6.031,0a2.026,2.026,0,0,0,2-1.5,1.948,1.948,0,0,0-.834-2.238,3.022,3.022,0,0,0-1.265-.359c-.957-.075-1.934.024-2.877-.12a6.1,6.1,0,0,1-5.2-5.686,6.165,6.165,0,0,1,4.58-6.339l.547-.153c0-.374-.013-.757,0-1.138a2.05,2.05,0,0,1,4.1-.012c.015.338,0,.677,0,1.083H377.4c1.47,0,2.416.817,2.406,2.073s-.953,2.042-2.438,2.043c-1.86,0-3.721,0-5.582,0a2.071,2.071,0,0,0-2.247,2.036,2.1,2.1,0,0,0,2.274,2.082,20.582,20.582,0,0,1,2.813.106,6.094,6.094,0,0,1,5.172,5.711,6.164,6.164,0,0,1-4.549,6.3Z" transform="translate(-124.07 -39.775)" fill="#d2b353"/>
      </g>
    </g>
  </g>
</svg>
