<svg xmlns="http://www.w3.org/2000/svg" width="45.023" height="62.749" viewBox="0 0 45.023 62.749">
  <g id="Group_57" data-name="Group 57" transform="translate(-307.133 -666.271)">
    <g id="Group_11" data-name="Group 11" transform="translate(276.417 644.417)">
      <path id="Path_33" data-name="Path 33" d="M553.586,242.463a2.924,2.924,0,0,1-1.511-1.736c-.982-2.33-2-4.643-3.028-6.954a3.223,3.223,0,0,0-.64-.947c-3.268-3.288-6.561-6.553-9.826-9.844a6.427,6.427,0,0,1,8.736-9.428c.376.339.735.7,1.169,1.112.023-.236.051-.386.051-.536,0-3.125-.006-6.249.012-9.374a.77.77,0,0,0-.485-.8,12.854,12.854,0,1,1,17.1-4.916c-.06.106-.117.214-.121.222l1.833,2.836a5.472,5.472,0,0,1,4.349.276,5.659,5.659,0,0,1,2.862,3.466,5.538,5.538,0,0,1,7.53,5.346c-.025,4.124,0,8.256-.255,12.368a70.571,70.571,0,0,1-3.427,17.428,2.326,2.326,0,0,1-1.428,1.478Zm21.179-3.677a65.13,65.13,0,0,0,2.941-15.66c.224-3.972.188-7.958.246-11.939a1.865,1.865,0,0,0-1.745-2.052,1.846,1.846,0,0,0-1.929,1.856,1.876,1.876,0,0,1-1.933,1.807,1.832,1.832,0,0,1-1.738-1.981c-.011-1.123.011-2.247-.007-3.369a1.874,1.874,0,0,0-1.872-1.993,1.834,1.834,0,0,0-1.8,1.985c-.01,1.082.011,2.165-.011,3.247a2.983,2.983,0,0,1-.178,1.014,1.808,1.808,0,0,1-2,1.073A1.79,1.79,0,0,1,563.26,211c-.019-2.287-.009-4.574-.012-6.861a5.464,5.464,0,0,0-.021-.673,1.848,1.848,0,0,0-1.916-1.684,1.8,1.8,0,0,0-1.731,1.86c-.017,2.287,0,4.574-.011,6.861a4.1,4.1,0,0,1-.085.91,1.816,1.816,0,0,1-3.512.069,3.942,3.942,0,0,1-.075-.971q-.006-8.7-.007-17.4a4.148,4.148,0,0,0-.1-1.03,1.793,1.793,0,0,0-2.309-1.232,1.867,1.867,0,0,0-1.264,2.066q0,12.834,0,25.668a4.685,4.685,0,0,1-.091,1.032,1.8,1.8,0,0,1-2.711,1.1,4.034,4.034,0,0,1-.651-.554c-1.276-1.266-2.534-2.549-3.822-3.8a2.753,2.753,0,0,0-4.667,1.748,2.959,2.959,0,0,0,1.059,2.435q5.016,4.992,10,10.012a4.51,4.51,0,0,1,.886,1.3q1.433,3.178,2.78,6.394a.77.77,0,0,0,.855.549q9.16-.024,18.32-.011Zm-15.192-40.442c.609-.089,1.134-.149,1.652-.251a.685.685,0,0,0,.352-.285,9.036,9.036,0,0,0,1.659-5.284,9.187,9.187,0,1,0-17.437,4.1,8.514,8.514,0,0,0,2.742,3.287c0-.329,0-.544,0-.759.01-2.347-.048-4.7.05-7.041a5.424,5.424,0,0,1,4.275-4.905,5.556,5.556,0,0,1,5.983,2.713,7.109,7.109,0,0,1,.726,3.61C559.566,195.113,559.572,196.7,559.572,198.345Z" transform="translate(-505.879 -157.86)" fill="#d2b353"/>
    </g>
  </g>
</svg>
