<svg xmlns="http://www.w3.org/2000/svg" xmlns:xlink="http://www.w3.org/1999/xlink" width="274" height="229.108" viewBox="0 0 274 229.108">
  <defs>
    <linearGradient id="linear-gradient" x1="-107.626" y1="0.5" x2="-106.626" y2="0.5" gradientUnits="objectBoundingBox">
      <stop offset="0" stop-color="#fff0c3"/>
      <stop offset="1" stop-color="#ba7118"/>
    </linearGradient>
  </defs>
  <g id="Group_20523" data-name="Group 20523" transform="translate(-297 -327.892)">
    <g id="Group_19595" data-name="Group 19595" transform="translate(-5 -3)">
      <ellipse id="Ellipse_443" data-name="Ellipse 443" cx="137" cy="7.5" rx="137" ry="7.5" transform="translate(302 545)" fill="#f2ede7"/>
      <g id="Group_19574" data-name="Group 19574" transform="translate(3550.98 -4195.233)">
        <g id="Group_19545" data-name="Group 19545" transform="translate(-3233.894 4555.672)" opacity="0.37">
          <g id="Group_19543" data-name="Group 19543" transform="translate(125.694 2.023)">
            <g id="Group_19542" data-name="Group 19542">
              <rect id="Rectangle_5731" data-name="Rectangle 5731" width="22.477" height="8.281" transform="translate(31.483 9.198)" opacity="0.5" fill="url(#linear-gradient)"/>
              <rect id="Rectangle_5732" data-name="Rectangle 5732" width="22.477" height="8.281" transform="translate(18.234 18.397)" opacity="0.5" fill="url(#linear-gradient)"/>
              <rect id="Rectangle_5733" data-name="Rectangle 5733" width="22.477" height="8.281" transform="translate(23.796)" opacity="0.5" fill="url(#linear-gradient)"/>
              <rect id="Rectangle_5734" data-name="Rectangle 5734" width="22.477" height="8.281" transform="translate(25.641 154.803)" opacity="0.5" fill="url(#linear-gradient)"/>
              <rect id="Rectangle_5735" data-name="Rectangle 5735" width="22.477" height="8.281" transform="translate(17.281 145.339)" opacity="0.5" fill="url(#linear-gradient)"/>
              <rect id="Rectangle_5736" data-name="Rectangle 5736" width="22.477" height="8.281" transform="translate(40.783 145.339)" opacity="0.5" fill="url(#linear-gradient)"/>
              <rect id="Rectangle_5737" data-name="Rectangle 5737" width="22.477" height="8.281" transform="translate(9 164.267)" opacity="0.5" fill="url(#linear-gradient)"/>
              <rect id="Rectangle_5738" data-name="Rectangle 5738" width="22.477" height="8.281" transform="translate(54.885 9.198)" opacity="0.5" fill="url(#linear-gradient)"/>
            </g>
            <rect id="Rectangle_5739" data-name="Rectangle 5739" width="22.477" height="8.281" transform="translate(27.003 34.887)" opacity="0.5" fill="url(#linear-gradient)"/>
          </g>
          <g id="Group_19544" data-name="Group 19544">
            <rect id="Rectangle_5740" data-name="Rectangle 5740" width="22.477" height="8.281" transform="translate(32.261 108.679)" opacity="0.5" fill="url(#linear-gradient)"/>
            <rect id="Rectangle_5741" data-name="Rectangle 5741" width="22.477" height="8.281" transform="translate(25.75 46.137)" opacity="0.5" fill="url(#linear-gradient)"/>
            <rect id="Rectangle_5742" data-name="Rectangle 5742" width="22.477" height="8.281" transform="translate(35.845 36.909)" opacity="0.5" fill="url(#linear-gradient)"/>
            <rect id="Rectangle_5743" data-name="Rectangle 5743" width="22.477" height="8.281" transform="translate(37.764 55.364)" opacity="0.5" fill="url(#linear-gradient)"/>
            <rect id="Rectangle_5744" data-name="Rectangle 5744" width="22.477" height="8.281" transform="translate(14.104 55.364)" opacity="0.5" fill="url(#linear-gradient)"/>
            <rect id="Rectangle_5745" data-name="Rectangle 5745" width="22.477" height="8.281" transform="translate(25.499 64.592)" opacity="0.5" fill="url(#linear-gradient)"/>
            <rect id="Rectangle_5746" data-name="Rectangle 5746" width="22.477" height="8.281" transform="translate(25.75 27.876)" opacity="0.5" fill="url(#linear-gradient)"/>
            <rect id="Rectangle_5747" data-name="Rectangle 5747" width="22.477" height="8.281" transform="translate(21.313)" opacity="0.5" fill="url(#linear-gradient)"/>
            <rect id="Rectangle_5748" data-name="Rectangle 5748" width="22.477" height="8.281" transform="translate(217.208 87.34)" opacity="0.5" fill="url(#linear-gradient)"/>
            <rect id="Rectangle_5749" data-name="Rectangle 5749" width="22.477" height="8.281" transform="translate(34.779 8.8)" opacity="0.5" fill="url(#linear-gradient)"/>
            <rect id="Rectangle_5750" data-name="Rectangle 5750" width="22.477" height="8.281" transform="translate(32.535 90.224)" opacity="0.5" fill="url(#linear-gradient)"/>
            <rect id="Rectangle_5751" data-name="Rectangle 5751" width="22.477" height="8.281" transform="translate(8.638 90.224)" opacity="0.5" fill="url(#linear-gradient)"/>
            <rect id="Rectangle_5752" data-name="Rectangle 5752" width="22.477" height="8.281" transform="translate(22.834 99.452)" opacity="0.5" fill="url(#linear-gradient)"/>
            <rect id="Rectangle_5753" data-name="Rectangle 5753" width="22.477" height="8.281" transform="translate(23.423 161.362)" opacity="0.5" fill="url(#linear-gradient)"/>
            <rect id="Rectangle_5754" data-name="Rectangle 5754" width="22.477" height="8.281" transform="translate(0 161.362)" opacity="0.5" fill="url(#linear-gradient)"/>
            <rect id="Rectangle_5755" data-name="Rectangle 5755" width="22.477" height="8.281" transform="translate(13.723 170.589)" opacity="0.5" fill="url(#linear-gradient)"/>
            <rect id="Rectangle_5756" data-name="Rectangle 5756" width="22.477" height="8.281" transform="translate(37.225 170.589)" opacity="0.5" fill="url(#linear-gradient)"/>
            <rect id="Rectangle_5757" data-name="Rectangle 5757" width="22.477" height="8.281" transform="translate(29.496 179.816)" opacity="0.5" fill="url(#linear-gradient)"/>
          </g>
        </g>
        <rect id="Rectangle_5758" data-name="Rectangle 5758" width="92.562" height="157.111" rx="12" transform="translate(-3185.185 4572.934)" fill="#bc9f5e"/>
        <g id="Group_19552" data-name="Group 19552" transform="translate(-3168.1 4554.064)">
          <g id="Group_19549" data-name="Group 19549">
            <g id="Group_19548" data-name="Group 19548">
              <rect id="Rectangle_5759" data-name="Rectangle 5759" width="92.562" height="157.111" rx="12" fill="#e2ce9c"/>
              <g id="Group_19547" data-name="Group 19547" transform="translate(24.636 17.509)">
                <g id="Group_19546" data-name="Group 19546">
                  <circle id="Ellipse_434" data-name="Ellipse 434" cx="19.733" cy="19.733" r="19.733" transform="translate(1.912 1.912)" fill="#e2ce9c"/>
                  <path id="Path_25561" data-name="Path 25561" d="M-3067.541,4599.338a19.733,19.733,0,0,1,19.732,19.733,19.733,19.733,0,0,1-19.732,19.733,19.733,19.733,0,0,1-19.733-19.733,19.733,19.733,0,0,1,19.733-19.733m0-1.912a21.669,21.669,0,0,0-21.645,21.645,21.67,21.67,0,0,0,21.645,21.645,21.67,21.67,0,0,0,21.645-21.645,21.669,21.669,0,0,0-21.645-21.645Z" transform="translate(3089.186 -4597.426)" fill="#c64255"/>
                </g>
                <circle id="Ellipse_435" data-name="Ellipse 435" cx="7.729" cy="7.729" r="7.729" transform="translate(13.916 7.784)" fill="#c64255"/>
                <path id="Path_25562" data-name="Path 25562" d="M-3063.741,4653.646a19.683,19.683,0,0,0,14.966-6.88,17.512,17.512,0,0,0-14.966-8.4,17.513,17.513,0,0,0-14.967,8.4A19.684,19.684,0,0,0-3063.741,4653.646Z" transform="translate(3085.387 -4612.268)" fill="#c64255"/>
              </g>
            </g>
            <path id="Path_25563" data-name="Path 25563" d="M-3051.616,4758.811a8.378,8.378,0,0,0-8.378-8.379,8.379,8.379,0,0,0-8.378,8.379,8.369,8.369,0,0,0,4.224,7.268l-.986,12.016a1.64,1.64,0,0,0,1.635,1.773h7.011a1.64,1.64,0,0,0,1.634-1.773l-.985-12.016A8.368,8.368,0,0,0-3051.616,4758.811Z" transform="translate(3106.275 -4635.394)" fill="#606060"/>
          </g>
          <rect id="Rectangle_5760" data-name="Rectangle 5760" width="58.562" height="14.303" rx="7.151" transform="translate(17 70.077)" fill="#c64255"/>
          <rect id="Rectangle_5761" data-name="Rectangle 5761" width="58.562" height="14.303" rx="7.151" transform="translate(17 90.274)" fill="#c64255"/>
          <g id="Group_19550" data-name="Group 19550" transform="translate(29.427 96.055)">
            <path id="Path_25564" data-name="Path 25564" d="M-3081.279,4721.212a.827.827,0,0,1,.242.051l.171.066v-.554a1.219,1.219,0,0,1,.152-.08.552.552,0,0,1,.231-.044.427.427,0,0,1,.265.076.284.284,0,0,1,.1.244c0,.025,0,.073,0,.142s-.007.146-.012.23l.484-.2a.594.594,0,0,1,.207.149.347.347,0,0,1,.09.244.25.25,0,0,1-.09.222,1.2,1.2,0,0,1-.246.12l-.2.08.391.5a.519.519,0,0,1-.165.243.418.418,0,0,1-.28.1.337.337,0,0,1-.258-.091,1.812,1.812,0,0,1-.172-.216l-.1-.153-.32.438a.719.719,0,0,1-.165.022.581.581,0,0,1-.355-.091.283.283,0,0,1-.121-.237.341.341,0,0,1,.039-.156.816.816,0,0,1,.117-.165l.164-.189-.516-.139a.856.856,0,0,1-.039-.247.343.343,0,0,1,.1-.263A.412.412,0,0,1-3081.279,4721.212Z" transform="translate(3081.669 -4720.651)"/>
            <path id="Path_25565" data-name="Path 25565" d="M-3070.959,4721.212a.827.827,0,0,1,.242.051l.171.066v-.554a1.179,1.179,0,0,1,.152-.08.552.552,0,0,1,.231-.044.429.429,0,0,1,.266.076.285.285,0,0,1,.1.244c0,.025,0,.073,0,.142s-.007.146-.012.23l.485-.2a.594.594,0,0,1,.207.149.348.348,0,0,1,.09.244.25.25,0,0,1-.09.222,1.2,1.2,0,0,1-.246.12l-.2.08.391.5a.521.521,0,0,1-.164.243.421.421,0,0,1-.281.1.337.337,0,0,1-.258-.091,1.718,1.718,0,0,1-.172-.216l-.1-.153-.32.438a.708.708,0,0,1-.164.022.58.58,0,0,1-.355-.091.283.283,0,0,1-.121-.237.338.338,0,0,1,.039-.156.807.807,0,0,1,.117-.165l.164-.189-.516-.139a.865.865,0,0,1-.039-.247.338.338,0,0,1,.1-.263A.409.409,0,0,1-3070.959,4721.212Z" transform="translate(3077.927 -4720.651)"/>
            <path id="Path_25566" data-name="Path 25566" d="M-3060.64,4721.212a.824.824,0,0,1,.242.051l.171.066v-.554a1.219,1.219,0,0,1,.152-.08.55.55,0,0,1,.23-.044.43.43,0,0,1,.266.076.286.286,0,0,1,.1.244c0,.025,0,.073,0,.142s-.006.146-.012.23l.485-.2a.6.6,0,0,1,.207.149.348.348,0,0,1,.09.244.25.25,0,0,1-.09.222,1.191,1.191,0,0,1-.246.12l-.2.08.391.5a.523.523,0,0,1-.164.243.42.42,0,0,1-.281.1.338.338,0,0,1-.258-.091,1.837,1.837,0,0,1-.172-.216l-.1-.153-.32.438a.713.713,0,0,1-.164.022.581.581,0,0,1-.355-.091.283.283,0,0,1-.121-.237.335.335,0,0,1,.039-.156.79.79,0,0,1,.117-.165l.164-.189-.516-.139a.856.856,0,0,1-.039-.247.341.341,0,0,1,.1-.263A.412.412,0,0,1-3060.64,4721.212Z" transform="translate(3074.186 -4720.651)"/>
            <path id="Path_25567" data-name="Path 25567" d="M-3050.321,4721.212a.822.822,0,0,1,.242.051l.172.066v-.554a1.143,1.143,0,0,1,.153-.08.549.549,0,0,1,.23-.044.43.43,0,0,1,.266.076.286.286,0,0,1,.1.244c0,.025,0,.073,0,.142s-.007.146-.012.23l.484-.2a.594.594,0,0,1,.207.149.346.346,0,0,1,.09.244.249.249,0,0,1-.09.222,1.2,1.2,0,0,1-.246.12l-.2.08.39.5a.519.519,0,0,1-.164.243.421.421,0,0,1-.281.1.337.337,0,0,1-.258-.091,1.811,1.811,0,0,1-.172-.216l-.1-.153-.32.438a.712.712,0,0,1-.164.022.582.582,0,0,1-.355-.091.284.284,0,0,1-.121-.237.338.338,0,0,1,.039-.156.788.788,0,0,1,.117-.165l.164-.189-.515-.139a.858.858,0,0,1-.04-.247.34.34,0,0,1,.1-.263A.41.41,0,0,1-3050.321,4721.212Z" transform="translate(3070.444 -4720.651)"/>
            <path id="Path_25568" data-name="Path 25568" d="M-3040,4721.212a.821.821,0,0,1,.242.051l.172.066v-.554a1.213,1.213,0,0,1,.151-.08.553.553,0,0,1,.231-.044.428.428,0,0,1,.266.076.285.285,0,0,1,.1.244c0,.025,0,.073,0,.142s-.007.146-.012.23l.485-.2a.594.594,0,0,1,.206.149.346.346,0,0,1,.09.244.249.249,0,0,1-.09.222,1.17,1.17,0,0,1-.246.12l-.2.08.391.5a.521.521,0,0,1-.164.243.42.42,0,0,1-.281.1.338.338,0,0,1-.258-.091,1.763,1.763,0,0,1-.172-.216l-.1-.153-.32.438a.715.715,0,0,1-.164.022.585.585,0,0,1-.356-.091.284.284,0,0,1-.121-.237.341.341,0,0,1,.039-.156.8.8,0,0,1,.117-.165l.165-.189-.516-.139a.849.849,0,0,1-.039-.247.34.34,0,0,1,.1-.263A.41.41,0,0,1-3040,4721.212Z" transform="translate(3066.703 -4720.651)"/>
            <path id="Path_25569" data-name="Path 25569" d="M-3029.683,4721.212a.822.822,0,0,1,.242.051l.172.066v-.554a1.237,1.237,0,0,1,.153-.08.546.546,0,0,1,.23-.044.428.428,0,0,1,.266.076.285.285,0,0,1,.1.244c0,.025,0,.073,0,.142s-.006.146-.011.23l.485-.2a.6.6,0,0,1,.206.149.347.347,0,0,1,.09.244.25.25,0,0,1-.09.222,1.187,1.187,0,0,1-.245.12l-.2.08.39.5a.512.512,0,0,1-.164.243.418.418,0,0,1-.281.1.338.338,0,0,1-.258-.091,1.889,1.889,0,0,1-.172-.216l-.1-.153-.32.438a.716.716,0,0,1-.164.022.583.583,0,0,1-.356-.091.283.283,0,0,1-.121-.237.341.341,0,0,1,.039-.156.838.838,0,0,1,.117-.165l.164-.189-.515-.139a.85.85,0,0,1-.04-.247.339.339,0,0,1,.1-.263A.41.41,0,0,1-3029.683,4721.212Z" transform="translate(3062.961 -4720.651)"/>
          </g>
          <g id="Group_19551" data-name="Group 19551" transform="translate(29.078 75.036)">
            <path id="Path_25570" data-name="Path 25570" d="M-3079.028,4691.537a.97.97,0,0,1-.43.841,2.2,2.2,0,0,1-1.265.3,3.785,3.785,0,0,1-.6-.044,1.91,1.91,0,0,1-.465-.132.829.829,0,0,1-.3-.218.462.462,0,0,1-.109-.307.5.5,0,0,1,.07-.272.612.612,0,0,1,.18-.187,3,3,0,0,0,.515.22,2.132,2.132,0,0,0,.671.094q.556,0,.555-.291a.212.212,0,0,0-.1-.188,1.018,1.018,0,0,0-.332-.118l-.312-.065a2.136,2.136,0,0,1-.954-.383.889.889,0,0,1-.312-.725.941.941,0,0,1,.449-.82,2.135,2.135,0,0,1,1.207-.3,3.536,3.536,0,0,1,.532.04,1.819,1.819,0,0,1,.429.121.8.8,0,0,1,.285.2.408.408,0,0,1,.1.28.526.526,0,0,1-.062.259.558.558,0,0,1-.164.186,1.074,1.074,0,0,0-.184-.08c-.081-.029-.167-.055-.261-.081a2.619,2.619,0,0,0-.3-.059,2.241,2.241,0,0,0-.289-.021,1.063,1.063,0,0,0-.426.068.224.224,0,0,0-.151.208.181.181,0,0,0,.085.16,1,1,0,0,0,.313.11l.3.065a2.167,2.167,0,0,1,1.016.423A.921.921,0,0,1-3079.028,4691.537Z" transform="translate(3082.216 -4688.135)" fill="#fff"/>
            <path id="Path_25571" data-name="Path 25571" d="M-3072.147,4688.955a3.273,3.273,0,0,1,.738.076,1.637,1.637,0,0,1,.567.237,1.1,1.1,0,0,1,.363.408,1.245,1.245,0,0,1,.129.582v1.647a.429.429,0,0,1-.106.3.984.984,0,0,1-.254.192,2,2,0,0,1-.594.21,3.918,3.918,0,0,1-.8.074,2.469,2.469,0,0,1-1.281-.288.955.955,0,0,1-.477-.877.934.934,0,0,1,.321-.766,1.83,1.83,0,0,1,.984-.327l1.039-.1v-.08a.364.364,0,0,0-.2-.343,1.262,1.262,0,0,0-.586-.109,2.633,2.633,0,0,0-.582.064,3.906,3.906,0,0,0-.512.154.478.478,0,0,1-.16-.179.524.524,0,0,1-.066-.258.479.479,0,0,1,.359-.459,2.69,2.69,0,0,1,.527-.12A4.61,4.61,0,0,1-3072.147,4688.955Zm.047,2.907a1.756,1.756,0,0,0,.34-.034.829.829,0,0,0,.254-.083v-.671l-.641.051a1.034,1.034,0,0,0-.4.1.272.272,0,0,0-.152.252.324.324,0,0,0,.141.277A.8.8,0,0,0-3072.1,4691.862Z" transform="translate(3079.186 -4688.14)" fill="#fff"/>
            <path id="Path_25572" data-name="Path 25572" d="M-3062.278,4689.953a.71.71,0,0,0-.438-.124,1.284,1.284,0,0,0-.344.044,1.638,1.638,0,0,0-.289.109v2.578a1.553,1.553,0,0,1-.219.042,2.627,2.627,0,0,1-.312.018.928.928,0,0,1-.508-.106.461.461,0,0,1-.156-.411v-2.251a.5.5,0,0,1,.085-.306.944.944,0,0,1,.242-.219,2.1,2.1,0,0,1,.644-.269,3.465,3.465,0,0,1,.872-.1,2.16,2.16,0,0,1,1.316.35,1.172,1.172,0,0,1,.464,1v2.258a1.841,1.841,0,0,1-.226.042,2.634,2.634,0,0,1-.313.018.909.909,0,0,1-.5-.106.468.468,0,0,1-.152-.411v-1.771A.443.443,0,0,0-3062.278,4689.953Z" transform="translate(3075.808 -4688.14)" fill="#fff"/>
            <path id="Path_25573" data-name="Path 25573" d="M-3053.676,4691.241a.707.707,0,0,0,.39.091,1.458,1.458,0,0,0,.25-.024,1.418,1.418,0,0,0,.226-.062.668.668,0,0,1,.117.167.49.49,0,0,1,.046.219.5.5,0,0,1-.215.418,1.271,1.271,0,0,1-.746.165,1.649,1.649,0,0,1-1.023-.281,1.075,1.075,0,0,1-.368-.915v-3.271c.057-.015.133-.03.227-.047a1.7,1.7,0,0,1,.3-.025.848.848,0,0,1,.5.112.485.485,0,0,1,.152.412v.473h1.078a1.353,1.353,0,0,1,.079.185.749.749,0,0,1,.039.238.437.437,0,0,1-.114.336.427.427,0,0,1-.293.1h-.789v1.413A.326.326,0,0,0-3053.676,4691.241Z" transform="translate(3072.347 -4687.676)" fill="#fff"/>
            <path id="Path_25574" data-name="Path 25574" d="M-3046.349,4688.955a3.278,3.278,0,0,1,.738.076,1.635,1.635,0,0,1,.566.237,1.1,1.1,0,0,1,.364.408,1.248,1.248,0,0,1,.129.582v1.647a.43.43,0,0,1-.106.3.986.986,0,0,1-.254.192,2,2,0,0,1-.593.21,3.925,3.925,0,0,1-.8.074,2.473,2.473,0,0,1-1.282-.288.954.954,0,0,1-.476-.877.933.933,0,0,1,.32-.766,1.836,1.836,0,0,1,.985-.327l1.039-.1v-.08a.364.364,0,0,0-.2-.343,1.264,1.264,0,0,0-.586-.109,2.627,2.627,0,0,0-.582.064,3.888,3.888,0,0,0-.512.154.47.47,0,0,1-.16-.179.522.522,0,0,1-.066-.258.479.479,0,0,1,.359-.459,2.673,2.673,0,0,1,.527-.12A4.608,4.608,0,0,1-3046.349,4688.955Zm.047,2.907a1.764,1.764,0,0,0,.34-.034.82.82,0,0,0,.254-.083v-.671l-.64.051a1.032,1.032,0,0,0-.4.1.271.271,0,0,0-.152.252.324.324,0,0,0,.141.277A.8.8,0,0,0-3046.3,4691.862Z" transform="translate(3069.832 -4688.14)" fill="#fff"/>
            <path id="Path_25575" data-name="Path 25575" d="M-3037.551,4692.564a1.6,1.6,0,0,1-.219.041,2.518,2.518,0,0,1-.312.018.933.933,0,0,1-.508-.105.462.462,0,0,1-.157-.411v-2.222a.573.573,0,0,1,.11-.35.964.964,0,0,1,.3-.254,2.321,2.321,0,0,1,.621-.23,3.393,3.393,0,0,1,.762-.083c.542,0,.813.168.813.51a.64.64,0,0,1-.039.226.966.966,0,0,1-.087.174,2.226,2.226,0,0,0-.437-.036,2.075,2.075,0,0,0-.453.051,1.665,1.665,0,0,0-.4.138Z" transform="translate(3066.455 -4688.144)" fill="#fff"/>
            <path id="Path_25576" data-name="Path 25576" d="M-3030.086,4688.955a3.274,3.274,0,0,1,.738.076,1.632,1.632,0,0,1,.567.237,1.1,1.1,0,0,1,.363.408,1.242,1.242,0,0,1,.129.582v1.647a.432.432,0,0,1-.105.3,1,1,0,0,1-.254.192,2,2,0,0,1-.594.21,3.923,3.923,0,0,1-.8.074,2.468,2.468,0,0,1-1.281-.288.955.955,0,0,1-.477-.877.934.934,0,0,1,.321-.766,1.834,1.834,0,0,1,.984-.327l1.039-.1v-.08a.364.364,0,0,0-.2-.343,1.268,1.268,0,0,0-.587-.109,2.63,2.63,0,0,0-.582.064,3.922,3.922,0,0,0-.512.154.478.478,0,0,1-.16-.179.519.519,0,0,1-.066-.258.479.479,0,0,1,.36-.459,2.675,2.675,0,0,1,.527-.12A4.6,4.6,0,0,1-3030.086,4688.955Zm.047,2.907a1.761,1.761,0,0,0,.34-.034.827.827,0,0,0,.254-.083v-.671l-.641.051a1.035,1.035,0,0,0-.4.1.273.273,0,0,0-.152.252.324.324,0,0,0,.141.277A.8.8,0,0,0-3030.039,4691.862Z" transform="translate(3063.935 -4688.14)" fill="#fff"/>
          </g>
        </g>
        <g id="Group_19554" data-name="Group 19554" transform="translate(-3059.74 4526.125)">
          <g id="Group_19553" data-name="Group 19553">
            <path id="Path_25577" data-name="Path 25577" d="M-2921.625,4534.931l-.017-.372-.368-.07c-2.446-.461-5.488-1.237-6.363-1.463a80.974,80.974,0,0,1-9.051-2.828l-.182-.073-.179.073a80.984,80.984,0,0,1-9.053,2.828c-.875.226-3.917,1-6.366,1.466l-.365.067-.021.372c-.056,1.106-.174,2.3-.3,3.56-.887,8.912-2.1,21.119,16.025,32.816l.258.165.257-.165c18.125-11.7,16.913-23.9,16.026-32.816C-2921.45,4537.23-2921.567,4536.038-2921.625,4534.931Z" transform="translate(2956.559 -4527.576)" fill="#c64255"/>
            <path id="Path_25578" data-name="Path 25578" d="M-2920.361,4536.793a35.357,35.357,0,0,1-.292-5.566l.011-.189h-.19c-1.934,0-14.172-2.963-17.973-4.875l-.079-.037-.083.037c-3.8,1.912-16.033,4.875-17.969,4.875h-.191l.013.189a35.815,35.815,0,0,1-.291,5.566c-.915,9.187-2.291,23.067,18.428,35.721l.094.059.093-.059C-2918.073,4559.86-2919.45,4545.979-2920.361,4536.793Zm-18.268,32.93-.255.163-.255-.163c-18.009-11.622-16.805-23.75-15.923-32.606.123-1.253.242-2.439.3-3.535l.02-.371.363-.066c2.434-.462,5.454-1.233,6.326-1.458a80.186,80.186,0,0,0,8.994-2.81l.179-.072.181.072a80.178,80.178,0,0,0,8.992,2.81c.87.225,3.893,1,6.325,1.454l.364.07.018.368c.055,1.1.173,2.285.3,3.538C-2921.825,4545.974-2920.619,4558.1-2938.629,4569.723Z" transform="translate(2957.836 -4526.125)" fill="#912c3f"/>
          </g>
          <path id="Path_25579" data-name="Path 25579" d="M-2922.844,4548.661h0a2.307,2.307,0,0,0-3.255,0l-9.389,9.39-3.53-3.529a2.357,2.357,0,0,0-3.256,0,2.3,2.3,0,0,0,0,3.254l5.146,5.147a2.272,2.272,0,0,0,1.607.674h.044a2.288,2.288,0,0,0,1.628-.674l11.006-11.007A2.305,2.305,0,0,0-2922.844,4548.661Z" transform="translate(2952.438 -4534.052)" fill="#fff0c3"/>
        </g>
        <g id="Group_19557" data-name="Group 19557" transform="translate(-3238.885 4634.03)">
          <g id="Group_19556" data-name="Group 19556">
            <path id="Path_25580" data-name="Path 25580" d="M-3164.8,4723.974a6.858,6.858,0,0,0-.45-.771c-.057-.088-.114-.177-.178-.278l-.226-.3c-.166-.216-.329-.432-.5-.635l-1.467-1.835a45.677,45.677,0,0,1-2.731-3.806,23.127,23.127,0,0,1-2.115-4.151,18.337,18.337,0,0,1-.7-2.218c-.073-.316-.137-.636-.2-.957-.092-.447-.186-.909-.3-1.36a16.709,16.709,0,0,0-.742-2.291,19.58,19.58,0,0,0-1.077-2.146,17.609,17.609,0,0,0-2.922-3.77,15.424,15.424,0,0,0-3.854-2.755,12.355,12.355,0,0,0-2.205-.882,12.09,12.09,0,0,0-2.328-.376,8.759,8.759,0,0,0-1.208-.016c-.337.013-.7.045-1.158.094a10.037,10.037,0,0,0-2.277.612,6.03,6.03,0,0,0-3.482,3.273c-.033.112-.07.225-.105.338a3.316,3.316,0,0,0-.2.857l-.08.635v.6a9.367,9.367,0,0,0,.429,2.42,19.612,19.612,0,0,0,2.1,4.312q.315.514.634,1.027c.6.96,1.218,1.954,1.73,2.973l.189.789c.025.174.036.351.049.527.008.106.014.211.024.3,0,.178-.018.358-.031.534-.008.1-.016.209-.019.289l-.169.82-.271.8-.343.783-.4.76-1.339,2.251-.445.769-.421.789-.378.825-.313.864-.222.9-.1.876s0,.009,0,.016v.02h0l0,.069a5.736,5.736,0,0,0-.027.772,6.421,6.421,0,0,0,.1.862,5.931,5.931,0,0,0,.574,1.612,6.138,6.138,0,0,0,1,1.387l1.123,1.123a23.911,23.911,0,0,1,3.816,4.965,12.339,12.339,0,0,1,.676,1.406,10.624,10.624,0,0,1,.479,1.458,8.759,8.759,0,0,1,.229,1.511,7.108,7.108,0,0,1-.071,1.519,7.176,7.176,0,0,1-.375,1.459,8.369,8.369,0,0,1-.658,1.364,11.241,11.241,0,0,1-.868,1.242l-.5.576-.549.557a.455.455,0,0,0-.058.078,16.7,16.7,0,0,0-1.377,2.831,9.039,9.039,0,0,0-.584,3.179,8.386,8.386,0,0,0,.166,1.624c.017.091.037.183.062.274l.216.749c.054.177.107.349.169.527a11.282,11.282,0,0,0,1.579,2.819,12.026,12.026,0,0,0,2.314,2.179,14.872,14.872,0,0,0,2.742,1.514,22.368,22.368,0,0,0,5.955,1.508,23.461,23.461,0,0,0,2.433.22c0,.4,0,.78,0,1.141v2.5c0,.959,0,1.833,0,2.637l-.072,4.248.816.123-.087-4.354c.016-.8.03-1.68.044-2.642l.039-2.5c.007-.348.014-.738.017-1.142.191,0,.384,0,.568-.011a12.784,12.784,0,0,0,2.363-.317,9.39,9.39,0,0,0,2.866-1.185,7.4,7.4,0,0,0,2.258-2.182,7.947,7.947,0,0,0,1.175-2.943,12.244,12.244,0,0,0,.136-3.164,15.667,15.667,0,0,0-.581-3.1,18.616,18.616,0,0,0-1.108-2.923,13.6,13.6,0,0,1-.509-3.237c.043-.5.077-1,.11-1.508.06-.873.12-1.775.235-2.655a10.526,10.526,0,0,1,1.2-3.917c.193-.527.388-1.052.582-1.574.352-.944.7-1.888,1.038-2.84a19.068,19.068,0,0,0,1.057-4.636A8.638,8.638,0,0,0-3164.8,4723.974Zm-15.206-21.46c.013-.081.026-.162.041-.24a6.551,6.551,0,0,0,.092-.705l.014-.181c.016-.177.032-.352.033-.527l0-.69a3.3,3.3,0,0,0-.038-.5c-.008-.072-.015-.14-.025-.236-.021-.18-.046-.369-.085-.552.4.317.8.649,1.169,1.008a17.181,17.181,0,0,1,2.831,3.631,19.1,19.1,0,0,1,1.047,2.073,16.133,16.133,0,0,1,.729,2.2c.115.438.211.889.3,1.331.067.323.137.65.216.98.11.428.224.828.345,1.206a.161.161,0,0,0-.032.068,7.3,7.3,0,0,1-.29,1.021c-.113.325-.256.72-.429,1.165-.148.381-.328.8-.521,1.243l-.1.242c-.255.587-.526,1.165-.8,1.721l-.091.184c-.278.551-.565,1.118-.892,1.689a16.138,16.138,0,0,1-1.185,1.882,5.967,5.967,0,0,1-.719.82,2.423,2.423,0,0,1-.39.285l-.075.036a.674.674,0,0,1-.109.042.332.332,0,0,0-.045.014l-1.166-5.2c-.189-.756-.4-1.5-.595-2.225-.1-.36-.2-.713-.295-1.072l-.437-1.58c-.095-.338-.205-.667-.315-.994-.059-.176-.117-.35-.174-.524l-.538-1.619c.224-.324.442-.664.656-1.038.237-.4.454-.813.652-1.222a13.456,13.456,0,0,0,.546-1.274c.151-.393.293-.825.436-1.336l.159-.668C-3180.057,4702.815-3180.033,4702.664-3180.006,4702.513Zm-6.823-6.437a11.569,11.569,0,0,1,2.2.344,12.027,12.027,0,0,1,2.1.835,14.85,14.85,0,0,1,2.018,1.221l.041.363a4.269,4.269,0,0,1,.036.645,2.612,2.612,0,0,0,.007.273,2.7,2.7,0,0,1,0,.391l-.046.673a3.457,3.457,0,0,1-.051.381c-.014.092-.028.184-.041.277a5.7,5.7,0,0,1-.11.642c-.021.08-.038.158-.054.238-.027.136-.055.272-.094.406l-.18.638-.213.64c-.051.163-.112.321-.174.479l-.052.139c-.079.208-.164.409-.251.611l-.06.144c-.064.157-.131.311-.205.465-.3.645-.591,1.209-.888,1.713l-.112-.339-.356-.916c-.561-1.438-1.088-2.8-1.663-3.966l-.344-.75-.634-1.232c-.1-.18-.192-.356-.282-.53-.211-.4-.41-.777-.629-1.11-.108-.169-.208-.333-.3-.491-.172-.284-.338-.551-.505-.787l-.265-.372c-.142-.2-.269-.378-.39-.538l-.366-.446A9.9,9.9,0,0,1-3186.83,4696.076Zm-7.415,7.973a8.76,8.76,0,0,1-.405-2.222l-.006-.566.075-.573a2.761,2.761,0,0,1,.164-.713c.04-.116.078-.235.1-.332a5.421,5.421,0,0,1,3.115-2.907,8.545,8.545,0,0,1,1.892-.534l.581.686c.111.151.234.324.37.521l.261.374c.156.222.313.482.478.761.1.162.2.328.3.5a12.214,12.214,0,0,1,.6,1.071q.136.267.279.538l.48.923.469,1.043c.555,1.157,1.065,2.5,1.606,3.929l.345.911.189.583-.327,0a4.043,4.043,0,0,1-.454-.022c-.09-.01-.18-.016-.268-.019a6.977,6.977,0,0,1-.721-.086l-.245-.034a4.47,4.47,0,0,1-.481-.081l-.724-.143-.728-.182c-.2-.044-.392-.1-.585-.16l-.327-.094c-.17-.047-.34-.1-.512-.155-.519-.166-.983-.322-1.415-.479-.47-.171-.939-.345-1.4-.531-.871-.354-1.641-.693-2.351-1.035C-3194.02,4704.7-3194.14,4704.378-3194.245,4704.049Zm2.677,5.165c-.213-.34-.426-.68-.634-1.02a25.481,25.481,0,0,1-1.413-2.569c.584.293,1.208.587,1.9.9,1.124.49,2,.836,2.819,1.114.174.066.35.122.528.176l.33.106c.2.064.4.127.6.177l.735.2.735.166c.17.041.343.07.516.1l.24.04a6.828,6.828,0,0,0,.769.107c.087.006.174.017.258.026.171.019.34.036.507.039l.57.011.5,1.538c.054.177.112.354.171.534.1.318.208.641.3.968l.418,1.578c.1.4.213.8.32,1.205.183.683.368,1.374.541,2.071l1.075,4.966a8.842,8.842,0,0,1-1.553-.453c-.224-.077-.448-.179-.664-.274-.126-.056-.25-.112-.366-.159l-.994-.493c-.573-.3-1.174-.644-1.835-1.041-.507-.306-1.032-.638-1.6-1.012-1.415-.937-2.459-1.711-2.931-2.067l.044-.126.021-.092c.055-.267.112-.535.166-.822,0-.1.012-.2.021-.3.014-.206.031-.412.033-.638-.007-.1-.016-.2-.023-.307-.016-.207-.03-.41-.062-.631l-.22-.907a.217.217,0,0,0-.021-.047C-3190.314,4711.209-3190.952,4710.193-3191.568,4709.213Zm-2.223,17.811a5.461,5.461,0,0,1-.095-.734,4.66,4.66,0,0,1,.013-.577l.1-1.008.2-.814.286-.8.351-.775.4-.762,1.335-2.26.439-.771.412-.795q.12-.268.237-.54l.126-.291c.04-.116.077-.23.117-.346.5.4,1.485,1.171,2.788,2.091.56.389,1.082.739,1.593,1.071.554.357,1.174.727,1.848,1.1l1.008.528c.123.056.243.112.363.17.226.106.46.217.7.309a8.976,8.976,0,0,0,1.92.568c.043.234.087.468.125.7.038.217.074.433.11.646l.634,3.714c.166.867.279,1.771.387,2.643.047.375.093.751.145,1.125l.494,3.86-.263-.047c-.245-.05-.486-.114-.727-.179l-.414-.107c-.276-.062-.554-.155-.822-.244l-.3-.1c-.415-.13-.762-.248-1.112-.388l-.394-.149c-.238-.089-.478-.179-.712-.276l-1.1-.466c-.236-.1-.465-.207-.7-.317-.128-.059-.256-.12-.385-.178-.359-.165-.718-.334-1.073-.515-.732-.356-1.451-.73-2.123-1.085-.748-.4-1.42-.77-2.091-1.162-1.368-.783-2.564-1.511-3.655-2.219A5.239,5.239,0,0,1-3193.79,4727.024Zm6.465,8.842c-.229-.421-.494-.851-.861-1.4-.3-.442-.623-.881-.965-1.31a31.286,31.286,0,0,0-2.14-2.421l-1.127-1.118a5.212,5.212,0,0,1-.869-1.2c-.016-.027-.026-.058-.04-.084.948.626,1.981,1.275,3.132,1.968.659.4,1.3.766,2.083,1.209.687.38,1.4.772,2.119,1.136.358.19.718.366,1.083.542.126.058.251.12.378.183.235.114.47.227.71.332l1.1.486c.238.1.481.2.724.294l.39.156c.365.153.73.279,1.139.417l.3.1c.278.1.565.194.857.268.136.035.269.074.405.113.252.073.5.145.765.2l.492.1.02.153.756,8.557.223,3.963c-.085-.027-.171-.054-.256-.086l-.264-.089c-.15-.047-.293-.108-.44-.171-.083-.036-.167-.071-.251-.1-.2-.08-.418-.178-.681-.306-.081-.037-.161-.078-.242-.113-.146-.069-.295-.139-.44-.219l-.672-.352-.326-.188c-.336-.187-.669-.375-1-.575-.839-.5-1.68-1.042-2.578-1.66-.841-.578-1.579-1.115-2.254-1.631a7.1,7.1,0,0,0,.14-.729,7.888,7.888,0,0,0,.08-1.685,9.771,9.771,0,0,0-.252-1.668,11.674,11.674,0,0,0-.519-1.578A13.494,13.494,0,0,0-3187.325,4735.866Zm11.25,27.375c.014.329.022.654.028.973a22.356,22.356,0,0,1-2.343-.237,26.2,26.2,0,0,1-2.944-.563,19.658,19.658,0,0,1-2.827-.956,14.23,14.23,0,0,1-2.591-1.462,11.279,11.279,0,0,1-2.139-2.049,10.417,10.417,0,0,1-1.421-2.59c-.049-.144-.093-.288-.139-.44-.027-.1-.059-.2-.09-.3l-.106-.344-.028-.124c-.016-.068-.028-.133-.041-.2.3.215.621.432.963.661.625.417,1.253.813,1.863,1.172.315.191.633.373.956.549l.284.158c.226.126.455.25.683.364l.985.5.994.456c.219.1.443.189.667.278.116.045.235.091.355.14l.516.208.521.175c.121.04.243.083.363.125.228.077.455.156.687.218l1.059.282c.233.061.472.1.709.145.125.022.248.046.376.072l.188.033c.12.023.24.047.366.063l.551.051c.122.009.241.021.363.037a5.014,5.014,0,0,0,.7.041h.042l.367-.007Zm-.1-3.337-.368.016a3.633,3.633,0,0,1-.669-.018c-.125-.013-.249-.023-.368-.028l-.529-.039c-.11-.014-.22-.031-.333-.052l-.185-.027c-.124-.027-.252-.047-.378-.068-.224-.034-.448-.071-.667-.121l-1.044-.259c-.221-.053-.437-.126-.655-.194-.123-.043-.248-.083-.368-.118l-.507-.162-.505-.192c-.121-.046-.241-.093-.364-.136-.215-.083-.428-.163-.641-.256l-.991-.429-.986-.469c-.226-.1-.445-.219-.667-.334l-.3-.159c-.32-.159-.637-.334-.953-.514-.611-.338-1.24-.713-1.87-1.112-.467-.294-.89-.573-1.285-.848a7.492,7.492,0,0,1-.073-.94,8.271,8.271,0,0,1,.533-2.89,15.9,15.9,0,0,1,1.289-2.655l.528-.54.534-.608a12.166,12.166,0,0,0,.94-1.343,8.644,8.644,0,0,0,.718-1.5c.06-.158.11-.317.16-.475.634.508,1.325,1.036,2.108,1.607.889.646,1.724,1.217,2.559,1.744.355.232.725.452,1.084.662l.92.516c.15.09.3.166.459.241l.234.115c.271.142.5.251.711.338.082.034.164.07.243.107.158.073.314.143.477.2l.261.092c.155.06.314.119.481.17l.022.006.246,4.383Zm-.735-24.754-.546-4.031c-.054-.367-.1-.739-.15-1.106-.117-.887-.236-1.8-.412-2.689l-.659-3.713c-.038-.213-.075-.424-.112-.636q-.048-.264-.1-.533a1.459,1.459,0,0,0,.412-.137,2.962,2.962,0,0,0,.556-.375,6.679,6.679,0,0,0,.845-.9,15.7,15.7,0,0,0,1.288-1.957c.411-.748.72-1.363.974-1.937s.514-1.187.75-1.8c.223-.568.4-1.1.542-1.553s.259-.863.344-1.227c.046-.182.079-.344.106-.487.04.109.078.215.121.321a23.668,23.668,0,0,0,2.188,4.233,46.561,46.561,0,0,0,2.783,3.83l.2.244-.136,1.134a4.755,4.755,0,0,1-.151.8q-.038.143-.071.285l-.06.263a5.209,5.209,0,0,1-.235.811l-.133.384c-.078.225-.156.453-.24.667l-.47,1.033a5.153,5.153,0,0,1-.321.625c-.066.118-.134.234-.192.35l-.267.481-.3.471c-.077.11-.15.226-.222.339-.125.2-.254.4-.4.586l-.655.9-.706.871c-.138.172-.286.338-.434.5-.1.11-.2.223-.3.337-.181.215-.373.417-.568.619l-.185.192c-.489.512-1.01,1.019-1.595,1.55C-3175.827,4734.262-3176.359,4734.725-3176.912,4735.15Zm9.991,16.931a15.267,15.267,0,0,1,.538,3.015,11.75,11.75,0,0,1-.156,3.025,7.458,7.458,0,0,1-1.12,2.739,6.86,6.86,0,0,1-2.111,2,8.932,8.932,0,0,1-2.711,1.087,12.193,12.193,0,0,1-2.114.275h0c-.222.011-.45.011-.679.011,0-.329,0-.665-.012-1.006l-.042-2.576a.107.107,0,0,0,.03,0c.033-.01.076-.022.084-.027.039-.016.071-.031.126-.057s.133-.072.194-.109c.12-.073.237-.146.35-.224.226-.15.444-.308.66-.47.41-.308.82-.636,1.258-1.005a27.444,27.444,0,0,0,2.319-2.23,17.188,17.188,0,0,0,2-2.556,8.592,8.592,0,0,0,.757-1.476,4.458,4.458,0,0,0,.308-1.437C-3167.126,4751.391-3167.017,4751.735-3166.921,4752.081Zm-1.234-10.5c-.117.893-.177,1.8-.232,2.682-.033.5-.066,1-.11,1.519a13.88,13.88,0,0,0,.516,3.424c.219.467.418.947.6,1.444a.143.143,0,0,0-.058-.014.216.216,0,0,0-.183.189,3.693,3.693,0,0,1-.4,1.453,9.162,9.162,0,0,1-.793,1.328,20.558,20.558,0,0,1-2.03,2.377c-.772.772-1.546,1.489-2.3,2.131-.43.372-.826.7-1.207.991-.205.16-.411.319-.622.464-.1.075-.205.145-.306.206l-.051.031-.051-3.239c-.014-.966-.03-1.962-.07-2.975l-.237-4.162a1.9,1.9,0,0,0,.871-.374l.062-.044a7.729,7.729,0,0,0,.757-.646c.507-.489.969-1.015,1.314-1.421.8-.946,1.583-1.977,2.327-3.054.768-1.109,1.48-2.256,2.073-3.231.146-.248.3-.5.451-.773A13.766,13.766,0,0,0-3168.155,4741.578Zm3.84-12.943a18.693,18.693,0,0,1-1.022,4.524c-.335.95-.682,1.892-1.031,2.833-.126.345-.251.687-.377,1.029a.157.157,0,0,0-.056.051c-.653,1.058-1.349,2.134-2.07,3.2-.724,1.1-1.516,2.225-2.152,3.124l-.059.083c-.707.983-1.437,2-2.2,2.951-.324.4-.754.918-1.226,1.4a6.544,6.544,0,0,1-.669.6,1.669,1.669,0,0,1-.563.309l-.243-4.247-.827-8.525a.329.329,0,0,0,.1-.05c.654-.464,1.246-.956,1.789-1.423.67-.589,1.2-1.082,1.662-1.56l.185-.189c.205-.21.412-.419.6-.641.077-.087.156-.174.237-.26.174-.192.355-.391.518-.6l.718-.9.661-.929c.149-.205.281-.428.409-.639.068-.115.136-.228.21-.342l.3-.5.267-.513c.058-.121.122-.24.183-.356a6.022,6.022,0,0,0,.328-.686l.438-1.08c.08-.238.152-.481.224-.726l.111-.376a6.5,6.5,0,0,0,.228-.983l.031-.171c.015-.1.032-.191.049-.288a5,5,0,0,0,.1-.875l.038-.725.917,1.135c.169.2.327.406.487.614l.222.287c.057.089.115.177.173.267a6.494,6.494,0,0,1,.426.727A8.138,8.138,0,0,1-3164.314,4728.635Z" transform="translate(3223.084 -4695.41)" fill="#578e85"/>
            <path id="Path_25581" data-name="Path 25581" d="M-3235.562,4721.934a23.1,23.1,0,0,1,12.935-1.587c-1.3-1.765-2.548-3.372-3.706-4.819-5.924,1.014-10.063-.808-12.552-.79a23.3,23.3,0,0,1,11.454-.563c-1.178-1.433-2.236-2.667-3.13-3.684-4.605-1.765-5.669-5.631-7.174-6.829a11.073,11.073,0,0,1,8.107,7.075q1.574,1.655,3.044,3.292a19.994,19.994,0,0,1,4.469-9.41c-.865,2-.8,5.97-3.618,10.37q2.085,2.371,3.954,4.7a20.359,20.359,0,0,1,6.6-10.733c-1.36,2.181-1.934,6.907-5.984,11.51q2.211,2.8,4.129,5.54a26.011,26.011,0,0,1,8.294-13.2c-1.715,2.69-2.521,8.476-7.617,14.183q2.206,3.218,4.036,6.333a30.456,30.456,0,0,1,9.64-15.151c-2,3.119-2.981,9.794-8.9,16.417,1.393,2.443,2.619,4.827,3.7,7.149a.627.627,0,0,0-.195-.545,31.64,31.64,0,0,1,12.847-14.362c-2.647,2.9-4.834,9.813-12.326,15.618a88.606,88.606,0,0,1,3.379,8.539,42.3,42.3,0,0,1,14.739-15.192c-3.046,3.107-5.973,10.015-14.312,16.5a77.468,77.468,0,0,1,2.391,9.545,41.443,41.443,0,0,1,14.343-12.354c-2.974,2.544-6.213,8.269-14.136,13.541a67.138,67.138,0,0,1,.878,8.59,42.687,42.687,0,0,1,12.435-9.023c-2.595,1.887-5.722,5.96-12.381,9.957a.65.65,0,0,1,.037.187.364.364,0,0,0-.061,0,51.541,51.541,0,0,1-.38,7.491l-.212-.032a63.725,63.725,0,0,0-.083-7.462c-5.811-.079-9.783-3.523-12.249-4.055,5.5-1.157,9.615,1.095,12.137,2.65a72.354,72.354,0,0,0-1.187-8.045c-8.67.409-14.341-2.867-17.951-3.247a30.572,30.572,0,0,1,17.679,1.963,85.283,85.283,0,0,0-2.573-9.123c-8.614,1.078-14.549-1.72-18.192-1.8a30.782,30.782,0,0,1,17.716.437c-1.009-2.806-2.132-5.53-3.339-8.161-8.573,1.994-14.819-.248-18.483.025a30.876,30.876,0,0,1,17.913-1.24c-1.13-2.381-2.321-4.678-3.545-6.879-7.924,2.065-13.85.236-17.289.637a29.367,29.367,0,0,1,16.522-2c-1.252-2.184-2.531-4.27-3.807-6.24-6.931,1.894-12.113.287-15.1.634a25.245,25.245,0,0,1,14.428-1.66c-1.22-1.852-2.433-3.6-3.611-5.222C-3228.137,4723.061-3232.839,4721.615-3235.562,4721.934Z" transform="translate(3238.885 -4698.402)" fill="#73ada3"/>
            <path id="Path_25582" data-name="Path 25582" d="M-3135.363,4765.157a26.944,26.944,0,0,0,.939-3.638,26.524,26.524,0,0,0,.432-3.737c.046-1.25.017-2.509-.008-3.724l-.1-4.179c-.016-1.049-.035-2.139.027-3.2a17.141,17.141,0,0,1,.532-3.58,14.077,14.077,0,0,1,1.409-3.316,23.728,23.728,0,0,1,2-2.89l.05-.007-.02-.034c.017-.023.034-.043.052-.065a.348.348,0,0,0,.073-.262.348.348,0,0,0-.132-.229.35.35,0,0,0-.263-.067.777.777,0,0,1-.077.011l-.022-.038-.038.046a64.8,64.8,0,0,0-7.635,1.647c-1.356.383-2.594.783-3.788,1.22-1.154.415-2.3.918-3.4,1.4l-.278.122-1.786.881c-.382.206-.757.419-1.131.631l-.608.345a36.856,36.856,0,0,0-3.32,2.209,32.75,32.75,0,0,0-3.043,2.577,31.153,31.153,0,0,0-2.689,2.944c-.306.386-.6.788-.877,1.177l-.308.425c-.127.208-.255.405-.382.6-.23.355-.469.723-.675,1.1-.086.154-.169.306-.254.459a14.527,14.527,0,0,0-.674,1.312l-.423.892-.366.935c-.183.418-.323.866-.461,1.294-.061.2-.123.394-.189.587l-.071.266c-.149.544-.3,1.107-.415,1.673a24.5,24.5,0,0,0-.485,3.952,22.621,22.621,0,0,0,.222,3.982,19.939,19.939,0,0,0,.992,3.859,15.9,15.9,0,0,0,1.882,3.517,11.847,11.847,0,0,0,1.968,2.134c-.161.737-.317,1.486-.462,2.271-.172.767-.278,1.543-.384,2.3-.047.353-.1.7-.153,1.05-.17,1.02-.253,2.032-.335,3.012l-.15,1.776c-.023.334-.034.667-.042,1-.006.175-.012.349-.019.522-.01.352-.022.692-.035,1.033q.486-.062.972-.115c.014-.291.03-.578.042-.873.01-.172.017-.349.024-.527.016-.316.028-.638.057-.958l.226-2.252c.077-.8.157-1.631.295-2.462.053-.35.1-.7.153-1.058.1-.735.205-1.5.372-2.243.107-.592.227-1.183.352-1.775a8.918,8.918,0,0,0,3.428,1.394c.139.023.276.046.417.064a10.4,10.4,0,0,0,3.332-.115,16.253,16.253,0,0,0,6.741-3.167A25.951,25.951,0,0,0-3135.363,4765.157Zm-7.33,10.378a3.749,3.749,0,0,1-.259-.324c-.069-.1-.139-.192-.211-.282-.21-.272-.41-.516-.612-.743a10.9,10.9,0,0,0-1.408-1.338,9.956,9.956,0,0,0-1.64-1.055c-.318-.169-.643-.3-.889-.406-.356-.134-.65-.229-.934-.309a11.291,11.291,0,0,0-3.881-.35c-.289.014-.578.053-.861.089l-.107.014c-.205.022-.412.063-.613.1l-.344.063c-.211.042-.417.092-.62.141-.11.024-.219.051-.329.078l-.286.082c.008-.023.015-.048.025-.075.073-.2.147-.407.215-.612l.6-1.713.676-1.684c.247-.623.516-1.252.8-1.906l.966-.394c.077-.035.156-.065.233-.1a4.913,4.913,0,0,1,.8-.279l1.09-.305a4.873,4.873,0,0,1,.7-.136c.134-.018.268-.039.4-.062.079-.011.163-.028.245-.041a5.576,5.576,0,0,1,.849-.092l1.134-.05,1.114.063a6.362,6.362,0,0,1,.847.1c.089.015.173.029.263.039a8.248,8.248,0,0,1,1.092.213c.134.035.27.066.4.1a6.175,6.175,0,0,1,.683.186c.129.046.255.087.385.129.229.075.461.149.688.235l1.045.435.358.175c.219.1.436.21.65.325.111.064.231.132.353.195.207.115.421.231.624.365a14.589,14.589,0,0,1,1.4.973c-.136.308-.277.617-.43.917a25.405,25.405,0,0,1-1.825,3.164,23.438,23.438,0,0,1-2.242,2.886C-3141.9,4774.747-3142.287,4775.145-3142.692,4775.535Zm-15.026,3.226c.344-1.587.737-3.169,1.185-4.717l.509-1.726c.016-.059.036-.115.056-.176l.757-.244c.1-.025.213-.056.325-.087.191-.051.382-.105.576-.148.1-.021.207-.044.312-.067.2-.04.4-.085.6-.11l.114-.02c.267-.042.541-.084.812-.1a10.565,10.565,0,0,1,3.69.247,9.037,9.037,0,0,1,.888.268c.278.1.574.221.855.355a9.667,9.667,0,0,1,1.6.96,10.467,10.467,0,0,1,1.395,1.245c.207.214.407.448.622.708.079.089.145.177.213.265a3.543,3.543,0,0,0,.292.341q-.611.565-1.275,1.1a17.435,17.435,0,0,1-3.062,1.984,13.752,13.752,0,0,1-3.427,1.217,9.77,9.77,0,0,1-3.615.087,8.651,8.651,0,0,1-3.354-1.328C-3157.677,4778.791-3157.7,4778.777-3157.718,4778.761Zm-5.645-14.227c.069.216.143.434.235.645a10.386,10.386,0,0,0,.6,1.276,9.592,9.592,0,0,0,.595,1l.137.21c.074.1.144.192.213.283.21.281.429.575.673.843.157.184.309.359.476.525l.139.146c.117.118.237.244.369.355.328.3.684.6,1.086.914a14.014,14.014,0,0,0,1.189.791c.245.148.477.273.707.39-.011.038-.024.076-.037.111l-.53,1.732c-.415,1.358-.781,2.783-1.117,4.283a13.686,13.686,0,0,1-3.61-5.416,19.855,19.855,0,0,1-.959-3.793,22.407,22.407,0,0,1-.2-3.912C-3163.386,4764.786-3163.373,4764.664-3163.363,4764.534Zm3.055-7.718.256.791c.056.175.129.346.2.51.04.09.079.18.112.269a6.026,6.026,0,0,0,.368.771c.044.081.09.167.134.255.085.16.172.323.267.479l.443.707c.1.156.206.3.314.45.057.078.112.155.167.235a7.9,7.9,0,0,0,.491.625l.03.041a16.7,16.7,0,0,0,1.123,1.242,16.491,16.491,0,0,0,1.239,1.134c.161.137.333.271.5.4l.248.183.1.077.052.037c-.284.631-.549,1.238-.79,1.831l-.7,1.7-.627,1.732c-.073.209-.146.412-.222.616-.035.094-.069.189-.1.285-.177-.1-.359-.208-.551-.326-.4-.246-.785-.526-1.112-.766-.38-.289-.719-.569-1.041-.856-.1-.087-.189-.174-.284-.263-.07-.068-.14-.138-.211-.2-.161-.142-.311-.306-.455-.458-.258-.258-.475-.524-.685-.78q-.109-.135-.218-.267l-.395-.546c-.127-.163-.233-.33-.345-.5l-.031-.056c-.042-.069-.088-.141-.131-.21-.079-.119-.156-.241-.226-.368l-.325-.6c-.134-.236-.24-.476-.353-.732-.074-.173-.152-.348-.235-.516l0-.008a22.73,22.73,0,0,1,.419-2.683c.115-.552.272-1.107.425-1.646l.071-.253c.068-.189.133-.388.2-.585.137-.416.279-.849.459-1.255l.373-.915.423-.88c.085-.188.18-.373.276-.557l.021.212a5.175,5.175,0,0,0,.136.836c.017.077.033.159.051.239A4.887,4.887,0,0,0-3160.308,4756.816Zm5.967-8.728a9.917,9.917,0,0,0,.1,1.539,12.041,12.041,0,0,0,.8,2.976,15.4,15.4,0,0,0,1.423,2.731c.276.414.579.833.9,1.246.156.2.319.4.483.594l.323.388c-.557.926-1.081,1.836-1.56,2.683-.8,1.5-1.469,2.83-2.052,4.075l-.255-.2c-.16-.129-.32-.258-.475-.4-.367-.312-.741-.661-1.174-1.1-.312-.312-.716-.728-1.089-1.182l-.154-.186c-.123-.138-.244-.282-.355-.433-.06-.08-.118-.155-.18-.234-.1-.134-.211-.27-.307-.408l-.455-.669c-.094-.144-.182-.293-.266-.443l-.143-.249a7.56,7.56,0,0,1-.376-.7c-.042-.086-.086-.172-.132-.262a4.147,4.147,0,0,1-.213-.458l-.3-.756c-.057-.146-.1-.293-.146-.452-.03-.1-.061-.21-.1-.315a4.877,4.877,0,0,1-.195-.769l-.136-.67c.038-.067.074-.135.112-.2.085-.154.173-.307.259-.462.205-.363.44-.719.668-1.066.129-.192.259-.39.384-.588.121-.162.246-.331.371-.5.259-.351.527-.715.8-1.06a30.244,30.244,0,0,1,2.657-2.876c.279-.266.578-.518.869-.774a3.9,3.9,0,0,0-.049.414C-3154.324,4747.575-3154.338,4747.834-3154.341,4748.088Zm10.2-3.844a20.638,20.638,0,0,0,.587,3.972c-.2.233-.4.467-.6.708-.5.59-.983,1.2-1.488,1.852l-.533.679c-.212.295-.423.577-.633.862-.449.607-.919,1.237-1.351,1.9-.609.864-1.191,1.767-1.747,2.664l-.6-.774c-.3-.407-.586-.813-.839-1.211a18.424,18.424,0,0,1-1.418-2.577,12.6,12.6,0,0,1-.522-1.369,14.425,14.425,0,0,1-.379-1.417,12.18,12.18,0,0,1-.232-2.939v0c.576-.491,1.166-.971,1.776-1.422a36.378,36.378,0,0,1,3.277-2.155c.2-.114.409-.231.615-.346.366-.2.73-.409,1.1-.606l2.05-.985c.484-.209.979-.421,1.477-.629l-.164.4a3.767,3.767,0,0,0-.1.373c-.016.063-.031.125-.049.186a2.657,2.657,0,0,0-.078.391c-.01.058-.019.116-.031.174a4.064,4.064,0,0,0-.072.58c0,.063-.01.127-.014.192-.011.125-.02.25-.024.375C-3144.141,4743.421-3144.15,4743.832-3144.136,4744.244Zm12.664-7.137c-.475.325-1.172.822-2.054,1.5-.918.7-1.923,1.534-2.985,2.463-1.008.874-2.168,1.967-3.649,3.443-.9.933-1.843,1.934-2.794,3.01-.059-.362-.119-.738-.173-1.159-.035-.248-.062-.5-.092-.745l-.037-.341c-.049-.426-.081-.769-.1-1.082a14.574,14.574,0,0,1-.046-2.162c0-.056.006-.119.01-.179a2.01,2.01,0,0,1,.03-.348c.01-.069.021-.133.028-.2.015-.11.032-.22.052-.332l.126-.525.087-.223c.448-.183.9-.358,1.349-.518,1.184-.427,2.409-.818,3.749-1.189A62.56,62.56,0,0,1-3131.472,4737.107Zm-3.34,9.159a13.839,13.839,0,0,0-1.785.009,14.905,14.905,0,0,0-2.316.333c-.183.033-.365.084-.548.135-.09.022-.153.042-.219.056-.124.035-.25.065-.371.108l-.553.178c-.122.039-.243.086-.363.135-.064.025-.125.049-.187.07s-.129.053-.192.073c-.121.048-.243.1-.36.15l-.406.186c.833-.951,1.661-1.849,2.457-2.691,1.443-1.467,2.578-2.565,3.573-3.445,1.04-.933,2.024-1.76,2.93-2.472.442-.348.834-.646,1.18-.9-.274.4-.542.813-.785,1.245a14.61,14.61,0,0,0-1.5,3.473A17.316,17.316,0,0,0-3134.812,4746.267Zm.049,10.708a13.484,13.484,0,0,0-1.362-.68c-.284-.116-.617-.252-.959-.375-.122-.039-.234-.074-.347-.115-.208-.068-.422-.14-.639-.2-.119-.024-.234-.057-.351-.088-.211-.056-.43-.115-.653-.154-.119-.021-.237-.042-.354-.066-.221-.039-.439-.081-.659-.114l-1.025-.106c-.229-.017-.454-.02-.677-.02-.12,0-.24-.006-.361-.007a6.616,6.616,0,0,0-.881.03l-.158.011c-.107.011-.211.018-.317.023a4.758,4.758,0,0,0-.721.083l-1.01.169c-.226.042-.446.105-.658.164-.115.035-.232.067-.347.1l-.191.051a6.11,6.11,0,0,0-.81.259l-.958.366a3.11,3.11,0,0,0-.474.206c.39-.621.791-1.238,1.2-1.834.421-.653.877-1.279,1.318-1.882.21-.291.418-.575.621-.863.182-.232.366-.473.551-.712.485-.633.942-1.229,1.423-1.8.131-.164.265-.317.4-.479l.008,0a.349.349,0,0,0,.128-.007.5.5,0,0,0,.087-.032c.115-.066.224-.13.332-.2.213-.125.433-.256.658-.368l.509-.254c.106-.059.217-.1.325-.151.063-.023.126-.05.189-.079s.123-.051.186-.078c.108-.05.218-.1.328-.137l.538-.193c.115-.042.231-.081.346-.113.063-.02.129-.037.2-.061.193-.058.365-.11.538-.151a15.062,15.062,0,0,1,2.234-.424,13.086,13.086,0,0,1,1.721-.089c-.073,1.211-.063,2.456-.036,3.767l.095,3.739C-3134.76,4755.092-3134.751,4756.028-3134.763,4756.974Zm-.431,4.4a28.848,28.848,0,0,1-.9,3.54c-.245.7-.512,1.424-.816,2.144a16.267,16.267,0,0,0-1.331-.972c-.2-.14-.421-.267-.633-.389l-.347-.21c-.219-.122-.44-.238-.659-.349l-.362-.189-1.057-.472c-.235-.1-.47-.182-.7-.264-.128-.047-.255-.091-.382-.139a6.943,6.943,0,0,0-.732-.221c-.126-.033-.254-.064-.38-.1a8.628,8.628,0,0,0-1.135-.248c-.093-.014-.18-.03-.266-.045a6.3,6.3,0,0,0-.9-.119l-1.146-.088-1.166.03a5.623,5.623,0,0,0-.915.083l-.248.033c-.138.022-.271.038-.4.058a4.728,4.728,0,0,0-.757.128l-1.117.286a5.345,5.345,0,0,0-.869.283c-.079.032-.159.06-.24.092l-.273.1c.522-1.125,1.121-2.326,1.832-3.683.521-.941,1.1-1.96,1.713-2.989l.566-.3c.1-.05.205-.107.309-.166a3.8,3.8,0,0,1,.571-.276l.936-.38a5.26,5.26,0,0,1,.748-.259l.192-.055.345-.1c.2-.062.406-.124.611-.169l.985-.187a4.182,4.182,0,0,1,.669-.092c.109-.008.212-.02.321-.032l.153-.015a6.553,6.553,0,0,1,.83-.048c.125,0,.246,0,.366,0,.213,0,.428,0,.639.007l1.109.086c.174.023.347.05.521.077.12.021.24.038.363.055.208.032.42.082.625.131.119.026.237.056.357.08.2.045.412.108.614.17.115.035.233.069.35.1.332.1.663.23.942.337a12.265,12.265,0,0,1,1.5.71c0,.136,0,.272,0,.409-.029.568-.078,1.162-.146,1.814-.024.17-.047.34-.07.514C-3135.043,4760.511-3135.1,4760.949-3135.194,4761.374Z" transform="translate(3211.651 -4710.202)" fill="#87c9bc"/>
            <g id="Group_19555" data-name="Group 19555" transform="translate(25.724 73.358)">
              <path id="Path_25583" data-name="Path 25583" d="M-3193.326,4818.684l3.932,29.166a2.35,2.35,0,0,0,2.407,1.91h21.091a2.355,2.355,0,0,0,2.4-1.875l4.583-29.971a2.276,2.276,0,0,0-2.477-2.464l-29.6.8A2.262,2.262,0,0,0-3193.326,4818.684Z" transform="translate(3196.648 -4812.292)" fill="#c64255"/>
              <path id="Path_25584" data-name="Path 25584" d="M-3193.528,4814.527h33.717a1.188,1.188,0,0,1,1.172,1.2v2.321a1.187,1.187,0,0,1-1.171,1.2h-33.718a1.187,1.187,0,0,1-1.17-1.2v-2.323A1.186,1.186,0,0,1-3193.528,4814.527Z" transform="translate(3197.139 -4811.958)" fill="#912c3f"/>
              <path id="Path_25585" data-name="Path 25585" d="M-3158.473,4813.448h-38.982a1.088,1.088,0,0,1-1.073-1.1v-.755a1.089,1.089,0,0,1,1.074-1.1h38.981a1.087,1.087,0,0,1,1.073,1.1v.757A1.089,1.089,0,0,1-3158.473,4813.448Z" transform="translate(3198.528 -4810.496)" fill="#c64255"/>
            </g>
          </g>
        </g>
        <g id="Group_19573" data-name="Group 19573" transform="translate(-3118.754 4589.797)">
          <g id="Group_19558" data-name="Group 19558" transform="translate(59.085)">
            <path id="Path_25586" data-name="Path 25586" d="M-2942.931,4629.314l-.42.119a8.386,8.386,0,0,0-5.979,9.675c.765,4,1.683,8.4,2.3,10.49,1.266,4.327,5.794,3.786,5.794,3.786h0a7.9,7.9,0,0,0,8.556,5.106l-2.815.814c4.731-.8,5.506-4.208,4.852-7.166l-3.421-15.873C-2934.934,4631.655-2938.336,4628.335-2942.931,4629.314Z" transform="translate(2954.736 -4627.149)" fill="#fcd2bf"/>
            <path id="Path_25587" data-name="Path 25587" d="M-2941.338,4628.374c1.036-1.124,3.625-.454,4.82.846a7.227,7.227,0,0,1,1.632,4.7,23.3,23.3,0,0,1-1.19,9c-.086.255-.259.559-.524.521a.585.585,0,0,1-.379-.354,19.978,19.978,0,0,1-1.361-4.56,12.067,12.067,0,0,0-1.725-4.412,4.621,4.621,0,0,0-4.055-2.06,5.034,5.034,0,0,0-2.993,1.707c-.8.858-1.43,1.865-2.161,2.784a6.467,6.467,0,0,1-2.713,2.182,3.056,3.056,0,0,1-3.252-.612,2.062,2.062,0,0,1,.312-3.055,2.31,2.31,0,0,1-2.382-.939,2.311,2.311,0,0,1,.576-3.216c1.475-1,3.634-.095,5.206-.956.95-.522,1.462-1.577,2.207-2.37a5.063,5.063,0,0,1,4.433-1.507,4.238,4.238,0,0,1,3.574,2.309" transform="translate(2957.724 -4626.016)" fill="#263238"/>
            <path id="Path_25588" data-name="Path 25588" d="M-2935.591,4667.1a4.93,4.93,0,0,0,4.227-5.021,10.891,10.891,0,0,1-5.179,3.246Z" transform="translate(2950.044 -4639.093)" fill="#f8a48d"/>
            <path id="Path_25589" data-name="Path 25589" d="M-2945.728,4649.563a.613.613,0,0,1,.485-.719.641.641,0,0,1,.771.457l.006.026a.609.609,0,0,1-.487.709.64.64,0,0,1-.771-.458Z" transform="translate(2953.378 -4634.286)" fill="#263238"/>
            <path id="Path_25590" data-name="Path 25590" d="M-2936,4647.428a.612.612,0,0,1,.485-.718.64.64,0,0,1,.771.456l.006.027a.608.608,0,0,1-.486.709.641.641,0,0,1-.771-.457Z" transform="translate(2949.85 -4633.513)" fill="#263238"/>
            <path id="Path_25591" data-name="Path 25591" d="M-2940.291,4650.965a1.449,1.449,0,0,1-.3.043.442.442,0,0,1-.349-.175,1.041,1.041,0,0,1-.1-.69l.119-1.442a23.82,23.82,0,0,1,.472-3.7,20.55,20.55,0,0,1-.182,3.708c-.046.5-.094.98-.141,1.436a.934.934,0,0,0,.029.536c.064.111.235.1.408.066a4.42,4.42,0,0,1,1.139-.1A4.668,4.668,0,0,1-2940.291,4650.965Z" transform="translate(2951.682 -4632.9)" fill="#263238"/>
            <path id="Path_25592" data-name="Path 25592" d="M-2937.609,4640a2.763,2.763,0,0,1,2.362-.381c.3.1.459.238.436.333-.055.191-.749.151-1.559.278s-1.452.4-1.567.23C-2937.987,4640.388-2937.883,4640.2-2937.609,4640Z" transform="translate(2950.553 -4630.909)" fill="#263238"/>
            <path id="Path_25593" data-name="Path 25593" d="M-2947.223,4643.519a1.7,1.7,0,0,1,1.79-.559c.249.083.361.216.336.306-.061.19-.56.214-1.11.374s-.964.447-1.128.325C-2947.407,4643.907-2947.385,4643.733-2947.223,4643.519Z" transform="translate(2953.971 -4632.135)" fill="#263238"/>
            <path id="Path_25594" data-name="Path 25594" d="M-2923.414,4649.531a2.318,2.318,0,0,0,2.446-3.03c-.734-2.993-3.4-1.331-3.467-1.276C-2924.435,4645.225-2923.437,4649.446-2923.414,4649.531Z" transform="translate(2945.654 -4632.796)" fill="#fcd2bf"/>
            <path id="Path_25595" data-name="Path 25595" d="M-2921.868,4648.806a.57.57,0,0,0,.49-.031,1.4,1.4,0,0,0,.428-1.473,1.817,1.817,0,0,0-.385-.793.758.758,0,0,0-.635-.34.414.414,0,0,0-.268.15.331.331,0,0,0-.072.214c-.008.134.049.176.067.169s-.02-.062,0-.157a.266.266,0,0,1,.271-.217.614.614,0,0,1,.493.31,1.734,1.734,0,0,1,.328.71,1.331,1.331,0,0,1-.312,1.307.548.548,0,0,1-.392.088,1.142,1.142,0,0,1-.158-.043C-2922.017,4648.708-2921.987,4648.772-2921.868,4648.806Z" transform="translate(2944.884 -4633.323)" fill="#f8a48d"/>
            <path id="Path_25596" data-name="Path 25596" d="M-2951.075,4638.153a6.5,6.5,0,0,0,5.215-2.808c.806-1.188,1.267-2.705,2.472-3.478a3.651,3.651,0,0,1,2.8-.386,7.093,7.093,0,0,1,2.565,1.307c-.222,2.438,1.031,4.744,2.241,6.873a1.237,1.237,0,0,0,.537.589c.408.182.891-.188,1.108-.595a3.772,3.772,0,0,0,.266-2.157,12.7,12.7,0,0,0-1.375-4.8,8.618,8.618,0,0,0-3.455-3.556,8.177,8.177,0,0,0-6.1-.546,10.058,10.058,0,0,0-5.041,3.573,5.838,5.838,0,0,0-1.235,2.608Z" transform="translate(2955.317 -4626.824)" fill="#263238"/>
            <path id="Path_25597" data-name="Path 25597" d="M-2938.137,4656.245l1.35-.834a.779.779,0,0,1,.323-.126c.291-.014.462.3.521.574a1.491,1.491,0,0,1-.064.915.935.935,0,0,1-.7.551,1.05,1.05,0,0,1-.8-.3,3.041,3.041,0,0,1-.52-.7" transform="translate(2950.622 -4636.628)" fill="#fff"/>
            <path id="Path_25598" data-name="Path 25598" d="M-2937.157,4657.4a1.168,1.168,0,0,0,.619-.137,1.263,1.263,0,0,0,.635-.715,1.365,1.365,0,0,0-.15-1.167,1.2,1.2,0,0,0-.206-.245.469.469,0,0,0-.18-.1.35.35,0,0,0-.219.03c-.11.052-.16.118-.247.151l-.215.145c-.282.191-.532.358-.744.512a2.475,2.475,0,0,0-.644.523,2.821,2.821,0,0,0,.745-.367l.773-.463.222-.138c.07-.046.142-.09.216-.129.061-.023.051-.024.117.03a.953.953,0,0,1,.161.193,1.168,1.168,0,0,1,.14.949,1.1,1.1,0,0,1-.492.63,2.213,2.213,0,0,1-.756.225C-2937.386,4657.342-2937.311,4657.377-2937.157,4657.4Z" transform="translate(2950.757 -4636.535)" fill="#263238"/>
          </g>
          <path id="Path_25599" data-name="Path 25599" d="M-2899.161,4679.029s-14.2-20.153-16.189-21.356-4.662-.615-6.251.125c-1.089.521-3.573,2.057-3.573,2.057l-2.438-2.427-9.751,8.62,1.609,2.949-1.641,2.75a2.427,2.427,0,0,0-.177.2,5.444,5.444,0,0,0-.849,1.5l-.13.214.036.057a7.618,7.618,0,0,0-.376,2.693c.1,3.266,3.647,19.878,3.647,19.878l-3.709,2.531,2.219,6.938s10.985-3.687,10.719-7.366a102.788,102.788,0,0,0-1.828-10.9l5.126,6.938c.2,1.4,2.38,11.132,2.38,11.132l1.563.636,30.352-1.609.906-1.949Z" transform="translate(3010.003 -4637.245)" fill="#c64255"/>
          <path id="Path_25600" data-name="Path 25600" d="M-2933.411,4689.707a5.827,5.827,0,0,1,.568.6c.344.4.838.984,1.438,1.718,1.193,1.47,2.8,3.532,4.542,5.83s3.3,4.4,4.412,5.934c.521.739.964,1.348,1.3,1.817a4.586,4.586,0,0,1,.442.692,5.2,5.2,0,0,1-.521-.629l-1.37-1.772-4.475-5.88-4.48-5.876-1.37-1.766A4.1,4.1,0,0,1-2933.411,4689.707Z" transform="translate(3007.994 -4649.109)" fill="#263238"/>
          <g id="Group_19559" data-name="Group 19559" transform="translate(72.124 43.617)" opacity="0.3">
            <path id="Path_25601" data-name="Path 25601" d="M-2897.471,4696.523c-3.683.521-7.4-.213-11.069-.755a123.265,123.265,0,0,0-18.476-1.312,2.855,2.855,0,0,0-1.615.329c-1.115.739-7.465,1.255-8.636,1.906l.557,2.917c.089-.041,1.281.37,1.927.444,5.063.6,6.673-2.146,7.069-2.225.578-.109,1.3.417,1.849.621a78.5,78.5,0,0,0,12.372,3.077,38.811,38.811,0,0,0,10.485,1.043,7.69,7.69,0,0,0,4.537-1.621A3.7,3.7,0,0,0-2897.471,4696.523Z" transform="translate(2937.268 -4694.443)"/>
          </g>
          <path id="Path_25602" data-name="Path 25602" d="M-2909.962,4667.651l5.563,8.3-11.059-.437.615,8.178s19.054,4.167,21.961,3.125c3.3-1.146,3.156-2.6,3.355-4.49s-3.422-7.423-5.516-11.007-10.58-16-15.106-14.423C-2910.175,4656.9-2914.572,4660.305-2909.962,4667.651Z" transform="translate(3001.484 -4637.164)" fill="#c64255"/>
          <path id="Path_25603" data-name="Path 25603" d="M-2909.962,4673.845l5.563,8.3-11.059-.437.615,8.178s19.054,4.167,21.961,3.125c3.3-1.146,3.156-2.6,3.355-4.49s-3.422-7.422-5.516-11.006" transform="translate(3001.484 -4643.358)" fill="#c64255"/>
          <path id="Path_25604" data-name="Path 25604" d="M-2895.1,4677.516a1.277,1.277,0,0,1,.1.146l.281.454,1.073,1.74c.463.754,1.042,1.676,1.662,2.765a36.879,36.879,0,0,1,1.979,3.8,10.913,10.913,0,0,1,.407,1.163,3.686,3.686,0,0,1,.1.635v.339l-.031.317a11.977,11.977,0,0,1-.167,1.323,3.115,3.115,0,0,1-.573,1.287,5.376,5.376,0,0,1-2.458,1.563,4.408,4.408,0,0,1-1.521.234,15.456,15.456,0,0,1-1.562-.053c-2.084-.146-4.282-.468-6.532-.827s-4.573-.788-6.949-1.251q-2.885-.562-5.636-1.167h-.094v-.1c-.214-2.859-.416-5.6-.6-8.178v-.141h.136l11.053.469-.078.146-4.037-6.105-1.083-1.661-.276-.432a1.125,1.125,0,0,1-.088-.156,1.024,1.024,0,0,1,.109.14l.3.422,1.126,1.631,4.11,6.058.1.151h-.187l-11.059-.412.131-.13c.2,2.578.406,5.318.625,8.178l-.1-.115c1.828.391,3.719.776,5.646,1.151,2.371.464,4.688.892,6.938,1.261s4.422.683,6.506.839c.521.041,1.042.063,1.537.058a4.3,4.3,0,0,0,1.448-.214,5.213,5.213,0,0,0,2.36-1.485,4.544,4.544,0,0,0,.713-2.5,4.429,4.429,0,0,0-.458-2.359,37.65,37.65,0,0,0-1.933-3.8c-.62-1.089-1.172-2.026-1.62-2.787l-1.042-1.766c-.1-.193-.192-.344-.255-.464A1.935,1.935,0,0,0-2895.1,4677.516Z" transform="translate(3001.543 -4643.352)" fill="#263238"/>
          <g id="Group_19560" data-name="Group 19560" transform="translate(97.064 37.732)" opacity="0.3">
            <path id="Path_25605" data-name="Path 25605" d="M-2898.1,4686.2a10.2,10.2,0,0,1,6.188-.823,3.353,3.353,0,0,1,2.083,1.1c.172.229.276.578.063.765s-.594.406-.829.3a15.68,15.68,0,0,0-7.542-1.339" transform="translate(2898.141 -4685.21)"/>
          </g>
          <path id="Path_25606" data-name="Path 25606" d="M-2890.745,4688.206c0,.042-.453-.193-1.2-.449a14.21,14.21,0,0,0-2.99-.65c-1.193-.141-2.287-.172-3.079-.209a6.4,6.4,0,0,1-1.281-.093,5.525,5.525,0,0,1,1.281-.094,23.113,23.113,0,0,1,3.125.13,11.284,11.284,0,0,1,3.026.74A3.684,3.684,0,0,1-2890.745,4688.206Z" transform="translate(2995.623 -4648.02)" fill="#263238"/>
          <path id="Path_25607" data-name="Path 25607" d="M-2927.393,4717.895a11.861,11.861,0,0,0-2.99-.333,12.17,12.17,0,0,0-2.938.688,6.076,6.076,0,0,1,5.917-.344Z" transform="translate(3007.961 -4659.113)" fill="#263238"/>
          <g id="Group_19561" data-name="Group 19561" transform="translate(74.692 57.356)" opacity="0.3">
            <path id="Path_25608" data-name="Path 25608" d="M-2933.239,4717.695a7.173,7.173,0,0,1,4.2-1.678,2.64,2.64,0,0,1,1.662.344c.219.151.417.438.292.677s-.552.235-.86.162a8.609,8.609,0,0,0-5.292.422" transform="translate(2933.239 -4715.997)"/>
          </g>
          <path id="Path_25609" data-name="Path 25609" d="M-2909.1,4657.084c.026.036-.312.229-.693.693a4.553,4.553,0,0,0-.933,2.114,8.925,8.925,0,0,0,0,2.36,4.754,4.754,0,0,1,.089.995,2.982,2.982,0,0,1-.271-.968,6.961,6.961,0,0,1-.073-2.428,4.17,4.17,0,0,1,1.042-2.2A1.728,1.728,0,0,1-2909.1,4657.084Z" transform="translate(2999.887 -4637.281)" fill="#263238"/>
          <path id="Path_25610" data-name="Path 25610" d="M-2932.043,4672.938a5.5,5.5,0,0,1-1.359-1.641,5.593,5.593,0,0,1-.875-1.937,17.551,17.551,0,0,1,1.131,1.818A19.523,19.523,0,0,1-2932.043,4672.938Z" transform="translate(3008.308 -4641.732)" fill="#263238"/>
          <path id="Path_25611" data-name="Path 25611" d="M-2927.643,4669.8a8.127,8.127,0,0,1-1.651-1.735,8,8,0,0,1-1.3-2.01,16.022,16.022,0,0,1,1.506,1.844A16.436,16.436,0,0,1-2927.643,4669.8Z" transform="translate(3006.972 -4640.534)" fill="#263238"/>
          <path id="Path_25612" data-name="Path 25612" d="M-2923.552,4666.055c-.073.037-.547-.927-1.417-1.9s-1.75-1.563-1.708-1.641a4.986,4.986,0,0,1,1.911,1.49A4.846,4.846,0,0,1-2923.552,4666.055Z" transform="translate(3005.553 -4639.251)" fill="#263238"/>
          <path id="Path_25613" data-name="Path 25613" d="M-2920.125,4662.111a17.385,17.385,0,0,1-1.4-1.4,15.5,15.5,0,0,1-1.422-1.375,4.876,4.876,0,0,1,1.61,1.182A4.746,4.746,0,0,1-2920.125,4662.111Z" transform="translate(3004.198 -4638.099)" fill="#263238"/>
          <g id="Group_19562" data-name="Group 19562" transform="translate(74.729 23.376)" opacity="0.3">
            <path id="Path_25614" data-name="Path 25614" d="M-2933.182,4670.946a6.844,6.844,0,0,0,3.161-.292,11.4,11.4,0,0,0,2.735-1.475,9.709,9.709,0,0,0,2.99-3.083,9.088,9.088,0,0,0,1.011-3.407,10.061,10.061,0,0,0-1.662,2.282,15.091,15.091,0,0,1-8.2,5.969" transform="translate(2933.182 -4662.689)"/>
          </g>
          <path id="Path_25615" data-name="Path 25615" d="M-2923.347,4661.5a2.608,2.608,0,0,1-.213.521,12.831,12.831,0,0,1-.745,1.359,17.883,17.883,0,0,1-3.3,3.907,15.453,15.453,0,0,1-4.292,2.761,7.264,7.264,0,0,1-.828.307,5.79,5.79,0,0,1-.646.188,2.663,2.663,0,0,1-.557.1c0-.053.777-.229,1.954-.766a16.921,16.921,0,0,0,4.193-2.792,20.066,20.066,0,0,0,3.313-3.8C-2923.743,4662.2-2923.393,4661.471-2923.347,4661.5Z" transform="translate(3008.18 -4638.881)" fill="#263238"/>
          <path id="Path_25616" data-name="Path 25616" d="M-2934.257,4691.644a7.842,7.842,0,0,1-1.974.6,7.962,7.962,0,0,1-2.042.339,8.412,8.412,0,0,1,1.979-.6A8.055,8.055,0,0,1-2934.257,4691.644Z" transform="translate(3009.757 -4649.812)" fill="#263238"/>
          <path id="Path_25617" data-name="Path 25617" d="M-2924.728,4714.261c0,.036-.521-.224-1.312-.521a10.964,10.964,0,0,0-6.657-.229c-.833.233-1.323.452-1.343.411s.109-.084.328-.2a7.213,7.213,0,0,1,.963-.4,9.9,9.9,0,0,1,3.4-.475,9.777,9.777,0,0,1,3.349.734,6.383,6.383,0,0,1,.933.469A1.386,1.386,0,0,1-2924.728,4714.261Z" transform="translate(3008.222 -4657.5)" fill="#263238"/>
          <path id="Path_25618" data-name="Path 25618" d="M-2918,4696.5a15.868,15.868,0,0,1-2.6,2.047,16.075,16.075,0,0,1-2.813,1.719,27.456,27.456,0,0,1,2.662-1.937A28.47,28.47,0,0,1-2918,4696.5Z" transform="translate(3004.37 -4651.572)" fill="#263238"/>
          <path id="Path_25619" data-name="Path 25619" d="M-2868.979,4852.217l2.75,8.939s-8.334,5.142-7.975,6.845l17.711-4.059-3.719-14.1Z" transform="translate(2986.53 -4707.17)" fill="#143351"/>
          <g id="Group_19563" data-name="Group 19563" transform="translate(124.807 151.766)">
            <path id="Path_25620" data-name="Path 25620" d="M-2853.908,4864.112a.752.752,0,0,1,.719.688.717.717,0,0,1-.672.712.786.786,0,0,1-.756-.729.74.74,0,0,1,.781-.666" transform="translate(2854.617 -4864.112)" fill="#fff"/>
          </g>
          <g id="Group_19564" data-name="Group 19564" transform="translate(112.254 155.35)">
            <path id="Path_25621" data-name="Path 25621" d="M-2856.549,4871.157l-.374-1.422-16.945,4.511a1.255,1.255,0,0,0-.432,1.115Z" transform="translate(2874.311 -4869.735)" fill="#fff"/>
          </g>
          <path id="Path_25622" data-name="Path 25622" d="M-2862.169,4867.469c.026.084.464,0,.959.167s.818.464.885.406-.187-.521-.792-.7S-2862.206,4867.4-2862.169,4867.469Z" transform="translate(2982.164 -4713.494)" fill="#fff"/>
          <path id="Path_25623" data-name="Path 25623" d="M-2864.726,4869.5c0,.088.412.131.8.417s.578.641.662.615,0-.522-.48-.871S-2864.747,4869.417-2864.726,4869.5Z" transform="translate(2983.09 -4714.27)" fill="#fff"/>
          <path id="Path_25624" data-name="Path 25624" d="M-2866.048,4872.692c.084,0,.089-.463-.26-.875s-.8-.484-.813-.406.3.266.578.609S-2866.136,4872.709-2866.048,4872.692Z" transform="translate(2983.958 -4714.982)" fill="#fff"/>
          <path id="Path_25625" data-name="Path 25625" d="M-2862.8,4863.915c.058.067.417-.156.912-.25s.912-.047.938-.136-.422-.292-1-.166S-2862.858,4863.868-2862.8,4863.915Z" transform="translate(2982.394 -4712.06)" fill="#263238"/>
          <g id="Group_19565" data-name="Group 19565" transform="translate(119.687 148.876)" opacity="0.3">
            <path id="Path_25626" data-name="Path 25626" d="M-2862.65,4862.683l.485,1.594,8.094-3.428-.333-1.271Z" transform="translate(2862.65 -4859.578)"/>
          </g>
          <path id="Path_25627" data-name="Path 25627" d="M-2863.614,4860.278a1.675,1.675,0,0,0,.875-.239,4.057,4.057,0,0,0,.844-.522,4.377,4.377,0,0,0,.432-.4,1.106,1.106,0,0,0,.208-.275.391.391,0,0,0-.083-.469.489.489,0,0,0-.427-.093,1.127,1.127,0,0,0-.319.135,3.193,3.193,0,0,0-.495.333,3.111,3.111,0,0,0-.671.729c-.3.484-.36.839-.323.849s.172-.3.521-.725a3.471,3.471,0,0,1,.667-.651,3.574,3.574,0,0,1,.459-.292c.176-.1.333-.146.4-.072s.031.036,0,.1a1.186,1.186,0,0,1-.156.2,5.218,5.218,0,0,1-.391.391,5.82,5.82,0,0,1-.76.552A5.875,5.875,0,0,0-2863.614,4860.278Z" transform="translate(2982.687 -4710.225)" fill="#263238"/>
          <path id="Path_25628" data-name="Path 25628" d="M-2864.373,4860.087a1.48,1.48,0,0,0,0-.911,2.96,2.96,0,0,0-.375-.928,3.1,3.1,0,0,0-.37-.475.738.738,0,0,0-.677-.291.427.427,0,0,0-.3.343,1.232,1.232,0,0,0,0,.344,2.116,2.116,0,0,0,.781,1.4c.464.359.85.364.85.333a6.428,6.428,0,0,1-.709-.522,2.148,2.148,0,0,1-.521-.75,1.99,1.99,0,0,1-.12-.521c0-.192,0-.365.083-.365a.52.52,0,0,1,.385.208,2.954,2.954,0,0,1,.344.417,3.477,3.477,0,0,1,.406.828C-2864.42,4859.743-2864.425,4860.087-2864.373,4860.087Z" transform="translate(2983.591 -4709.94)" fill="#263238"/>
          <path id="Path_25629" data-name="Path 25629" d="M-2922.9,4851.958l1.141,9.282s-9.105,3.6-9.059,5.334l18.127-.885-1.183-14.512Z" transform="translate(3007.055 -4707.656)" fill="#143351"/>
          <g id="Group_19566" data-name="Group 19566" transform="translate(89.991 152.309)">
            <path id="Path_25630" data-name="Path 25630" d="M-2908.415,4864.974a.734.734,0,0,1,.583.8.707.707,0,0,1-.786.583.781.781,0,0,1-.615-.849.739.739,0,0,1,.886-.521" transform="translate(2909.238 -4864.964)" fill="#fff"/>
          </g>
          <g id="Group_19567" data-name="Group 19567" transform="translate(76.145 156.569)">
            <path id="Path_25631" data-name="Path 25631" d="M-2912.744,4873.111l-.12-1.464-17.476,1.464a1.261,1.261,0,0,0-.62,1.042Z" transform="translate(2930.96 -4871.647)" fill="#fff"/>
          </g>
          <path id="Path_25632" data-name="Path 25632" d="M-2917.083,4866.789c0,.088.453.088.911.339s.724.594.8.551-.1-.521-.657-.828S-2917.11,4866.69-2917.083,4866.789Z" transform="translate(3002.074 -4713.272)" fill="#fff"/>
          <path id="Path_25633" data-name="Path 25633" d="M-2919.952,4868.315c0,.088.38.208.714.552s.453.734.521.724.1-.521-.323-.937S-2919.957,4868.236-2919.952,4868.315Z" transform="translate(3003.113 -4713.854)" fill="#fff"/>
          <path id="Path_25634" data-name="Path 25634" d="M-2921.808,4871.228c.078,0,.167-.443-.1-.906s-.7-.62-.729-.521.25.312.463.7S-2921.9,4871.228-2921.808,4871.228Z" transform="translate(3004.09 -4714.398)" fill="#fff"/>
          <path id="Path_25635" data-name="Path 25635" d="M-2917.126,4863.271c.042.073.438-.084.943-.094s.9.115.943.037-.365-.36-.954-.345S-2917.173,4863.23-2917.126,4863.271Z" transform="translate(3002.09 -4711.895)" fill="#263238"/>
          <g id="Group_19568" data-name="Group 19568" transform="translate(85.032 149.574)" opacity="0.3">
            <path id="Path_25636" data-name="Path 25636" d="M-2917.018,4862.5l.2,1.656,8.569-1.953-.125-1.531Z" transform="translate(2917.018 -4860.673)"/>
          </g>
          <path id="Path_25637" data-name="Path 25637" d="M-2917.435,4859.607a1.683,1.683,0,0,0,.906-.083,3.946,3.946,0,0,0,.922-.369,4.541,4.541,0,0,0,.521-.323,1.18,1.18,0,0,0,.25-.234.376.376,0,0,0,0-.474.52.52,0,0,0-.4-.172,1.414,1.414,0,0,0-.339.079,3.7,3.7,0,0,0-.521.24,3.134,3.134,0,0,0-.792.625c-.386.421-.521.766-.469.78s.224-.271.625-.629a3.475,3.475,0,0,1,.766-.521,3.691,3.691,0,0,1,.521-.209c.187-.067.354-.083.406,0s.026.042,0,.1a1.065,1.065,0,0,1-.187.172,4.164,4.164,0,0,1-.453.312,4.675,4.675,0,0,1-.849.412A7.176,7.176,0,0,0-2917.435,4859.607Z" transform="translate(3002.201 -4710.112)" fill="#263238"/>
          <path id="Path_25638" data-name="Path 25638" d="M-2918.009,4859.147a1.485,1.485,0,0,0,.161-.885,2.984,2.984,0,0,0-.208-.985,2.721,2.721,0,0,0-.281-.521.736.736,0,0,0-.615-.406.4.4,0,0,0-.354.281,1.284,1.284,0,0,0-.068.344,2.083,2.083,0,0,0,.521,1.511c.4.438.771.521.776.479a4.221,4.221,0,0,1-.6-.615,2.051,2.051,0,0,1-.359-.829,1.745,1.745,0,0,1-.031-.52c0-.193.073-.354.146-.339a.646.646,0,0,1,.339.266,2.923,2.923,0,0,1,.271.474,3.3,3.3,0,0,1,.25.886C-2917.994,4858.783-2918.061,4859.137-2918.009,4859.147Z" transform="translate(3002.906 -4709.532)" fill="#263238"/>
          <path id="Path_25639" data-name="Path 25639" d="M-2876.365,4808.054l-.4-1.86-6.651-33.639,1.911-29.378-1.911-11.507-17.669.938h0l-12.684.672s-10.663,36.983-11.366,38.917,3.266,43.953,3.266,43.953l11.2-2.4-.13-39.067,10.1-22.847,3.979,27.056,9.9,37.983,10.283-3.886-.3-2.115Z" transform="translate(3005.022 -4664.324)" fill="#d7944b"/>
          <path id="Path_25640" data-name="Path 25640" d="M-2891.555,4740.095c.031,0,.776,3.454,1.672,7.725s1.594,7.746,1.563,7.751-.777-3.453-1.673-7.729S-2891.586,4740.1-2891.555,4740.095Z" transform="translate(2992.818 -4667.379)" fill="#263238"/>
          <path id="Path_25641" data-name="Path 25641" d="M-2864.446,4737.138a5.17,5.17,0,0,1-1.406.354,6.545,6.545,0,0,1-3.444-.521,6.644,6.644,0,0,1-2.687-2.214,5,5,0,0,1-.677-1.281,3.494,3.494,0,0,1,.182.343,7.459,7.459,0,0,0,.558.892,6.584,6.584,0,0,0,6.058,2.687,7.063,7.063,0,0,0,1.042-.187A2.883,2.883,0,0,1-2864.446,4737.138Z" transform="translate(2985.966 -4664.979)" fill="#263238"/>
          <path id="Path_25642" data-name="Path 25642" d="M-2861.235,4795.011c.026,0-.521,1.979-1.23,4.4s-1.307,4.376-1.338,4.37.521-1.979,1.235-4.4S-2861.235,4795-2861.235,4795.011Z" transform="translate(2982.755 -4687.291)" fill="#263238"/>
          <path id="Path_25643" data-name="Path 25643" d="M-2905.015,4797.373a2.19,2.19,0,0,1-.156.281l-.474.745c-.4.625-.98,1.474-1.646,2.391s-1.3,1.729-1.771,2.308l-.563.677a3.02,3.02,0,0,1-.219.239,2.081,2.081,0,0,1,.188-.266l.521-.7c.453-.588,1.073-1.406,1.74-2.323s1.25-1.756,1.672-2.37l.521-.725A2.739,2.739,0,0,1-2905.015,4797.373Z" transform="translate(2999.448 -4688.147)" fill="#263238"/>
          <path id="Path_25644" data-name="Path 25644" d="M-2906.235,4823.5v-.7c0-.459,0-1.141-.026-2,0-1.756-.052-4.26-.088-7.35-.062-6.225-.146-14.789-.24-24.253,0-.828,0-1.652-.026-2.422h0a97.224,97.224,0,0,1,4.235-11.762c1.495-3.527,2.912-6.647,4.063-9.272s2.052-4.762,2.636-6.251c.3-.734.521-1.318.667-1.708s.234-.594.234-.594-.287.829-.865,2.318-1.458,3.646-2.6,6.25-2.552,5.756-4.042,9.283a99.876,99.876,0,0,0-4.22,11.751h0v2.422c.083,9.465.156,18.028.214,24.252,0,3.089.037,5.595.052,7.35v2C-2906.245,4823.295-2906.235,4823.5-2906.235,4823.5Z" transform="translate(2998.278 -4673.581)" fill="#263238"/>
          <path id="Path_25645" data-name="Path 25645" d="M-2905.24,4733.762a4.47,4.47,0,0,1,.276,1.4,5.55,5.55,0,0,1-3.4,5.375,4.363,4.363,0,0,1-1.344.366,2.929,2.929,0,0,1,.36-.095,6.475,6.475,0,0,0,.953-.339,5.613,5.613,0,0,0,3.323-5.307,5.893,5.893,0,0,0-.1-1A2.571,2.571,0,0,1-2905.24,4733.762Z" transform="translate(2999.398 -4665.083)" fill="#263238"/>
          <path id="Path_25646" data-name="Path 25646" d="M-2889.781,4735.946a.628.628,0,0,1,.261-.078,1.046,1.046,0,0,1,.708.2.947.947,0,0,1,.39,1,1.121,1.121,0,0,1-.99.86,1.146,1.146,0,0,1-1.072-.751,1.039,1.039,0,0,1,.208-1.041,1.2,1.2,0,0,1,.635-.381.684.684,0,0,1,.271,0,1.069,1.069,0,0,0-.261.047,1.186,1.186,0,0,0-.583.385.964.964,0,0,0-.177.974,1.041,1.041,0,0,0,.974.678,1.041,1.041,0,0,0,.9-.771.867.867,0,0,0-.338-.912,1.046,1.046,0,0,0-.662-.218A2.324,2.324,0,0,0-2889.781,4735.946Z" transform="translate(2992.45 -4665.798)" fill="#263238"/>
          <path id="Path_25647" data-name="Path 25647" d="M-2937.14,4722.62a5.229,5.229,0,0,1,2.083.522,2.3,2.3,0,0,1,1.25,1.677,1.489,1.489,0,0,1-1.1,1.609,1.753,1.753,0,0,1-1.427-.521,3.054,3.054,0,0,1-.735-3.292" transform="translate(3009.395 -4661.041)" fill="#fcd2bf"/>
          <path id="Path_25648" data-name="Path 25648" d="M-2939.455,4722.854s-.521-1.6-3.094-1.563a9.542,9.542,0,0,0-2.083.214c-.235.177-.714.854-.641,1.135a2.959,2.959,0,0,0,1.777,1.391c.75.067,1.208-.036,1.386-.287A14.438,14.438,0,0,1-2939.455,4722.854Z" transform="translate(3012.297 -4660.562)" fill="#fcd2bf"/>
          <path id="Path_25649" data-name="Path 25649" d="M-2942.695,4721.947c0-.032.224,0,.552.15a1.734,1.734,0,0,1,1,.99.968.968,0,0,1-.544,1.257l-.008,0a.671.671,0,0,1-.589,0,1.164,1.164,0,0,0,.521-.156.819.819,0,0,0,.385-1.006,1.834,1.834,0,0,0-.839-.906C-2942.523,4722.092-2942.711,4721.983-2942.695,4721.947Z" transform="translate(3011.36 -4660.794)" fill="#eb996e"/>
          <path id="Path_25650" data-name="Path 25650" d="M-2941.12,4722.642c-.078,0-.141-.162-.225-.35s-.161-.343-.109-.4.25.053.354.292S-2941.052,4722.642-2941.12,4722.642Z" transform="translate(3010.916 -4660.776)" fill="#eb996e"/>
          <g id="Group_19569" data-name="Group 19569" transform="translate(0 34.546)">
            <rect id="Rectangle_5762" data-name="Rectangle 5762" width="15.712" height="3.689" transform="translate(25.477 33.695) rotate(166.735)" fill="#417269"/>
            <path id="Path_25651" data-name="Path 25651" d="M-3018.1,4732.425l1.348,5.719a1.324,1.324,0,0,1-.985,1.594l-2.969.7a1.326,1.326,0,0,1-1.594-.985l-.1-.4a1.325,1.325,0,0,0-1.594-.986l-5.812,1.37a1.325,1.325,0,0,0-.985,1.594l.095.4a1.325,1.325,0,0,1-.986,1.594l-2.968.7a1.324,1.324,0,0,1-1.594-.986l-1.349-5.719a1.326,1.326,0,0,1,.986-1.594l16.909-3.987A1.327,1.327,0,0,1-3018.1,4732.425Z" transform="translate(3045.78 -4698.774)" fill="#73ada3"/>
            <path id="Path_25652" data-name="Path 25652" d="M-3034.238,4745.883l2.969-.7a1.325,1.325,0,0,0,.986-1.595l-.1-.4a1.325,1.325,0,0,1,.986-1.594l5.813-1.371a1.325,1.325,0,0,1,1.594.986l.1.4a1.326,1.326,0,0,0,1.594.986l2.968-.7a1.325,1.325,0,0,0,.986-1.594l.241,1.026a1.325,1.325,0,0,1-.985,1.594l-2.968.7a1.325,1.325,0,0,1-1.594-.986l-.1-.4a1.325,1.325,0,0,0-1.594-.986l-5.813,1.371a1.324,1.324,0,0,0-.985,1.593l.095.4a1.326,1.326,0,0,1-.986,1.595l-2.969.7a1.323,1.323,0,0,1-1.593-.985l-.242-1.025A1.325,1.325,0,0,0-3034.238,4745.883Z" transform="translate(3045.13 -4701.958)" fill="#578e85"/>
            <path id="Path_25653" data-name="Path 25653" d="M-2963.656,4693.081c-2.026-8.6-9.336-14.229-16.326-12.581-4.979,1.173-8.45,5.727-9.3,11.354l-4.745,1.119a2.651,2.651,0,0,0-1.971,3.188l.227.963-51.994,12.257a3.435,3.435,0,0,0-2.556,4.132,3.436,3.436,0,0,0,4.132,2.556l51.994-12.258.227.964a2.652,2.652,0,0,0,3.188,1.972l4.745-1.119c3.278,4.654,8.418,7.176,13.4,6C-2965.653,4709.981-2961.629,4701.678-2963.656,4693.081Zm-10.994,7.646c-3.184,1.121-6.5-.068-7.415-2.657s.93-5.6,4.114-6.717,6.5.068,7.416,2.657S-2971.466,4699.606-2974.65,4700.727Z" transform="translate(3050.419 -4680.214)" fill="#73ada3"/>
            <path id="Path_25654" data-name="Path 25654" d="M-2979.718,4681.619c-4.979,1.174-8.45,5.726-9.305,11.354l-4.745,1.118a2.651,2.651,0,0,0-1.972,3.188l.227.964-51.995,12.257a3.433,3.433,0,0,0-2.637,3.561,3.442,3.442,0,0,1-.182-.548,3.435,3.435,0,0,1,2.556-4.132l51.994-12.257-.227-.963a2.651,2.651,0,0,1,1.971-3.188l4.745-1.119c.855-5.627,4.326-10.181,9.3-11.354,6.99-1.647,14.3,3.985,16.326,12.581.045.187.082.375.121.563C-2965.741,4685.363-2972.881,4680.007-2979.718,4681.619Z" transform="translate(3050.419 -4680.214)" fill="#87c9bc"/>
            <path id="Path_25655" data-name="Path 25655" d="M-3046.733,4720.453l52-12.257.227.963a2.651,2.651,0,0,0,3.188,1.972l4.745-1.118c3.278,4.653,8.417,7.176,13.4,6,6.677-1.574,10.643-9.222,9.22-17.4.111.374.216.75.307,1.136,2.027,8.6-2,16.9-8.987,18.549-4.979,1.174-10.118-1.349-13.4-6l-4.745,1.119a2.65,2.65,0,0,1-3.188-1.971l-.228-.964-51.994,12.258a3.435,3.435,0,0,1-4.132-2.556,3.411,3.411,0,0,1-.064-1.192A3.434,3.434,0,0,0-3046.733,4720.453Z" transform="translate(3050.417 -4686.887)" fill="#578e85"/>
          </g>
          <g id="Group_19570" data-name="Group 19570" transform="translate(69.993 38.363)">
            <path id="Path_25656" data-name="Path 25656" d="M-2924.651,4686.659s-4.375-.458-5.26-.458-7.053,1.234-7.053,1.234-3.688,3.646-3.647,4.751l1.479-.24a12.627,12.627,0,0,0-1.323,2.807c.021.547-.141,1.225.646,1.391,1.37.292,1.979-1.255,1.979-1.255s-.14.761.412.891a2.656,2.656,0,0,0,1.776-.479s.073.7.683.8a2.679,2.679,0,0,0,1.984-.7,1.566,1.566,0,0,0,1.646-.036,8.8,8.8,0,0,0,1.984-2.465l1.162-.271,4.1,1.126Z" transform="translate(2940.612 -4686.201)" fill="#fcd2bf"/>
            <path id="Path_25657" data-name="Path 25657" d="M-2934.9,4696.113a8.956,8.956,0,0,1-1.661,2.6,4.5,4.5,0,0,1,.718-1.371A4.462,4.462,0,0,1-2934.9,4696.113Z" transform="translate(2939.144 -4689.795)" fill="#eb996e"/>
            <path id="Path_25658" data-name="Path 25658" d="M-2931.266,4697.967c.058.041-.213.521-.683.963s-.932.724-.974.667.338-.412.786-.854S-2931.329,4697.919-2931.266,4697.967Z" transform="translate(2937.825 -4690.465)" fill="#eb996e"/>
            <path id="Path_25659" data-name="Path 25659" d="M-2927.907,4698.728c.067.025-.026.406-.313.787s-.62.579-.667.521.193-.333.453-.683S-2927.981,4698.7-2927.907,4698.728Z" transform="translate(2936.363 -4690.743)" fill="#eb996e"/>
            <path id="Path_25660" data-name="Path 25660" d="M-2937.561,4692.042c.031.031-.177.255-.458.646s-.651.954-1.042,1.589c-.745,1.287-1.245,2.386-1.313,2.354a8.277,8.277,0,0,1,1.079-2.484,9.893,9.893,0,0,1,1.11-1.562C-2937.837,4692.2-2937.581,4692.021-2937.561,4692.042Z" transform="translate(2940.525 -4688.318)" fill="#eb996e"/>
          </g>
          <g id="Group_19572" data-name="Group 19572" transform="translate(66.691 61.996)">
            <path id="Path_25661" data-name="Path 25661" d="M-2943.7,4724.693a1.9,1.9,0,0,1,.984-.521c.37-.031.792.255.75.625a2.1,2.1,0,0,1,.448-.994.987.987,0,0,1,.99-.329.661.661,0,0,1,.437.827c0,.014-.009.028-.015.042a.75.75,0,0,1,.987-.39.75.75,0,0,1,.44.817.561.561,0,0,1,.813-.35,1.3,1.3,0,0,1,.594.813,3.9,3.9,0,0,1-1.042,4.167,1.746,1.746,0,0,1-.911.448.9.9,0,0,1-.88-.406,1.042,1.042,0,0,1-1.413.417,1.041,1.041,0,0,1-.363-.329,1.287,1.287,0,0,1-1.817.1,1.285,1.285,0,0,1-.423-1.086,1.361,1.361,0,0,1-1.146.26,1.042,1.042,0,0,1-.521-1.016,2.939,2.939,0,0,1,.557-1.6,9.217,9.217,0,0,1,1.13-1.286" transform="translate(2945.792 -4723.339)" fill="#fcd2bf"/>
            <g id="Group_19571" data-name="Group 19571" transform="translate(0.459)">
              <path id="Path_25662" data-name="Path 25662" d="M-2941.079,4729.507a10.106,10.106,0,0,0,1.042-1.38,5.893,5.893,0,0,0,.719-4.068h0a.765.765,0,0,0-.4-.449.809.809,0,0,0-1.042.328,1.464,1.464,0,0,0-.161.568,4.877,4.877,0,0,1-.083.63,5.207,5.207,0,0,1-.86,2.016,4.669,4.669,0,0,1-1.006,1.068,1.61,1.61,0,0,1-.458.287,7.836,7.836,0,0,0,1.307-1.459,5.4,5.4,0,0,0,.776-1.954,5.442,5.442,0,0,0,.068-.6,1.589,1.589,0,0,1,.193-.677.971.971,0,0,1,.578-.485,1.146,1.146,0,0,1,.776.037,1.043,1.043,0,0,1,.521.621h0a5.887,5.887,0,0,1-.824,4.213,5.367,5.367,0,0,1-.828,1A1.421,1.421,0,0,1-2941.079,4729.507Z" transform="translate(2944.438 -4723.279)" fill="#eb996e"/>
              <path id="Path_25663" data-name="Path 25663" d="M-2936.835,4724.491a.125.125,0,0,1,0-.135.468.468,0,0,1,.3-.214,1.041,1.041,0,0,1,.573-.036.95.95,0,0,1,.578.521h0a4.608,4.608,0,0,1,.26,2,4.461,4.461,0,0,1-.99,2.427,2.229,2.229,0,0,1-.818.714c-.026-.031.291-.3.667-.829a4.759,4.759,0,0,0,.875-2.338,4.948,4.948,0,0,0-.208-1.9h0a.8.8,0,0,0-.432-.407.888.888,0,0,0-.479,0C-2936.8,4724.308-2936.83,4724.485-2936.835,4724.491Z" transform="translate(2942.121 -4723.569)" fill="#eb996e"/>
              <path id="Path_25664" data-name="Path 25664" d="M-2941.713,4725.048a.7.7,0,0,0-.4-.442c-.344-.151-.875.125-1.37.49a14.275,14.275,0,0,0-1.594,1.614,3.818,3.818,0,0,1,1.432-1.833,3.538,3.538,0,0,1,.818-.454,1,1,0,0,1,.8,0,.643.643,0,0,1,.338.417C-2941.66,4724.97-2941.7,4725.053-2941.713,4725.048Z" transform="translate(2945.072 -4723.664)" fill="#eb996e"/>
              <path id="Path_25665" data-name="Path 25665" d="M-2932.951,4727.154c-.036,0-.078-.182-.13-.468a3.51,3.51,0,0,0-.328-1.042,1.007,1.007,0,0,0-.771-.61c-.266,0-.4.126-.427.1s.068-.24.417-.287a1.094,1.094,0,0,1,1.015.667,2.563,2.563,0,0,1,.281,1.163C-2932.888,4726.966-2932.914,4727.149-2932.951,4727.154Z" transform="translate(2941.279 -4723.847)" fill="#eb996e"/>
            </g>
          </g>
        </g>
      </g>
    </g>
  </g>
</svg>
