<svg xmlns="http://www.w3.org/2000/svg" width="36.03" height="40.49" viewBox="0 0 36.03 40.49">
  <g id="Group_20532" data-name="Group 20532" transform="translate(-2944 22327)">
    <path id="Path_27104" data-name="Path 27104" d="M2947.831-22301.969l2.167-1.529,1.512-.68,1.693.1.433.1,1.321.473,3.179,1.529,3.55.592,2.642-.467,6.646-2.23,3.009.785,3.14,3.57.678,4.809-.227,4.025-2.49,2.441-12.263.16-15.241-.375s-1.8-3.705-1.8-3.945.8-8.371.8-8.371Z" fill="#d61b22"/>
    <circle id="Ellipse_463" data-name="Ellipse 463" cx="8.5" cy="8.5" r="8.5" transform="translate(2953 -22325)" fill="#d61b22"/>
    <g id="Group_20531" data-name="Group 20531" transform="translate(2944 -22327)">
      <path id="Path_23360" data-name="Path 23360" d="M617.739,131.916c-.5-.095-1.016-.161-1.51-.286-3.067-.778-4.99-2.848-5.124-5.672a18.017,18.017,0,0,1,1.5-8.567,8.212,8.212,0,0,1,4-4.242,8.8,8.8,0,0,1,3.931-.829,3.3,3.3,0,0,1,1.291.391c.64.306,1.234.686,1.855,1.022a10.722,10.722,0,0,0,10.843-.007c.5-.273,1.014-.536,1.485-.846a4,4,0,0,1,2.843-.507,8.019,8.019,0,0,1,6.117,3.86,14.4,14.4,0,0,1,1.968,6.152,26.858,26.858,0,0,1,.165,3.326c-.046,3.31-2.634,5.771-6.383,6.135a1.88,1.88,0,0,0-.275.07Zm11.346-2.223q5.063,0,10.129,0a13.572,13.572,0,0,0,1.387-.072,4.065,4.065,0,0,0,3.906-3.339,14.82,14.82,0,0,0-.193-4.465,11.92,11.92,0,0,0-1.517-4.439,5.492,5.492,0,0,0-4.661-2.816,1.2,1.2,0,0,0-.589.121c-.64.335-1.253.707-1.886,1.05a13.6,13.6,0,0,1-13.346-.125c-.558-.31-1.111-.629-1.672-.935a.8.8,0,0,0-.383-.128,5.583,5.583,0,0,0-3.576,1.292,7.05,7.05,0,0,0-1.755,2.42,16.568,16.568,0,0,0-1.294,7.6,3.722,3.722,0,0,0,3,3.556,9.2,9.2,0,0,0,2.239.276C622.275,129.709,625.68,129.693,629.084,129.693Z" transform="translate(-611.077 -91.426)" fill="#d2b353"/>
      <path id="Path_23361" data-name="Path 23361" d="M636.385,109.942A10.411,10.411,0,1,1,625.93,99.547,10.444,10.444,0,0,1,636.385,109.942Zm-10.474,7.892a7.877,7.877,0,1,0-7.818-8.026A7.918,7.918,0,0,0,625.911,117.834Z" transform="translate(-608.223 -99.547)" fill="#d2b353"/>
    </g>
  </g>
</svg>
