<svg xmlns="http://www.w3.org/2000/svg" width="28" height="31" viewBox="0 0 28 31">
  <g id="Symbol" transform="translate(-297.518 -214.797)">
    <path id="Path_14" data-name="Path 14" d="M309.868,238.669l.249,2.081c.044.363-.032.578-.3.677s-.5-.059-.692-.3l-1.246-1.7a3.64,3.64,0,0,0,1.066-.21A3.437,3.437,0,0,0,309.868,238.669Zm-1.149-.01a2.827,2.827,0,0,0,1.567-1.485,2.248,2.248,0,0,0,.1-1.732l-3.114-8.111-5.1,1.947,3.008,7.848a2.678,2.678,0,0,0,1.443,1.485A2.784,2.784,0,0,0,308.719,238.659ZM307.1,226.067l-5.672,2.167-3.7-9.364a2.973,2.973,0,0,1,1.733-3.87,3.063,3.063,0,0,1,3.938,1.7Zm-3.424-2.462-2.4-6.058a.746.746,0,0,0-.968-.4.722.722,0,0,0-.445.933l2.4,6.064a.752.752,0,0,0,.965.4A.734.734,0,0,0,303.676,223.6Zm14.214,9.159a.673.673,0,1,1,0-1.345h2.695a.673.673,0,1,1,0,1.345Zm3.379,7.5a.676.676,0,0,1-.684.676h-5.423a.674.674,0,1,1,0-1.347h5.423A.675.675,0,0,1,321.269,240.267Zm-7.592-4.9h6.908a.673.673,0,1,1,0,1.345h-6.908a.673.673,0,1,1,0-1.345Zm11.841-5.671v13.288a2.837,2.837,0,0,1-2.858,2.808H307.585a.839.839,0,1,1,0-1.677H322.66a1.152,1.152,0,0,0,1.151-1.131V229.7a1.159,1.159,0,0,0-1.151-1.139H309.4l-.665-1.674H322.66A2.839,2.839,0,0,1,325.518,229.7Z" fill="#fff" opacity="0.997"/>
  </g>
</svg>
