<svg xmlns="http://www.w3.org/2000/svg" xmlns:xlink="http://www.w3.org/1999/xlink" width="180" height="98" viewBox="0 0 180 98">
  <defs>
    <filter id="Rectangle_1847" x="0" y="0" width="180" height="98" filterUnits="userSpaceOnUse">
      <feOffset dy="10" input="SourceAlpha"/>
      <feGaussianBlur stdDeviation="10" result="blur"/>
      <feFlood flood-opacity="0.302"/>
      <feComposite operator="in" in2="blur"/>
      <feComposite in="SourceGraphic"/>
    </filter>
    <clipPath id="clip-path">
      <circle id="Ellipse_184" data-name="Ellipse 184" cx="15" cy="15" r="15" transform="translate(0.464 0.274)" fill="none"/>
    </clipPath>
  </defs>
  <g id="Group_16181" data-name="Group 16181" transform="translate(-1033.31 -5224.941)">
    <g id="Group_12277" data-name="Group 12277" transform="translate(1063.152 5244.941)">
      <g transform="matrix(1, 0, 0, 1, -29.84, -20)" filter="url(#Rectangle_1847)">
        <g id="Rectangle_1847-2" data-name="Rectangle 1847" transform="translate(30 20)" fill="#450a0a" stroke="#fff" stroke-width="1">
          <rect width="120" height="38" rx="19" stroke="none"/>
          <rect x="0.5" y="0.5" width="119" height="37" rx="18.5" fill="none"/>
        </g>
      </g>
      <g id="Group_3215" data-name="Group 3215" transform="translate(19.561 13.041)">
        <text id="LIVE_CHAT" data-name="LIVE CHAT" transform="translate(53.598 9.96)" fill="#fff" font-size="10" font-family="Muli-ExtraBold, Muli" font-weight="800" letter-spacing="0.03em"><tspan x="-54.84" y="0">LIVE CHAT</tspan></text>
      </g>
      <g id="Group_12291" data-name="Group 12291" transform="translate(85.694 3.726)">
        <circle id="Ellipse_181" data-name="Ellipse 181" cx="15" cy="15" r="15" transform="translate(0.464 0.274)" fill="#8d2121"/>
        <g id="Group_12290" data-name="Group 12290" transform="translate(0 0)">
          <g id="Group_12289" data-name="Group 12289" transform="translate(0 0)" clip-path="url(#clip-path)">
            <g id="Group_12288" data-name="Group 12288" transform="translate(3.385 2.427)">
              <path id="Path_20609" data-name="Path 20609" d="M231.111,681.489s-.1-.258-.26-.678c-.112-.3-.254-.676-.412-1.106-.067-.184-.138-.377-.21-.578-.344-.957-.639-1.823-.881-2.585l0-.006c-.027-.084-.056-.167-.087-.246-.009-.024-.019-.047-.029-.07l-.008-.018c-.023-.057-.047-.114-.071-.167-.011-.024-.022-.047-.034-.07l-.01-.02c-.025-.052-.051-.1-.078-.155-.012-.023-.025-.045-.046-.081-.029-.052-.059-.1-.091-.154-.013-.02-.026-.039-.045-.069-.034-.052-.068-.1-.1-.151-.014-.019-.028-.038-.048-.064-.038-.05-.076-.1-.115-.148l-.047-.055c-.042-.049-.084-.1-.13-.147l-.043-.045c-.046-.048-.092-.1-.141-.142l-.042-.039c-.05-.046-.1-.092-.154-.139l-.038-.032c-.053-.045-.108-.089-.166-.135l-.034-.025c-.057-.044-.116-.087-.18-.132l-.028-.019q-.093-.064-.19-.125l-.026-.016c-.066-.042-.133-.083-.206-.125l-.017-.009c-.07-.041-.142-.081-.215-.12l-.016-.008c-.075-.04-.151-.079-.224-.115l-.035-.017-.151-.073c.966-2.044.556-3.408.053-5.082-.17-.566-.36-1.2-.519-1.935a4.165,4.165,0,0,0,.4-1.565,3.405,3.405,0,0,0-.539-2.268c0-.4-.008-.773-.03-1.125l0-.053c-.018-.268-.043-.526-.073-.766-.016-.127-.034-.251-.054-.372a8.5,8.5,0,0,0-.385-1.516c-.084-.233-.174-.451-.269-.65q-.062-.13-.128-.253c-.037-.069-.075-.137-.113-.2a2.283,2.283,0,0,0-.311-.749,1.2,1.2,0,0,0-.146-.168c-.028-.046-.056-.092-.084-.135-.041-.065-.085-.13-.129-.194a7.554,7.554,0,0,0-3.641-2.691,6.63,6.63,0,0,0-3.472-.31,3.32,3.32,0,0,0-1.139.359,6.186,6.186,0,0,0-5.264,4.139q-.065.182-.12.361a7.933,7.933,0,0,0-.448,3.459,1.378,1.378,0,0,0-.269.559c-.021.095-.038.2-.052.305,0,.027-.007.054-.01.082a2.92,2.92,0,0,0-.407,2.308,4.343,4.343,0,0,0,.128.536l.009.03c.015.046.03.092.048.143l.012.033c.016.045.033.088.049.126l.021.049c.018.042.036.083.053.119l.022.046c.02.04.039.079.061.118l.021.036c.022.039.044.079.07.12l.01.015a2.636,2.636,0,0,0,.162.229l.025.031c.019.022.038.044.057.065l.016.017.05.053c.023.023.047.045.063.061s.05.046.078.07.049.039.067.053.059.043.088.062.05.032.08.049.052.029.082.044l.007.011.032.046a2.316,2.316,0,0,0,.141.187l.024.028.029.033a4.606,4.606,0,0,0,.476,1.193,16.5,16.5,0,0,1-.427,1.825,12.643,12.643,0,0,0-.565,3.1,10.888,10.888,0,0,0-2.155,1.018c-1.472,1.024-2.556,5.566-2.853,6.934l-.226,1.04h26.471Z" transform="translate(-205.097 -653.465)" fill="#450a0a"/>
              <g id="Group_12287" data-name="Group 12287" transform="translate(0.575 0.38)">
                <g id="Group_12278" data-name="Group 12278" transform="translate(5.025 8.435)">
                  <path id="Path_20610" data-name="Path 20610" d="M251.371,705.894c.237,6,3.027,6.6,0,10.931s-13.451,2.794-13.628-.482,2.024-5.249.582-9.348S251.371,705.894,251.371,705.894Z" transform="translate(-237.733 -704.837)" fill="#263238"/>
                  <path id="Path_20611" data-name="Path 20611" d="M255.421,709.839c.352,2.726,1.287,5.415.806,6.892a6.062,6.062,0,0,0-.364-2.063,8.267,8.267,0,0,1-.641,4.226c-.952,1.893-11.227,1.532-11.227,1.532a18.307,18.307,0,0,1,0-3.575c.21-1.5.611-2.086.726-2.89,0,0-.633,1.308-.88,1.809a3.72,3.72,0,0,0-.28,1.235,5.393,5.393,0,0,1,.454-2.356c.521-1.021.208-3.838.054-4.933s7.248-2.394,8.053-1.955S255.421,709.839,255.421,709.839Z" transform="translate(-242.559 -707.185)" fill="#171f23"/>
                </g>
                <g id="Group_12279" data-name="Group 12279" transform="translate(0 13.953)">
                  <path id="Path_20612" data-name="Path 20612" d="M223.95,762.418c3.572,1.21,6.133,1.665,6.873,4s1.778,4.988,1.778,4.988l-12.837,1.334-11.314-1.334s1.2-5.5,2.5-6.411,6.433-2.437,8-2.7A26.307,26.307,0,0,1,223.95,762.418Z" transform="translate(-208.45 -757.878)" fill="#384987"/>
                  <path id="Path_20613" data-name="Path 20613" d="M238.561,794.263a18.375,18.375,0,0,0,.229,3.7h-.819Z" transform="translate(-232.905 -784.436)" fill="#273868"/>
                  <path id="Path_20614" data-name="Path 20614" d="M314.617,799.292a14.08,14.08,0,0,1-.176,2.837h.628Z" transform="translate(-296.254 -788.602)" fill="#273868"/>
                  <path id="Path_20615" data-name="Path 20615" d="M325.806,774.208a6.441,6.441,0,0,0-1.324-1.794,4.057,4.057,0,0,1,2.463,2.461c.74,2.334,1.778,4.988,1.778,4.988h-1.948A15.757,15.757,0,0,0,325.806,774.208Z" transform="translate(-304.572 -766.336)" fill="#273868"/>
                  <path id="Path_20616" data-name="Path 20616" d="M253.362,762.947a6.083,6.083,0,0,0,2.79-.911c1.053-.8.911-1.594.911-1.594a6.252,6.252,0,0,0,1.053,0c.284-.057-.124-3.023-1.784-3.077a46.064,46.064,0,0,0-5.564.657,2.626,2.626,0,0,0-1.48,2.885c.057.256.745-.465,1.058-.1A3.265,3.265,0,0,0,253.362,762.947Z" transform="translate(-242.233 -753.867)" fill="#465fa3"/>
                  <path id="Path_20617" data-name="Path 20617" d="M276.667,763.484a8.754,8.754,0,0,0,3.025-4.146c.149-.435-.1-.678-.564-.752Z" transform="translate(-264.962 -754.881)" fill="#273868"/>
                  <path id="Path_20618" data-name="Path 20618" d="M258.822,766.893a10.248,10.248,0,0,1-2.687-3.343c-.342-.641-.355-1.243.691-1.355S258.822,766.893,258.822,766.893Z" transform="translate(-247.781 -757.869)" fill="#273868"/>
                  <path id="Path_20619" data-name="Path 20619" d="M258.542,737.422c.315,2.539.495,3.9-.354,4.95,0,0,1.513,3.074,2.595,3.7a9.3,9.3,0,0,0,3.3-4.81,3.608,3.608,0,0,1-.484-1.622,24.592,24.592,0,0,1,.085-2.647Z" transform="translate(-249.653 -736.992)" fill="#c6915f"/>
                  <path id="Path_20620" data-name="Path 20620" d="M264.114,776.423c1.58,1.913,3.207.3,3.812-.522a9.907,9.907,0,0,1-2.234,2.4A6.152,6.152,0,0,1,264.114,776.423Z" transform="translate(-254.563 -769.225)" fill="#b77c4a"/>
                  <path id="Path_20621" data-name="Path 20621" d="M265.312,739.82a3.675,3.675,0,0,0,.459,1.581,38.766,38.766,0,0,1-5.261-1.252c-.025-.7-.13-1.526-.256-2.547l3.138-.262,2-.13A23.87,23.87,0,0,0,265.312,739.82Z" transform="translate(-251.364 -737.172)" fill="#b77c4a"/>
                </g>
                <g id="Group_12286" data-name="Group 12286" transform="translate(3.976)">
                  <g id="Group_12280" data-name="Group 12280" transform="translate(0 2.564)">
                    <path id="Path_20622" data-name="Path 20622" d="M236.2,675.968a6.959,6.959,0,0,1,1.123-4.926c1.25-1.868.986,3.061.965,3.117s-1.108,2.135-1.108,2.135Z" transform="translate(-235.38 -670.62)" fill="#c9d36a"/>
                    <path id="Path_20623" data-name="Path 20623" d="M233.146,708.919c.159.921.051,1.681-.39,1.757s-.928-.609-1.087-1.53.071-1.729.512-1.805S232.988,708,233.146,708.919Z" transform="translate(-231.619 -701.036)" fill="#abbc4b"/>
                    <path id="Path_20624" data-name="Path 20624" d="M232.849,719.72l.278.113.272.755s.046.093.1.214a.389.389,0,0,1-.181.085c-.391.068-.817-.463-1.02-1.226A.569.569,0,0,0,232.849,719.72Z" transform="translate(-232.185 -711.246)" fill="#778030"/>
                    <path id="Path_20625" data-name="Path 20625" d="M235.673,700c-.343-.063-1.314.194-1.424.7-.251,1.141.166,3.789.93,4.442a1.9,1.9,0,0,0,1.33.105c.7-.214.7-1.332.446-2.814S236.148,700.088,235.673,700Z" transform="translate(-233.737 -694.95)" fill="#abbc4b"/>
                    <path id="Path_20626" data-name="Path 20626" d="M235.49,720.005c.356.256.54,0,.54,0,.241.513.684.512,1.243.588l.314-.166s.306.226.594.429c-.052.51-.226.857-.583.967a1.9,1.9,0,0,1-1.33-.105A3.455,3.455,0,0,1,235.49,720.005Z" transform="translate(-234.826 -711.531)" fill="#778030"/>
                    <path id="Path_20627" data-name="Path 20627" d="M234.249,700.7c.11-.5,1.082-.759,1.424-.7a.542.542,0,0,1,.086.024.942.942,0,0,0-1.029.9,7.108,7.108,0,0,0,.739,3.786,1.074,1.074,0,0,0,.807.582,1.681,1.681,0,0,1-1.1-.151C234.414,704.484,234,701.837,234.249,700.7Z" transform="translate(-233.737 -694.95)" fill="#c9d36a"/>
                    <path id="Path_20628" data-name="Path 20628" d="M235.49,720.005c.356.256.54,0,.54,0h0a3.644,3.644,0,0,0,.527,1.282,1.074,1.074,0,0,0,.807.582,1.681,1.681,0,0,1-1.1-.151A3.455,3.455,0,0,1,235.49,720.005Z" transform="translate(-234.826 -711.531)" fill="#abbc4b"/>
                    <path id="Path_20629" data-name="Path 20629" d="M242.243,708.055c.139.8.425,1.426.641,1.389s.277-.719.139-1.523-.425-1.426-.641-1.389S242.1,707.251,242.243,708.055Z" transform="translate(-240.359 -700.369)" fill="#778030"/>
                  </g>
                  <path id="Path_20630" data-name="Path 20630" d="M253.927,685.889l-.03.07a8.1,8.1,0,0,1-1.6,2.277,6.283,6.283,0,0,1-3.466,1.915,4.372,4.372,0,0,1-3.652-1.6,3.633,3.633,0,0,1-.913-1.658c-.149-.662-.068-1.372-.176-2.048a6.106,6.106,0,0,0-.327-1.054,7.74,7.74,0,0,1-.436-3.4,4.138,4.138,0,0,1,.389-1.571,4.58,4.58,0,0,1,1.444-1.138,6.064,6.064,0,0,1,8.983,2.806,3.844,3.844,0,0,1,.378,2.379A15.12,15.12,0,0,1,253.927,685.889Z" transform="translate(-241.283 -673.082)" fill="#c6915f"/>
                  <path id="Path_20631" data-name="Path 20631" d="M255.566,685.071a10.261,10.261,0,0,1-5.038,0,4.59,4.59,0,0,1-3.361-2.984,6.867,6.867,0,0,0-2.316,3.745s-.133-3.964,1.1-4.457,3.81-1.139,4.094-.883,5.067,2.989,5.067,2.989Z" transform="translate(-242.577 -676.187)" fill="#b77c4a"/>
                  <g id="Group_12282" data-name="Group 12282" transform="translate(3.286 8.51)">
                    <path id="Path_20632" data-name="Path 20632" d="M279.237,705.7a5.368,5.368,0,0,0-.6-.248,3.307,3.307,0,0,0-.647-.148,1.8,1.8,0,0,0-.674,0,1.2,1.2,0,0,0-.605.3l.011.029a3.018,3.018,0,0,0,.33,0l.311-.017c.2-.008.4-.057.611-.058a4.151,4.151,0,0,1,.625.051c.21.029.419.078.63.126Z" transform="translate(-272.257 -705.272)" fill="#0c0835"/>
                    <path id="Path_20633" data-name="Path 20633" d="M250.785,705.884a2.408,2.408,0,0,1,.617-.173,3.3,3.3,0,0,1,.631-.031c.211.01.413.067.621.079a6.086,6.086,0,0,0,.651.028l.011-.029a1.489,1.489,0,0,0-.609-.306,1.957,1.957,0,0,0-.678-.021,2.826,2.826,0,0,0-.662.129,2.214,2.214,0,0,0-.6.3Z" transform="translate(-250.769 -705.387)" fill="#0c0835"/>
                    <ellipse id="Ellipse_182" data-name="Ellipse 182" cx="0.203" cy="0.416" rx="0.203" ry="0.416" transform="translate(5.475 1.212)" fill="#0c0835"/>
                    <ellipse id="Ellipse_183" data-name="Ellipse 183" cx="0.195" cy="0.416" rx="0.195" ry="0.416" transform="translate(1.206 1.232)" fill="#0c0835"/>
                    <path id="Path_20634" data-name="Path 20634" d="M267.781,726.406a.777.777,0,0,0,.3.385.53.53,0,0,0,.477.05c.247-.1.315-.393-.021-.328a1.157,1.157,0,0,1-.39.022C268.08,726.527,267.811,726.483,267.781,726.406Z" transform="translate(-264.862 -722.779)" fill="#965f35"/>
                    <g id="Group_12281" data-name="Group 12281" transform="translate(1.816 4.756)">
                      <path id="Path_20635" data-name="Path 20635" d="M264.9,732.989a30.9,30.9,0,0,1-3.552.126c.273.9.943,1.79,1.862,1.757C264.157,734.839,264.7,733.932,264.9,732.989Z" transform="translate(-261.352 -732.989)" fill="#892c35"/>
                      <path id="Path_20636" data-name="Path 20636" d="M265.717,739.832a.871.871,0,0,1,1.221-.086.928.928,0,0,1,1-.03,1.535,1.535,0,0,1-.819.543l-.317.042A1.518,1.518,0,0,1,265.717,739.832Z" transform="translate(-264.968 -738.417)" fill="#fb8384"/>
                      <path id="Path_20637" data-name="Path 20637" d="M266.033,733.133a2.2,2.2,0,0,1-.09.446,4.916,4.916,0,0,1-2.884.149,4.851,4.851,0,0,1-.078-.485C263.745,733.254,265.212,733.214,266.033,733.133Z" transform="translate(-262.701 -733.108)" fill="#fff"/>
                    </g>
                  </g>
                  <g id="Group_12283" data-name="Group 12283" transform="translate(1.494 12.639)">
                    <path id="Path_20638" data-name="Path 20638" d="M242.006,731.72a.933.933,0,0,0,.2-.005c.647-.087.993-.136.993-.136l-.039-.283-.992.136c-.6.081-1.359-.865-1.56-1.977a.144.144,0,0,0-.161-.119h0a.143.143,0,0,0-.122.164C240.536,730.673,241.306,731.664,242.006,731.72Z" transform="translate(-240.325 -729.333)" fill="#c9d36a"/>
                    <path id="Path_20639" data-name="Path 20639" d="M240.361,729.622a.132.132,0,0,0,0,.031c.209,1.174.979,2.165,1.68,2.221a.951.951,0,0,0,.2-.005l.946-.13.011.079-.993.136a.949.949,0,0,1-.2,0c-.7-.056-1.471-1.047-1.68-2.221A.138.138,0,0,1,240.361,729.622Z" transform="translate(-240.325 -729.572)" fill="#abbc4b"/>
                    <path id="Path_20640" data-name="Path 20640" d="M255.035,739.548l.567-.078a.358.358,0,0,0,.306-.4h0a.358.358,0,0,0-.4-.306l-.567.078a.358.358,0,0,0-.306.4h0A.358.358,0,0,0,255.035,739.548Z" transform="translate(-252.174 -737.141)" fill="#abbc4b"/>
                    <path id="Path_20641" data-name="Path 20641" d="M254.715,739.95a.364.364,0,0,0,0,.071h0a.358.358,0,0,0,.4.306l.5-.068a.356.356,0,0,0,.285-.23c0,.009,0,.017.006.026h0a.358.358,0,0,1-.306.4l-.567.078a.358.358,0,0,1-.4-.306h0A.357.357,0,0,1,254.715,739.95Z" transform="translate(-252.175 -738.128)" fill="#778030"/>
                  </g>
                  <g id="Group_12284" data-name="Group 12284" transform="translate(0.898 0.027)">
                    <path id="Path_20642" data-name="Path 20642" d="M241.085,662.9a5.388,5.388,0,0,0-2.875,5.1,6.365,6.365,0,0,1-.939-6.262,5.491,5.491,0,0,1,5.209-3.615Z" transform="translate(-236.849 -657.722)" fill="#263238"/>
                    <path id="Path_20643" data-name="Path 20643" d="M247.673,682.888a5.367,5.367,0,0,0-2.871,4.957c0-.022,0-.043,0-.065.047-3.822,1.372-4.837,2.681-5.534l.312.223Z" transform="translate(-243.437 -677.714)" fill="#3d4f56"/>
                    <path id="Path_20644" data-name="Path 20644" d="M266.779,664.481s-7.847.455-8.473-3.529,1.385-4.952,2.372-5.048a5.269,5.269,0,0,1,4.554,1.271c1.645,1.6,3.481,2.562,3.277,7.723Z" transform="translate(-254.526 -655.835)" fill="#263238"/>
                    <path id="Path_20645" data-name="Path 20645" d="M290.692,686.534c-.342-.19-.684-.386-1.014-.6s-.658-.435-.978-.669a20.644,20.644,0,0,1-1.843-1.505,20.737,20.737,0,0,0,1.7,1.683q.448.4.923.77c.314.25.643.483.976.712Z" transform="translate(-278.276 -678.968)" fill="#171f23"/>
                    <path id="Path_20646" data-name="Path 20646" d="M283.21,665.622c1.859,1.006,3.9,3.425,3.944,5.428a1.659,1.659,0,0,0,.373-1.776,7.674,7.674,0,0,0-2.305-2.7A9.4,9.4,0,0,0,283.21,665.622Z" transform="translate(-275.255 -663.943)" fill="#171f23"/>
                    <path id="Path_20647" data-name="Path 20647" d="M279.947,663.625a12.358,12.358,0,0,0,0-3.475,5.869,5.869,0,0,0-.334-1.22c-.025-.117.029-.153.029-.153-1.294-1.992-3.132-2.277-4.994-2.86l.107-.053a5,5,0,0,1,4.113,1.312c1.645,1.6,3.481,2.562,3.277,7.723l-1.73-.418a17.605,17.605,0,0,1-5.037-.512C277.994,664.483,279.7,664.27,279.947,663.625Z" transform="translate(-268.161 -655.835)" fill="#171f23"/>
                    <path id="Path_20648" data-name="Path 20648" d="M264.54,685.58c.769,1.2,1.721,2.321,5.354,2.843,2.42.348,2.8-.149,2.8-.149s-4.224-.281-5.931-1.147A6.849,6.849,0,0,1,264.54,685.58Z" transform="translate(-259.789 -680.476)" fill="#171f23"/>
                  </g>
                  <g id="Group_12285" data-name="Group 12285" transform="translate(7.05)">
                    <path id="Path_20649" data-name="Path 20649" d="M278.262,658.742c-.47-1.376-2.827-2.929-5.56-2.967a5.672,5.672,0,0,1,3.036.266,6.517,6.517,0,0,1,3.453,2.716C279.837,659.873,278.262,658.742,278.262,658.742Z" transform="translate(-272.702 -655.679)" fill="#c9d36a"/>
                    <path id="Path_20650" data-name="Path 20650" d="M275.881,656.868a5.485,5.485,0,0,1,2.325,1.864c.075.009.757.136.768.138.078.112.151.225.218.34.023.04.043.077.06.111a2.293,2.293,0,0,0-.61.008.383.383,0,0,1-.208-.016c-.1-.068-.172-.117-.172-.117-.47-1.376-2.827-2.929-5.56-2.967A7.149,7.149,0,0,1,275.881,656.868Z" transform="translate(-272.702 -656.135)" fill="#abbc4b"/>
                    <path id="Path_20651" data-name="Path 20651" d="M304.311,677.414c.129-2.556-.232-4.3-.555-4.773s1-.268,1.267.1a10.561,10.561,0,0,1,.541,4.687C305.35,679.845,304.311,677.414,304.311,677.414Z" transform="translate(-298.386 -669.502)" fill="#c9d36a"/>
                    <path id="Path_20652" data-name="Path 20652" d="M303.993,672.366c-.114.043-.147.1-.066.223a8.353,8.353,0,0,1,.5,2.159c.085.953.043,1.955.062,2.068a1.6,1.6,0,0,0,1.105.21c-.007.134-.016.27-.029.407-.016.178-.036.329-.06.458-.254.029-.606.041-.927.046a5.13,5.13,0,0,1-.266-.521c.129-2.556-.232-4.3-.555-4.773C303.625,672.45,303.764,672.369,303.993,672.366Z" transform="translate(-298.385 -669.503)" fill="#abbc4b"/>
                    <path id="Path_20653" data-name="Path 20653" d="M303.42,700.933c.334-.1,1.327.058,1.489.546.367,1.109.225,3.785-.468,4.514a1.9,1.9,0,0,1-1.312.242c-.717-.142-.834-1.252-.733-2.753S302.956,701.07,303.42,700.933Z" transform="translate(-297.274 -693.145)" fill="#abbc4b"/>
                    <path id="Path_20654" data-name="Path 20654" d="M304.686,716.371a1.905,1.905,0,0,1-1.312.242c-.412-.081-.625-.484-.714-1.1a1.965,1.965,0,0,0,1.672,0,7.655,7.655,0,0,1,.163-2.084,16.438,16.438,0,0,1,.679,1.8A2.52,2.52,0,0,1,304.686,716.371Z" transform="translate(-297.52 -703.523)" fill="#778030"/>
                    <path id="Path_20655" data-name="Path 20655" d="M309.149,704.935c-.091,1.34.226,2.453.707,2.486s.944-1.028,1.035-2.368-.226-2.453-.707-2.486S309.24,703.6,309.149,704.935Z" transform="translate(-302.882 -694.521)" fill="#c9d36a"/>
                    <path id="Path_20656" data-name="Path 20656" d="M310.478,719.657s.615.077.852,1.007c-.2.573-.475.934-.758.915-.245-.017-.446-.313-.574-.777a2.068,2.068,0,0,0,.413-.129A3.308,3.308,0,0,1,310.478,719.657Z" transform="translate(-303.598 -708.679)" fill="#abbc4b"/>
                    <path id="Path_20657" data-name="Path 20657" d="M312.809,708.589c-.068,1,.114,1.8.561,1.835s.864-.759.932-1.763-.24-1.842-.687-1.872S312.877,707.585,312.809,708.589Z" transform="translate(-305.916 -698.018)" fill="#abbc4b"/>
                    <path id="Path_20658" data-name="Path 20658" d="M313.484,720.737a.716.716,0,0,0,.579-.324c-.177.424-.428.689-.691.672-.384-.026-.572-.623-.574-1.428C312.894,720.29,313.12,720.713,313.484,720.737Z" transform="translate(-305.918 -708.679)" fill="#778030"/>
                  </g>
                </g>
              </g>
            </g>
          </g>
        </g>
      </g>
    </g>
    <circle id="Ellipse_185" data-name="Ellipse 185" cx="15" cy="15" r="15" transform="translate(1149.31 5248.941)" fill="none" stroke="#fff" stroke-width="1"/>
  </g>
</svg>
