<svg xmlns="http://www.w3.org/2000/svg" width="21.696" height="15.967" viewBox="0 0 21.696 15.967">
  <g id="Group_16180" data-name="Group 16180" transform="translate(378.859 1023.518)">
    <path id="Path_1" data-name="Path 1" d="M-378.859-1015.616v-3.664a.573.573,0,0,1,.242-.372c2.175-1.274,4.324-2.522,6.472-3.8a.573.573,0,0,1,.618.053c2.578,1.434,5.157,2.841,7.735,4.275,1.074.611,2.175,1.195,3.25,1.806.107.053.215.133.376.213-.107.08-.188.159-.269.212-1.128.664-2.256,1.328-3.357,1.991a.4.4,0,0,1-.457-.026c-2.175-1.195-4.378-2.39-6.526-3.611a2.818,2.818,0,0,0-2.954.026c-1.585.929-3.142,1.859-4.727,2.761-.081.053-.188.106-.269.159A.245.245,0,0,1-378.859-1015.616Z" transform="translate(0 0)" fill="#fff"/>
    <path id="Path_2" data-name="Path 2" d="M-317.582-919.448v1.757c0,.612,0,1.225.027,1.837a.59.59,0,0,1-.269.532c-2.122,1.251-4.27,2.529-6.392,3.78a.538.538,0,0,1-.564,0c-3.733-2.076-7.493-4.153-11.226-6.2-.081-.027-.134-.107-.242-.16.134-.08.215-.16.322-.213,1.1-.639,2.2-1.278,3.277-1.943a.405.405,0,0,1,.483,0c2.175,1.225,4.378,2.423,6.553,3.647a2.764,2.764,0,0,0,2.927-.027c1.585-.932,3.142-1.864,4.727-2.769A1.829,1.829,0,0,1-317.582-919.448Z" transform="translate(-39.608 -96.089)" fill="#fff"/>
  </g>
</svg>
