<svg xmlns="http://www.w3.org/2000/svg" xmlns:xlink="http://www.w3.org/1999/xlink" width="266" height="266" viewBox="0 0 266 266">
  <defs>
    <linearGradient id="linear-gradient" x1="0.5" x2="0.5" y2="1" gradientUnits="objectBoundingBox">
      <stop offset="0" stop-color="#bb0711"/>
      <stop offset="1" stop-color="#8c040a"/>
    </linearGradient>
  </defs>
  <g id="Group_21555" data-name="Group 21555" transform="translate(6004 17335)">
    <rect id="Rectangle_6375" data-name="Rectangle 6375" width="266" height="266" transform="translate(-6004 -17335)" fill="url(#linear-gradient)"/>
    <g id="Group_21520" data-name="Group 21520" transform="translate(1105.904 398.479)">
      <path id="Path_28243" data-name="Path 28243" d="M48.6,300.671a5.927,5.927,0,0,1-2.8,2.6,9.615,9.615,0,0,1-4.7,1H37.7v8.2H32.2v-22.7h9a10.785,10.785,0,0,1,4.6.9,5.927,5.927,0,0,1,2.8,2.6,7.9,7.9,0,0,1,.9,3.8,5.721,5.721,0,0,1-.9,3.6m-5.5-1.5a3.156,3.156,0,0,0,0-4.2,3.286,3.286,0,0,0-2.4-.7h-3v5.7h3a3.794,3.794,0,0,0,2.4-.8" transform="translate(-7110.103 -17819.85)" fill="#fff"/>
      <path id="Path_28244" data-name="Path 28244" d="M58,308.171h7.2v4.3H52.4v-22.7h5.5Z" transform="translate(-7110.103 -17819.85)" fill="#fff"/>
      <path id="Path_28245" data-name="Path 28245" d="M82,308.471H73.5l-1.4,4H66.3l8.2-22.7h6.4l8.2,22.7H83.2Zm-1.4-4.3-2.8-8.3-2.8,8.3Z" transform="translate(-7110.103 -17819.85)" fill="#fff"/>
      <path id="Path_28246" data-name="Path 28246" d="M112,312.471h-5.5l-9.3-14v14H91.7v-22.7h5.5l9.3,14.1v-14.1H112Z" transform="translate(-7110.103 -17819.85)" fill="#fff"/>
      <path id="Path_28247" data-name="Path 28247" d="M132.4,289.771v4.4h-6v18.3h-5.5v-18.3h-6v-4.4Z" transform="translate(-7110.103 -17819.85)" fill="#fff"/>
      <path id="Path_28248" data-name="Path 28248" d="M149.3,308.471h-8.5l-1.4,4h-5.8l8.2-22.7h6.4l8.2,22.7h-5.9Zm-1.4-4.3-2.8-8.3-2.8,8.3Z" transform="translate(-7110.103 -17819.85)" fill="#fff"/>
      <path id="Path_28249" data-name="Path 28249" d="M175.4,289.771v4.4h-6v18.3h-5.5v-18.3h-6v-4.4Z" transform="translate(-7110.103 -17819.85)" fill="#fff"/>
      <rect id="Rectangle_6282" data-name="Rectangle 6282" width="5.5" height="22.7" transform="translate(-6931.902 -17530.078)" fill="#fff"/>
      <path id="Path_28250" data-name="Path 28250" d="M192.6,311.171a10.607,10.607,0,0,1-4.2-4.2,12.218,12.218,0,0,1-1.6-6,11.241,11.241,0,0,1,1.6-6,11.533,11.533,0,0,1,10.1-5.6,12.038,12.038,0,0,1,5.9,1.5,11.033,11.033,0,0,1,4.2,4.1,12.144,12.144,0,0,1,1.5,6,11.709,11.709,0,0,1-5.8,10.2,12.157,12.157,0,0,1-11.7,0m10.2-5.3a8,8,0,0,0,0-9.6,5.585,5.585,0,0,0-4.4-1.8,5.729,5.729,0,0,0-4.4,1.8,8,8,0,0,0,0,9.6,5.729,5.729,0,0,0,4.4,1.8,5.584,5.584,0,0,0,4.4-1.8" transform="translate(-7110.103 -17819.85)" fill="#fff"/>
      <path id="Path_28251" data-name="Path 28251" d="M233.5,312.471H228l-9.3-14v14h-5.6v-22.7h5.5l9.3,14.1v-14.1h5.5v22.7Z" transform="translate(-7110.103 -17819.85)" fill="#fff"/>
    </g>
    <g id="Group_20893" data-name="Group 20893" transform="translate(-16184.352 4835.181)">
      <path id="Path_28252" data-name="Path 28252" d="M88.052,235.67a68.934,68.934,0,0,0-15.047-4.458,85.315,85.315,0,0,0-13.84-1.579,6.308,6.308,0,0,1-3.437-1.115c-1.115-.743-1.207-2.043-.372-3.251a3.68,3.68,0,0,1,3.251-1.393,89.588,89.588,0,0,1,11.146.557,68.724,68.724,0,0,1,16.626,3.9c1.3.464,2.6.836,3.994,1.3a3.216,3.216,0,0,0,3.715-1.115c2.694-3.158,5.573-6.223,8.359-9.381.836-1.022.65-1.951-.65-2.508a118.063,118.063,0,0,0-25.171-7.8,118.066,118.066,0,0,0-16.069-1.765,22.675,22.675,0,0,1-3.622-.557,2.568,2.568,0,0,1-2.043-2.229,3.7,3.7,0,0,1,2.415-3.065,4.106,4.106,0,0,1,1.858-.186c4.923.279,9.938-.186,14.768,1.3,1.765.557,3.715.464,5.48.836a110.023,110.023,0,0,1,25.45,8.174c.836.372,1.672.836,2.508,1.115a2.4,2.4,0,0,0,2.6-.279c3.622-2.879,7.245-5.666,11.053-8.638a7.786,7.786,0,0,0-3.251-2.6A128.432,128.432,0,0,0,80.25,188.021a112.669,112.669,0,0,0-19.413-1.858,7.938,7.938,0,0,1-4.83-1.115c-1.486-1.022-1.486-2.6,0-3.808a4.457,4.457,0,0,1,2.972-1.022c2.786.093,5.573.186,8.359.186,2.508,0,2.972-.557,3.065-2.972.093-1.207,0-2.508,0-3.715a5.792,5.792,0,0,0-1.858-4.087,29.115,29.115,0,0,1-5.2-6.5c-4.458-6.688-5.294-14.118-4.18-21.827,1.115-7.9,5.573-13.932,11.239-19.227,2.229-2.043,4.365-2.136,6.595.093,3.622,3.622,6.873,7.431,8.917,12.261,2.6,6.223,3.53,12.446,1.858,19.041-1.393,5.48-3.53,10.682-7.8,14.4-3.622,3.251-3.808,7.152-3.344,11.425.093,1.393.836,1.858,2.6,2.136,2.229.372,2.879-.093,2.972-2.229s.093-4.365,0-6.5a5.35,5.35,0,0,1,1.858-4.458c3.344-3.158,6.595-6.5,9.846-9.846a21.6,21.6,0,0,0,2.879-2.972c1.579-2.322,3.808-2.972,6.409-2.879,9.288.093,18.577,0,27.865,0a7.309,7.309,0,0,1,5.759,2.322c3.994,4.273,8.174,8.359,12.446,12.446a8.581,8.581,0,0,1,2.786,6.595c0,3.9,0,7.709.093,11.61,0,1.393.743,1.858,2.136,1.486,3.53-1.022,7.152-2.043,10.682-3.065,1.765-.557,2.229-1.115,2.415-2.972.186-2.694-.186-4.83-2.508-7.059a42,42,0,0,1-13-24.985,35.55,35.55,0,0,1,1.022-14.675c2.415-8.917,7.431-16.162,14.4-22.2,2.508-2.229,3.9-2.229,6.5,0a45.624,45.624,0,0,1,13.84,20.434,37.647,37.647,0,0,1,1.3,17.833,38.2,38.2,0,0,1-7.338,17.276c-1.858,2.415-3.622,5.016-6.13,6.966a5.206,5.206,0,0,0-1.765,3.622c-.464,2.508.464,3.53,2.972,3.158,4.18-.464,8.267-.929,12.446-1.207,2.508-.186,4.923-.093,7.431-.093a5.978,5.978,0,0,1,2.229.464,2.572,2.572,0,0,1,.557,4.273,5.831,5.831,0,0,1-3.9,1.3,131.141,131.141,0,0,0-17.09,1.393,122.236,122.236,0,0,0-27.308,7.245,117.871,117.871,0,0,0-23.778,12.353,129.869,129.869,0,0,0-20.341,16.719c-8.452,8.359-15.14,17.926-21.177,27.958a17.127,17.127,0,0,1-1.579,2.322,3.387,3.387,0,0,1-4.18.836,2.9,2.9,0,0,1-.836-4.087c1.207-2.322,2.694-4.458,4.087-6.688a91.321,91.321,0,0,1,4.83-8.452m85.081-79.693V158.3c0,2.136,0,4.366.093,6.5,0,.464.186,1.022.743,1.022a1.834,1.834,0,0,0,1.115-.557,4.867,4.867,0,0,0,.929-1.022,31.476,31.476,0,0,0,6.966-20.156c-.093-9.753-3.994-17.926-10.867-24.8-1.393-1.393-2.043-1.3-3.53,0a34.328,34.328,0,0,0-9.846,15.883,30.656,30.656,0,0,0,2.508,23.871,64.077,64.077,0,0,0,3.994,6.223,1.507,1.507,0,0,0,1.579.65c.557-.186.464-.743.464-1.115V150.868a31.6,31.6,0,0,1,.279-4.18c.186-1.486,1.486-1.858,2.6-2.322.743-.279,2.415,1.022,2.786,2.043a9.357,9.357,0,0,1,.279,2.322c-.093,2.229-.093,4.737-.093,7.245m-40.5,18.3h0c-3.53,0-7.152,0-10.682.093a2.028,2.028,0,0,0-2.322,2.322c-.093,5.387-.093,10.867,0,16.255a3.5,3.5,0,0,0,2.229,3.251c1.393.743,2.694,1.579,3.994,2.322a2.819,2.819,0,0,0,3.065,0,90.2,90.2,0,0,1,13.932-7.245,4.637,4.637,0,0,0,2.972-4.737c0-2.972.093-5.852,0-8.824-.093-2.508-.836-3.251-3.437-3.344-3.251-.186-6.5-.093-9.753-.093M64.46,146.688c-.279,3.715,1.022,7.524,2.694,11.239a9.334,9.334,0,0,0,1.672,2.229.81.81,0,0,0,1.3-.557,7.03,7.03,0,0,0,.093-1.393V147.06a9.5,9.5,0,0,1,.464-3.622,2.859,2.859,0,0,1,2.879-1.951,2.586,2.586,0,0,1,2.322,1.951,18.513,18.513,0,0,1,.464,3.158c.093,2.6-.093,5.294.093,7.9.093,1.951-.557,3.994.464,5.852,2.508-.65,2.322-3.344,3.622-4.83a5.489,5.489,0,0,0,.557-1.3c2.786-9.567.464-17.926-6.223-25.264a1.838,1.838,0,0,0-2.879-.093c-4.551,4.923-7.524,10.5-7.524,17.833m44.491,12.725c2.229,2.229,4.551,4.458,6.688,6.78a6.877,6.877,0,0,0,5.387,2.136c5.109-.093,10.217,0,15.326,0a19.415,19.415,0,0,0,2.322-.093,1.046,1.046,0,0,0,.836-1.672c-1.672-2.508-4.18-4.087-6.13-6.316a5.533,5.533,0,0,0-4.551-1.858c-5.852.093-11.8,0-17.648,0a2.234,2.234,0,0,0-2.229,1.022m-8.174,14.861c-2.6,0-5.294-.093-7.9,0-5.016,0-5.109.093-5.016,5.294,0,1.207-.093,2.508.743,3.53a1.843,1.843,0,0,0,1.207.557,1.416,1.416,0,0,0,1.115-.65,22.8,22.8,0,0,0,.743-2.694,2.6,2.6,0,0,1,2.6-2.229c4.18,0,8.359-.093,12.539,0,2.229.093,2.972,1.115,3.065,3.251s0,4.365.093,6.5a3.516,3.516,0,0,0,1.3,2.879c.557.372,1.115.65,1.672.279a1.619,1.619,0,0,0,.557-1.115c.093-4.365.093-8.638,0-13,0-1.858-.557-2.508-2.508-2.508-3.437-.093-6.873-.093-10.217-.093M93.068,167.4c.093.279.279.557.372.836,2.136,0,4.273.093,6.409,0,2.508-.093,5.109.464,7.616-.372-.372-3.251-3.715-4.18-5.2-6.595a1.282,1.282,0,0,0-.372-.279c-.836-.557-1.672-.743-2.415.093-2.136,2.043-4.273,4.18-6.409,6.316m7.616,16.44c-.372.093-1.3.186-2.136.372-.464.093-.743,1.207-.372,1.579a7.047,7.047,0,0,0,4.18,1.765c.929.093,1.393-.557,1.486-1.393.186-1.486-.743-2.229-3.158-2.322" transform="translate(10185.55 -22243.998)" fill="#fff"/>
      <path id="Path_28253" data-name="Path 28253" d="M198.4,232.668c1.672,0,3.437-.093,5.109,0a2.585,2.585,0,0,1,2.322,2.415,2.634,2.634,0,0,1-1.579,2.6,5.345,5.345,0,0,1-3.158.557c-6.688-.186-13.282,1.207-19.6,2.972a78.042,78.042,0,0,0-18.762,7.616,90.614,90.614,0,0,0-16.812,12.26,22.512,22.512,0,0,1-2.879,2.322,2.875,2.875,0,0,1-3.808-.557,2.741,2.741,0,0,1-.093-3.808A13.434,13.434,0,0,1,141.094,257,91.293,91.293,0,0,1,160.6,242.978a110.231,110.231,0,0,1,17.09-7.059,80.414,80.414,0,0,1,20.713-3.251" transform="translate(10179.598 -22252.699)" fill="#fff"/>
      <path id="Path_28254" data-name="Path 28254" d="M141.921,230.772a4.148,4.148,0,0,1-1.579,3.437c-.743.557-1.393,1.207-2.136,1.765A99.291,99.291,0,0,0,113.963,260.4a11.517,11.517,0,0,1-2.6,2.6,2.645,2.645,0,0,1-3.065.186,2.851,2.851,0,0,1-1.207-3.251,8.289,8.289,0,0,1,1.393-2.879,123.891,123.891,0,0,1,14.49-16.719,121.409,121.409,0,0,1,13.189-10.774,5.664,5.664,0,0,1,3.344-1.393,2.393,2.393,0,0,1,2.415,2.6" transform="translate(10181.836 -22252.383)" fill="#fff"/>
      <path id="Path_28255" data-name="Path 28255" d="M198.384,207.866c2.879,0,4.923-.093,6.873,0a2.761,2.761,0,0,1,2.415,2.415,2.535,2.535,0,0,1-1.579,2.972,6.385,6.385,0,0,1-2.229.464,31.59,31.59,0,0,1-4.18.279c-9.2,0-18.019,2.229-26.75,4.83a15.275,15.275,0,0,1-4.551.929,2.741,2.741,0,0,1-2.786-2.043,3.377,3.377,0,0,1,1.579-3.53c.372-.186.836-.372,1.3-.557,5.759-1.672,11.425-3.622,17.462-4.458,4.458-.372,8.824-1.672,12.446-1.3" transform="translate(10177.669 -22250.932)" fill="#fff"/>
      <path id="Path_28256" data-name="Path 28256" d="M157.558,223.365a3.045,3.045,0,0,1-2.6,3.158c-1.858.186-3.065-1.022-3.158-2.972a2.589,2.589,0,0,1,2.694-2.879,2.907,2.907,0,0,1,3.065,2.694" transform="translate(10178.646 -22251.848)" fill="#fff"/>
      <path id="Path_28257" data-name="Path 28257" d="M179.072,140.437a2.781,2.781,0,0,1-2.972-2.786,2.611,2.611,0,0,1,2.786-2.879,2.749,2.749,0,0,1,2.786,2.508,2.868,2.868,0,0,1-2.6,3.158" transform="translate(10176.917 -22245.734)" fill="#fff"/>
    </g>
  </g>
</svg>
