<svg xmlns="http://www.w3.org/2000/svg" xmlns:xlink="http://www.w3.org/1999/xlink" width="266" height="266" viewBox="0 0 266 266">
  <defs>
    <linearGradient id="linear-gradient" x1="0.5" x2="0.5" y2="1" gradientUnits="objectBoundingBox">
      <stop offset="0" stop-color="#bb0711"/>
      <stop offset="1" stop-color="#8c040a"/>
    </linearGradient>
  </defs>
  <g id="Group_21558" data-name="Group 21558" transform="translate(5176 17335)">
    <rect id="Rectangle_6384" data-name="Rectangle 6384" width="266" height="266" transform="translate(-5176 -17335)" fill="url(#linear-gradient)"/>
    <g id="Group_21545" data-name="Group 21545" transform="translate(-23.997 -34.6)">
      <path id="Path_28274" data-name="Path 28274" d="M72.5,1144.9a6.984,6.984,0,0,1-3.2-2.4,6.154,6.154,0,0,1-1.2-3.8H74a2.854,2.854,0,0,0,.9,1.9,2.935,2.935,0,0,0,1.9.7,2.707,2.707,0,0,0,1.9-.6,1.865,1.865,0,0,0,.7-1.6,1.816,1.816,0,0,0-.6-1.4,3.391,3.391,0,0,0-1.4-.9c-.5-.2-1.3-.5-2.3-.8a22.641,22.641,0,0,1-3.6-1.4,7.55,7.55,0,0,1-2.4-2,5.4,5.4,0,0,1-1-3.5,6.129,6.129,0,0,1,2.3-5,9.327,9.327,0,0,1,6-1.8,9.327,9.327,0,0,1,6,1.8,6.943,6.943,0,0,1,2.5,5h-6a2.136,2.136,0,0,0-.8-1.7,2.883,2.883,0,0,0-1.9-.6,2.544,2.544,0,0,0-1.6.5,2.035,2.035,0,0,0-.6,1.5,1.856,1.856,0,0,0,1,1.7,14.846,14.846,0,0,0,3.2,1.3c1.5.5,2.7,1,3.6,1.4a7.552,7.552,0,0,1,2.4,2,5.183,5.183,0,0,1,1,3.3,5.985,5.985,0,0,1-1,3.5,6.483,6.483,0,0,1-2.9,2.5,10.17,10.17,0,0,1-4.4.9,8.148,8.148,0,0,1-4.4-.5" transform="translate(-5152.103 -18219.701)" fill="#fff"/>
      <path id="Path_28275" data-name="Path 28275" d="M94.2,1127.2v4.6h7.4v4.3H94.2v5h8.4v4.4H88.7v-22.7h13.9v4.4Z" transform="translate(-5152.103 -18219.701)" fill="#fff"/>
      <path id="Path_28276" data-name="Path 28276" d="M117.7,1145.5l-4.7-8.6h-1.3v8.6h-5.5v-22.7h9.3a10.785,10.785,0,0,1,4.6.9,5.927,5.927,0,0,1,2.8,2.6,7.4,7.4,0,0,1,.9,3.6,6.2,6.2,0,0,1-1.3,4,6.91,6.91,0,0,1-3.8,2.5l5.2,9h-6.2Zm-6-12.5h3.4a3.174,3.174,0,0,0,2.3-.7,2.865,2.865,0,0,0,.8-2.1,2.629,2.629,0,0,0-.8-2,3.174,3.174,0,0,0-2.3-.7h-3.4Z" transform="translate(-5152.103 -18219.701)" fill="#fff"/>
      <path id="Path_28277" data-name="Path 28277" d="M148.6,1122.8l-8.1,22.7h-6.9l-8.1-22.7h5.9l5.6,17.1,5.7-17.1Z" transform="translate(-5152.103 -18219.701)" fill="#fff"/>
      <rect id="Rectangle_6283" data-name="Rectangle 6283" width="5.5" height="22.7" transform="translate(-5001.201 -17096.9)" fill="#fff"/>
      <path id="Path_28278" data-name="Path 28278" d="M160.9,1128.1a10.118,10.118,0,0,1,4.1-4.1,11.5,11.5,0,0,1,5.9-1.5,11.309,11.309,0,0,1,6.9,2.1,10.1,10.1,0,0,1,3.8,5.8h-6.1a5.853,5.853,0,0,0-1.9-2.2,5.3,5.3,0,0,0-2.8-.7,5.1,5.1,0,0,0-4.1,1.8,7.3,7.3,0,0,0-1.6,4.8,6.8,6.8,0,0,0,1.6,4.8,5.238,5.238,0,0,0,4.1,1.8,5.073,5.073,0,0,0,2.8-.7,4.588,4.588,0,0,0,1.9-2.2h6.1a9.794,9.794,0,0,1-3.8,5.8,11.309,11.309,0,0,1-6.9,2.1,11.5,11.5,0,0,1-5.9-1.5,10.763,10.763,0,0,1-4.1-4.1,11.618,11.618,0,0,1-1.5-6,12.144,12.144,0,0,1,1.5-6" transform="translate(-5152.103 -18219.701)" fill="#fff"/>
      <path id="Path_28279" data-name="Path 28279" d="M190.6,1127.2v4.6H198v4.3h-7.4v5H199v4.4H185.1v-22.7H199v4.4Z" transform="translate(-5152.103 -18219.701)" fill="#fff"/>
    </g>
    <g id="Group_21544" data-name="Group 21544" transform="translate(-18.281 -33.189)">
      <path id="Path_28280" data-name="Path 28280" d="M197.135,1022.926a11.744,11.744,0,0,0-8.518-3.786,10.426,10.426,0,0,0-5.237,1.4,14.128,14.128,0,0,0-3.5,2.867q-1.945,2.064-3.866,4.127c-1.323,1.416-2.646,2.832-3.985,4.252l-2.979,3.189-.376.375-.453-.238-.155-.064a.538.538,0,0,1-.268-.235c-.047-.072-.094-.157-.15-.255s-.1-.176-.157-.275c-2.048-4.838-5.822-7.291-11.219-7.291-.73,0-1.475-.013-2.219-.026-1.522-.027-3.011-.027-4.571-.053-.809-.013-1.625-.026-2.427-.026-2.284,0-4.211.05-6.131.166a8.7,8.7,0,0,1-1.086.046,15.646,15.646,0,0,1-10.266-3.987,25.626,25.626,0,0,0-16.332-5.6,27.151,27.151,0,0,0-14.561,4.221,57.686,57.686,0,0,0-6.967,5.675l-.283.255c-.962.866-1.963,1.768-2.965,2.626a1.975,1.975,0,0,1-1.35.6,2.854,2.854,0,0,1-.9-.2,11.025,11.025,0,0,0-4.529-1.017,12.179,12.179,0,0,0-5.319,1.332c-.333.178-.666.345-1,.511-.352.176-.7.353-1.029.528l-1.043.524c-1.338.673-2.721,1.369-4.087,1.99a6.015,6.015,0,0,0-2.985,2.473l-.128.229v1.816l3.024,5.99c2.185,4.32,4.444,8.786,6.616,13.183,2.785,5.534,5.615,11.2,8.582,17.151l4.9,9.8a9.243,9.243,0,0,0,2.447,3.517l.271.21h1.831l.2-.1c.444-.209.875-.418,1.306-.627s.875-.425,1.34-.644c2.162-1.054,4.43-2.163,6.651-3.272a10.794,10.794,0,0,0,6.233-9.238c.117-1.44.636-1.926,2.058-1.926,3.811,0,7.785.011,11.976.024,4.672.015,9.611.029,14.887.029h17.645c9.611,0,17.109-3.731,22.92-11.405,4.263-5.623,7.937-10.519,11.231-14.975.534-.734,1.088-1.446,1.637-2.15q.473-.6.931-1.2l.225-.3c1.773-2.328,3.6-4.736,5.18-7.176a10.867,10.867,0,0,0-1.053-13.049m-116.5,30.1c-.835-1.647-1.671-3.324-2.51-5.009-1.12-2.249-2.248-4.512-3.388-6.732a1.909,1.909,0,0,1-.272-1.526,1.971,1.971,0,0,1,1.141-1c.459-.2.9-.413,1.355-.638.285-.141.578-.284.912-.441.214-.107.429-.223.648-.341.305-.165.619-.334.984-.5a5.478,5.478,0,0,1,2.4-.58,4.5,4.5,0,0,1,4.058,2.767c4.908,9.763,9.867,19.683,14.673,29.294l1.75,3.553a5.018,5.018,0,0,1,.591,2.47l-.031.571.117.076a4.158,4.158,0,0,1-2.241,3.156c-.442.234-.9.467-1.35.7s-.936.481-1.4.725c-.331.179-.676.344-1.019.51-.367.177-.734.353-1.061.529a1.8,1.8,0,0,1-.816.211c-.393,0-.8-.12-1.146-.974a1.141,1.141,0,0,0-.161-.345q-2.308-4.582-4.594-9.163-2.312-4.623-4.632-9.24l-2.012-4.074c-.449-.864-.875-1.728-1.309-2.607Zm79.906-11.705a4.841,4.841,0,0,1-3.843,1.519H137.208a3.394,3.394,0,0,0-2.836,1.269,3.265,3.265,0,0,0-.565,2.779,3.177,3.177,0,0,0,3.084,2.533c1.948,0,3.959.012,6,.026,2.095.014,4.217.027,6.327.027,4.074,0,7.6,0,10.869-.053a11.6,11.6,0,0,0,8.508-4.11c1.527-1.636,3.053-3.285,4.572-4.927q2.127-2.3,4.23-4.558c1.276-1.383,2.567-2.767,3.856-4.15q1.9-2.033,3.778-4.063c1.535-1.65,3.114-2.233,4.767-1.819a4.483,4.483,0,0,1,3.3,2.831,5,5,0,0,1-.856,4.66l0,.005c-1.789,2.42-3.63,4.891-5.4,7.243-.4.506-.785,1.024-1.173,1.544s-.754,1.015-1.161,1.53l-1.013,1.342c-.769,1.015-1.53,2.018-2.255,3.032-2.474,3.319-5,6.689-7.527,10.055a20.617,20.617,0,0,1-17.216,8.506H108.764a2.2,2.2,0,0,1-2.264-1.392c-4.572-9.251-9.217-18.54-13.8-27.593a1.847,1.847,0,0,1,.52-2.632c1.072-.87,2.129-1.82,3.15-2.739l.984-.872c.993-.879,2.019-1.788,3.083-2.607a20.282,20.282,0,0,1,12.906-4.674,20.611,20.611,0,0,1,12.982,4.678,2.242,2.242,0,0,1,.337.253c.151.126.3.241.459.36s.34.259.5.4a14.42,14.42,0,0,0,10.369,3.9h.709c2.291-.056,4.577-.105,7.351-.105,1.882,0,3.83,0,5.688.053.864,0,1.728.013,2.592.025s1.748.027,2.623.027a4.578,4.578,0,0,1,4.455,2.877,4.376,4.376,0,0,1-.875,4.825" transform="translate(-5152.103 -18219.701)" fill="#fff"/>
      <path id="Path_28281" data-name="Path 28281" d="M118.088,1009.868h38.82a3.22,3.22,0,0,0,3.422-2.908,36.882,36.882,0,0,0-.332-8.387,22.67,22.67,0,0,0-10.758-15.857,1.481,1.481,0,0,1-.825-1.026,1.626,1.626,0,0,1,.52-1.262,14.893,14.893,0,0,0,3.379-12.112A15.363,15.363,0,0,0,137.261,955.3h-.789a15.825,15.825,0,0,0-14.538,14.708,14.757,14.757,0,0,0,4.322,11.2l.52.562-1.149.769a6.243,6.243,0,0,1-.708.468,23.752,23.752,0,0,0-9.56,11.976,29.227,29.227,0,0,0-1.326,10.776c0,2.956,1.137,4.108,4.055,4.108m2.525-8.325v-.115c.507-8.071,7.783-15.18,15.857-15.527h.684a16.67,16.67,0,0,1,16.4,14.187c.2,1.474.265,2.147-.161,2.665-.4.488-1,.532-2.6.532h-21.28c-2.833,0-5.07,0-7.164.052a1.806,1.806,0,0,1-1.347-.444,1.69,1.69,0,0,1-.394-1.35m7.9-30.858a9.073,9.073,0,0,1,8.8-8.75h.1a8.855,8.855,0,0,1,8.491,8.85,8.543,8.543,0,0,1-8.534,8.534,9.093,9.093,0,0,1-6.351-2.709,8.355,8.355,0,0,1-2.5-5.925" transform="translate(-5152.103 -18219.701)" fill="#fff"/>
    </g>
  </g>
</svg>
