<svg xmlns="http://www.w3.org/2000/svg" xmlns:xlink="http://www.w3.org/1999/xlink" width="266" height="266" viewBox="0 0 266 266">
  <defs>
    <linearGradient id="linear-gradient" x1="0.5" x2="0.5" y2="1" gradientUnits="objectBoundingBox">
      <stop offset="0" stop-color="#bb0711"/>
      <stop offset="1" stop-color="#8c040a"/>
    </linearGradient>
  </defs>
  <g id="Group_21552" data-name="Group 21552" transform="translate(6832 17335)">
    <rect id="Rectangle_6379" data-name="Rectangle 6379" width="266" height="266" transform="translate(-6832 -17335)" fill="url(#linear-gradient)"/>
    <g id="Group_21535" data-name="Group 21535" transform="translate(-28.969 10.201)">
      <path id="Path_28194" data-name="Path 28194" d="M402.433,626.843c.405-2.532.911-6.279,1.519-9.925.81-4.861,1.62-9.621,2.633-14.381a5.886,5.886,0,0,0-1.924-5.874c-4.355-4.152-8.608-8.507-12.963-12.761-1.722-1.62-3.342-3.342-5.064-4.963a8.481,8.481,0,0,1-2.026-9.317c1.215-3.241,3.747-4.861,7.393-5.368,8.2-1.114,16.305-2.532,24.509-3.747a5.415,5.415,0,0,0,4.659-3.342c2.127-4.355,4.355-8.71,6.482-13.065,1.519-3.038,2.836-6.077,4.456-9.115,2.127-3.95,5.165-5.57,9.52-5.064a7.254,7.254,0,0,1,5.773,3.646c.506.912.911,1.823,1.418,2.734,3.342,6.786,6.785,13.571,10.026,20.356a5.7,5.7,0,0,0,4.861,3.747c5.368.709,10.634,1.62,16,2.431,3.342.506,6.684,1.013,10.026,1.62,6.583,1.114,8.608,9.722,4.76,13.47-2.127,2.127-4.152,4.355-6.38,6.482-3.95,3.95-7.9,7.8-11.951,11.647a7.032,7.032,0,0,0-2.228,7.19c1.62,7.9,2.734,15.9,4.051,23.9.608,3.747-1.013,6.583-4.051,8.608-2.836,1.924-5.671,1.722-8.507.2-6.988-3.646-14.077-7.191-20.964-11.039a7.773,7.773,0,0,0-8.1-.1c-6.988,3.747-14.077,7.191-20.964,11.039-6.077,3.443-13.368-.506-12.963-9.014m68.057.608c-.1-1.013-.1-2.026-.3-3.038-1.114-6.279-2.026-12.659-3.443-18.939-1.317-6.178-.3-11.14,4.76-15.394,4.963-4.254,9.52-9.115,14.179-13.672a21.142,21.142,0,0,0,2.026-2.228,1.64,1.64,0,0,0-1.013-2.734c-3.848-.709-7.6-1.418-11.444-2.026s-7.7-.709-11.545-1.519c-7.393-1.62-7.9-.911-11.951-9.115-2.937-5.874-5.671-11.849-8.507-17.723a6.8,6.8,0,0,0-2.431-3.14,1.4,1.4,0,0,0-1.823.2,14.983,14.983,0,0,0-1.317,2.127c-3.443,6.887-6.988,13.774-10.33,20.762-1.62,3.443-3.848,5.672-7.8,6.279-8.3,1.215-16.609,2.633-24.914,3.95-.81.1-1.722,0-2.228.911-.608,1.114.1,1.924.709,2.734.405.506,1.013.911,1.418,1.418,5.165,5.064,10.229,10.128,15.5,15.09,3.646,3.443,4.76,7.292,3.747,12.254-1.62,7.191-2.532,14.584-3.747,21.876a4.951,4.951,0,0,0,.1,2.431c.3.709,1.317,1.418,2.026,1.114,1.215-.506,2.431-1.114,3.646-1.722,6.279-3.241,12.66-6.38,18.837-9.824a11.06,11.06,0,0,1,11.444.1c7.089,3.849,14.28,7.495,21.47,11.242.405.2.81.506,1.317.709a1.085,1.085,0,0,0,1.519-.81,6.721,6.721,0,0,1,.1-1.317" transform="translate(-7109.91 -17821.832)" fill="#fff"/>
      <path id="Path_28195" data-name="Path 28195" d="M443.4,646.5c-.2,1.418-.2,2.734-.506,4.051a3.128,3.128,0,0,1-2.836,2.532,3.343,3.343,0,0,1-3.443-1.62c-.1-.1-.2-.3-.3-.405a13.451,13.451,0,0,1,0-8.912,3.532,3.532,0,0,1,6.583.506c.2,1.215.3,2.532.506,3.849" transform="translate(-7109.253 -17820.424)" fill="#fff"/>
      <path id="Path_28196" data-name="Path 28196" d="M472.547,545.367c-2.734-.1-4.152-1.722-3.443-4.051a14.111,14.111,0,0,1,4.963-6.887c1.62-1.317,4.152-.405,5.165,1.418a2.144,2.144,0,0,1,.2,1.924,19.842,19.842,0,0,1-4.456,6.684,3.844,3.844,0,0,1-2.431.912" transform="translate(-7108.827 -17821.781)" fill="#fff"/>
      <path id="Path_28197" data-name="Path 28197" d="M493.048,601.421a32.029,32.029,0,0,1,6.785,1.823,3.752,3.752,0,0,1,2.127,2.633,3.051,3.051,0,0,1-2.734,3.95,14.189,14.189,0,0,1-8.1-2.228,3.346,3.346,0,0,1-1.722-4.254c.405-1.114,1.823-1.924,3.646-1.924" transform="translate(-7108.568 -17820.92)" fill="#fff"/>
      <path id="Path_28198" data-name="Path 28198" d="M380.95,610.029c-2.431-.1-3.443-.81-3.848-2.431-.405-2.026.1-3.443,1.722-4.254a17.329,17.329,0,0,1,6.684-1.823c2.228-.2,3.443.608,3.95,2.228s-.1,3.14-1.924,4.152a15.662,15.662,0,0,1-6.583,2.127" transform="translate(-7110 -17820.918)" fill="#fff"/>
      <path id="Path_28199" data-name="Path 28199" d="M402.635,534.321c1.317,0,2.532.1,3.342,1.013a18.274,18.274,0,0,1,3.747,5.368c1.013,2.431-.506,4.456-3.038,4.456a4.278,4.278,0,0,1-3.95-1.823l-1.823-2.431c-1.62-1.823-1.013-3.747-.405-5.671.405-1.013,1.418-.911,2.127-.911" transform="translate(-7109.708 -17821.773)" fill="#fff"/>
    </g>
    <g id="Group_21536" data-name="Group 21536" transform="translate(-27 3.512)">
      <g id="Group_21532" data-name="Group 21532" transform="translate(0.103 -1.982)">
        <path id="Path_28200" data-name="Path 28200" d="M367.4,708.921a6.984,6.984,0,0,1-3.2-2.4,6.154,6.154,0,0,1-1.2-3.8h5.9a2.854,2.854,0,0,0,.9,1.9,2.935,2.935,0,0,0,1.9.7,2.707,2.707,0,0,0,1.9-.6,1.865,1.865,0,0,0,.7-1.6,1.816,1.816,0,0,0-.6-1.4,3.39,3.39,0,0,0-1.4-.9c-.6-.2-1.3-.5-2.3-.8a22.641,22.641,0,0,1-3.6-1.4,7.55,7.55,0,0,1-2.4-2,5.4,5.4,0,0,1-1-3.5,6.129,6.129,0,0,1,2.3-5,9.327,9.327,0,0,1,6-1.8,9.822,9.822,0,0,1,6.1,1.8,6.6,6.6,0,0,1,2.5,5h-6a2.136,2.136,0,0,0-.8-1.7,2.883,2.883,0,0,0-1.9-.6,2.545,2.545,0,0,0-1.6.5,2.035,2.035,0,0,0-.6,1.5,1.856,1.856,0,0,0,1,1.7,14.843,14.843,0,0,0,3.2,1.3c1.5.5,2.7,1,3.6,1.4a7.55,7.55,0,0,1,2.4,2,5.183,5.183,0,0,1,1,3.3,5.986,5.986,0,0,1-1,3.5,6.483,6.483,0,0,1-2.9,2.5,10.17,10.17,0,0,1-4.4.9,7.439,7.439,0,0,1-4.5-.5" transform="translate(-7110.103 -17819.85)" fill="#fff"/>
        <path id="Path_28201" data-name="Path 28201" d="M399.9,686.821v4.4h-6v18.3h-5.5v-18.3h-6v-4.4Z" transform="translate(-7110.103 -17819.85)" fill="#fff"/>
        <path id="Path_28202" data-name="Path 28202" d="M416.8,705.521h-8.5l-1.4,4h-5.8l8.2-22.7h6.4l8.2,22.7H418Zm-1.4-4.3-2.8-8.3-2.8,8.3Z" transform="translate(-7110.103 -17819.85)" fill="#fff"/>
        <path id="Path_28203" data-name="Path 28203" d="M438.1,709.521l-4.7-8.6h-1.3v8.6h-5.5v-22.7h9.3a10.784,10.784,0,0,1,4.6.9,5.927,5.927,0,0,1,2.8,2.6,7.4,7.4,0,0,1,.9,3.6,6.2,6.2,0,0,1-1.3,4,6.91,6.91,0,0,1-3.8,2.5l5.2,9h-6.2Zm-6.1-12.5h3.4a3.174,3.174,0,0,0,2.3-.7,2.865,2.865,0,0,0,.8-2.1,2.629,2.629,0,0,0-.8-2,3.174,3.174,0,0,0-2.3-.7H432Z" transform="translate(-7110.103 -17819.85)" fill="#fff"/>
        <path id="Path_28204" data-name="Path 28204" d="M463.9,686.821v4.4h-6v18.3h-5.5v-18.3h-6v-4.4Z" transform="translate(-7110.103 -17819.85)" fill="#fff"/>
        <path id="Path_28205" data-name="Path 28205" d="M479,686.821v13.6a4.139,4.139,0,0,0,1,3.1,4,4,0,0,0,2.9,1.1,4.248,4.248,0,0,0,3-1.1,4.292,4.292,0,0,0,1-3.1v-13.6h5.5v13.6a9.218,9.218,0,0,1-1.3,5.1,8.308,8.308,0,0,1-3.5,3.2,11.364,11.364,0,0,1-4.9,1.1,10.607,10.607,0,0,1-4.8-1.1,7.826,7.826,0,0,1-3.3-3.2,10.259,10.259,0,0,1-1.2-5.2v-13.5Z" transform="translate(-7110.103 -17819.85)" fill="#fff"/>
        <path id="Path_28206" data-name="Path 28206" d="M512.8,697.721a5.927,5.927,0,0,1-2.8,2.6,9.616,9.616,0,0,1-4.7,1h-3.4v8.2h-5.5v-22.7h9a10.784,10.784,0,0,1,4.6.9,5.927,5.927,0,0,1,2.8,2.6,7.9,7.9,0,0,1,.9,3.8,7.4,7.4,0,0,1-.9,3.6m-5.5-1.5a3.156,3.156,0,0,0,0-4.2,3.286,3.286,0,0,0-2.4-.7h-3v5.7h3a3.293,3.293,0,0,0,2.4-.8" transform="translate(-7110.103 -17819.85)" fill="#fff"/>
      </g>
    </g>
  </g>
</svg>
