<svg xmlns="http://www.w3.org/2000/svg" xmlns:xlink="http://www.w3.org/1999/xlink" width="266" height="266" viewBox="0 0 266 266">
  <defs>
    <linearGradient id="linear-gradient" x1="0.5" x2="0.5" y2="1" gradientUnits="objectBoundingBox">
      <stop offset="0" stop-color="#bb0711"/>
      <stop offset="1" stop-color="#8c040a"/>
    </linearGradient>
  </defs>
  <g id="Group_21551" data-name="Group 21551" transform="translate(7108 17335)">
    <rect id="Rectangle_6378" data-name="Rectangle 6378" width="266" height="266" transform="translate(-7108 -17335)" fill="url(#linear-gradient)"/>
    <g id="Group_21533" data-name="Group 21533" transform="translate(1.698 8)">
      <path id="Path_28177" data-name="Path 28177" d="M140.3,578.421H125a4.908,4.908,0,0,0-4.9,4.9v15.3a4.908,4.908,0,0,0,4.9,4.9h15.3a4.908,4.908,0,0,0,4.9-4.9v-15.3a4.908,4.908,0,0,0-4.9-4.9m-1.1,19.1H126.1v-13.1h13.1Z" transform="translate(-7109.399 -17821.422)" fill="#fff"/>
      <path id="Path_28178" data-name="Path 28178" d="M75.8,625.521a9.1,9.1,0,1,0,9.1,9.1,9.133,9.133,0,0,0-9.1-9.1m0,12.2a3.1,3.1,0,1,1,3.1-3.1,3.116,3.116,0,0,1-3.1,3.1" transform="translate(-7109.399 -17821.422)" fill="#fff"/>
      <path id="Path_28179" data-name="Path 28179" d="M90.8,637.621a3,3,0,1,0-3-3,3,3,0,0,0,3,3" transform="translate(-7109.399 -17821.422)" fill="#fff"/>
      <path id="Path_28180" data-name="Path 28180" d="M181.8,581.621a9.118,9.118,0,0,0-8.6,6.1H158.7v-15.2a7.628,7.628,0,0,0-7-7.6v-14.4h15.4a3,3,0,0,0,0-6H148.7a2.946,2.946,0,0,0-3,3v17.4H135.5v-13.9a8.986,8.986,0,0,0,6.1-8.6,9.1,9.1,0,1,0-12.1,8.6v13.9H114.3a7.622,7.622,0,0,0-7.6,7.4H92.3v-29.1a9.143,9.143,0,1,0-5.9-.2v32.3a2.946,2.946,0,0,0,3,3h17.4v9.7H92.2a8.986,8.986,0,0,0-8.6-6.1,9.1,9.1,0,1,0,8.6,12.1h14.6v15.2a7.679,7.679,0,0,0,6.8,7.6v14.4H98.1a3,3,0,0,0,0,6h18.4a2.946,2.946,0,0,0,3-3v-17.4h10.2v14a8.986,8.986,0,0,0-6.1,8.6,9.1,9.1,0,1,0,12.1-8.6v-13.9h15.4a7.642,7.642,0,0,0,7.6-7.5h14.2v29.1a9.143,9.143,0,1,0,5.9.2v-32.3a2.946,2.946,0,0,0-3-3H158.6v-9.7h14.5a8.986,8.986,0,0,0,8.6,6.1,9.1,9.1,0,0,0,.1-18.2m-49.3-42.3a3.1,3.1,0,1,1-3.1,3.1,3.052,3.052,0,0,1,3.1-3.1m-43-7.8a3.1,3.1,0,1,1-3.1,3.1,3.116,3.116,0,0,1,3.1-3.1m-6.1,62.7a3.1,3.1,0,1,1,3.1-3.1,3.116,3.116,0,0,1-3.1,3.1m49.3,48.4a3.1,3.1,0,1,1,3.1-3.1,3.116,3.116,0,0,1-3.1,3.1m42.9,7.8a3.1,3.1,0,1,1,3.1-3.1,2.993,2.993,0,0,1-3.1,3.1m-22.9-41.1a1.58,1.58,0,0,1-1.6,1.6H114.3a1.58,1.58,0,0,1-1.6-1.6v-36.8a1.579,1.579,0,0,1,1.6-1.6h36.8a1.579,1.579,0,0,1,1.6,1.6Zm29.1-15.4a3.1,3.1,0,1,1,3.1-3.1,3.116,3.116,0,0,1-3.1,3.1" transform="translate(-7109.399 -17821.422)" fill="#fff"/>
      <path id="Path_28181" data-name="Path 28181" d="M189.4,538.121a9.1,9.1,0,1,0,9.1,9.1,9.133,9.133,0,0,0-9.1-9.1m0,12.2a3.1,3.1,0,1,1,3.1-3.1,3.116,3.116,0,0,1-3.1,3.1" transform="translate(-7109.399 -17821.422)" fill="#fff"/>
      <path id="Path_28182" data-name="Path 28182" d="M174.4,550.021a2.8,2.8,0,1,0-2.8-2.8,2.8,2.8,0,0,0,2.8,2.8" transform="translate(-7109.399 -17821.422)" fill="#fff"/>
    </g>
    <g id="Group_21534" data-name="Group 21534" transform="translate(1.999 -1.5)">
      <path id="Path_28183" data-name="Path 28183" d="M39.9,691.221v4.4h-6v18.3H28.4v-18.3h-6v-4.4Z" transform="translate(-7109.399 -17821.422)" fill="#fff"/>
      <path id="Path_28184" data-name="Path 28184" d="M48.3,695.621v4.6h7.4v4.3H48.3v5h8.4v4.4H42.8v-22.7H56.7v4.4Z" transform="translate(-7109.399 -17821.422)" fill="#fff"/>
      <path id="Path_28185" data-name="Path 28185" d="M60.8,696.521a10.118,10.118,0,0,1,4.1-4.1,11.5,11.5,0,0,1,5.9-1.5,11.309,11.309,0,0,1,6.9,2.1,10.768,10.768,0,0,1,3.9,5.8H75.5a5.854,5.854,0,0,0-1.9-2.2,5.3,5.3,0,0,0-2.8-.7,5.1,5.1,0,0,0-4.1,1.8,8,8,0,0,0,0,9.6,5.238,5.238,0,0,0,4.1,1.8,5.073,5.073,0,0,0,2.8-.7,4.588,4.588,0,0,0,1.9-2.2h6.1a9.5,9.5,0,0,1-3.9,5.8,11.309,11.309,0,0,1-6.9,2.1,11.5,11.5,0,0,1-5.9-1.5,10.764,10.764,0,0,1-4.1-4.1,11.619,11.619,0,0,1-1.5-6,12.144,12.144,0,0,1,1.5-6" transform="translate(-7109.399 -17821.422)" fill="#fff"/>
      <path id="Path_28186" data-name="Path 28186" d="M104.6,691.221v22.7H99.1v-9.4H90.5v9.4H85v-22.7h5.5v8.9h8.6v-8.9Z" transform="translate(-7109.399 -17821.422)" fill="#fff"/>
      <path id="Path_28187" data-name="Path 28187" d="M128.9,713.921h-5.5l-9.3-14v14h-5.5v-22.7h5.5l9.3,14.1v-14.1h5.5Z" transform="translate(-7109.399 -17821.422)" fill="#fff"/>
      <path id="Path_28188" data-name="Path 28188" d="M137.8,712.721a10.607,10.607,0,0,1-4.2-4.2,12.218,12.218,0,0,1-1.6-6,11.241,11.241,0,0,1,1.6-6,11.533,11.533,0,0,1,10.1-5.6,12.038,12.038,0,0,1,5.9,1.5,11.034,11.034,0,0,1,4.2,4.1,12.144,12.144,0,0,1,1.5,6,11.71,11.71,0,0,1-5.8,10.2,11.767,11.767,0,0,1-5.9,1.5,11.4,11.4,0,0,1-5.8-1.5m10.2-5.4a8,8,0,0,0,0-9.6,5.584,5.584,0,0,0-4.4-1.8,5.729,5.729,0,0,0-4.4,1.8,8,8,0,0,0,0,9.6,6.278,6.278,0,0,0,8.8,0" transform="translate(-7109.399 -17821.422)" fill="#fff"/>
      <path id="Path_28189" data-name="Path 28189" d="M163.9,709.721h7.2v4.3H158.3v-22.7h5.5Z" transform="translate(-7109.399 -17821.422)" fill="#fff"/>
      <path id="Path_28190" data-name="Path 28190" d="M178.6,712.721a10.607,10.607,0,0,1-4.2-4.2,12.218,12.218,0,0,1-1.6-6,11.241,11.241,0,0,1,1.6-6,11.017,11.017,0,0,1,4.2-4.1,11.767,11.767,0,0,1,5.9-1.5,12.038,12.038,0,0,1,5.9,1.5,11.033,11.033,0,0,1,4.2,4.1,12.144,12.144,0,0,1,1.5,6,11.709,11.709,0,0,1-5.8,10.2,11.767,11.767,0,0,1-5.9,1.5,11.94,11.94,0,0,1-5.8-1.5m10.3-5.4a8,8,0,0,0,0-9.6,5.584,5.584,0,0,0-4.4-1.8,5.729,5.729,0,0,0-4.4,1.8,8,8,0,0,0,0,9.6,6.278,6.278,0,0,0,8.8,0" transform="translate(-7109.399 -17821.422)" fill="#fff"/>
      <path id="Path_28191" data-name="Path 28191" d="M214.3,698.421a3.719,3.719,0,0,0-1.8-1.7,5.954,5.954,0,0,0-2.7-.6,5.513,5.513,0,0,0-4.3,1.8,6.546,6.546,0,0,0-1.6,4.7,6.939,6.939,0,0,0,1.7,4.9,6.1,6.1,0,0,0,4.7,1.8,5.287,5.287,0,0,0,3.4-1,6.762,6.762,0,0,0,2.1-3h-7v-4.1h12v5.1a10.609,10.609,0,0,1-2.1,3.9,11.058,11.058,0,0,1-8.8,4,12.144,12.144,0,0,1-6-1.5,10.117,10.117,0,0,1-4.1-4.1,11.618,11.618,0,0,1-1.5-6,12.144,12.144,0,0,1,1.5-6,10.118,10.118,0,0,1,4.1-4.1,11.619,11.619,0,0,1,6-1.5,11.948,11.948,0,0,1,6.9,2,8.967,8.967,0,0,1,3.7,5.5h-6.2Z" transform="translate(-7109.399 -17821.422)" fill="#fff"/>
      <path id="Path_28192" data-name="Path 28192" d="M243.3,691.221l-7.9,15.2v7.5h-5.5v-7.5l-7.9-15.2h6.3l4.4,9.5,4.4-9.5Z" transform="translate(-7109.399 -17821.422)" fill="#fff"/>
    </g>
  </g>
</svg>
