<svg id="Component_1_1" data-name="Component 1 – 1" xmlns="http://www.w3.org/2000/svg" xmlns:xlink="http://www.w3.org/1999/xlink" width="223.5" height="335.094" viewBox="0 0 223.5 335.094">
  <defs>
    <clipPath id="clip-path">
      <rect id="Rectangle_6111" data-name="Rectangle 6111" width="93.243" height="109.376" fill="none"/>
    </clipPath>
    <clipPath id="clip-path-2">
      <rect id="Rectangle_6108" data-name="Rectangle 6108" width="187.5" height="335.094" fill="none"/>
    </clipPath>
    <clipPath id="clip-path-3">
      <rect id="Rectangle_6120" data-name="Rectangle 6120" width="54.909" height="101.081" fill="none"/>
    </clipPath>
  </defs>
  <g id="Group_20417" data-name="Group 20417" transform="translate(0 125.094)">
    <g id="Group_20416" data-name="Group 20416" clip-path="url(#clip-path)">
      <path id="Path_26453" data-name="Path 26453" d="M90.065,89.642,34.476,109.107a4.745,4.745,0,0,1-6.048-2.911L.269,25.782a4.746,4.746,0,0,1,2.911-6.049L58.768.268a4.746,4.746,0,0,1,6.048,2.911L92.975,83.594a4.745,4.745,0,0,1-2.911,6.048" transform="translate(0 0)" fill="#f4e2b3"/>
      <rect id="Rectangle_6109" data-name="Rectangle 6109" width="58.794" height="86.314" transform="translate(4.903 24.498) rotate(-19.299)" fill="#f4e2b3"/>
      <rect id="Rectangle_6110" data-name="Rectangle 6110" width="58.794" height="84.666" transform="translate(3.91 24.113) rotate(-19.299)" fill="#fff8e6"/>
      <path id="Path_26454" data-name="Path 26454" d="M88.676,86.15,60.619,6.268l.1.049L5.239,25.753l-.007,0,.054-.111c10.459,30.016,20.194,57.735,27.966,79.914l-.09-.043L88.676,86.15l-55.467,19.5-.066.023-.023-.066-28-79.9-.028-.082.082-.029.007,0L60.667,6.166l.075-.026.026.075L88.676,86.15" transform="translate(-1.294 -1.56)" fill="#e1e1e1"/>
      <path id="Path_26455" data-name="Path 26455" d="M90.758,115.4s12.358-10.421,14.5-21.276a15.7,15.7,0,0,1-10.564,6.36s-.248,11.4-3.935,14.915" transform="translate(-23.06 -23.914)" fill="#f4e2b3"/>
      <path id="Path_26456" data-name="Path 26456" d="M31.154,63.153l-1.969.69a2.551,2.551,0,0,1-3.25-1.564l-.689-1.969a2.55,2.55,0,0,1,1.563-3.25l1.97-.69a2.55,2.55,0,0,1,3.249,1.564l.69,1.97a2.55,2.55,0,0,1-1.564,3.249" transform="translate(-6.378 -14.286)" fill="#f4e2b3"/>
      <path id="Path_26457" data-name="Path 26457" d="M29.661,61.743h-.005a.166.166,0,0,1-.134-.015l-1.338-.776a.167.167,0,1,1,.169-.289l1.179.684,1.414-3.023a.168.168,0,0,1,.3.142l-1.491,3.188a.168.168,0,0,1-.1.087" transform="translate(-7.14 -14.795)" fill="#fff"/>
      <path id="Path_26458" data-name="Path 26458" d="M70.58,39.617c.016.046-7.191,2.61-16.094,5.728s-16.137,5.609-16.153,5.564,7.189-2.609,16.1-5.729,16.136-5.609,16.151-5.563" transform="translate(-9.74 -10.066)" fill="#f4e2b3"/>
      <path id="Path_26459" data-name="Path 26459" d="M54.249,55.028a3.552,3.552,0,0,1-.523.219l-1.446.536c-1.224.445-2.92,1.05-4.795,1.706s-3.578,1.243-4.813,1.658l-1.465.484a3.517,3.517,0,0,1-.545.154,3.474,3.474,0,0,1,.522-.219l1.447-.536c1.224-.445,2.919-1.05,4.8-1.706S51,56.082,52.239,55.666l1.465-.483a3.5,3.5,0,0,1,.545-.155" transform="translate(-10.332 -13.981)" fill="#f4e2b3"/>
      <path id="Path_26460" data-name="Path 26460" d="M71.612,42.564c.016.046-7.191,2.61-16.094,5.728S39.381,53.9,39.365,53.856s7.189-2.609,16.1-5.728S71.6,42.518,71.612,42.564" transform="translate(-10.002 -10.814)" fill="#f4e2b3"/>
      <path id="Path_26461" data-name="Path 26461" d="M36.744,79.115l-1.969.69a2.551,2.551,0,0,1-3.25-1.564l-.69-1.97A2.55,2.55,0,0,1,32.4,73.022l1.97-.69A2.55,2.55,0,0,1,37.618,73.9l.69,1.97a2.55,2.55,0,0,1-1.564,3.249" transform="translate(-7.798 -18.341)" fill="#f4e2b3"/>
      <path id="Path_26462" data-name="Path 26462" d="M35.25,77.7h-.005a.166.166,0,0,1-.134-.015l-1.338-.776a.167.167,0,0,1,.169-.289l1.179.684,1.414-3.022a.168.168,0,1,1,.3.142l-1.491,3.188a.168.168,0,0,1-.1.087" transform="translate(-8.56 -18.85)" fill="#fff"/>
      <path id="Path_26463" data-name="Path 26463" d="M76.17,55.578c.016.046-7.191,2.61-16.094,5.728S43.939,66.915,43.923,66.87s7.189-2.609,16.1-5.729,16.136-5.609,16.151-5.563" transform="translate(-11.16 -14.121)" fill="#f4e2b3"/>
      <path id="Path_26464" data-name="Path 26464" d="M59.838,70.989a3.551,3.551,0,0,1-.523.219l-1.446.536c-1.224.445-2.92,1.05-4.795,1.706s-3.578,1.243-4.813,1.658l-1.465.484a3.412,3.412,0,0,1-.545.154,3.474,3.474,0,0,1,.522-.219l1.447-.536c1.224-.445,2.919-1.05,4.8-1.706s3.577-1.243,4.811-1.658l1.465-.483a3.612,3.612,0,0,1,.545-.155" transform="translate(-11.752 -18.036)" fill="#f4e2b3"/>
      <path id="Path_26465" data-name="Path 26465" d="M77.2,58.526c.016.046-7.191,2.61-16.094,5.728s-16.137,5.609-16.153,5.564,7.189-2.609,16.1-5.729S77.186,58.48,77.2,58.526" transform="translate(-11.422 -14.87)" fill="#f4e2b3"/>
      <path id="Path_26466" data-name="Path 26466" d="M42.333,95.076l-1.969.69a2.551,2.551,0,0,1-3.25-1.564l-.689-1.969a2.55,2.55,0,0,1,1.563-3.25l1.97-.69a2.55,2.55,0,0,1,3.249,1.564l.69,1.97a2.55,2.55,0,0,1-1.564,3.249" transform="translate(-9.218 -22.397)" fill="#f4e2b3"/>
      <path id="Path_26467" data-name="Path 26467" d="M40.84,93.666h-.005a.166.166,0,0,1-.134-.015l-1.338-.776a.167.167,0,0,1,.169-.289l1.179.684,1.414-3.023a.168.168,0,0,1,.3.142l-1.491,3.188a.168.168,0,0,1-.1.087" transform="translate(-9.98 -22.906)" fill="#fff"/>
      <path id="Path_26468" data-name="Path 26468" d="M81.759,71.54c.016.046-7.191,2.61-16.094,5.728s-16.137,5.609-16.153,5.564,7.189-2.609,16.1-5.729,16.136-5.609,16.151-5.563" transform="translate(-12.58 -18.177)" fill="#f4e2b3"/>
      <path id="Path_26469" data-name="Path 26469" d="M65.427,86.951a3.551,3.551,0,0,1-.523.219l-1.446.536c-1.224.445-2.92,1.05-4.795,1.706s-3.578,1.243-4.813,1.658l-1.465.484a3.519,3.519,0,0,1-.545.154,3.473,3.473,0,0,1,.522-.219l1.447-.536c1.224-.445,2.919-1.05,4.8-1.706S62.182,88,63.417,87.589l1.465-.483a3.5,3.5,0,0,1,.545-.155" transform="translate(-13.172 -22.092)" fill="#f4e2b3"/>
      <path id="Path_26470" data-name="Path 26470" d="M82.791,74.487c.016.046-7.191,2.61-16.094,5.728S50.56,85.824,50.544,85.779s7.189-2.609,16.1-5.728,16.136-5.609,16.151-5.564" transform="translate(-12.842 -18.925)" fill="#f4e2b3"/>
      <path id="Path_26471" data-name="Path 26471" d="M47.923,111.039l-1.971.69a2.55,2.55,0,0,1-3.249-1.564l-.689-1.97a2.55,2.55,0,0,1,1.564-3.249l1.969-.689a2.549,2.549,0,0,1,3.249,1.563l.69,1.97a2.55,2.55,0,0,1-1.563,3.249" transform="translate(-10.638 -26.453)" fill="#f4e2b3"/>
      <path id="Path_26472" data-name="Path 26472" d="M46.429,109.628h-.005a.166.166,0,0,1-.134-.015l-1.338-.776a.167.167,0,0,1,.169-.289l1.179.684,1.414-3.023a.168.168,0,0,1,.3.142l-1.491,3.188a.168.168,0,0,1-.1.087" transform="translate(-11.4 -26.961)" fill="#fff"/>
      <path id="Path_26473" data-name="Path 26473" d="M87.348,87.5c.016.046-7.191,2.61-16.094,5.728S55.117,98.838,55.1,98.793s7.189-2.609,16.1-5.729S87.332,87.455,87.348,87.5" transform="translate(-14 -22.232)" fill="#f4e2b3"/>
      <path id="Path_26474" data-name="Path 26474" d="M71.017,102.912a3.551,3.551,0,0,1-.523.219l-1.446.536c-1.224.445-2.92,1.05-4.795,1.706s-3.578,1.243-4.813,1.658l-1.465.484a3.411,3.411,0,0,1-.545.154,3.474,3.474,0,0,1,.522-.219l1.447-.536c1.224-.445,2.919-1.05,4.8-1.706s3.577-1.243,4.811-1.658l1.465-.483a3.611,3.611,0,0,1,.545-.155" transform="translate(-14.592 -26.147)" fill="#f4e2b3"/>
      <path id="Path_26475" data-name="Path 26475" d="M88.38,90.449c.016.046-7.191,2.61-16.094,5.728s-16.137,5.609-16.153,5.564,7.189-2.609,16.1-5.729S88.364,90.4,88.38,90.449" transform="translate(-14.262 -22.981)" fill="#f4e2b3"/>
      <path id="Path_26476" data-name="Path 26476" d="M13.667,17.183l1.465,4.183a4.656,4.656,0,0,0,5.934,2.855L51.757,13.475a4.657,4.657,0,0,0,2.856-5.934L53.152,3.366Z" transform="translate(-3.472 -0.855)" fill="#fff0c3"/>
      <path id="Path_26477" data-name="Path 26477" d="M38.7,11.4a4.366,4.366,0,1,1,2.678-5.564A4.371,4.371,0,0,1,38.7,11.4M36.371,4.735A2.691,2.691,0,1,0,39.8,6.386a2.694,2.694,0,0,0-3.43-1.651" transform="translate(-8.358 -0.739)" fill="#ba7118"/>
      <path id="Path_26478" data-name="Path 26478" d="M61.223,28.834c.028.08-8.065,2.986-18.074,6.49S25,41.608,24.973,41.528s8.063-2.985,18.075-6.491,18.147-6.282,18.174-6.2" transform="translate(-6.345 -7.326)" fill="#f4e2b3"/>
      <path id="Path_26479" data-name="Path 26479" d="M54.22,30.829c.028.08-3.535,1.4-7.956,2.948s-8.03,2.739-8.057,2.66,3.533-1.4,7.957-2.948,8.029-2.74,8.057-2.66" transform="translate(-9.708 -7.832)" fill="#f4e2b3"/>
    </g>
  </g>
  <g id="Group_20415" data-name="Group 20415" transform="translate(36)">
    <g id="Group_20414" data-name="Group 20414" clip-path="url(#clip-path-2)">
      <path id="Path_26291" data-name="Path 26291" d="M15.008,352.892a15.157,15.157,0,0,0-9.4-1.143,7.813,7.813,0,0,0-4.645,2.074C-.2,355.1-.42,357.359.913,358.46a4.449,4.449,0,0,0,2.929.743c2.485-.029,5.244-.467,7.229,1.029,1.133.854,1.887,2.272,3.242,2.691a3.2,3.2,0,0,0,3.523-1.567,5.472,5.472,0,0,0,.4-4.039,6.167,6.167,0,0,0-3.226-4.425" transform="translate(0 -71.601)" fill="#578e85"/>
      <path id="Path_26292" data-name="Path 26292" d="M24.089,330.732c-1.749,2.5-5.147,1.671-6.724.147s-2.242-3.735-2.848-5.842c-1.385-4.814-2.781-9.865-1.752-14.767a8.205,8.205,0,0,1,1.886-4.015,4.286,4.286,0,0,1,4.062-1.352c1.714.453,2.778,2.132,3.548,3.728a35.207,35.207,0,0,1,3.479,15.107,12.213,12.213,0,0,1-1.652,6.994" transform="translate(-2.528 -62.089)" fill="#73ada3"/>
      <path id="Path_26293" data-name="Path 26293" d="M32.636,336.371a9.088,9.088,0,0,1-1.414-8.363,16.122,16.122,0,0,1,4.954-7.186,26.675,26.675,0,0,1,8.87-5.233,9.465,9.465,0,0,1,3.989-.678,4.187,4.187,0,0,1,3.348,2.025c.933,1.781.038,3.94-.929,5.7a67.573,67.573,0,0,1-5.826,8.871c-1.746,2.252-3.747,4.472-6.408,5.49s-5.426.9-6.836-.948" transform="translate(-6.272 -64.145)" fill="#87c9bc"/>
      <path id="Path_26294" data-name="Path 26294" d="M23.887,378.807a5.457,5.457,0,0,1-.158-1.135c-.08-.827-.182-1.863-.3-3.1a44.863,44.863,0,0,0-.7-4.543,35.132,35.132,0,0,0-1.652-5.362,19.735,19.735,0,0,0-2.738-4.852,10.217,10.217,0,0,0-3.461-2.878,9.677,9.677,0,0,0-2.915-.908,5.483,5.483,0,0,1-1.13-.163,5.262,5.262,0,0,1,1.15-.018,8.827,8.827,0,0,1,3.04.792,10.2,10.2,0,0,1,3.651,2.9,19.307,19.307,0,0,1,2.839,4.95,32.747,32.747,0,0,1,1.64,5.45,38.463,38.463,0,0,1,.6,4.6c.1,1.315.135,2.38.154,3.117a5.293,5.293,0,0,1-.024,1.146" transform="translate(-2.207 -72.488)" fill="#1a2e35"/>
      <path id="Path_26295" data-name="Path 26295" d="M25.474,368.592a2.2,2.2,0,0,1-.03-.527c0-.395,0-.893,0-1.506,0-1.307,0-3.2-.067-5.533-.116-4.671-.518-9.7-1.294-16.785-.737-6.664-1.724-14.42-2.765-19.462-.224-1.147-.448-2.179-.661-3.082s-.375-1.687-.541-2.318c-.142-.595-.26-1.08-.351-1.464a2.182,2.182,0,0,1-.092-.519,2.337,2.337,0,0,1,.182.494l.437,1.443c.194.626.393,1.4.62,2.3s.484,1.929.729,3.074a170.884,170.884,0,0,1,2.906,18.059c.778,7.1,1.128,13.569,1.159,18.251.028,2.341-.021,4.237-.081,5.545-.037.612-.068,1.11-.092,1.5a2.371,2.371,0,0,1-.064.523" transform="translate(-4.007 -64.657)" fill="#1a2e35"/>
      <path id="Path_26296" data-name="Path 26296" d="M26.913,357.1a9.946,9.946,0,0,1,.011-1.573c.058-1.011.2-2.472.482-4.263a56.192,56.192,0,0,1,1.386-6.209,51.021,51.021,0,0,1,2.6-7.348,39.139,39.139,0,0,1,7.626-11.873,19.239,19.239,0,0,1,1.794-1.667c.276-.233.518-.465.766-.649l.7-.48a9.944,9.944,0,0,1,1.325-.847,46.71,46.71,0,0,0-4.341,3.872,41.247,41.247,0,0,0-7.436,11.831,58.05,58.05,0,0,0-2.611,7.28,63.162,63.162,0,0,0-1.475,6.147c-.325,1.772-.513,3.219-.627,4.22a10.164,10.164,0,0,1-.193,1.558" transform="translate(-5.478 -65.632)" fill="#1a2e35"/>
      <path id="Path_26297" data-name="Path 26297" d="M35.791,393.656l-1.249,17.122h-22L11.3,393.656Z" transform="translate(-2.301 -80.192)" fill="#912c3f"/>
      <rect id="Rectangle_6106" data-name="Rectangle 6106" width="29.244" height="6.749" transform="translate(6.37 306.716)" fill="#c64255"/>
      <path id="Path_26298" data-name="Path 26298" d="M37.368,414.335v1.87H8.607v-1.87Z" transform="translate(-1.753 -84.404)" fill="#c64255"/>
      <path id="Path_26299" data-name="Path 26299" d="M34.914,419.977l1.347-3.293H9.922l1.572,3.293Z" transform="translate(-2.021 -84.883)" fill="#c64255"/>
      <path id="Path_26300" data-name="Path 26300" d="M11.809,400.069a.731.731,0,0,0,.1.157l.328.436,1.282,1.64.057.073.055-.076,3.149-4.354H16.6l3.1,4.388.1.138.109-.129,3.676-4.373-.212,0,.2.254,3.286,4.121.11.137.1-.143,3.1-4.388-.18.009,3.818,4.351.068.077.051-.087c.5-.846.905-1.52,1.2-2.009l.307-.535a.864.864,0,0,0,.094-.191.912.912,0,0,0-.128.17l-.339.515L33.8,402.219l.119-.01-3.757-4.4-.095-.111-.086.12-3.129,4.368.21-.006-3.278-4.126-.2-.254-.1-.131-.108.129-3.666,4.382.206.008c-1.132-1.577-2.185-3.047-3.13-4.367l-.092-.127-.09.127-3.082,4.4.112,0-1.333-1.6-.357-.413a.743.743,0,0,0-.132-.133" transform="translate(-2.406 -81.008)" fill="#e1e1e1"/>
      <path id="Path_26301" data-name="Path 26301" d="M10.911,393.479c0,.076,5.511.137,12.308.137s12.31-.061,12.31-.137-5.51-.137-12.31-.137-12.308.061-12.308.137" transform="translate(-2.223 -80.128)" fill="#375a64"/>
      <path id="Path_26302" data-name="Path 26302" d="M9.516,416.881c0,.076,5.99.137,13.377.137s13.378-.061,13.378-.137-5.989-.137-13.378-.137-13.377.061-13.377.137" transform="translate(-1.939 -84.895)" fill="#1a2e35"/>
      <path id="Path_26303" data-name="Path 26303" d="M189.763,347.519c.061.075.562-.227,1.121-.674s.964-.871.9-.947-.562.227-1.121.674-.964.872-.9.947" transform="translate(-38.655 -70.461)" fill="#1a2e35"/>
      <path id="Path_26304" data-name="Path 26304" d="M170.593,316.554a17.64,17.64,0,0,1,.52-6.338,6.247,6.247,0,0,1,4.321-4.317c2.383-.494,4.825,1.011,6.16,3.045a17.556,17.556,0,0,1,2.189,6.906,243.9,243.9,0,0,1,2.989,50.128l-9.751,1.368c-4.283-17.5-5.65-32.794-6.428-50.792" transform="translate(-34.74 -62.295)" fill="#87c9bc"/>
      <path id="Path_26305" data-name="Path 26305" d="M178.387,305.829a.565.565,0,0,0,.044.155l.162.442q.238.619.65,1.685c.135.367.316.764.462,1.218s.3.949.473,1.477l.547,1.7q.239.916.5,1.933a84.8,84.8,0,0,1,1.883,9.65c.528,3.667.874,7.729,1.146,12,.5,8.543.577,16.3.8,21.908.1,2.8.2,5.073.307,6.639q.078,1.141.123,1.8c.017.188.029.342.041.468a.577.577,0,0,0,.025.158.532.532,0,0,0,.01-.161c0-.127,0-.281-.006-.47q-.02-.663-.057-1.806c-.066-1.567-.124-3.836-.2-6.64-.157-5.607-.2-13.363-.7-21.92-.272-4.274-.629-8.345-1.176-12.021a80.669,80.669,0,0,0-1.963-9.669q-.278-1.014-.53-1.933-.3-.9-.574-1.694t-.5-1.472c-.155-.452-.346-.847-.492-1.211l-.711-1.663-.193-.428a.56.56,0,0,0-.076-.141" transform="translate(-36.339 -62.3)" fill="#1a2e35"/>
      <path id="Path_26306" data-name="Path 26306" d="M176.715,305.836a6.974,6.974,0,0,0-1.191,2.018,14.924,14.924,0,0,0-.889,6.307c.26,5.389.741,12.813,1.383,21.011s1.359,15.61,1.935,20.968c.287,2.679.537,4.845.72,6.341q.14,1.085.221,1.72c.027.179.049.326.066.447a.505.505,0,0,0,.035.151.556.556,0,0,0,0-.155c-.009-.122-.019-.27-.032-.45q-.057-.638-.156-1.729c-.147-1.53-.355-3.693-.61-6.35-.513-5.362-1.188-12.774-1.833-20.97s-1.163-15.621-1.484-20.992a15.264,15.264,0,0,1,.769-6.249,13.119,13.119,0,0,1,1.065-2.068" transform="translate(-35.571 -62.302)" fill="#1a2e35"/>
      <path id="Path_26307" data-name="Path 26307" d="M168.762,337.2a10.453,10.453,0,0,0,3.579-1.284,10.453,10.453,0,0,0-3.579,1.284" transform="translate(-34.378 -68.424)" fill="#1a2e35"/>
      <path id="Path_26308" data-name="Path 26308" d="M167.287,325.045a11.605,11.605,0,0,0,3.658,1.637,11.605,11.605,0,0,0-3.658-1.637" transform="translate(-34.078 -66.212)" fill="#1a2e35"/>
      <path id="Path_26309" data-name="Path 26309" d="M168.051,314.786a6.09,6.09,0,0,0,2.883-.2,6.087,6.087,0,0,0-2.883.2" transform="translate(-34.234 -64.064)" fill="#1a2e35"/>
      <path id="Path_26310" data-name="Path 26310" d="M180.685,307.68c.081.051.509-.481.954-1.188s.74-1.323.659-1.374-.509.481-.954,1.189-.74,1.323-.659,1.374" transform="translate(-36.805 -62.155)" fill="#1a2e35"/>
      <path id="Path_26311" data-name="Path 26311" d="M184.864,314.442a5.558,5.558,0,0,0,2.762-.059,5.559,5.559,0,0,0-2.762.059" transform="translate(-37.659 -64.013)" fill="#1a2e35"/>
      <path id="Path_26312" data-name="Path 26312" d="M187.863,326.526a3.385,3.385,0,0,0,1.456-.4c.769-.311,1.363-.634,1.327-.723a3.392,3.392,0,0,0-1.458.4c-.768.31-1.362.634-1.326.723" transform="translate(-38.269 -66.283)" fill="#1a2e35"/>
      <path id="Path_26313" data-name="Path 26313" d="M188.183,337.171c-.02.094.536.291,1.241.438s1.292.192,1.312.1-.536-.291-1.241-.439-1.292-.191-1.312-.1" transform="translate(-38.335 -68.675)" fill="#1a2e35"/>
      <path id="Path_26314" data-name="Path 26314" d="M189.593,354.123c-.017.095.573.28,1.317.413a2.849,2.849,0,0,0,1.379.07c.017-.095-.573-.279-1.318-.413a2.847,2.847,0,0,0-1.378-.07" transform="translate(-38.622 -72.127)" fill="#1a2e35"/>
      <path id="Path_26315" data-name="Path 26315" d="M190.53,363.49c-.045.085.447.433,1.1.778s1.217.555,1.261.47-.447-.433-1.1-.778-1.216-.555-1.261-.47" transform="translate(-38.812 -74.043)" fill="#1a2e35"/>
      <path id="Path_26316" data-name="Path 26316" d="M182.885,373.4c.084.048.512-.544.957-1.321a3.935,3.935,0,0,0,.655-1.495c-.084-.048-.512.544-.958,1.321a3.941,3.941,0,0,0-.655,1.495" transform="translate(-37.253 -75.49)" fill="#1a2e35"/>
      <path id="Path_26317" data-name="Path 26317" d="M180.682,356.463c-.068.069.41.647,1.066,1.29s1.242,1.109,1.31,1.041-.41-.646-1.066-1.289-1.242-1.109-1.31-1.042" transform="translate(-36.806 -72.614)" fill="#1a2e35"/>
      <path id="Path_26318" data-name="Path 26318" d="M181.17,346.726c.071.065.514-.3.989-.811s.8-.983.733-1.048-.513.3-.989.811-.8.983-.733,1.048" transform="translate(-36.904 -70.251)" fill="#1a2e35"/>
      <path id="Path_26319" data-name="Path 26319" d="M179.654,335.368c-.072.065.326.625.889,1.253s1.077,1.085,1.148,1.021-.326-.625-.889-1.253-1.077-1.085-1.148-1.02" transform="translate(-36.596 -68.317)" fill="#1a2e35"/>
      <path id="Path_26320" data-name="Path 26320" d="M178.8,326.218c.068.068.623-.368,1.24-.975s1.064-1.154,1-1.222-.623.367-1.24.974-1.064,1.155-1,1.223" transform="translate(-36.422 -66.005)" fill="#1a2e35"/>
      <path id="Path_26321" data-name="Path 26321" d="M177.122,315.171a3.4,3.4,0,0,0,.623,1.384c.427.715.839,1.255.921,1.206a3.409,3.409,0,0,0-.622-1.384c-.427-.715-.839-1.255-.922-1.206" transform="translate(-36.079 -64.203)" fill="#1a2e35"/>
      <path id="Path_26322" data-name="Path 26322" d="M173.968,304.413a3.3,3.3,0,0,0,.55,1.385c.389.719.773,1.265.858,1.22a3.292,3.292,0,0,0-.551-1.386c-.389-.72-.772-1.265-.857-1.22" transform="translate(-35.436 -62.012)" fill="#1a2e35"/>
      <path id="Path_26323" data-name="Path 26323" d="M170.392,309.293c-.041.087.349.36.871.61s.98.382,1.022.3-.349-.359-.871-.61-.98-.382-1.022-.3" transform="translate(-34.71 -63.001)" fill="#1a2e35"/>
      <path id="Path_26324" data-name="Path 26324" d="M170.308,347.547a5.951,5.951,0,0,0,3.561-1.519,74.907,74.907,0,0,0-3.561,1.519" transform="translate(-34.693 -70.487)" fill="#1a2e35"/>
      <path id="Path_26325" data-name="Path 26325" d="M171.77,356.108c-.018.1.569.287,1.311.431a2.846,2.846,0,0,0,1.378.088c.018-.093-.569-.287-1.312-.43a2.86,2.86,0,0,0-1.378-.088" transform="translate(-34.991 -72.532)" fill="#1a2e35"/>
      <path id="Path_26326" data-name="Path 26326" d="M173.567,369.373a5.52,5.52,0,0,0,2.416-3.047,372.931,372.931,0,0,1-2.416,3.047" transform="translate(-35.356 -74.624)" fill="#1a2e35"/>
      <path id="Path_26327" data-name="Path 26327" d="M192.74,376.131c.063-.073-.334-.514-.885-.986s-1.049-.795-1.112-.721.334.514.885.986,1.049.795,1.112.721" transform="translate(-38.855 -76.272)" fill="#1a2e35"/>
      <path id="Path_26328" data-name="Path 26328" d="M197.769,344.839c.635-1.982,1.826-4.292,3.907-4.322a3.459,3.459,0,0,1,2.926,1.958,7.227,7.227,0,0,1,.791,3.587,93.507,93.507,0,0,1-4.472,25.973h-7.614a90.471,90.471,0,0,1,4.463-27.2" transform="translate(-39.378 -69.367)" fill="#73ada3"/>
      <path id="Path_26329" data-name="Path 26329" d="M214.106,328.546a8.463,8.463,0,0,1,7.926-6.769c3.365.59,4.67,3.9,5.07,7.3s-.654,6.771-1.695,10.025q-5.011,15.672-10.022,31.346l-9.471-1.034c3-14,4.719-26.975,8.191-40.864" transform="translate(-41.947 -65.549)" fill="#578e85"/>
      <path id="Path_26330" data-name="Path 26330" d="M202.815,340.517a8.018,8.018,0,0,1,.645,1.077,7.107,7.107,0,0,1,.356,3.366c-.147,1.448-.313,3.191-.555,5.1s-.593,4.009-1.021,6.2c-.861,4.374-1.831,8.3-2.446,11.16-.312,1.429-.547,2.59-.7,3.4-.063.37-.115.677-.159.929a1.157,1.157,0,0,0-.032.328,1.183,1.183,0,0,0,.1-.315c.061-.248.134-.55.223-.915.2-.848.473-1.986.8-3.368.677-2.844,1.685-6.76,2.548-11.148.429-2.193.766-4.3,1-6.222.121-.961.2-1.878.279-2.737s.162-1.651.2-2.386a6.916,6.916,0,0,0-.479-3.439,3.017,3.017,0,0,0-.768-1.021" transform="translate(-40.518 -69.367)" fill="#1a2e35"/>
      <path id="Path_26331" data-name="Path 26331" d="M223.925,321.439a12.745,12.745,0,0,1,1.144,1.538,10.8,10.8,0,0,1,1.442,4.956,22.9,22.9,0,0,1-1.172,7.625c-.831,2.819-1.744,5.912-2.7,9.159-1.889,6.493-3.6,12.368-4.848,16.664-.6,2.109-1.083,3.829-1.431,5.061q-.232.86-.372,1.381a2.7,2.7,0,0,0-.108.488,2.568,2.568,0,0,0,.174-.468l.435-1.362,1.538-5.029c1.275-4.29,3.019-10.154,4.946-16.635l2.677-9.17a22.663,22.663,0,0,0,1.109-7.73,10.628,10.628,0,0,0-1.573-5.012,5.855,5.855,0,0,0-1.26-1.466" transform="translate(-43.976 -65.48)" fill="#1a2e35"/>
      <path id="Path_26332" data-name="Path 26332" d="M208.509,368.378a2.671,2.671,0,0,0,.214-.454c.124-.3.326-.746.539-1.332.452-1.164,1.03-2.879,1.629-5.03s1.194-4.744,1.765-7.639c.549-2.9,1.151-6.081,1.784-9.422.659-3.335,1.392-6.49,2.243-9.305a51.811,51.811,0,0,1,2.762-7.3A38.742,38.742,0,0,1,222,323.3c.326-.531.622-.914.8-1.191a2.725,2.725,0,0,0,.265-.426,2.667,2.667,0,0,0-.322.385c-.2.264-.51.635-.854,1.157a34.48,34.48,0,0,0-2.663,4.57,49.545,49.545,0,0,0-2.847,7.312,93.612,93.612,0,0,0-2.277,9.331c-.623,3.343-1.217,6.526-1.757,9.428s-1.119,5.484-1.688,7.636-1.107,3.872-1.519,5.048c-.193.592-.374,1.041-.478,1.353a2.748,2.748,0,0,0-.148.479" transform="translate(-42.475 -65.529)" fill="#1a2e35"/>
      <path id="Path_26333" data-name="Path 26333" d="M230.183,341.554c-.023.094.492.3,1.151.459s1.21.213,1.233.12-.492-.3-1.151-.459-1.21-.213-1.233-.12" transform="translate(-46.89 -69.569)" fill="#1a2e35"/>
      <path id="Path_26334" data-name="Path 26334" d="M231.443,333.4a11.738,11.738,0,0,0,3.2.126,5.511,5.511,0,0,0-3.2-.126" transform="translate(-47.147 -67.88)" fill="#1a2e35"/>
      <path id="Path_26335" data-name="Path 26335" d="M230.1,325.58c.062.073.577-.261,1.149-.746s.987-.939.924-1.013-.577.261-1.149.747-.986.939-.924,1.012" transform="translate(-46.873 -65.964)" fill="#1a2e35"/>
      <path id="Path_26336" data-name="Path 26336" d="M226.457,319.169c-.1.021-.069.482-.055,1.039s.018,1.018.115,1.034.252-.448.233-1.044-.2-1.051-.293-1.029" transform="translate(-46.117 -65.018)" fill="#1a2e35"/>
      <path id="Path_26337" data-name="Path 26337" d="M219.055,322.4c-.079.055.153.522.517,1.042s.724.9.8.842-.153-.522-.517-1.042-.724-.9-.8-.842" transform="translate(-44.621 -65.675)" fill="#1a2e35"/>
      <path id="Path_26338" data-name="Path 26338" d="M214.248,330.756c-.037.089.454.373,1.1.635s1.19.4,1.226.312-.454-.373-1.095-.635-1.19-.4-1.227-.312" transform="translate(-43.644 -67.373)" fill="#1a2e35"/>
      <path id="Path_26339" data-name="Path 26339" d="M211.328,339.357a4.372,4.372,0,0,0,3.139.712,31.054,31.054,0,0,0-3.139-.712" transform="translate(-43.049 -69.126)" fill="#1a2e35"/>
      <path id="Path_26340" data-name="Path 26340" d="M224.559,336.406c.092-.029.025-.5-.149-1.057s-.389-.982-.481-.953-.025.5.149,1.057.389.981.481.952" transform="translate(-45.608 -68.12)" fill="#1a2e35"/>
      <path id="Path_26341" data-name="Path 26341" d="M222.555,347.025a3.276,3.276,0,0,0-.428-1.424c-.325-.748-.659-1.323-.748-1.284a3.279,3.279,0,0,0,.428,1.424c.325.748.659,1.323.748,1.284" transform="translate(-45.093 -70.14)" fill="#1a2e35"/>
      <path id="Path_26342" data-name="Path 26342" d="M227.48,350.452a3.44,3.44,0,0,0,1.364-.3c.726-.229,1.312-.436,1.292-.531a2.557,2.557,0,0,0-1.4.2c-.743.232-1.3.545-1.26.632" transform="translate(-46.34 -71.213)" fill="#1a2e35"/>
      <path id="Path_26343" data-name="Path 26343" d="M224.817,359.475c-.056.078.35.463.906.861s1.053.655,1.109.577-.35-.464-.907-.861-1.053-.655-1.108-.577" transform="translate(-45.796 -73.226)" fill="#1a2e35"/>
      <path id="Path_26344" data-name="Path 26344" d="M222.682,368.244c-.023.093.479.3,1.121.452s1.18.207,1.2.113-.479-.3-1.121-.452-1.18-.206-1.2-.113" transform="translate(-45.362 -75.006)" fill="#1a2e35"/>
      <path id="Path_26345" data-name="Path 26345" d="M211.092,346.692c-.049.08.381.423,1.006.657s1.173.263,1.19.17-.474-.271-1.067-.5-1.079-.416-1.128-.331" transform="translate(-43.001 -70.62)" fill="#1a2e35"/>
      <path id="Path_26346" data-name="Path 26346" d="M209.437,360.089c.04.087.552-.068,1.141-.345s1.034-.573.994-.66-.552.067-1.142.345-1.034.573-.993.66" transform="translate(-42.664 -73.144)" fill="#1a2e35"/>
      <path id="Path_26347" data-name="Path 26347" d="M206.514,369.828a3.606,3.606,0,0,0,1.508-.4c.8-.313,1.416-.639,1.381-.729a6.985,6.985,0,0,0-2.889,1.132" transform="translate(-42.069 -75.102)" fill="#1a2e35"/>
      <path id="Path_26348" data-name="Path 26348" d="M221.537,377.248c.047-.088-.574-.5-1.292-1.072s-1.272-1.068-1.347-1,.384.69,1.132,1.275a3.124,3.124,0,0,0,1.507.8" transform="translate(-44.59 -76.426)" fill="#1a2e35"/>
      <path id="Path_26349" data-name="Path 26349" d="M214.471,372.231c.1.011.233-.511.471-1.119s.485-1.087.4-1.144-.477.362-.729,1.018-.238,1.237-.146,1.245" transform="translate(-43.677 -75.365)" fill="#1a2e35"/>
      <path id="Path_26350" data-name="Path 26350" d="M216.534,360.765c.055.078.453-.112.887-.423s.74-.627.685-.706-.455.111-.888.423-.741.627-.684.706" transform="translate(-44.109 -73.258)" fill="#1a2e35"/>
      <path id="Path_26351" data-name="Path 26351" d="M198.523,342.637c-.057.077.33.46.865.854s1.014.651,1.071.573-.33-.459-.865-.854-1.014-.651-1.071-.574" transform="translate(-40.44 -69.796)" fill="#1a2e35"/>
      <path id="Path_26352" data-name="Path 26352" d="M195.81,349.978c-.009.093.6.221,1.347.138s1.315-.333,1.286-.422-.61,0-1.323.076-1.3.11-1.31.209" transform="translate(-39.888 -71.228)" fill="#1a2e35"/>
      <path id="Path_26353" data-name="Path 26353" d="M207.478,351.711c-.021.092.541.293,1.265.34s1.308-.076,1.3-.169-.579-.131-1.276-.178-1.268-.089-1.288.007" transform="translate(-42.265 -71.635)" fill="#1a2e35"/>
      <path id="Path_26354" data-name="Path 26354" d="M206.475,344.459c.007.092.574.108,1.194-.18s.98-.724.915-.789-.494.216-1.061.472-1.061.4-1.049.5" transform="translate(-42.061 -69.97)" fill="#1a2e35"/>
      <path id="Path_26355" data-name="Path 26355" d="M194.807,357.636c.051.081.632-.192,1.3-.611s1.163-.824,1.112-.905-.632.192-1.3.611-1.163.824-1.112.905" transform="translate(-39.683 -72.542)" fill="#1a2e35"/>
      <path id="Path_26356" data-name="Path 26356" d="M213.153,387.7l-6.028,26.254H177.582L170.987,387.7Z" transform="translate(-34.832 -78.978)" fill="#912c3f"/>
      <rect id="Rectangle_6107" data-name="Rectangle 6107" width="49.57" height="8.786" transform="translate(132.453 301.676)" fill="#c64255"/>
      <path id="Path_26357" data-name="Path 26357" d="M166.372,389.855c0,.1,11.182.174,24.971.174s24.973-.078,24.973-.174-11.179-.174-24.973-.174-24.971.078-24.971.174" transform="translate(-33.892 -79.382)" fill="#1a2e35"/>
      <path id="Path_26358" data-name="Path 26358" d="M200.987,351.466c.081.051.42-.344.756-.882s.543-1.016.461-1.067-.42.344-.756.882-.542,1.015-.461,1.066" transform="translate(-40.94 -71.199)" fill="#1a2e35"/>
      <path id="Path_26359" data-name="Path 26359" d="M200.744,360.188c.092-.03-.025-.627-.26-1.334s-.5-1.255-.59-1.225.025.627.26,1.335.5,1.254.59,1.224" transform="translate(-40.714 -72.853)" fill="#1a2e35"/>
      <path id="Path_26360" data-name="Path 26360" d="M197.926,369.446c.087.041.457-.552.827-1.325a3.6,3.6,0,0,0,.513-1.476c-.087-.041-.457.552-.827,1.325a3.618,3.618,0,0,0-.513,1.476" transform="translate(-40.316 -74.689)" fill="#1a2e35"/>
      <path id="Path_26361" data-name="Path 26361" d="M204.1,377.192c.072-.063-.223-.523-.661-1.027s-.85-.862-.924-.8.223.522.661,1.026.851.862.924.8" transform="translate(-41.252 -76.465)" fill="#1a2e35"/>
      <path id="Path_26362" data-name="Path 26362" d="M205.885,363.936c.017.095.494.09,1.065-.011s1.022-.26,1-.354-.494-.09-1.065.011-1.022.26-1,.354" transform="translate(-41.941 -74.049)" fill="#1a2e35"/>
      <path id="Path_26363" data-name="Path 26363" d="M136.823,393.479l-.575,13.321s14.137,5,14.282,7.47l-27.376-.062-.006-20.8Z" transform="translate(-25.086 -80.142)" fill="#143351"/>
      <path id="Path_26364" data-name="Path 26364" d="M128.669,408.813a1.025,1.025,0,0,1,.268-.081,1.008,1.008,0,0,1,.309,1.992,1.073,1.073,0,0,1-1.253-.738,1.059,1.059,0,0,1,.776-1.2" transform="translate(-26.07 -83.26)" fill="#fff"/>
      <path id="Path_26365" data-name="Path 26365" d="M150.532,419.082c.14-.811-1.072-1.315-1.072-1.315l-26.214-.874-.092,2.1Z" transform="translate(-25.088 -84.925)" fill="#fff"/>
      <path id="Path_26366" data-name="Path 26366" d="M137.937,410.251c-.812.475-1.011,1.209-.889,1.256s.469-.475,1.132-.882,1.335-.464,1.332-.593c.033-.115-.764-.255-1.576.22" transform="translate(-27.911 -83.505)" fill="#fff"/>
      <path id="Path_26367" data-name="Path 26367" d="M141.961,412.056c-.58.663-.464,1.369-.364,1.374s.231-.563.692-1.095,1.014-.744,1.011-.865-.76-.077-1.339.586" transform="translate(-28.828 -83.81)" fill="#fff"/>
      <path id="Path_26368" data-name="Path 26368" d="M146.2,413.9c.274-.571.667-.936.608-1.042s-.69.165-1.034.858-.158,1.3-.037,1.295.189-.54.463-1.111" transform="translate(-29.657 -84.098)" fill="#fff"/>
      <path id="Path_26369" data-name="Path 26369" d="M137.682,405.668c-.914.041-1.5.5-1.417.6s.67-.121,1.427-.166,1.375.127,1.43.012c.076-.094-.526-.489-1.44-.448" transform="translate(-27.757 -82.638)" fill="#263238"/>
      <path id="Path_26370" data-name="Path 26370" d="M136.678,401.5a7.263,7.263,0,0,1-1.326-.479q-.371-.178-.724-.393a1.33,1.33,0,0,1-.3-.222c0-.086-.08-.063,0-.15s.32-.085.608-.013a6.033,6.033,0,0,1,.792.226,5.644,5.644,0,0,1,1.215.654c.647.465.962.838,1.011.815s-.168-.5-.8-1.049a4.681,4.681,0,0,0-1.253-.788,5.009,5.009,0,0,0-.858-.283,1.993,1.993,0,0,0-.509-.068.716.716,0,0,0-.588.291.523.523,0,0,0,.057.671,1.716,1.716,0,0,0,.414.306,6.8,6.8,0,0,0,.781.4,6.565,6.565,0,0,0,1.439.42,2.722,2.722,0,0,0,1.374.007,9.247,9.247,0,0,0-1.331-.344" transform="translate(-27.266 -81.433)" fill="#263238"/>
      <path id="Path_26371" data-name="Path 26371" d="M138.79,400.306a4.361,4.361,0,0,1,.273-1.293,4.245,4.245,0,0,1,.342-.722.977.977,0,0,1,.485-.425c.107-.031.247.2.253.467a2.448,2.448,0,0,1,.016.751,2.931,2.931,0,0,1-.44,1.218,5.575,5.575,0,0,1-.838.948c.015.042.57-.105,1.113-.775a2.954,2.954,0,0,0,.587-1.335,2.737,2.737,0,0,0-.018-.872,1.463,1.463,0,0,0-.132-.476.657.657,0,0,0-.573-.367,1.151,1.151,0,0,0-.88.655,4.285,4.285,0,0,0-.355.787,3.949,3.949,0,0,0-.191,1.435,2,2,0,0,0,.355,1.251,10.428,10.428,0,0,1,0-1.245" transform="translate(-28.199 -80.959)" fill="#263238"/>
      <path id="Path_26372" data-name="Path 26372" d="M71,392.62l-.819,13.312S55.6,409.423,55.2,411.864l27.234,2.8,2.2-20.678Z" transform="translate(-11.244 -79.981)" fill="#143351"/>
      <path id="Path_26373" data-name="Path 26373" d="M84.474,409.049a1.135,1.135,0,0,0-1.42.481,1.107,1.107,0,0,0,.679,1.358,1.08,1.08,0,0,0,1.325-.6,1.058,1.058,0,0,0-.65-1.28" transform="translate(-16.909 -83.31)" fill="#fff"/>
      <path id="Path_26374" data-name="Path 26374" d="M55.2,416.482c-.018-.85,1.212-1.191,1.212-1.191l26.157,1.89-.134,2.1Z" transform="translate(-11.244 -84.599)" fill="#fff"/>
      <path id="Path_26375" data-name="Path 26375" d="M75.076,409.476c.727.557.871,1.3.744,1.336s-.419-.521-1.037-.994-1.265-.6-1.267-.724.833-.175,1.56.381" transform="translate(-14.976 -83.321)" fill="#fff"/>
      <path id="Path_26376" data-name="Path 26376" d="M71.088,410.846c.508.7.346,1.437.217,1.425s-.205-.582-.6-1.159-.955-.853-.907-.975c.012-.1.787,0,1.295.709" transform="translate(-14.217 -83.542)" fill="#fff"/>
      <path id="Path_26377" data-name="Path 26377" d="M66.788,412.264c-.213-.6-.558-1.01-.5-1.105s.656.244.928.967.029,1.329-.087,1.289c-.136-.026-.134-.555-.346-1.151" transform="translate(-13.503 -83.754)" fill="#fff"/>
      <path id="Path_26378" data-name="Path 26378" d="M75.7,404.948c.882.139,1.394.643,1.317.745s-.625-.158-1.386-.307-1.388-.014-1.433-.135c-.06-.106.62-.442,1.5-.3" transform="translate(-15.114 -82.485)" fill="#263238"/>
      <path id="Path_26379" data-name="Path 26379" d="M76.714,400.956a7.993,7.993,0,0,0,1.366-.344,5.959,5.959,0,0,0,.759-.316,1.277,1.277,0,0,0,.325-.186c.049-.072.107-.024.047-.144s-.3-.151-.6-.109a5.241,5.241,0,0,0-2.089.674c-.686.387-1.043.73-1.086.7s.2-.476.9-.963a4.726,4.726,0,0,1,1.338-.651,4.637,4.637,0,0,1,.875-.19,2.03,2.03,0,0,1,.515-.011.759.759,0,0,1,.558.353.531.531,0,0,1-.129.661,1.688,1.688,0,0,1-.445.26,5.734,5.734,0,0,1-.823.311,5.973,5.973,0,0,1-1.468.267,2.719,2.719,0,0,1-1.361-.128,8.664,8.664,0,0,1,1.319-.186" transform="translate(-15.359 -81.363)" fill="#263238"/>
      <path id="Path_26380" data-name="Path 26380" d="M75.377,399.52a4.826,4.826,0,0,0-.135-1.313,4.608,4.608,0,0,0-.272-.709.986.986,0,0,0-.432-.47c-.108-.041-.24.17-.306.443a2.376,2.376,0,0,0-.1.717,2.941,2.941,0,0,0,.306,1.259,5.887,5.887,0,0,0,.737,1.029c-.021.043-.561-.182-1.027-.886a2.87,2.87,0,0,1-.445-1.421,2.613,2.613,0,0,1,.089-.867,1.858,1.858,0,0,1,.183-.461.65.65,0,0,1,.608-.3,1.131,1.131,0,0,1,.8.741,3.828,3.828,0,0,1,.268.816,4.015,4.015,0,0,1,.03,1.43,2,2,0,0,1-.482,1.211c-.043,0,.119-.467.174-1.219" transform="translate(-15.013 -80.779)" fill="#263238"/>
      <path id="Path_26381" data-name="Path 26381" d="M147.6,213.192c0-1.715-4.168-8.023-4.168-8.023s-.98-10.443-1.282-13.524a9.9,9.9,0,0,0-.721-2.6,27.971,27.971,0,0,0-3.855-6.405c-.908-1.064-1.738-.132-2.848-1l-3.061-1.437-4.644,17.32,8.3,25.713,26.865,9.585s6.173-8.565,6.577-8.695S147.6,213.192,147.6,213.192" transform="translate(-25.875 -36.71)" fill="#c64255"/>
      <path id="Path_26382" data-name="Path 26382" d="M143.43,227.35a1.015,1.015,0,0,1,.061-.413,6.348,6.348,0,0,1,.384-1.071,7.5,7.5,0,0,1,5.826-4.3,6.167,6.167,0,0,1,1.136-.05,1.045,1.045,0,0,1,.413.063c0,.052-.592.025-1.515.2a7.977,7.977,0,0,0-5.67,4.184c-.436.831-.586,1.4-.635,1.39" transform="translate(-29.217 -45.123)" fill="#1a2e35"/>
      <path id="Path_26383" data-name="Path 26383" d="M145.732,220.752a6.646,6.646,0,0,1,5.161.354c-.031.086-1.139-.309-2.565-.4s-2.577.135-2.6.045" transform="translate(-29.687 -44.895)" fill="#1a2e35"/>
      <path id="Path_26384" data-name="Path 26384" d="M128.53,274.327c-.165,8.664.766,42.761.215,54.774-.3,6.65.412,39.456-.3,47.687l-17.105.364s-1.06-45.442-1.123-47.443-3.176-50.785-3.176-50.785-9.195,42.109-9.69,48.12-2.57,16.624-3.677,23.8c-1.639,10.834-4.04,26.668-4.04,26.668l-17.256-.27,4.893-48.733c-.366-4.662,7.824-71.9,7.824-71.9l40.742-2.232s2.855,11.289,2.69,19.953" transform="translate(-14.745 -51.819)" fill="#d7944b"/>
      <path id="Path_26385" data-name="Path 26385" d="M104.239,125.019l.663-.079a12.82,12.82,0,0,1,14.117,10.149c1.267,6.095,2.555,12.847,2.911,16.158.753,6.849-5.958,8.743-5.958,8.743.917,5.423,1.468,9.824-4.628,11.727-7.144,1.653-10.241-2.707-11.052-7.267L95.8,140.037c-1.48-7.019,1.375-13.7,8.434-15.018" transform="translate(-19.439 -25.432)" fill="#fcd2bf"/>
      <path id="Path_26386" data-name="Path 26386" d="M96.777,127.129c-2.123-.978-5.382,1.487-6.307,4.024s-.423,5.037.454,7.592a35.625,35.625,0,0,0,6.964,12.01c.271.309.693.636,1.046.428a.894.894,0,0,0,.328-.722,30.555,30.555,0,0,0-.754-7.235,18.444,18.444,0,0,1-.154-7.241,7.061,7.061,0,0,1,4.515-5.287,7.687,7.687,0,0,1,5.227.654c1.64.737,3.113,1.793,4.684,2.661a9.884,9.884,0,0,0,5.109,1.486,4.67,4.67,0,0,0,4.232-2.771c.6-1.679-.448-3.91-2.234-4.13a3.532,3.532,0,0,0,.111-6.925c-2.672-.551-5.185,2-7.909,1.706-1.649-.18-2.99-1.367-4.506-2.05a7.735,7.735,0,0,0-7.141.473c-2.111,1.311-3.608,2.873-3.691,5.357" transform="translate(-18.329 -24.582)" fill="#263238"/>
      <path id="Path_26387" data-name="Path 26387" d="M119.2,170.632c-6.741,1.444-9.537-3.587-9.537-3.587a16.641,16.641,0,0,0,9.215,1.542Z" transform="translate(-22.338 -34.029)" fill="#f8a48d"/>
      <path id="Path_26388" data-name="Path 26388" d="M123.028,145.053a.937.937,0,0,0-1.105-.73.98.98,0,0,0-.821,1.1l.008.041a.93.93,0,0,0,1.1.716.979.979,0,0,0,.82-1.1l0-.026" transform="translate(-24.668 -29.396)" fill="#263238"/>
      <path id="Path_26389" data-name="Path 26389" d="M111.03,147.211a.937.937,0,0,0-1.105-.73.98.98,0,0,0-.821,1.1l.008.041a.93.93,0,0,0,1.1.716.979.979,0,0,0,.82-1.1l0-.026" transform="translate(-22.224 -29.836)" fill="#263238"/>
      <path id="Path_26390" data-name="Path 26390" d="M118.109,150.767a2.186,2.186,0,0,0,.448-.117.671.671,0,0,0,.391-.451,1.6,1.6,0,0,0-.265-1.031l-1.014-1.967a36.531,36.531,0,0,0-2.837-4.946,31.339,31.339,0,0,0,2.433,5.126c.358.678.707,1.329,1.042,1.945a1.428,1.428,0,0,1,.274.773c-.025.193-.273.278-.537.334a6.74,6.74,0,0,0-1.669.522,7.136,7.136,0,0,0,1.734-.187" transform="translate(-23.391 -28.979)" fill="#263238"/>
      <path id="Path_26391" data-name="Path 26391" d="M108.56,138.166a4.217,4.217,0,0,0-3.558.848c-.372.315-.509.6-.42.724.191.239,1.147-.225,2.363-.522s2.282-.291,2.347-.593c.026-.136-.229-.338-.732-.456" transform="translate(-21.299 -28.126)" fill="#263238"/>
      <path id="Path_26392" data-name="Path 26392" d="M121.44,137.6a2.593,2.593,0,0,0-2.855.261c-.3.264-.383.515-.295.628.2.232.915-.027,1.785-.124s1.625.066,1.784-.2c.068-.123-.064-.356-.42-.563" transform="translate(-24.09 -27.967)" fill="#263238"/>
      <path id="Path_26393" data-name="Path 26393" d="M97.38,156.856c.018.136-4.509,1.812-5.231-2.842s4.023-3.876,4.145-3.835c0,0,1.069,6.542,1.086,6.677" transform="translate(-18.756 -30.578)" fill="#fcd2bf"/>
      <path id="Path_26394" data-name="Path 26394" d="M95.869,155.962a.878.878,0,0,1-.71.244,2.143,2.143,0,0,1-1.468-1.828,2.793,2.793,0,0,1,.078-1.346,1.157,1.157,0,0,1,.7-.851.628.628,0,0,1,.466.054.5.5,0,0,1,.227.26c.09.184.035.279.006.279s-.01-.1-.1-.219a.407.407,0,0,0-.51-.147.937.937,0,0,0-.514.725,2.659,2.659,0,0,0-.046,1.2,2.039,2.039,0,0,0,1.209,1.663.844.844,0,0,0,.605-.106,1.886,1.886,0,0,0,.2-.154c.015.006.01.114-.138.232" transform="translate(-19.076 -30.996)" fill="#f8a48d"/>
      <path id="Path_26395" data-name="Path 26395" d="M120.107,133.21a9.93,9.93,0,0,1-9.008-.9c-1.835-1.2-3.376-3.074-5.53-3.458a5.578,5.578,0,0,0-4.174,1.1,10.854,10.854,0,0,0-2.854,3.35c1.744,3.31,1.328,7.3.87,11.016A1.881,1.881,0,0,1,99,145.458c-.468.5-1.367.258-1.913-.188a5.78,5.78,0,0,1-1.642-2.89,19.425,19.425,0,0,1-.876-7.584,13.172,13.172,0,0,1,2.789-7.046,12.5,12.5,0,0,1,8.3-4.353,15.363,15.363,0,0,1,9.212,2.085,8.936,8.936,0,0,1,3.274,2.955Z" transform="translate(-19.251 -25.125)" fill="#263238"/>
      <path id="Path_26396" data-name="Path 26396" d="M118.4,157.132l-2.4.4a1.2,1.2,0,0,0-.5.178c-.349.277-.235.806-.022,1.186a2.283,2.283,0,0,0,.992.988,1.433,1.433,0,0,0,1.365-.072,1.613,1.613,0,0,0,.614-1.147,4.666,4.666,0,0,0-.105-1.33" transform="translate(-23.485 -32.009)" fill="#fff"/>
      <path id="Path_26397" data-name="Path 26397" d="M118.309,159.691a1.776,1.776,0,0,1-.851.465,1.923,1.923,0,0,1-1.449-.186,2.082,2.082,0,0,1-1-1.495,1.808,1.808,0,0,1-.009-.491.707.707,0,0,1,.107-.3.545.545,0,0,1,.283-.186c.18-.049.3-.025.437-.073l.393-.049c.516-.064.974-.122,1.371-.158a3.829,3.829,0,0,1,1.268-.045,4.265,4.265,0,0,1-1.227.326l-1.356.244-.394.066a3.175,3.175,0,0,0-.378.067c-.095.034-.084.022-.105.152a1.408,1.408,0,0,0,.009.384,1.787,1.787,0,0,0,.792,1.235,1.687,1.687,0,0,0,1.2.23,3.373,3.373,0,0,0,1.1-.5c.022.016-.028.132-.185.31" transform="translate(-23.424 -32.012)" fill="#263238"/>
      <path id="Path_26398" data-name="Path 26398" d="M93.833,175.57l3.012-4.63s3.4,5.7,5.189,6.916c1.576,1.075,5.523,2.571,7.354,2.035,1.486-.435,4.136-4.61,4.136-4.61l-.149-3,4.665,3.325,10.067,5.153,2.2,15.012.632,29.128-.876,25.693a50.109,50.109,0,0,1-23.135,4.743c-13.6-.38-20.546-3.1-23.186-5.808l4.1-24.7-7.292-44.067,4.994-2.539Z" transform="translate(-16.41 -34.822)" fill="#c64255"/>
      <path id="Path_26399" data-name="Path 26399" d="M140.494,184.29c.111.72.283,1.653.483,2.768.411,2.338.9,5.58,1.229,9.181s.434,6.882.455,9.252c0,1.134,0,2.088.006,2.806-.017.346.058,17.449.1,17.793.066-.34.032-17.444.025-17.79.049-.663.094-1.621.116-2.81A83.937,83.937,0,0,0,141.19,187c-.245-1.169-.452-2.1-.627-2.751a5.736,5.736,0,0,0-.289-.986,4.74,4.74,0,0,0,.221,1.023" transform="translate(-28.575 -37.333)" fill="#263238"/>
      <path id="Path_26400" data-name="Path 26400" d="M147.581,221.883l-12.065,21.1-29.726.646-.074,1.347,28.783-.213.913-.031,30.4.06,6.143-10.593,7.846-11.245a1.11,1.11,0,0,0-.914-1.745l-30.341.115a1.11,1.11,0,0,0-.959.559" transform="translate(-21.535 -45.062)" fill="#3a7a93"/>
      <path id="Path_26401" data-name="Path 26401" d="M186.372,237.522s1.562,1.431,1.315,2.648-.165,2.121-1.315,2.2a1.751,1.751,0,0,1-1.563,1.808,1.927,1.927,0,0,1-1.867,2.236s-.682,2.039-2.079,1.546a12.345,12.345,0,0,1-2.3-1.069l-.411-.74s-2.059-.774-1.552-1.937c.309-.706,1.374-.889,1.374-.889a2,2,0,0,1,.131-1.808c.494-.663,2.1-.115,2.1-.115a2.261,2.261,0,0,1,.509-1.573c.547-.649,3.106,1.115,3.106,1.115l1.4-1.667Z" transform="translate(-35.959 -48.386)" fill="#ffc09d"/>
      <path id="Path_26402" data-name="Path 26402" d="M183.314,247.9a28.5,28.5,0,0,1-4.97-3.089,28.5,28.5,0,0,1,4.97,3.089" transform="translate(-36.33 -49.869)" fill="#ff9b6c"/>
      <path id="Path_26403" data-name="Path 26403" d="M185.753,245.172a24.078,24.078,0,0,1-4.6-2.776,24.083,24.083,0,0,1,4.6,2.776" transform="translate(-36.901 -49.377)" fill="#ff9b6c"/>
      <path id="Path_26404" data-name="Path 26404" d="M183.736,240.627a8.123,8.123,0,0,1,2.11,1.12,19.229,19.229,0,0,1,1.985,1.317A6.4,6.4,0,0,1,185.687,242a11.68,11.68,0,0,1-1.951-1.376" transform="translate(-37.429 -49.016)" fill="#ff9b6c"/>
      <path id="Path_26405" data-name="Path 26405" d="M187.735,222.173a.509.509,0,0,1-.146.015l-.427.015-1.641.029-6.036.048-19.914.044h-1.45a1.2,1.2,0,0,0-1.105.522q-.686,1.237-1.351,2.437l-2.562,4.625c-1.636,2.94-3.11,5.589-4.354,7.823l-2.957,5.261-.818,1.423-.219.366a.573.573,0,0,1-.084.119.5.5,0,0,1,.057-.135l.194-.381.768-1.451c.69-1.276,1.67-3.083,2.875-5.307,1.227-2.243,2.682-4.9,4.3-7.855l2.547-4.634q.669-1.208,1.358-2.457a1.5,1.5,0,0,1,1.355-.658h1.45l19.914.044,6.036.048,1.641.029.427.015a.51.51,0,0,1,.146.015" transform="translate(-29.471 -45.227)" fill="#1a2e35"/>
      <path id="Path_26406" data-name="Path 26406" d="M171.785,235.4a1.282,1.282,0,1,0,1.916-.226,1.371,1.371,0,0,0-1.916.226" transform="translate(-34.911 -47.847)" fill="#fff"/>
      <path id="Path_26407" data-name="Path 26407" d="M100.175,234.786l4.157,1.023-2.5,9.586-4.084-.655Z" transform="translate(-19.912 -47.828)" fill="#c64255"/>
      <path id="Path_26408" data-name="Path 26408" d="M132.17,243.658l-4.074-4.326-8.38-2.121s-7.679,2.3-7.863,2.295-6.683-1.777-6.683-1.777l-2.271,8.332,11.705.8,13.366-.534s.7-.65.283-1.093,2.234.75,2.547.764.916.254,1.329-.245a1.765,1.765,0,0,0,.041-2.1" transform="translate(-20.962 -48.322)" fill="#ffc09d"/>
      <path id="Path_26409" data-name="Path 26409" d="M132.407,246.683a7.313,7.313,0,0,1-1.331-.379c-.812-.258-1.937-.6-3.193-.925s-2.41-.56-3.246-.728a7.139,7.139,0,0,1-1.348-.315,5.683,5.683,0,0,1,1.384.105,29.728,29.728,0,0,1,3.284.646,28.7,28.7,0,0,1,3.189,1.015,5.608,5.608,0,0,1,1.261.58" transform="translate(-25.115 -49.771)" fill="#ff9b6c"/>
      <path id="Path_26410" data-name="Path 26410" d="M136.373,244.465a17.64,17.64,0,0,1-1.859-.6c-1.141-.385-2.734-.856-4.508-1.351a23.651,23.651,0,0,0-4.544-1.122,11.151,11.151,0,0,0-1.929.076,1.494,1.494,0,0,1,.5-.169,5.487,5.487,0,0,1,1.44-.119,19.655,19.655,0,0,1,4.613,1.046c1.774.494,3.369,1,4.5,1.44.565.217,1.016.408,1.323.55a1.706,1.706,0,0,1,.464.25" transform="translate(-25.165 -49.13)" fill="#ff9b6c"/>
      <path id="Path_26411" data-name="Path 26411" d="M77.686,183.026s-6.041,4.2-7.511,10.251-7.838,30.751-6.531,34.448,26.707,7.322,26.707,7.322l2.977-12.078-12.17-3.308-2.072-1.5s3.781-11.07,3.336-15.431c-.5-4.851-4.736-19.7-4.736-19.7" transform="translate(-12.929 -37.284)" fill="#c64255"/>
      <path id="Path_26412" data-name="Path 26412" d="M63.564,235.589c.021,0-.012.211.062.6a2.816,2.816,0,0,0,.885,1.442,12.213,12.213,0,0,0,5.885,2.365l.009,0,.01,0c1.222.4,2.613.721,4.1,1.057s3.09.674,4.78,1.018c3.379.691,7.12,1.417,11.081,2.16l-.172.111.9-3.686,2.058-8.414.1.174L81.8,229.148l-.007,0-.006,0a11.328,11.328,0,0,0-5-.875,11.049,11.049,0,0,0-3.774.885,12.707,12.707,0,0,0-2.168,1.2l-.526.382a1.045,1.045,0,0,1-.186.123,1.02,1.02,0,0,1,.164-.15c.113-.093.278-.239.506-.412a11.734,11.734,0,0,1,2.156-1.266,10.984,10.984,0,0,1,3.815-.952,11.441,11.441,0,0,1,5.1.846l-.013,0,11.479,3.219.135.037-.033.136c-.651,2.677-1.339,5.5-2.047,8.416-.308,1.263-.612,2.508-.9,3.686l-.033.138-.139-.026c-3.964-.746-7.7-1.484-11.081-2.191-1.69-.352-3.289-.7-4.779-1.047s-2.875-.677-4.118-1.1l.018,0a12.087,12.087,0,0,1-5.93-2.486,2.8,2.8,0,0,1-.865-1.511,1.76,1.76,0,0,1-.006-.609" transform="translate(-12.944 -46.456)" fill="#1a2e35"/>
      <path id="Path_26413" data-name="Path 26413" d="M83.221,228.235c-.035.038-.466-.357-1.241-.876a11.852,11.852,0,0,0-6.87-2c-.932.022-1.507.124-1.517.073a4.711,4.711,0,0,1,1.507-.285,10.509,10.509,0,0,1,7,2.039,4.708,4.708,0,0,1,1.118,1.049" transform="translate(-14.992 -45.859)" fill="#1a2e35"/>
      <path id="Path_26414" data-name="Path 26414" d="M86.845,203.048a3.8,3.8,0,0,1,.009.775c-.011.5-.054,1.218-.122,2.105-.143,1.775-.408,4.224-.871,6.9a48.064,48.064,0,0,1-1.6,6.776c-.142.424-.287.8-.412,1.132l-.369.833a3.769,3.769,0,0,1-.4.668,3.8,3.8,0,0,1,.289-.717l.319-.843c.108-.335.239-.714.366-1.138a59.822,59.822,0,0,0,1.509-6.762c.462-2.669.759-5.106.956-6.871l.217-2.093a3.853,3.853,0,0,1,.108-.767" transform="translate(-16.924 -41.363)" fill="#1a2e35"/>
      <path id="Path_26415" data-name="Path 26415" d="M84.6,195.392c-.056,0-.037-.605-.212-1.55a9.441,9.441,0,0,0-1.405-3.438,10.111,10.111,0,0,0-1.321-1.571,8.989,8.989,0,0,0-1.325-1.031c-.811-.512-1.384-.709-1.365-.762.007-.02.154.017.415.1a3.054,3.054,0,0,1,.466.182,5.079,5.079,0,0,1,.593.3,7.835,7.835,0,0,1,1.4,1.01,9.309,9.309,0,0,1,1.383,1.607,8.591,8.591,0,0,1,1.366,3.571,6.055,6.055,0,0,1,.057,1.161,1.177,1.177,0,0,1-.055.423" transform="translate(-16.086 -38.101)" fill="#1a2e35"/>
      <path id="Path_26416" data-name="Path 26416" d="M100.175,234.786c1.45.277,2.891.591,4.33.914l-.033.145q-1.159,4.971-2.521,9.89c-1.4-.312-2.808-.636-4.2-.995,1.382.2,2.758.439,4.131.686l-.166.1q1.138-4.9,2.48-9.757l.106.175c-1.379-.369-2.754-.75-4.122-1.163" transform="translate(-19.912 -47.828)" fill="#1a2e35"/>
      <path id="Path_26417" data-name="Path 26417" d="M97.435,177.119c3.878,5.554,11.209,9.472,17.595,5.635a6.422,6.422,0,0,0,2.722-5.866A6.391,6.391,0,0,1,115.205,183c-6.475,4.094-14.152.085-17.77-5.886" transform="translate(-19.848 -36.034)" fill="#263238"/>
      <path id="Path_26418" data-name="Path 26418" d="M14,131.459c.149.149,28.774-9.691,28.774-9.691L31.77,96.509,6.289,106.251l14.017,8.054Z" transform="translate(-1.281 -19.66)" fill="#e2ce9c"/>
      <path id="Path_26419" data-name="Path 26419" d="M32.838,95.527V61.133s39.489-7.218,67.939-6.793,57.747,5.1,57.747,5.1V92.453S69.355,84.487,32.838,95.527" transform="translate(-6.689 -11.066)" fill="#e2ce9c"/>
      <path id="Path_26420" data-name="Path 26420" d="M32.581,105.31l15.552,17.768v-20.87s-13.007,1.556-15.552,3.1" transform="translate(-6.637 -20.821)" fill="#937a3a"/>
      <path id="Path_26421" data-name="Path 26421" d="M32.749,62.873c.124,0,.178,7.708.122,17.212s-.2,17.212-.327,17.211-.178-7.706-.122-17.213.2-17.21.327-17.209" transform="translate(-6.6 -12.808)" fill="#1a2e35"/>
      <path id="Path_26422" data-name="Path 26422" d="M200.125,128.146c-.149.149-28.774-9.691-28.774-9.691L182.357,93.2l25.481,9.742-14.017,8.054Z" transform="translate(-34.906 -18.985)" fill="#e2ce9c"/>
      <path id="Path_26423" data-name="Path 26423" d="M186.9,102.384l-15.552,17.768v-19.36a114.521,114.521,0,0,1,15.552,1.593" transform="translate(-34.906 -20.532)" fill="#937a3a"/>
      <path id="Path_26424" data-name="Path 26424" d="M190.638,60.744c.124,0,.261,7.495.306,16.74s-.019,16.743-.143,16.744-.261-7.494-.306-16.741.019-16.741.143-16.742" transform="translate(-38.803 -12.374)" fill="#1a2e35"/>
      <path id="Path_26425" data-name="Path 26425" d="M60.792,80.42a5.057,5.057,0,0,1,8.252-4.3l-1.179,1.435a2.956,2.956,0,0,0-2.435-.749,2.939,2.939,0,0,0,.807,5.822,2.93,2.93,0,0,0,2.138-1.4L69.9,82.3a5.048,5.048,0,0,1-9.108-1.876" transform="translate(-12.374 -15.272)" fill="#bf2d30"/>
      <path id="Path_26426" data-name="Path 26426" d="M72.614,78.838a5.032,5.032,0,1,1,5.483,4.21,4.752,4.752,0,0,1-5.483-4.21m7.855-.807a2.873,2.873,0,1,0-2.557,3.216,2.8,2.8,0,0,0,2.557-3.216" transform="translate(-14.787 -14.987)" fill="#bf2d30"/>
      <path id="Path_26427" data-name="Path 26427" d="M95.85,81.418l-.366-5.5-2.4,4.7-.956.061-2.967-4.239.346,5.38-1.989.127-.589-9.161,1.753-.113,3.8,5.473,3.011-5.91,1.741-.112.616,9.16Z" transform="translate(-17.707 -14.694)" fill="#bf2d30"/>
      <path id="Path_26428" data-name="Path 26428" d="M110.976,75.093c.057,2.046-1.441,3.361-3.894,3.43l-1.849.052.071,2.531-2.125.06-.258-9.18,3.974-.111c2.452-.069,4.022,1.16,4.08,3.219m-2.151.061c-.028-1.01-.7-1.581-2-1.545l-1.731.049.089,3.187,1.731-.049c1.3-.037,1.937-.645,1.909-1.642" transform="translate(-20.966 -14.641)" fill="#bf2d30"/>
      <path id="Path_26429" data-name="Path 26429" d="M115.064,71.728h2.124v7.448h4.6v1.731h-6.728Z" transform="translate(-23.44 -14.612)" fill="#bf2d30"/>
      <path id="Path_26430" data-name="Path 26430" d="M132.076,79.443l-.049,1.7-7.108-.207.267-9.18,6.937.2-.049,1.706-4.826-.141-.058,1.994,4.263.123L131.4,77.3l-4.263-.124L127.08,79.3Z" transform="translate(-25.447 -14.618)" fill="#bf2d30"/>
      <path id="Path_26431" data-name="Path 26431" d="M138.086,73.979l-2.931-.177.1-1.727,7.984.481-.1,1.728-2.932-.177-.448,7.433-2.121-.127Z" transform="translate(-27.532 -14.682)" fill="#bf2d30"/>
      <path id="Path_26432" data-name="Path 26432" d="M153.171,80.915l-.158,1.7-7.079-.655.847-9.143,6.909.64-.157,1.7-4.807-.445-.183,1.985,4.244.393-.152,1.646-4.245-.394-.2,2.117Z" transform="translate(-29.728 -14.833)" fill="#bf2d30"/>
      <path id="Path_26433" data-name="Path 26433" d="M158.043,73.906l4.133.553c2.976.4,4.776,2.464,4.409,5.218s-2.648,4.276-5.625,3.879L156.828,83Zm3.044,7.907a2.85,2.85,0,1,0,.753-5.64l-1.922-.257-.754,5.64Z" transform="translate(-31.947 -15.055)" fill="#bf2d30"/>
      <path id="Path_26434" data-name="Path 26434" d="M212.868,63.96l2.253,2.65,6.361-2.65-1.855-2.783Z" transform="translate(-43.363 -12.462)" fill="#87c9bc"/>
      <path id="Path_26435" data-name="Path 26435" d="M207.512,48.015A3.313,3.313,0,1,1,204.2,44.7a3.313,3.313,0,0,1,3.313,3.313" transform="translate(-40.922 -9.106)" fill="#c64255"/>
      <path id="Path_26436" data-name="Path 26436" d="M115.235,110.443a1.656,1.656,0,1,1-1.656-1.656,1.656,1.656,0,0,1,1.656,1.656" transform="translate(-22.8 -22.161)" fill="#e2ce9c"/>
      <path id="Path_26437" data-name="Path 26437" d="M18.6,79.3a1.257,1.257,0,1,1-1.257-1.257A1.256,1.256,0,0,1,18.6,79.3" transform="translate(-3.277 -15.899)" fill="#e2ce9c"/>
      <path id="Path_26438" data-name="Path 26438" d="M13.377,60.418l3.71.225,1.761-7.287-3.464.141Z" transform="translate(-2.725 -10.869)" fill="#87c9bc"/>
      <path id="Path_26439" data-name="Path 26439" d="M158.878,135.11l1.248,3.5,7.394-1.238-1.489-3.131Z" transform="translate(-32.365 -27.346)" fill="#e2ce9c"/>
      <path id="Path_26440" data-name="Path 26440" d="M64.343,109.971,62.059,112.9l5.013,5.575,1.843-2.938Z" transform="translate(-12.642 -22.402)" fill="#87c9bc"/>
      <path id="Path_26441" data-name="Path 26441" d="M50.494,23.5l8.758,8.929,12.319-4.657.487,3.056L66.722,41.756l4.918,8.156-.412,2.435L59.307,50.34,52.26,58.077,50.605,56.82l-1.46-9.837L38.023,41.192l-.487-2.244,11.2-3.066Z" transform="translate(-7.647 -4.787)" fill="#ff735d"/>
      <path id="Path_26442" data-name="Path 26442" d="M50.494,23.5l8.758,8.929,12.319-4.657.487,3.056L66.722,41.756l4.918,8.156-.412,2.435L59.307,50.34,52.26,58.077,50.605,56.82l-1.46-9.837L38.023,41.192l-.487-2.244,11.2-3.066Z" transform="translate(-7.647 -4.787)" fill="#8c2c3f"/>
      <path id="Path_26443" data-name="Path 26443" d="M50.494,20.356l8.758,8.928,12.319-2.152L65.786,38.22,71.64,49.272,59.307,47.2l-8.7,8.983L48.768,43.808l-11.232-5.5,11.2-5.569Z" transform="translate(-7.647 -4.147)" fill="#c64255"/>
      <path id="Path_26444" data-name="Path 26444" d="M162.233,23.5l-8.758,8.929-12.319-4.657-.487,3.056L146,41.756l-4.918,8.156.412,2.435,11.921-2.007,7.047,7.737,1.655-1.257,1.46-9.837L174.7,41.192l.487-2.244-11.2-3.066Z" transform="translate(-28.656 -4.787)" fill="#ff735d"/>
      <path id="Path_26445" data-name="Path 26445" d="M162.233,23.5l-8.758,8.929-12.319-4.657-.487,3.056L146,41.756l-4.918,8.156.412,2.435,11.921-2.007,7.047,7.737,1.655-1.257,1.46-9.837L174.7,41.192l.487-2.244-11.2-3.066Z" transform="translate(-28.656 -4.787)" fill="#8c2c3f"/>
      <path id="Path_26446" data-name="Path 26446" d="M162.34,20.356l-8.758,8.928-12.319-2.152,5.785,11.088-5.854,11.052L153.526,47.2l8.7,8.983,1.837-12.371,11.232-5.5-11.2-5.569Z" transform="translate(-28.763 -4.147)" fill="#c64255"/>
      <path id="Path_26447" data-name="Path 26447" d="M104.8,3.836l7.284,14.229,16.8-.988-.57,3.914-10.672,11.3,2.893,11.824-1.429,2.813-13.781-6.989L93.786,46.694l-1.54-2.165,1.964-12.557-11.364-11.3.261-2.923,14.83.525Z" transform="translate(-16.877 -0.781)" fill="#ff735d"/>
      <path id="Path_26448" data-name="Path 26448" d="M104.8,3.836l7.284,14.229,16.8-.988-.57,3.914-10.672,11.3,2.893,11.824-1.429,2.813-13.781-6.989L93.786,46.694l-1.54-2.165,1.964-12.557-11.364-11.3.261-2.923,14.83.525Z" transform="translate(-16.877 -0.781)" fill="#8c2c3f"/>
      <path id="Path_26449" data-name="Path 26449" d="M105.822,0l7.284,14.229,15.851,2.066L117.675,27.62l2.933,15.713L106.351,36.1,92.313,43.748l2.471-15.793L83.175,16.966l15.784-2.53Z" transform="translate(-16.944 0)" fill="#c64255"/>
      <path id="Path_26450" data-name="Path 26450" d="M157.029,157.065l11.247,1.24a26.367,26.367,0,1,1-3.956,8.577l-.008.013Z" transform="translate(-31.988 -29.971)" fill="#e2ce9c"/>
      <path id="Path_26451" data-name="Path 26451" d="M157.029,157.026c.441.586,2.715,3.6,7.366,9.769l-.174.01.007-.012a.1.1,0,0,1,.141-.041.106.106,0,0,1,.049.117,26.225,26.225,0,0,0,.174,13.6,23.563,23.563,0,0,0,1.455,3.868c.32.635.624,1.291.97,1.934l1.182,1.886a26.309,26.309,0,0,0,16.039,10.77,25.937,25.937,0,0,0,10.957.05,26.518,26.518,0,0,0,10.488-4.858,25.628,25.628,0,0,0,7.605-9.334,26.113,26.113,0,0,0,2.61-12.013,26.555,26.555,0,0,0-2.949-11.405,25.685,25.685,0,0,0-7.116-8.581A26.465,26.465,0,0,0,187,147.4a28.3,28.3,0,0,0-8.242,2.281,26.178,26.178,0,0,0-10.405,8.644.1.1,0,0,1-.092.041l-11.236-1.339c.7.072,4.127.419,11.257,1.14l-.092.041a26.226,26.226,0,0,1,10.447-8.788,28.475,28.475,0,0,1,8.328-2.342,26.75,26.75,0,0,1,19.1,5.4,26.023,26.023,0,0,1,7.237,8.7,26.9,26.9,0,0,1,3.006,11.579,26.489,26.489,0,0,1-2.647,12.2,26.01,26.01,0,0,1-7.73,9.481,26.886,26.886,0,0,1-10.654,4.923,26.271,26.271,0,0,1-11.121-.068,26.585,26.585,0,0,1-16.228-10.959q-.6-.969-1.19-1.914c-.348-.653-.653-1.318-.973-1.961a23.729,23.729,0,0,1-1.455-3.918,26.312,26.312,0,0,1-.093-13.726l.19.077-.007.012a.1.1,0,0,1-.14.041.116.116,0,0,1-.033-.029l-7.2-9.892" transform="translate(-31.988 -29.932)" fill="#d7944b"/>
      <path id="Path_26452" data-name="Path 26452" d="M191.373,188.3a2.6,2.6,0,0,1-1.839-.762l-7.526-7.526a2.6,2.6,0,0,1,3.677-3.676l5.687,5.686,14.711-14.711a2.6,2.6,0,0,1,3.677,3.677l-16.55,16.55a2.6,2.6,0,0,1-1.839.762" transform="translate(-36.922 -33.928)" fill="#c64255"/>
      <g id="Group_20467" data-name="Group 20467" transform="translate(57.777 222.577)">
        <g id="Group_20466" data-name="Group 20466" transform="translate(0 0)" clip-path="url(#clip-path-3)">
          <path id="Path_26526" data-name="Path 26526" d="M43.309,4.261A7.6,7.6,0,0,0,47.2,0a4.774,4.774,0,0,1-3.889,4.261" transform="translate(-8.8 0)" fill="#1a2e35"/>
          <path id="Path_26527" data-name="Path 26527" d="M30.342,63c-.851,2.316-2.308,4.674-4.579,5.8A23.892,23.892,0,0,0,30.342,63" transform="translate(-5.235 -12.801)" fill="#1a2e35"/>
          <path id="Path_26528" data-name="Path 26528" d="M30.192,64.25c0,3.578-1.37,7.491-4.429,9.562,2.662-2.49,3.856-6.033,4.429-9.562" transform="translate(-5.235 -13.055)" fill="#1a2e35"/>
          <path id="Path_26529" data-name="Path 26529" d="M46.942,63c1.638,3.813,3.079,7.963,5.543,11.328-2.924-3.087-4.4-7.3-5.543-11.328" transform="translate(-9.538 -12.801)" fill="#1a2e35"/>
          <path id="Path_26530" data-name="Path 26530" d="M65.154,125.79a134.653,134.653,0,0,1-14.733.316,134.658,134.658,0,0,1,14.733-.316" transform="translate(-10.245 -25.544)" fill="#1a2e35"/>
          <path id="Path_26531" data-name="Path 26531" d="M17.4,126.553q-8.7.4-17.4,0,8.7-.405,17.4,0" transform="translate(0 -25.673)" fill="#1a2e35"/>
        </g>
      </g>
    </g>
  </g>
</svg>
