<svg xmlns="http://www.w3.org/2000/svg" xmlns:xlink="http://www.w3.org/1999/xlink" width="122.307" height="36" viewBox="0 0 122.307 36">
  <defs>
    <linearGradient id="linear-gradient" x1="0.808" y1="0.5" x2="-1.573" y2="0.5" gradientUnits="objectBoundingBox">
      <stop offset="0" stop-color="gold"/>
      <stop offset="0.075" stop-color="#fece00"/>
      <stop offset="0.48" stop-color="#fca704"/>
      <stop offset="0.803" stop-color="#fa8e07"/>
      <stop offset="1" stop-color="#fa8608"/>
    </linearGradient>
    <linearGradient id="linear-gradient-2" x1="0.862" y1="0.178" x2="-0.501" y2="1.948" gradientUnits="objectBoundingBox">
      <stop offset="0" stop-color="#e82b36"/>
      <stop offset="1" stop-color="#b4005a"/>
    </linearGradient>
    <linearGradient id="linear-gradient-3" x1="-0.507" y1="-0.956" x2="0.606" y2="0.489" gradientUnits="objectBoundingBox">
      <stop offset="0" stop-color="#2f8e5b"/>
      <stop offset="0.39" stop-color="#4ea157"/>
      <stop offset="0.768" stop-color="#67b054"/>
      <stop offset="1" stop-color="#70b653"/>
    </linearGradient>
  </defs>
  <g id="Group_16147" data-name="Group 16147" transform="translate(-25.459 -94.589)">
    <g id="Group_16143" data-name="Group 16143" transform="translate(25.459 94.589)">
      <rect id="Rectangle_23" data-name="Rectangle 23" width="121.394" height="35.087" rx="7.382" transform="translate(0.457 0.457)"/>
      <path id="Path_23312" data-name="Path 23312" d="M143.163,130.589H30.062a4.608,4.608,0,0,1-4.6-4.6V99.192a4.608,4.608,0,0,1,4.6-4.6h113.1a4.608,4.608,0,0,1,4.6,4.6v26.794A4.608,4.608,0,0,1,143.163,130.589ZM30.062,95.5a3.7,3.7,0,0,0-3.7,3.7v26.794a3.7,3.7,0,0,0,3.7,3.695h113.1a3.7,3.7,0,0,0,3.7-3.695V99.192a3.7,3.7,0,0,0-3.7-3.7Z" transform="translate(-25.459 -94.589)" fill="#96999c"/>
    </g>
    <g id="Group_16145" data-name="Group 16145" transform="translate(34.631 100.91)">
      <path id="Path_23313" data-name="Path 23313" d="M116.288,126.328a3.867,3.867,0,1,0,3.881,3.867A3.811,3.811,0,0,0,116.288,126.328Zm0,6.21a2.349,2.349,0,1,1,2.182-2.343A2.237,2.237,0,0,1,116.288,132.538Zm-8.466-6.21A3.867,3.867,0,1,0,111.7,130.2,3.811,3.811,0,0,0,107.822,126.328Zm0,6.21A2.349,2.349,0,1,1,110,130.2,2.237,2.237,0,0,1,107.822,132.538ZM97.75,127.515v1.64h3.925a3.424,3.424,0,0,1-.893,2.065,4.021,4.021,0,0,1-3.032,1.2,4.365,4.365,0,0,1,0-8.729,4.183,4.183,0,0,1,2.958,1.172l1.157-1.157a5.722,5.722,0,0,0-4.115-1.655,6.006,6.006,0,1,0,0,12.01,5.492,5.492,0,0,0,4.189-1.684,5.422,5.422,0,0,0,1.42-3.837,5.332,5.332,0,0,0-.088-1.025Zm41.189,1.274a3.594,3.594,0,0,0-3.31-2.46,3.674,3.674,0,0,0-3.646,3.867,3.784,3.784,0,0,0,3.837,3.867,3.846,3.846,0,0,0,3.222-1.714l-1.318-.879a2.209,2.209,0,0,1-1.9,1.069,1.966,1.966,0,0,1-1.874-1.172l5.17-2.138Zm-5.273,1.289a2.121,2.121,0,0,1,2.021-2.256,1.5,1.5,0,0,1,1.435.82Zm-4.2,3.749h1.7V122.462h-1.7Zm-2.783-6.635h-.058a2.681,2.681,0,0,0-2.036-.864,3.87,3.87,0,0,0,0,7.733,2.637,2.637,0,0,0,2.036-.879h.058v.556c0,1.48-.791,2.27-2.065,2.27a2.139,2.139,0,0,1-1.948-1.377l-1.48.615a3.686,3.686,0,0,0,3.427,2.285c1.992,0,3.676-1.172,3.676-4.028v-6.942H126.68Zm-1.948,5.346a2.352,2.352,0,0,1,0-4.687,2.362,2.362,0,0,1,0,4.687ZM146.9,122.462h-4.064v11.365h1.7v-4.306H146.9a3.535,3.535,0,1,0,0-7.059Zm.044,5.478h-2.413v-3.9h2.413a1.948,1.948,0,1,1,0,3.9Zm10.483-1.632a3.185,3.185,0,0,0-3.027,1.74l1.506.629a1.606,1.606,0,0,1,1.55-.834,1.633,1.633,0,0,1,1.784,1.462v.117a3.759,3.759,0,0,0-1.77-.439c-1.623,0-3.275.892-3.275,2.559a2.626,2.626,0,0,0,2.822,2.5,2.392,2.392,0,0,0,2.164-1.111h.059v.877h1.637v-4.357C160.875,127.433,159.368,126.308,157.424,126.308Zm-.2,6.229c-.556,0-1.331-.278-1.331-.965,0-.877.965-1.214,1.8-1.214a3.022,3.022,0,0,1,1.55.38A2.056,2.056,0,0,1,157.219,132.536Zm9.621-5.98-1.945,4.927h-.058l-2.018-4.927h-1.827l3.026,6.887-1.725,3.83h1.769l4.664-10.717Zm-15.279,7.271h1.7V122.462h-1.7Z" transform="translate(-64.106 -113.055)" fill="#fff"/>
      <g id="Group_16144" data-name="Group 16144" transform="translate(0)">
        <path id="Path_23314" data-name="Path 23314" d="M42.107,106.722a1.819,1.819,0,0,0-.42,1.276v20.089a1.818,1.818,0,0,0,.42,1.276l.067.066,11.253-11.253v-.266L42.174,106.656Z" transform="translate(-41.687 -106.361)" fill="#40bff2"/>
        <path id="Path_23315" data-name="Path 23315" d="M66.21,127.7l-3.751-3.752v-.266l3.752-3.752.084.048,4.444,2.525c1.269.721,1.269,1.9,0,2.623L66.3,127.649Z" transform="translate(-50.718 -112.131)" fill="url(#linear-gradient)"/>
        <path id="Path_23316" data-name="Path 23316" d="M57.587,130.638,53.751,126.8,42.43,138.121a1.478,1.478,0,0,0,1.888.056l13.269-7.539" transform="translate(-42.01 -115.119)" fill="url(#linear-gradient-2)"/>
        <path id="Path_23317" data-name="Path 23317" d="M57.587,113.978l-13.269-7.539a1.478,1.478,0,0,0-1.888.055l11.321,11.321Z" transform="translate(-42.01 -106.133)" fill="url(#linear-gradient-3)"/>
      </g>
    </g>
    <g id="Group_16146" data-name="Group 16146" transform="translate(62.955 100.888)">
      <path id="Path_23318" data-name="Path 23318" d="M96.315,107a1.942,1.942,0,0,0-1.288-.5,2.055,2.055,0,0,0,0,4.106,1.551,1.551,0,0,0,1.708-1.444H95.214v-.629h2.344c0,1.879-1,2.763-2.53,2.763a2.744,2.744,0,0,1,0-5.488,2.643,2.643,0,0,1,1.809.707Z" transform="translate(-92.326 -105.808)" fill="#fff"/>
      <path id="Path_23319" data-name="Path 23319" d="M106.495,105.918v.675H104.05V108.3h2.135v.675H104.05v1.614h2.523v.675h-3.244v-5.348Z" transform="translate(-97.109 -105.856)" fill="#fff"/>
      <path id="Path_23320" data-name="Path 23320" d="M114.156,105.918v.683h-1.623v4.665H111.8V106.6h-1.623v-.683Z" transform="translate(-100.089 -105.856)" fill="#fff"/>
      <path id="Path_23321" data-name="Path 23321" d="M122.785,105.918v5.348h-.722v-5.348Z" transform="translate(-105.255 -105.856)" fill="#fff"/>
      <path id="Path_23322" data-name="Path 23322" d="M128.99,105.918v.683h-1.623v4.665h-.729V106.6h-1.623v-.683Z" transform="translate(-106.539 -105.856)" fill="#fff"/>
      <path id="Path_23323" data-name="Path 23323" d="M138.979,105.808a2.744,2.744,0,1,1-2.7,2.748A2.712,2.712,0,0,1,138.979,105.808Zm0,4.789A2.046,2.046,0,1,0,137,108.556,1.993,1.993,0,0,0,138.979,110.6Z" transform="translate(-111.436 -105.808)" fill="#fff"/>
      <path id="Path_23324" data-name="Path 23324" d="M150.989,111.266l-2.437-4.028v4.028h-.722v-5.348h.714l2.414,4v-4h.722v5.348Z" transform="translate(-116.458 -105.856)" fill="#fff"/>
    </g>
  </g>
</svg>
