<svg xmlns="http://www.w3.org/2000/svg" width="92" height="74.611" viewBox="0 0 92 74.611">
  <g id="Group_21563" data-name="Group 21563" transform="translate(-243.353 -141.318)">
    <path id="Path_28472" data-name="Path 28472" d="M285.251,178.748v33.128a4.053,4.053,0,0,1-4.053,4.053H247.406a4.054,4.054,0,0,1-4.053-4.053V190.212a63.081,63.081,0,0,1,5.21-26.048q4.638-10.363,14.994-21.522a4.083,4.083,0,0,1,5.529-.451l8.777,6.972a4.055,4.055,0,0,1,.5,5.86,68.907,68.907,0,0,0-9.784,13.761,4.06,4.06,0,0,0,3.615,5.91h9A4.053,4.053,0,0,1,285.251,178.748Zm50.1,0v33.128a4.053,4.053,0,0,1-4.053,4.053H297.508a4.054,4.054,0,0,1-4.053-4.053V190.212a63.046,63.046,0,0,1,5.21-26.048q4.635-10.363,14.994-21.522a4.08,4.08,0,0,1,5.527-.451l8.779,6.972a4.055,4.055,0,0,1,.5,5.86,68.906,68.906,0,0,0-9.784,13.761,4.059,4.059,0,0,0,3.615,5.91h9A4.053,4.053,0,0,1,335.353,178.748Z" transform="translate(0)" fill="#343b4d"/>
  </g>
</svg>
