<svg xmlns="http://www.w3.org/2000/svg" xmlns:xlink="http://www.w3.org/1999/xlink" width="269.752" height="198.27" viewBox="0 0 269.752 198.27">
  <defs>
    <linearGradient id="linear-gradient" x1="-107.626" y1="0.5" x2="-106.626" y2="0.5" gradientUnits="objectBoundingBox">
      <stop offset="0" stop-color="#fff0c3"/>
      <stop offset="1" stop-color="#ba7118"/>
    </linearGradient>
  </defs>
  <g id="Group_19617" data-name="Group 19617" transform="translate(-296.591 -353.73)">
    <ellipse id="Ellipse_446" data-name="Ellipse 446" cx="121" cy="7.5" rx="121" ry="7.5" transform="translate(312 537)" fill="#f2ede7"/>
    <g id="Group_19616" data-name="Group 19616" transform="translate(3846.586 -4176.35)">
      <g id="Group_19601" data-name="Group 19601" transform="translate(-3549.995 4533.637)" opacity="0.37">
        <g id="Group_19598" data-name="Group 19598" transform="translate(222.079 40.955)">
          <g id="Group_19597" data-name="Group 19597" transform="translate(1.648 95.686)">
            <rect id="Rectangle_5780" data-name="Rectangle 5780" width="22.499" height="8.289" transform="translate(8.368 9.473)" opacity="0.5" fill="url(#linear-gradient)"/>
            <rect id="Rectangle_5781" data-name="Rectangle 5781" width="22.499" height="8.289" opacity="0.5" fill="url(#linear-gradient)"/>
            <rect id="Rectangle_5782" data-name="Rectangle 5782" width="22.499" height="8.289" transform="translate(23.525)" opacity="0.5" fill="url(#linear-gradient)"/>
            <rect id="Rectangle_5783" data-name="Rectangle 5783" width="22.499" height="8.289" transform="translate(0.774 18.946)" opacity="0.5" fill="url(#linear-gradient)"/>
          </g>
          <rect id="Rectangle_5784" data-name="Rectangle 5784" width="22.499" height="8.289" opacity="0.5" fill="url(#linear-gradient)"/>
          <rect id="Rectangle_5785" data-name="Rectangle 5785" width="22.499" height="8.289" transform="translate(21.266 33.343)" opacity="0.5" fill="url(#linear-gradient)"/>
        </g>
        <g id="Group_19599" data-name="Group 19599" transform="translate(0 1.246)">
          <rect id="Rectangle_5786" data-name="Rectangle 5786" width="22.499" height="8.289" transform="translate(23.646 115.693)" opacity="0.5" fill="url(#linear-gradient)"/>
          <rect id="Rectangle_5787" data-name="Rectangle 5787" width="22.499" height="8.289" transform="translate(30.369 39.709)" opacity="0.5" fill="url(#linear-gradient)"/>
          <rect id="Rectangle_5788" data-name="Rectangle 5788" width="22.499" height="8.289" transform="translate(40.474 30.472)" opacity="0.5" fill="url(#linear-gradient)"/>
          <rect id="Rectangle_5789" data-name="Rectangle 5789" width="22.499" height="8.289" transform="translate(42.395 48.945)" opacity="0.5" fill="url(#linear-gradient)"/>
          <rect id="Rectangle_5790" data-name="Rectangle 5790" width="22.499" height="8.289" transform="translate(18.712 48.945)" opacity="0.5" fill="url(#linear-gradient)"/>
          <rect id="Rectangle_5791" data-name="Rectangle 5791" width="22.499" height="8.289" transform="translate(30.117 58.181)" opacity="0.5" fill="url(#linear-gradient)"/>
          <rect id="Rectangle_5792" data-name="Rectangle 5792" width="22.499" height="8.289" transform="translate(30.369 21.43)" opacity="0.5" fill="url(#linear-gradient)"/>
          <rect id="Rectangle_5793" data-name="Rectangle 5793" width="22.499" height="8.289" transform="translate(67.315)" opacity="0.5" fill="url(#linear-gradient)"/>
          <rect id="Rectangle_5794" data-name="Rectangle 5794" width="22.499" height="8.289" transform="translate(80.794 8.808)" opacity="0.5" fill="url(#linear-gradient)"/>
          <rect id="Rectangle_5795" data-name="Rectangle 5795" width="22.499" height="8.289" transform="translate(23.92 97.22)" opacity="0.5" fill="url(#linear-gradient)"/>
          <rect id="Rectangle_5796" data-name="Rectangle 5796" width="22.499" height="8.289" transform="translate(0 97.22)" opacity="0.5" fill="url(#linear-gradient)"/>
          <rect id="Rectangle_5797" data-name="Rectangle 5797" width="22.499" height="8.289" transform="translate(14.21 106.457)" opacity="0.5" fill="url(#linear-gradient)"/>
          <rect id="Rectangle_5798" data-name="Rectangle 5798" width="22.499" height="8.289" transform="translate(51.196 155.045)" opacity="0.5" fill="url(#linear-gradient)"/>
          <rect id="Rectangle_5799" data-name="Rectangle 5799" width="22.499" height="8.289" transform="translate(27.749 155.045)" opacity="0.5" fill="url(#linear-gradient)"/>
          <rect id="Rectangle_5800" data-name="Rectangle 5800" width="22.499" height="8.289" transform="translate(41.486 164.281)" opacity="0.5" fill="url(#linear-gradient)"/>
          <rect id="Rectangle_5801" data-name="Rectangle 5801" width="22.499" height="8.289" transform="translate(65.011 164.281)" opacity="0.5" fill="url(#linear-gradient)"/>
          <rect id="Rectangle_5802" data-name="Rectangle 5802" width="22.499" height="8.289" transform="translate(57.274 173.518)" opacity="0.5" fill="url(#linear-gradient)"/>
        </g>
        <g id="Group_19600" data-name="Group 19600" transform="translate(196.453 0)">
          <rect id="Rectangle_5803" data-name="Rectangle 5803" width="22.499" height="8.289" transform="translate(13.262 9.207)" opacity="0.5" fill="url(#linear-gradient)"/>
          <rect id="Rectangle_5804" data-name="Rectangle 5804" width="22.499" height="8.289" transform="translate(0 18.415)" opacity="0.5" fill="url(#linear-gradient)"/>
          <rect id="Rectangle_5805" data-name="Rectangle 5805" width="22.499" height="8.289" transform="translate(5.568)" opacity="0.5" fill="url(#linear-gradient)"/>
          <rect id="Rectangle_5806" data-name="Rectangle 5806" width="22.499" height="8.289" transform="translate(36.687 9.207)" opacity="0.5" fill="url(#linear-gradient)"/>
        </g>
      </g>
      <g id="freepik--Device--inject-547" transform="translate(-3507.656 4556.273)">
        <path id="Path_25824" data-name="Path 25824" d="M-3295.906,4571.134h-182.048a5.682,5.682,0,0,0-5.682,5.682h0V4705.4a5.682,5.682,0,0,0,5.682,5.681h69.877s4.443,13.742-9.331,20.855h65.321s-15.553-5.336-11.549-20.855h67.731a5.682,5.682,0,0,0,5.682-5.681h0V4576.816a5.682,5.682,0,0,0-5.682-5.682Z" transform="translate(3483.637 -4571.134)" fill="#3a7a93"/>
        <path id="Path_25825" data-name="Path 25825" d="M-3331.676,4768.669a3.507,3.507,0,0,1-4.941,4.937,1.217,1.217,0,0,1-.3-.305,3.506,3.506,0,0,1,4.938-4.937A1.314,1.314,0,0,1-3331.676,4768.669Z" transform="translate(3430.813 -4642.242)" fill="#263238"/>
        <path id="Path_25826" data-name="Path 25826" d="M-3474.666,4574.826h179.027a4.058,4.058,0,0,1,4.058,4.058h0V4688.9h-187.144V4578.884A4.058,4.058,0,0,1-3474.666,4574.826Z" transform="translate(3481.859 -4572.47)" fill="#e2ce9c"/>
        <path id="Path_25827" data-name="Path 25827" d="M-3474.892,4574.826h180.165a3.147,3.147,0,0,1,3.146,3.146h0v6.335h-187.144v-5.649a3.828,3.828,0,0,1,3.825-3.833Z" transform="translate(3481.859 -4572.47)" fill="#bc9f5e"/>
        <path id="Path_25828" data-name="Path 25828" d="M-3365.212,4790.479h42.633v7.392h-42.111A22.814,22.814,0,0,0-3365.212,4790.479Z" transform="translate(3440.771 -4650.529)" fill="#225b6d"/>
      </g>
      <g id="freepik--Plant--inject-547" transform="translate(-3503.576 4645.842)">
        <path id="Path_25829" data-name="Path 25829" d="M-3429.768,4714.161a21.586,21.586,0,0,0-8.58,8.854,65.417,65.417,0,0,0-4.66,11.586l-1.141,20.419c4.308-7.327,7.766-15.941,8.7-24.387l-2.866-.256a6.847,6.847,0,0,0,4.559-3.337,20.171,20.171,0,0,0,2.071-5.427l-3.5.513A12.959,12.959,0,0,0-3429.768,4714.161Z" transform="translate(3465.263 -4712.473)" fill="#455a64"/>
        <path id="Path_25830" data-name="Path 25830" d="M-3429.768,4714.161a21.586,21.586,0,0,0-8.58,8.854,65.417,65.417,0,0,0-4.66,11.586l-1.141,20.419c4.308-7.327,7.766-15.941,8.7-24.387l-2.866-.256a6.847,6.847,0,0,0,4.559-3.337,20.171,20.171,0,0,0,2.071-5.427l-3.5.513A12.959,12.959,0,0,0-3429.768,4714.161Z" transform="translate(3465.263 -4712.473)" fill="#ff725e"/>
        <g id="Group_19602" data-name="Group 19602" transform="translate(21.114 1.688)">
          <path id="Path_25831" data-name="Path 25831" d="M-3429.768,4714.161a21.586,21.586,0,0,0-8.58,8.854,65.417,65.417,0,0,0-4.66,11.586l-1.141,20.419c4.308-7.327,7.766-15.941,8.7-24.387l-2.866-.256a6.847,6.847,0,0,0,4.559-3.337,20.171,20.171,0,0,0,2.071-5.427l-3.5.513A12.959,12.959,0,0,0-3429.768,4714.161Z" transform="translate(3444.149 -4714.161)" fill="#578e85"/>
        </g>
        <path id="Path_25832" data-name="Path 25832" d="M-3450.4,4758.847s-9.357-11.19-9.241-21.872h3.777s-4.1-2.708-3.786-4.207.443-7.232.443-7.232l3.452.864s-2.592-1.294-2.917-3.344.758-11.539.758-11.539,4.208,4.426,5.5,8.954,4.678,9.818,3.7,23.628S-3450.4,4758.847-3450.4,4758.847Z" transform="translate(3470.882 -4711.516)" fill="#73ada3"/>
        <path id="Path_25833" data-name="Path 25833" d="M-3437.722,4766.811s10.13-6.746,12.378-15.357l-3.034-.826s3.886-1.272,3.958-2.558,1.248-5.9,1.248-5.9l-2.962-.053s2.364-.474,3.072-2.052,1.918-9.456,1.918-9.456-4.367,2.635-6.382,6-5.925,6.861-8.14,18.185S-3437.722,4766.811-3437.722,4766.811Z" transform="translate(3462.938 -4718.426)" fill="#73ada3"/>
        <path id="Path_25834" data-name="Path 25834" d="M-3452.923,4726.8a.618.618,0,0,1,.035.115c.018.087.046.2.081.347.068.312.168.758.311,1.328s.278,1.282.444,2.105.358,1.759.549,2.807c.4,2.075.821,4.558,1.247,7.314s.842,5.8,1.217,9.008.652,6.262.873,9.044.358,5.3.443,7.407c.053,1.058.078,2.012.107,2.851s.043,1.559.05,2.152,0,1.039.015,1.36v.352a.849.849,0,0,1,0,.122.728.728,0,0,1,0-.122v-.352c0-.312-.025-.777-.047-1.36s-.037-1.31-.074-2.149-.069-1.793-.128-2.847c-.1-2.108-.268-4.619-.48-7.4s-.518-5.841-.883-9.044-.792-6.238-1.2-9-.836-5.243-1.223-7.317c-.18-1.042-.368-1.977-.524-2.807s-.312-1.535-.415-2.111-.2-1.02-.265-1.335l-.065-.35A.968.968,0,0,1-3452.923,4726.8Z" transform="translate(3468.439 -4717.049)" fill="#263238"/>
        <path id="Path_25835" data-name="Path 25835" d="M-3458.061,4781.625s-8.555-9.706-11.209-15.572l2-.858a5.147,5.147,0,0,1-4.055-1.332,15.729,15.729,0,0,1-2.767-3.431l2.642-.446a9.824,9.824,0,0,1-5.795-4.466,16.44,16.44,0,0,1,8.262,4.366,41.828,41.828,0,0,1,5.005,5.8,19.614,19.614,0,0,1,1.944,3.2C-3460.584,4771.854-3458.055,4778.062-3458.061,4781.625Z" transform="translate(3477.242 -4727.443)" fill="#87c9bc"/>
        <path id="Path_25836" data-name="Path 25836" d="M-3426.484,4739.462a.341.341,0,0,1-.041.1c-.031.072-.075.166-.131.284-.125.253-.312.625-.521,1.077-.459.936-1.11,2.287-1.9,3.966s-1.7,3.7-2.673,5.951-2,4.75-3.022,7.392-1.937,5.184-2.739,7.5-1.478,4.426-2.024,6.2-.983,3.215-1.27,4.213l-.343,1.147c-.038.122-.069.222-.091.312a.543.543,0,0,1-.038.1.382.382,0,0,1,.021-.1l.075-.312c.071-.275.177-.661.312-1.157.268-1,.683-2.448,1.216-4.226s1.207-3.889,2-6.217,1.706-4.868,2.726-7.515,2.062-5.137,3.038-7.392,1.9-4.263,2.7-5.941,1.469-3.022,1.946-3.945l.549-1.063c.059-.116.109-.207.147-.275A.43.43,0,0,1-3426.484,4739.462Z" transform="translate(3464.221 -4721.632)" fill="#263238"/>
        <path id="Path_25837" data-name="Path 25837" d="M-3449.617,4793.54a.768.768,0,0,1-.04-.178c-.021-.137-.05-.312-.081-.515s-.075-.5-.134-.816-.112-.677-.2-1.073c-.153-.795-.372-1.734-.652-2.767s-.642-2.148-1.075-3.305-.915-2.23-1.379-3.195-.935-1.809-1.338-2.494c-.2-.354-.393-.662-.562-.937s-.312-.508-.436-.7l-.281-.443a.09.09,0,0,1-.119-.048.091.091,0,0,1,.048-.118.09.09,0,0,1,.119.048.092.092,0,0,1-.02.1l.312.427c.131.184.29.411.461.683s.378.577.583.936c.424.689.892,1.538,1.372,2.5s.955,2.043,1.4,3.2.786,2.289,1.07,3.325.48,1.983.623,2.782c.078.4.125.765.175,1.082s.081.593.105.82.038.384.05.521A.626.626,0,0,1-3449.617,4793.54Z" transform="translate(3469.524 -4735.199)" fill="#263238"/>
        <rect id="Rectangle_5807" data-name="Rectangle 5807" width="18.722" height="3.821" transform="translate(12.472 56.058)" fill="#c64255"/>
        <path id="Path_25838" data-name="Path 25838" d="M-3454.9,4805.364l2.024,12.846h11.315l1.886-12.846Z" transform="translate(3469.154 -4745.486)" fill="#912c3f"/>
        <path id="Path_25839" data-name="Path 25839" d="M-3439.125,4805.3c0,.043-3.543.081-7.91.081s-7.913-.038-7.913-.081,3.543-.082,7.913-.082S-3439.125,4805.264-3439.125,4805.3Z" transform="translate(3469.172 -4745.433)" fill="#455a64"/>
      </g>
      <g id="Group_19604" data-name="Group 19604" transform="translate(-3487.147 4584.466)">
        <g id="Group_19603" data-name="Group 19603">
          <circle id="Ellipse_444" data-name="Ellipse 444" cx="14.329" cy="14.329" r="14.329" transform="translate(1.388 1.389)" fill="#e2ce9c"/>
          <path id="Path_25840" data-name="Path 25840" d="M-3435.776,4616.709a14.328,14.328,0,0,1,14.329,14.328,14.329,14.329,0,0,1-14.329,14.329,14.329,14.329,0,0,1-14.328-14.329,14.328,14.328,0,0,1,14.328-14.328m0-1.39a15.735,15.735,0,0,0-15.717,15.718,15.734,15.734,0,0,0,15.717,15.716,15.734,15.734,0,0,0,15.717-15.716,15.736,15.736,0,0,0-15.717-15.718Z" transform="translate(3451.493 -4615.319)" fill="#c64255"/>
        </g>
        <circle id="Ellipse_445" data-name="Ellipse 445" cx="5.613" cy="5.613" r="5.613" transform="translate(10.104 5.653)" fill="#c64255"/>
        <path id="Path_25841" data-name="Path 25841" d="M-3433.025,4656.115a14.289,14.289,0,0,0,10.868-5,12.717,12.717,0,0,0-10.868-6.1,12.717,12.717,0,0,0-10.867,6.1A14.29,14.29,0,0,0-3433.025,4656.115Z" transform="translate(3448.742 -4626.068)" fill="#c64255"/>
      </g>
      <rect id="Rectangle_5808" data-name="Rectangle 5808" width="98.466" height="11.663" rx="5.832" transform="translate(-3443.853 4586.046)" fill="none" stroke="#c64255" stroke-miterlimit="10" stroke-width="1"/>
      <rect id="Rectangle_5809" data-name="Rectangle 5809" width="98.466" height="11.663" rx="5.832" transform="translate(-3443.853 4603.52)" fill="none" stroke="#c64255" stroke-miterlimit="10" stroke-width="1"/>
      <rect id="Rectangle_5810" data-name="Rectangle 5810" width="98.466" height="11.663" rx="5.832" transform="translate(-3443.853 4620.993)" fill="none" stroke="#c64255" stroke-miterlimit="10" stroke-width="1"/>
      <rect id="Rectangle_5811" data-name="Rectangle 5811" width="98.466" height="11.663" rx="5.832" transform="translate(-3443.853 4638.466)" fill="none" stroke="#c64255" stroke-miterlimit="10" stroke-width="1"/>
      <g id="Group_19615" data-name="Group 19615" transform="translate(-3394.922 4530.08)">
        <g id="Group_19606" data-name="Group 19606" transform="translate(1.552 36.052)">
          <g id="Group_19605" data-name="Group 19605">
            <path id="Path_25842" data-name="Path 25842" d="M-3268.917,4607.413s-6.136,11.138-8.453,14.773-23.135,16.6-23.135,16.6l-4.01-4.589,19.92-19.277,5.959-12.854Z" transform="translate(3304.514 -4592.187)" fill="#ffbe9d"/>
            <path id="Path_25843" data-name="Path 25843" d="M-3284.335,4615.117l5.667-5.373,11.391-21.7s2.385,2.921,6.707.142c2.561-1.648,1.021-1.95,3.986-1.252a7.03,7.03,0,0,1,.535,3.809c-.381,1.817-10.256,23.232-12.048,26.108s-7.488,6.427-7.8,6.771Z" transform="translate(3297.21 -4586.584)" fill="#c64255"/>
          </g>
        </g>
        <path id="Path_25844" data-name="Path 25844" d="M-3231.724,4534.316l-.523-.061a10.1,10.1,0,0,0-11.117,7.991c-1,4.8-2.011,10.116-2.292,12.723-.593,5.393,4.691,6.886,4.691,6.886h0c-.721,4.27-1.155,7.735,3.645,9.234h0c5.626,1.3,8.064-2.133,8.7-5.723l3.534-19.224C-3223.917,4540.615-3226.165,4535.352-3231.724,4534.316Z" transform="translate(3284.778 -4531.564)" fill="#fcd2bf"/>
        <path id="Path_25845" data-name="Path 25845" d="M-3266.246,4798.178l.453,10.489s-11.133,3.936-11.247,5.883l21.558-.049,0-16.376Z" transform="translate(3296.121 -4627.103)" fill="#143351"/>
        <g id="Group_19607" data-name="Group 19607" transform="translate(35.945 180.621)">
          <path id="Path_25846" data-name="Path 25846" d="M-3249.483,4813.242a.755.755,0,0,0-.211-.064.793.793,0,0,0-.906.663.794.794,0,0,0,.663.906.845.845,0,0,0,.986-.582.834.834,0,0,0-.611-.947" transform="translate(3250.61 -4813.168)" fill="#fff"/>
        </g>
        <g id="Group_19608" data-name="Group 19608" transform="translate(19.072 185.746)">
          <path id="Path_25847" data-name="Path 25847" d="M-3277.045,4822.925c-.111-.638.844-1.036.844-1.036l20.643-.687.072,1.651Z" transform="translate(3277.054 -4821.202)" fill="#fff"/>
        </g>
        <path id="Path_25848" data-name="Path 25848" d="M-3258.715,4814.608c.64.375.8.952.7.989s-.369-.374-.892-.694-1.051-.366-1.049-.468C-3259.981,4814.345-3259.354,4814.235-3258.715,4814.608Z" transform="translate(3289.938 -4632.975)" fill="#fff"/>
        <path id="Path_25849" data-name="Path 25849" d="M-3262.443,4816.323c.457.522.366,1.077.287,1.082s-.182-.443-.545-.862-.8-.585-.8-.682S-3262.9,4815.8-3262.443,4816.323Z" transform="translate(3291.219 -4633.508)" fill="#fff"/>
        <path id="Path_25850" data-name="Path 25850" d="M-3266.335,4818.047c-.216-.45-.524-.738-.478-.821s.544.13.813.676.125,1.022.029,1.021S-3266.119,4818.5-3266.335,4818.047Z" transform="translate(3292.421 -4634.01)" fill="#fff"/>
        <path id="Path_25851" data-name="Path 25851" d="M-3258.533,4810.169c.72.032,1.18.391,1.116.474s-.528-.1-1.124-.131-1.083.1-1.127.011C-3259.727,4810.447-3259.253,4810.137-3258.533,4810.169Z" transform="translate(3289.835 -4631.462)" fill="#263238"/>
        <path id="Path_25852" data-name="Path 25852" d="M-3257.847,4805.731a5.706,5.706,0,0,0,1.045-.378c.195-.093.385-.2.57-.309a1.061,1.061,0,0,0,.234-.175c0-.068.063-.049,0-.118s-.252-.068-.479-.01a4.815,4.815,0,0,0-.623.177,4.5,4.5,0,0,0-.957.516c-.509.366-.757.66-.8.642s.133-.391.632-.826a3.7,3.7,0,0,1,.987-.621,4,4,0,0,1,.675-.223,1.57,1.57,0,0,1,.4-.053.566.566,0,0,1,.463.229.413.413,0,0,1-.045.529,1.32,1.32,0,0,1-.326.241,5.241,5.241,0,0,1-.615.313,5.2,5.2,0,0,1-1.133.332,2.135,2.135,0,0,1-1.081,0A7.167,7.167,0,0,1-3257.847,4805.731Z" transform="translate(3289.553 -4629.356)" fill="#263238"/>
        <path id="Path_25853" data-name="Path 25853" d="M-3259.52,4804.336a3.446,3.446,0,0,0-.215-1.018,3.445,3.445,0,0,0-.269-.569.769.769,0,0,0-.382-.334c-.084-.023-.194.154-.2.368a1.9,1.9,0,0,0-.013.591,2.3,2.3,0,0,0,.346.958,4.431,4.431,0,0,0,.659.746c-.012.033-.448-.082-.876-.61a2.328,2.328,0,0,1-.462-1.051,2.141,2.141,0,0,1,.014-.687,1.144,1.144,0,0,1,.1-.375.519.519,0,0,1,.451-.29.908.908,0,0,1,.693.517,3.335,3.335,0,0,1,.28.62,3.085,3.085,0,0,1,.15,1.13,1.575,1.575,0,0,1-.279.985A8.322,8.322,0,0,0-3259.52,4804.336Z" transform="translate(3290.298 -4628.529)" fill="#263238"/>
        <path id="Path_25854" data-name="Path 25854" d="M-3206.962,4799.121l.645,10.482s11.48,2.75,11.8,4.671l-21.446,2.2-1.732-16.284Z" transform="translate(3274.64 -4627.463)" fill="#143351"/>
        <g id="Group_19609" data-name="Group 19609" transform="translate(61.038 181.905)">
          <path id="Path_25855" data-name="Path 25855" d="M-3210.789,4815.25a.9.9,0,0,1,1.118.378.873.873,0,0,1-.534,1.07.849.849,0,0,1-1.043-.472.834.834,0,0,1,.511-1.009" transform="translate(3211.281 -4815.182)" fill="#fff"/>
        </g>
        <g id="Group_19610" data-name="Group 19610" transform="translate(58.571 185.873)">
          <path id="Path_25856" data-name="Path 25856" d="M-3193.595,4822.34c.014-.67-.955-.938-.955-.938l-20.6,1.488.106,1.652Z" transform="translate(3215.147 -4821.402)" fill="#fff"/>
        </g>
        <path id="Path_25857" data-name="Path 25857" d="M-3201.649,4815.6c-.572.438-.686,1.021-.585,1.051s.329-.409.816-.782,1-.469,1-.57S-3201.075,4815.159-3201.649,4815.6Z" transform="translate(3269.056 -4633.295)" fill="#fff"/>
        <path id="Path_25858" data-name="Path 25858" d="M-3197.467,4816.889c-.4.555-.271,1.132-.17,1.123s.162-.459.476-.914.752-.671.715-.768C-3196.457,4816.251-3197.067,4816.334-3197.467,4816.889Z" transform="translate(3267.417 -4633.684)" fill="#fff"/>
        <path id="Path_25859" data-name="Path 25859" d="M-3193.135,4818.209c.168-.47.439-.8.39-.871s-.516.191-.731.762-.022,1.046.068,1.015C-3193.3,4819.1-3193.3,4818.678-3193.135,4818.209Z" transform="translate(3265.909 -4634.054)" fill="#fff"/>
        <path id="Path_25860" data-name="Path 25860" d="M-3202.49,4811.23c-.695.109-1.1.506-1.037.585s.493-.124,1.092-.241,1.093-.011,1.129-.105S-3201.795,4811.12-3202.49,4811.23Z" transform="translate(3269.514 -4631.836)" fill="#263238"/>
        <path id="Path_25861" data-name="Path 25861" d="M-3204.174,4807.011a6.411,6.411,0,0,1-1.075-.271,4.875,4.875,0,0,1-.6-.25,1.006,1.006,0,0,1-.256-.146c-.038-.057-.083-.019-.037-.113s.239-.119.475-.085a4.121,4.121,0,0,1,1.645.53c.54.3.821.575.856.553s-.156-.375-.711-.759a3.775,3.775,0,0,0-1.054-.512,3.654,3.654,0,0,0-.689-.149,1.614,1.614,0,0,0-.406-.009.6.6,0,0,0-.439.278.415.415,0,0,0,.1.52,1.326,1.326,0,0,0,.35.205,4.575,4.575,0,0,0,.648.244,4.675,4.675,0,0,0,1.156.21,2.129,2.129,0,0,0,1.072-.1A6.83,6.83,0,0,0-3204.174,4807.011Z" transform="translate(3270.593 -4629.878)" fill="#263238"/>
        <path id="Path_25862" data-name="Path 25862" d="M-3201.784,4805.32a3.8,3.8,0,0,1,.107-1.035,3.6,3.6,0,0,1,.214-.559.774.774,0,0,1,.34-.369c.085-.033.189.133.24.348a1.879,1.879,0,0,1,.078.564,2.333,2.333,0,0,1-.24.993,4.589,4.589,0,0,1-.581.81c.017.034.443-.143.809-.7a2.247,2.247,0,0,0,.35-1.119,2.045,2.045,0,0,0-.069-.683,1.486,1.486,0,0,0-.144-.364.513.513,0,0,0-.48-.235.89.89,0,0,0-.632.584,3.056,3.056,0,0,0-.21.642,3.163,3.163,0,0,0-.024,1.126,1.574,1.574,0,0,0,.38.955C-3201.613,4806.281-3201.74,4805.912-3201.784,4805.32Z" transform="translate(3268.983 -4628.857)" fill="#263238"/>
        <path id="Path_25863" data-name="Path 25863" d="M-3269.993,4677.124c.142,6.822,1.714,33.549,2.189,43.008.249,5.237,1.427,31.155,2.016,37.638l14.072.3s-.9-35.868-.848-37.444.249-39.865.249-39.865,7.6,33.167,8.009,37.9,2.126,13.093,3.042,18.744c1.357,8.533,3.344,21,3.344,21l14.2-.2-4.062-38.38c.3-3.671-6.49-56.626-6.49-56.626l-33.52-1.787S-3270.136,4670.3-3269.993,4677.124Z" transform="translate(3293.573 -4577.619)" fill="#d7944b"/>
        <path id="Path_25864" data-name="Path 25864" d="M-3234.5,4584.786l-1.973-3.877-5.687,2.588-4.881,3.376-1.737-5.162-1.425-.75-3.255,1.833-8.312,3.2-2.977,11.571-2.922,22.756-1.454,20.191a39.451,39.451,0,0,0,17.721,5.642c10.682.835,16.346-.716,18.639-2.616l-1.153-19.684,9.381-33.9-3.7-2.4Z" transform="translate(3293.256 -4548.478)" fill="#c64255"/>
        <path id="Path_25865" data-name="Path 25865" d="M-3227.57,4535.163c1.672-.77,4.238,1.171,4.967,3.169a8.707,8.707,0,0,1-.358,5.979,28.045,28.045,0,0,1-5.483,9.457c-.214.243-.545.5-.823.337a.7.7,0,0,1-.258-.568,24.139,24.139,0,0,1,.594-5.7,14.491,14.491,0,0,0,.122-5.7,5.563,5.563,0,0,0-3.555-4.164,6.064,6.064,0,0,0-4.116.515c-1.291.581-2.451,1.413-3.688,2.1a7.777,7.777,0,0,1-4.023,1.17,3.675,3.675,0,0,1-3.332-2.183,2.482,2.482,0,0,1,1.758-3.251,2.781,2.781,0,0,1-2.214-2.145,2.782,2.782,0,0,1,2.127-3.309c2.1-.434,4.083,1.573,6.228,1.343,1.3-.142,2.354-1.076,3.548-1.614a6.089,6.089,0,0,1,5.624.373c1.662,1.032,2.841,2.262,2.906,4.217" transform="translate(3285.626 -4530.08)" fill="#263238"/>
        <path id="Path_25866" data-name="Path 25866" d="M-3238.674,4578.478c5.309,1.137,7.51-2.826,7.51-2.826a13.109,13.109,0,0,1-7.257,1.215Z" transform="translate(3282.234 -4546.575)" fill="#f8a48d"/>
        <path id="Path_25867" data-name="Path 25867" d="M-3240.535,4553.893a.736.736,0,0,1,.87-.575.771.771,0,0,1,.646.864l-.006.032a.73.73,0,0,1-.868.563.77.77,0,0,1-.646-.863Z" transform="translate(3282.911 -4538.486)" fill="#263238"/>
        <path id="Path_25868" data-name="Path 25868" d="M-3228.745,4556.015a.737.737,0,0,1,.871-.575.771.771,0,0,1,.646.864l-.005.032a.732.732,0,0,1-.869.563.771.771,0,0,1-.646-.864Z" transform="translate(3278.644 -4539.253)" fill="#263238"/>
        <path id="Path_25869" data-name="Path 25869" d="M-3236.413,4557.993a1.691,1.691,0,0,1-.353-.092.53.53,0,0,1-.309-.356,1.254,1.254,0,0,1,.209-.812l.8-1.549a28.752,28.752,0,0,1,2.234-3.894,24.705,24.705,0,0,1-1.916,4.037c-.282.535-.558,1.046-.821,1.531a1.123,1.123,0,0,0-.216.61c.02.152.215.218.422.262a5.358,5.358,0,0,1,1.315.411A5.585,5.585,0,0,1-3236.413,4557.993Z" transform="translate(3281.656 -4537.757)" fill="#263238"/>
        <path id="Path_25870" data-name="Path 25870" d="M-3227.158,4547.252a3.322,3.322,0,0,1,2.8.667c.293.249.4.476.332.57-.151.188-.9-.177-1.861-.411s-1.8-.23-1.848-.468C-3227.755,4547.5-3227.554,4547.346-3227.158,4547.252Z" transform="translate(3278.274 -4536.268)" fill="#263238"/>
        <path id="Path_25871" data-name="Path 25871" d="M-3239.478,4546.654a2.045,2.045,0,0,1,2.248.206c.238.208.3.406.232.5-.156.182-.72-.021-1.406-.1s-1.279.052-1.4-.159C-3239.862,4547-3239.757,4546.817-3239.478,4546.654Z" transform="translate(3282.649 -4535.99)" fill="#263238"/>
        <path id="Path_25872" data-name="Path 25872" d="M-3216.17,4564.321c-.014.107,3.551,1.428,4.119-2.237s-3.167-3.052-3.264-3.021C-3215.315,4559.063-3216.156,4564.214-3216.17,4564.321Z" transform="translate(3274.088 -4540.549)" fill="#fcd2bf"/>
        <path id="Path_25873" data-name="Path 25873" d="M-3213.976,4564.018a.692.692,0,0,0,.559.191,1.689,1.689,0,0,0,1.157-1.438,2.2,2.2,0,0,0-.063-1.061.912.912,0,0,0-.549-.671.5.5,0,0,0-.367.044.388.388,0,0,0-.178.2c-.071.145-.028.22-.005.22s.008-.079.077-.173a.321.321,0,0,1,.4-.115.738.738,0,0,1,.4.572,2.07,2.07,0,0,1,.036.941,1.6,1.6,0,0,1-.951,1.309.669.669,0,0,1-.477-.084,1.37,1.37,0,0,1-.155-.122C-3214.1,4563.84-3214.092,4563.924-3213.976,4564.018Z" transform="translate(3273.335 -4541.28)" fill="#f8a48d"/>
        <path id="Path_25874" data-name="Path 25874" d="M-3243.611,4540.472a7.82,7.82,0,0,0,7.094-.711c1.445-.949,2.659-2.421,4.354-2.723a4.395,4.395,0,0,1,3.288.863,8.549,8.549,0,0,1,2.247,2.638c-1.373,2.607-1.046,5.75-.686,8.675a1.484,1.484,0,0,0,.325.9c.369.39,1.077.2,1.507-.149a4.551,4.551,0,0,0,1.294-2.276,15.3,15.3,0,0,0,.689-5.972,10.37,10.37,0,0,0-2.2-5.548,9.834,9.834,0,0,0-6.533-3.428,12.1,12.1,0,0,0-7.255,1.642,7.037,7.037,0,0,0-2.578,2.327Z" transform="translate(3284.021 -4531.027)" fill="#263238"/>
        <path id="Path_25875" data-name="Path 25875" d="M-3235.253,4565.107l1.887-.3a.942.942,0,0,1,.416.009c.33.12.377.543.314.88a1.8,1.8,0,0,1-.494.986,1.124,1.124,0,0,1-1.037.288,1.266,1.266,0,0,1-.745-.7,3.651,3.651,0,0,1-.255-1.02" transform="translate(3280.996 -4542.642)" fill="#fff"/>
        <path id="Path_25876" data-name="Path 25876" d="M-3234.8,4566.926a1.4,1.4,0,0,0,.751.135,1.518,1.518,0,0,0,1.036-.5,1.639,1.639,0,0,0,.373-1.367,1.432,1.432,0,0,0-.116-.368.574.574,0,0,0-.154-.194.426.426,0,0,0-.258-.068c-.146.008-.232.057-.345.055l-.305.062c-.4.081-.758.152-1.063.225a2.991,2.991,0,0,0-.958.283,3.377,3.377,0,0,0,1-.063l1.073-.157.31-.049a2.411,2.411,0,0,1,.3-.045c.079,0,.067,0,.116.087a1.138,1.138,0,0,1,.09.29,1.408,1.408,0,0,1-.283,1.12,1.323,1.323,0,0,1-.837.471,2.612,2.612,0,0,1-.944-.1C-3235.03,4566.759-3234.963,4566.833-3234.8,4566.926Z" transform="translate(3281.209 -4542.56)" fill="#263238"/>
        <path id="Path_25877" data-name="Path 25877" d="M-3260.989,4589.659c-.147.555-.359,1.271-.608,2.127-.517,1.8-1.167,4.294-1.728,7.087s-.913,5.353-1.128,7.207c-.1.888-.175,1.634-.238,2.2-.016.271-1.5,13.659-1.558,13.925-.023-.272,1.428-13.663,1.462-13.933.018-.523.061-1.278.143-2.21a69.511,69.511,0,0,1,1.043-7.242,69.116,69.116,0,0,1,1.84-7.091c.289-.9.53-1.611.72-2.1a4.513,4.513,0,0,1,.309-.748A3.736,3.736,0,0,1-3260.989,4589.659Z" transform="translate(3292.215 -4551.362)" fill="#263238"/>
        <path id="Path_25878" data-name="Path 25878" d="M-3231.332,4588.271a5.239,5.239,0,0,0,1.613-1.447l.179-.244-.007.3a20.631,20.631,0,0,0,.955,4.869l-.223-.077.405-.263c1.965-1.286,3.752-2.449,5.059-3.271l1.547-.969a2.878,2.878,0,0,1,.57-.321,3.025,3.025,0,0,1-.527.417l-1.5,1.043c-1.275.874-3.045,2.059-5.016,3.352l-.4.267-.16.1-.058-.182a19.089,19.089,0,0,1-.9-4.947l.2.061a4.942,4.942,0,0,1-1.719,1.422,2.265,2.265,0,0,1-.783.271C-3232.1,4588.633-3231.827,4588.537-3231.332,4588.271Z" transform="translate(3279.852 -4550.531)" fill="#263238"/>
        <path id="Path_25879" data-name="Path 25879" d="M-3242.068,4586.679l-.2,0a10.649,10.649,0,0,1,1.266-1.263c.24-.186.487-.377.732-.547l.366-.252a.362.362,0,0,1,.328-.043.4.4,0,0,1,.192.246c.153.487.3.947.438,1.372a5.742,5.742,0,0,1,.333,1.292,6.074,6.074,0,0,1-.537-1.223l-.5-1.351-.048-.085a.392.392,0,0,0-.079.01l-.349.247c-.234.164-.469.35-.71.547a12.458,12.458,0,0,0-1.248,1.219l-.1.11-.1-.109a18,18,0,0,1-1.785-2.116A18.1,18.1,0,0,1-3242.068,4586.679Z" transform="translate(3284.188 -4549.795)" fill="#263238"/>
        <path id="Path_25880" data-name="Path 25880" d="M-3198.158,4616.7s2.563,12.455,3.159,16.724-6.827,27.641-6.827,27.641l-6.029-.889,2.641-27.594-3.81-13.647Z" transform="translate(3271.501 -4561.435)" fill="#ffbe9d"/>
        <g id="Group_19611" data-name="Group 19611" transform="translate(57.966 97.61)">
          <path id="Path_25881" data-name="Path 25881" d="M-3204.386,4685.089l-.459,3.429s-.594,2.791-.743,3.476a10.464,10.464,0,0,1-1.319,2.815c-.408.5-1.473-.08-1.473-.08a1.692,1.692,0,0,1-.983.982c-.7.2-1.243-.864-1.243-.864-.325.958-.71,1.354-1.507,1.18a1.724,1.724,0,0,1-1.122-1.013c-.3,1-1.639.894-2,.581s.337-3.359.337-3.359l-.561-.012-.638-2.374,2.279-3.527,4.519-3.259Z" transform="translate(3216.096 -4683.064)" fill="#ffbe9d"/>
          <path id="Path_25882" data-name="Path 25882" d="M-3211.341,4698.463a5.126,5.126,0,0,0-.238,1.582,5.26,5.26,0,0,0,.485-1.528,5.188,5.188,0,0,0,.238-1.581A5.264,5.264,0,0,0-3211.341,4698.463Z" transform="translate(3214.461 -4688.086)" fill="#eb996e"/>
          <path id="Path_25883" data-name="Path 25883" d="M-3207.232,4698.824a3.445,3.445,0,0,0-.154,1.28,3.372,3.372,0,0,0,.4-1.226,3.238,3.238,0,0,0,.152-1.276A3.486,3.486,0,0,0-3207.232,4698.824Z" transform="translate(3212.946 -4688.328)" fill="#eb996e"/>
          <path id="Path_25884" data-name="Path 25884" d="M-3204.035,4699.064a1.735,1.735,0,0,0-.031,1.113c.079,0,.133-.5.273-1.049a3.259,3.259,0,0,0,.255-1.05A2,2,0,0,0-3204.035,4699.064Z" transform="translate(3211.769 -4688.5)" fill="#eb996e"/>
          <path id="Path_25885" data-name="Path 25885" d="M-3213.523,4692.856a4.138,4.138,0,0,0-.112,1.576,6.23,6.23,0,0,0,.358-1.534,5.855,5.855,0,0,0,.2-1.563A4.29,4.29,0,0,0-3213.523,4692.856Z" transform="translate(3215.216 -4686.059)" fill="#eb996e"/>
        </g>
        <path id="Path_25886" data-name="Path 25886" d="M-3208.05,4633.3l.823-7.765-5.231-13.812a49.165,49.165,0,0,1,1.616-11.128,11.229,11.229,0,0,1,5.612-6.745,7.036,7.036,0,0,1,2.88,2.55c.889,1.629,7.277,24.33,7.781,27.68s-1.525,9.75-1.535,10.211Z" transform="translate(3272.744 -4553.163)" fill="#c64255"/>
        <path id="Path_25887" data-name="Path 25887" d="M-3212.048,4611.061a15.153,15.153,0,0,1-.055-1.933,21.587,21.587,0,0,1,.275-2.866,21.732,21.732,0,0,1,2.264-6.654,20.911,20.911,0,0,1,1.527-2.434,15.6,15.6,0,0,1,1.2-1.484,3.291,3.291,0,0,1,.507-.5c.039.035-.642.781-1.56,2.125a23.19,23.19,0,0,0-1.46,2.44,22.889,22.889,0,0,0-2.234,6.569,23.284,23.284,0,0,0-.335,2.809c-.085,1.62,0,2.636-.056,2.634A3.7,3.7,0,0,1-3212.048,4611.061Z" transform="translate(3272.62 -4553.647)" fill="#263238"/>
        <path id="Path_25888" data-name="Path 25888" d="M-3210.7,4627.316l1.7,3.978c.654,1.557,1.226,2.982,1.6,4.032a10.147,10.147,0,0,1,.527,1.7,12.785,12.785,0,0,1-.731-1.643l-1.7-3.978c-.654-1.557-1.226-2.983-1.6-4.033a10.147,10.147,0,0,1-.527-1.7A12.689,12.689,0,0,1-3210.7,4627.316Z" transform="translate(3272.374 -4564.681)" fill="#263238"/>
        <path id="Path_25889" data-name="Path 25889" d="M-3203.778,4642.323a11.869,11.869,0,0,1,2.739-1.142,12.154,12.154,0,0,1,2.932-.439,3.861,3.861,0,0,1,1.226.094,25.421,25.421,0,0,0-4.079.628,25.784,25.784,0,0,0-3.817,1.563A3.809,3.809,0,0,1-3203.778,4642.323Z" transform="translate(3269.965 -4570.13)" fill="#263238"/>
        <path id="Path_25890" data-name="Path 25890" d="M-3239.541,4590.855c-.463,2.17-.92,4.342-1.327,6.522q-.644,3.263-1.21,6.542c-.759,4.368-1.46,8.747-2.026,13.143-.6,4.393-1.028,8.8-1.371,13.223-.12,2.212-.291,4.424-.313,6.64-.114,2.217-.035,4.432-.044,6.653a115.541,115.541,0,0,1-.074-13.319c.254-4.437.692-8.861,1.245-13.27.614-4.4,1.309-8.789,2.16-13.147S-3240.7,4595.143-3239.541,4590.855Z" transform="translate(3284.908 -4552.078)" fill="#263238"/>
        <g id="Group_19613" data-name="Group 19613" transform="translate(1.574 7.25)">
          <path id="Path_25891" data-name="Path 25891" d="M-3295.137,4556.628h0a2.958,2.958,0,0,1,2.77,3.128l-3.809,64.034a2.963,2.963,0,0,1-3.128,2.776h0a2.957,2.957,0,0,1-2.77-3.128l3.808-64.035A2.963,2.963,0,0,1-3295.137,4556.628Z" transform="translate(3303.61 -4546.938)" fill="#73ada3"/>
          <g id="Group_19612" data-name="Group 19612">
            <path id="Path_25892" data-name="Path 25892" d="M-3286.373,4548.982l.226-3.808a3.968,3.968,0,0,1,4.2-3.725l.47.027a3.968,3.968,0,0,1,3.725,4.2l-.227,3.808h0l-8.39-.5Z" transform="translate(3297.926 -4541.442)" fill="#73ada3"/>
            <path id="Path_25893" data-name="Path 25893" d="M-3302.148,4722.122l-2.266-34.3,7.637-128.3a2.27,2.27,0,0,1,2.394-2.126l12.063.718a2.264,2.264,0,0,1,2.126,2.393v0l-7.73,128.785-7.984,33.192Z" transform="translate(3304.456 -4547.218)" fill="#73ada3"/>
            <path id="Path_25894" data-name="Path 25894" d="M-3298.21,4815.744l-.183,3.137.812,2.7c.159.228.37.178.636.021l.968-2.658.18-3.073Z" transform="translate(3302.276 -4640.731)" fill="#263238"/>
            <rect id="Rectangle_5812" data-name="Rectangle 5812" width="2.664" height="16.594" transform="translate(0 140.599) rotate(-86.597)" fill="#263238"/>
            <path id="Path_25895" data-name="Path 25895" d="M-3295.21,4556.613a3.422,3.422,0,0,0-1.436.314,2.946,2.946,0,0,0-1.269,1.229,2.82,2.82,0,0,0-.348,1.076c-.013.4-.028.845-.076,1.308l-.911,15.688-1.346,23.3-.814,13.759-.405,7.29-.107,1.853a6.819,6.819,0,0,0,.009,1.813,2.785,2.785,0,0,0,3.34,2.088,2.784,2.784,0,0,0,1.993-1.768,6.714,6.714,0,0,0,.227-1.8l.107-1.854.437-7.282.833-13.758,1.422-23.3.981-15.706c.016-.463.069-.9.082-1.307a2.863,2.863,0,0,0-.217-1.108,2.912,2.912,0,0,0-1.118-1.348,3.361,3.361,0,0,0-1.383-.486,2.6,2.6,0,0,1,.375.013,2.866,2.866,0,0,1,1.049.392,3,3,0,0,1,1.169,1.375,2.91,2.91,0,0,1,.235,1.141l-.044,1.322-.886,15.709-1.353,23.3-.808,13.765-.43,7.276-.107,1.854-.031.934a3.365,3.365,0,0,1-.192.967,3.115,3.115,0,0,1-3.993,1.86,3.115,3.115,0,0,1-1.968-2.221,3.217,3.217,0,0,1-.075-.982l.032-.934.107-1.854.437-7.275.833-13.758,1.423-23.3.988-15.705a12.91,12.91,0,0,1,.089-1.314,3.065,3.065,0,0,1,.375-1.107,2.949,2.949,0,0,1,1.313-1.228,2.883,2.883,0,0,1,1.085-.268A2.921,2.921,0,0,1-3295.21,4556.613Z" transform="translate(3303.683 -4546.922)" fill="#427269"/>
            <path id="Path_25896" data-name="Path 25896" d="M-3290.016,4555.493l1.782-3.235,9.517.563,1.786,3.451Z" transform="translate(3299.244 -4545.357)" fill="#263238"/>
          </g>
          <path id="Path_25897" data-name="Path 25897" d="M-3297.784,4652.871l-3.614-.566,3-.016c1.786-.3.378-1.648.378-1.648l-2.978-.467-1.663.664.55,1.471.612,0-2.028.811.681,1.82.426,0-1.3.518.541,1.447-.387.076-.089,1.21,2.883.468c1.49,0,.871-1.228.871-1.228l-1.464-.512,1.909-.009c1.785-.3.377-1.649.377-1.649l-2.086-.328,2.912-.015C-3296.042,4654.537-3297.784,4652.871-3297.784,4652.871Z" transform="translate(3304.204 -4580.799)" fill="#578e85"/>
        </g>
        <g id="Group_19614" data-name="Group 19614" transform="translate(0.185 75.498)">
          <path id="Path_25898" data-name="Path 25898" d="M-3303.34,4648.408l2.979.467s1.408,1.347-.378,1.649l-3.713.019-.55-1.471Z" transform="translate(3306.058 -4648.408)" fill="#ffbe9d"/>
          <path id="Path_25899" data-name="Path 25899" d="M-3304.3,4651.73l3.687.579s1.742,1.666-.468,2.04l-4.595.024-.682-1.82Z" transform="translate(3306.549 -4649.61)" fill="#ffbe9d"/>
          <path id="Path_25900" data-name="Path 25900" d="M-3304.994,4655.64l2.978.468s1.408,1.345-.377,1.648l-3.714.018-.55-1.469Z" transform="translate(3306.657 -4651.026)" fill="#ffbe9d"/>
          <path id="Path_25901" data-name="Path 25901" d="M-3304.944,4658.6l2.144.749s.619,1.226-.872,1.228l-2.883-.468.089-1.21Z" transform="translate(3306.62 -4652.098)" fill="#ffbe9d"/>
        </g>
        <path id="Path_25902" data-name="Path 25902" d="M-3301.065,4648.824c-1-.127-2-.238-2.992-.378h.024a4.051,4.051,0,0,0-.806.209,1.57,1.57,0,0,0-.66.428.582.582,0,0,0-.042.671,2.234,2.234,0,0,0,.206.334l.278.3.156.17-.22.067a1.761,1.761,0,0,0-1.234.955,1.049,1.049,0,0,0,.1.747c.06.122.142.236.214.354l.268.33.151.185-.222.071a.9.9,0,0,0-.683.724,1.172,1.172,0,0,0,.116.528,3.277,3.277,0,0,0,.314.5l.106.143-.159.074c-.233.109-.488.3-.518.51a.424.424,0,0,0,.1.311,1.6,1.6,0,0,0,.3.272l-.048-.019,2.513.461h-.009a1.451,1.451,0,0,0,.956-.233.449.449,0,0,0,.122-.455,1.5,1.5,0,0,0-.209-.472,1.521,1.521,0,0,1,.242.463.5.5,0,0,1-.106.512,1.018,1.018,0,0,1-.478.25,2.322,2.322,0,0,1-.531.073h-.01l-2.529-.358-.026,0-.022-.015a1.85,1.85,0,0,1-.369-.312.663.663,0,0,1-.17-.51.78.78,0,0,1,.265-.458,1.656,1.656,0,0,1,.408-.272l-.053.217a3.516,3.516,0,0,1-.355-.548,1.435,1.435,0,0,1-.151-.672,1.014,1.014,0,0,1,.3-.648,1.537,1.537,0,0,1,.593-.356l-.071.256-.3-.355a3.814,3.814,0,0,1-.241-.405,1.356,1.356,0,0,1-.1-.97,1.47,1.47,0,0,1,.605-.754,2.885,2.885,0,0,1,.85-.385l-.064.237-.3-.333a2.368,2.368,0,0,1-.237-.4.831.831,0,0,1,.1-.936,1.782,1.782,0,0,1,.777-.473,4.233,4.233,0,0,1,.859-.189h.012l.012,0C-3303.039,4648.438-3302.054,4648.639-3301.065,4648.824Z" transform="translate(3306.946 -4572.858)" fill="#eb996e"/>
      </g>
      <path id="Path_25903" data-name="Path 25903" d="M-3193.836,4657.026c-.4,1.6-.808,3.2-1.241,4.8s-.851,3.192-1.309,4.778l-1.349,4.766-1.4,4.75.008-.046a38.147,38.147,0,0,1-.681,4.852,18.8,18.8,0,0,1-.647,2.365,5.053,5.053,0,0,1-1.234,2.094,5.276,5.276,0,0,0,1.08-2.144c.22-.778.382-1.572.527-2.368.271-1.6.423-3.215.536-4.825v-.023l.006-.022,1.348-4.767,1.4-4.75c.459-1.586.961-3.16,1.444-4.74S-3194.353,4658.6-3193.836,4657.026Z" transform="translate(-126.073 -45.95)" fill="#eb996e"/>
    </g>
  </g>
</svg>
