<svg xmlns="http://www.w3.org/2000/svg" width="36.302" height="38.712" viewBox="0 0 36.302 38.712">
  <path id="Path_25911" data-name="Path 25911" d="M809.74,1956.754a7.116,7.116,0,0,0-9.935-1.559c-.452.363-.89.748-1.3,1.151q-4.807-2.467-9.646-4.929a6.714,6.714,0,0,0-.19-3.862c3.383-2.025,6.761-4.058,10.2-6.147a6.874,6.874,0,0,0,6.38,2.1,7.149,7.149,0,0,0,5.428-4.525,7.119,7.119,0,0,0-4.191-9.159,10.822,10.822,0,0,0-1.126-.32c-.165-.04-.331-.081-.5-.125l-1.6-.019-.169.03a1.337,1.337,0,0,1-.186.054,7.211,7.211,0,0,0-6.021,6.711,7.645,7.645,0,0,0,.333,2.509l-10.191,6.134a7.135,7.135,0,0,0-10.163,10.016,6.784,6.784,0,0,0,4.6,2.118,7.139,7.139,0,0,0,6.015-2.607l9.612,4.92a7.077,7.077,0,0,0,4.455,8.38,10.025,10.025,0,0,0,1.114.313c.161.038.32.076.478.118l1.654.016.219-.05c.115-.028.231-.055.35-.078a7.135,7.135,0,0,0,4.39-11.185Zm-1.823,4.195a3.916,3.916,0,0,1-3.919,3.907h-.01a3.918,3.918,0,0,1,.011-7.837h.01A3.924,3.924,0,0,1,807.917,1960.949Zm-7.839-24.443a3.909,3.909,0,0,1,3.9-3.924h.014a3.909,3.909,0,0,1,3.909,3.9,3.958,3.958,0,0,1-3.92,3.926A3.918,3.918,0,0,1,800.078,1936.506Zm-14.219,13.305a3.918,3.918,0,0,1-3.912,3.924,3.919,3.919,0,1,1-.012-7.838h.005a3.92,3.92,0,0,1,3.919,3.914Z" transform="translate(-774.818 -1929.355)" fill="#d2b353"/>
</svg>
