<svg width="100" height="100" viewBox="0 0 100 100" fill="none" xmlns="http://www.w3.org/2000/svg">
<path fill-rule="evenodd" clip-rule="evenodd" d="M30 0C13.4315 0 0 13.4315 0 30V70C0 86.5685 13.4315 100 30 100H70C86.5685 100 100 86.5685 100 70V30C100 13.4315 86.5685 0 70 0H30ZM80.311 35.4923C72.5847 35.4923 66.3214 41.7557 66.3214 49.4819C66.3214 57.2082 72.5847 63.4716 80.311 63.4716C88.0373 63.4716 94.3006 57.2082 94.3006 49.4819C94.3006 41.7557 88.0373 35.4923 80.311 35.4923Z" fill="#B23346"/>
<mask id="mask0" mask-type="alpha" maskUnits="userSpaceOnUse" x="0" y="0" width="100" height="100">
<path fill-rule="evenodd" clip-rule="evenodd" d="M30 0C13.4315 0 0 13.4315 0 30V70C0 86.5685 13.4315 100 30 100H70C86.5685 100 100 86.5685 100 70V30C100 13.4315 86.5685 0 70 0H30ZM80.311 35.4923C72.5847 35.4923 66.3214 41.7557 66.3214 49.4819C66.3214 57.2082 72.5847 63.4716 80.311 63.4716C88.0373 63.4716 94.3006 57.2082 94.3006 49.4819C94.3006 41.7557 88.0373 35.4923 80.311 35.4923Z" fill="#B23346"/>
</mask>
<g mask="url(#mask0)">
<circle cx="24.8705" cy="34.7149" r="52.5907" fill="#C83F3A"/>
</g>
<circle cx="80.57" cy="50" r="7.51295" fill="#C83F3A"/>
</svg>
