<svg xmlns="http://www.w3.org/2000/svg" xmlns:xlink="http://www.w3.org/1999/xlink" width="122.307" height="92" viewBox="0 0 122.307 92">
  <defs>
    <linearGradient id="linear-gradient" x1="0.808" y1="0.5" x2="-1.573" y2="0.5" gradientUnits="objectBoundingBox">
      <stop offset="0" stop-color="gold"/>
      <stop offset="0.075" stop-color="#fece00"/>
      <stop offset="0.48" stop-color="#fca704"/>
      <stop offset="0.803" stop-color="#fa8e07"/>
      <stop offset="1" stop-color="#fa8608"/>
    </linearGradient>
    <linearGradient id="linear-gradient-2" x1="0.862" y1="0.178" x2="-0.501" y2="1.948" gradientUnits="objectBoundingBox">
      <stop offset="0" stop-color="#e82b36"/>
      <stop offset="1" stop-color="#b4005a"/>
    </linearGradient>
    <linearGradient id="linear-gradient-3" x1="-0.507" y1="-0.956" x2="0.606" y2="0.489" gradientUnits="objectBoundingBox">
      <stop offset="0" stop-color="#2f8e5b"/>
      <stop offset="0.39" stop-color="#4ea157"/>
      <stop offset="0.768" stop-color="#67b054"/>
      <stop offset="1" stop-color="#70b653"/>
    </linearGradient>
  </defs>
  <g id="Group_16155" data-name="Group 16155" transform="translate(-614 -4985.849)">
    <g id="Group_16147" data-name="Group 16147" transform="translate(588.541 4891.26)">
      <g id="Group_16143" data-name="Group 16143" transform="translate(25.459 94.589)">
        <rect id="Rectangle_23" data-name="Rectangle 23" width="121.394" height="35.087" rx="7.382" transform="translate(0.457 0.457)"/>
        <path id="Path_23312" data-name="Path 23312" d="M143.163,130.589H30.062a4.608,4.608,0,0,1-4.6-4.6V99.192a4.608,4.608,0,0,1,4.6-4.6h113.1a4.608,4.608,0,0,1,4.6,4.6v26.794A4.608,4.608,0,0,1,143.163,130.589ZM30.062,95.5a3.7,3.7,0,0,0-3.7,3.7v26.794a3.7,3.7,0,0,0,3.7,3.695h113.1a3.7,3.7,0,0,0,3.7-3.695V99.192a3.7,3.7,0,0,0-3.7-3.7Z" transform="translate(-25.459 -94.589)" fill="#96999c"/>
      </g>
      <g id="Group_16145" data-name="Group 16145" transform="translate(34.631 100.91)">
        <path id="Path_23313" data-name="Path 23313" d="M116.288,126.328a3.867,3.867,0,1,0,3.881,3.867A3.811,3.811,0,0,0,116.288,126.328Zm0,6.21a2.349,2.349,0,1,1,2.182-2.343A2.237,2.237,0,0,1,116.288,132.538Zm-8.466-6.21A3.867,3.867,0,1,0,111.7,130.2,3.811,3.811,0,0,0,107.822,126.328Zm0,6.21A2.349,2.349,0,1,1,110,130.2,2.237,2.237,0,0,1,107.822,132.538ZM97.75,127.515v1.64h3.925a3.424,3.424,0,0,1-.893,2.065,4.021,4.021,0,0,1-3.032,1.2,4.365,4.365,0,0,1,0-8.729,4.183,4.183,0,0,1,2.958,1.172l1.157-1.157a5.722,5.722,0,0,0-4.115-1.655,6.006,6.006,0,1,0,0,12.01,5.492,5.492,0,0,0,4.189-1.684,5.422,5.422,0,0,0,1.42-3.837,5.332,5.332,0,0,0-.088-1.025Zm41.189,1.274a3.594,3.594,0,0,0-3.31-2.46,3.674,3.674,0,0,0-3.646,3.867,3.784,3.784,0,0,0,3.837,3.867,3.846,3.846,0,0,0,3.222-1.714l-1.318-.879a2.209,2.209,0,0,1-1.9,1.069,1.966,1.966,0,0,1-1.874-1.172l5.17-2.138Zm-5.273,1.289a2.121,2.121,0,0,1,2.021-2.256,1.5,1.5,0,0,1,1.435.82Zm-4.2,3.749h1.7V122.462h-1.7Zm-2.783-6.635h-.058a2.681,2.681,0,0,0-2.036-.864,3.87,3.87,0,0,0,0,7.733,2.637,2.637,0,0,0,2.036-.879h.058v.556c0,1.48-.791,2.27-2.065,2.27a2.139,2.139,0,0,1-1.948-1.377l-1.48.615a3.686,3.686,0,0,0,3.427,2.285c1.992,0,3.676-1.172,3.676-4.028v-6.942H126.68Zm-1.948,5.346a2.352,2.352,0,0,1,0-4.687,2.362,2.362,0,0,1,0,4.687ZM146.9,122.462h-4.064v11.365h1.7v-4.306H146.9a3.535,3.535,0,1,0,0-7.059Zm.044,5.478h-2.413v-3.9h2.413a1.948,1.948,0,1,1,0,3.9Zm10.483-1.632a3.185,3.185,0,0,0-3.027,1.74l1.506.629a1.606,1.606,0,0,1,1.55-.834,1.633,1.633,0,0,1,1.784,1.462v.117a3.759,3.759,0,0,0-1.77-.439c-1.623,0-3.275.892-3.275,2.559a2.626,2.626,0,0,0,2.822,2.5,2.392,2.392,0,0,0,2.164-1.111h.059v.877h1.637v-4.357C160.875,127.433,159.368,126.308,157.424,126.308Zm-.2,6.229c-.556,0-1.331-.278-1.331-.965,0-.877.965-1.214,1.8-1.214a3.022,3.022,0,0,1,1.55.38A2.056,2.056,0,0,1,157.219,132.536Zm9.621-5.98-1.945,4.927h-.058l-2.018-4.927h-1.827l3.026,6.887-1.725,3.83h1.769l4.664-10.717Zm-15.279,7.271h1.7V122.462h-1.7Z" transform="translate(-64.106 -113.055)" fill="#fff"/>
        <g id="Group_16144" data-name="Group 16144" transform="translate(0)">
          <path id="Path_23314" data-name="Path 23314" d="M42.107,106.722a1.819,1.819,0,0,0-.42,1.276v20.089a1.818,1.818,0,0,0,.42,1.276l.067.066,11.253-11.253v-.266L42.174,106.656Z" transform="translate(-41.687 -106.361)" fill="#40bff2"/>
          <path id="Path_23315" data-name="Path 23315" d="M66.21,127.7l-3.751-3.752v-.266l3.752-3.752.084.048,4.444,2.525c1.269.721,1.269,1.9,0,2.623L66.3,127.649Z" transform="translate(-50.718 -112.131)" fill="url(#linear-gradient)"/>
          <path id="Path_23316" data-name="Path 23316" d="M57.587,130.638,53.751,126.8,42.43,138.121a1.478,1.478,0,0,0,1.888.056l13.269-7.539" transform="translate(-42.01 -115.119)" fill="url(#linear-gradient-2)"/>
          <path id="Path_23317" data-name="Path 23317" d="M57.587,113.978l-13.269-7.539a1.478,1.478,0,0,0-1.888.055l11.321,11.321Z" transform="translate(-42.01 -106.133)" fill="url(#linear-gradient-3)"/>
        </g>
      </g>
      <g id="Group_16146" data-name="Group 16146" transform="translate(62.955 100.888)">
        <path id="Path_23318" data-name="Path 23318" d="M96.315,107a1.942,1.942,0,0,0-1.288-.5,2.055,2.055,0,0,0,0,4.106,1.551,1.551,0,0,0,1.708-1.444H95.214v-.629h2.344c0,1.879-1,2.763-2.53,2.763a2.744,2.744,0,0,1,0-5.488,2.643,2.643,0,0,1,1.809.707Z" transform="translate(-92.326 -105.808)" fill="#fff"/>
        <path id="Path_23319" data-name="Path 23319" d="M106.495,105.918v.675H104.05V108.3h2.135v.675H104.05v1.614h2.523v.675h-3.244v-5.348Z" transform="translate(-97.109 -105.856)" fill="#fff"/>
        <path id="Path_23320" data-name="Path 23320" d="M114.156,105.918v.683h-1.623v4.665H111.8V106.6h-1.623v-.683Z" transform="translate(-100.089 -105.856)" fill="#fff"/>
        <path id="Path_23321" data-name="Path 23321" d="M122.785,105.918v5.348h-.722v-5.348Z" transform="translate(-105.255 -105.856)" fill="#fff"/>
        <path id="Path_23322" data-name="Path 23322" d="M128.99,105.918v.683h-1.623v4.665h-.729V106.6h-1.623v-.683Z" transform="translate(-106.539 -105.856)" fill="#fff"/>
        <path id="Path_23323" data-name="Path 23323" d="M138.979,105.808a2.744,2.744,0,1,1-2.7,2.748A2.712,2.712,0,0,1,138.979,105.808Zm0,4.789A2.046,2.046,0,1,0,137,108.556,1.993,1.993,0,0,0,138.979,110.6Z" transform="translate(-111.436 -105.808)" fill="#fff"/>
        <path id="Path_23324" data-name="Path 23324" d="M150.989,111.266l-2.437-4.028v4.028h-.722v-5.348h.714l2.414,4v-4h.722v5.348Z" transform="translate(-116.458 -105.856)" fill="#fff"/>
      </g>
    </g>
    <g id="Group_16154" data-name="Group 16154" transform="translate(588.541 5024.05)">
      <g id="Group_16149" data-name="Group 16149" transform="translate(25.459 17.799)">
        <rect id="Rectangle_24" data-name="Rectangle 24" width="121.399" height="35.092" rx="7.382" transform="translate(0.454 0.454)"/>
        <path id="Path_23325" data-name="Path 23325" d="M143.163,53.8H30.062a4.608,4.608,0,0,1-4.6-4.6V22.4a4.608,4.608,0,0,1,4.6-4.6h113.1a4.608,4.608,0,0,1,4.6,4.6V49.2A4.608,4.608,0,0,1,143.163,53.8ZM30.062,18.707a3.7,3.7,0,0,0-3.7,3.7V49.2a3.7,3.7,0,0,0,3.7,3.695h113.1a3.7,3.7,0,0,0,3.7-3.695V22.4a3.7,3.7,0,0,0-3.7-3.7Z" transform="translate(-25.459 -17.799)" fill="#96999c"/>
      </g>
      <g id="Group_16150" data-name="Group 16150" transform="translate(64.554 23.474)">
        <path id="Path_23326" data-name="Path 23326" d="M96.643,32.712l-.509,1.675H95.02l1.9-5.913h1.377l1.922,5.913H99.055l-.535-1.675Zm1.693-.816-.465-1.456c-.114-.36-.211-.763-.3-1.106h-.017c-.088.342-.175.754-.281,1.106L96.818,31.9Z" transform="translate(-95.02 -28.149)" fill="#fff"/>
        <path id="Path_23327" data-name="Path 23327" d="M106.221,31.393l.692,2.167c.123.377.211.719.29,1.07h.026c.079-.351.175-.684.289-1.07l.684-2.167h1.132L107.7,35.666h-1.061l-1.588-4.273Z" transform="translate(-99.415 -29.428)" fill="#fff"/>
        <path id="Path_23328" data-name="Path 23328" d="M117.517,34.564a5.744,5.744,0,0,0,.07,1.026h-.974l-.079-.474h-.026a1.561,1.561,0,0,1-1.263.57,1.268,1.268,0,0,1-1.342-1.272c0-1.07.957-1.623,2.535-1.614v-.07c0-.28-.114-.745-.868-.745a2.257,2.257,0,0,0-1.149.316l-.211-.7a3.075,3.075,0,0,1,1.544-.377,1.6,1.6,0,0,1,1.763,1.807ZM116.465,33.5c-.763-.009-1.492.149-1.492.8a.566.566,0,0,0,.614.614.886.886,0,0,0,.851-.588.725.725,0,0,0,.026-.237Z" transform="translate(-103.29 -29.353)" fill="#fff"/>
        <path id="Path_23329" data-name="Path 23329" d="M123.535,29.391a.611.611,0,1,1,.009,0ZM123,34.278V30.006h1.079v4.273Z" transform="translate(-107.248 -28.04)" fill="#fff"/>
        <path id="Path_23330" data-name="Path 23330" d="M127.73,27.9h1.079v6.238H127.73Z" transform="translate(-109.346 -27.896)" fill="#fff"/>
        <path id="Path_23331" data-name="Path 23331" d="M135.511,34.564a5.8,5.8,0,0,0,.07,1.026h-.974l-.079-.474H134.5a1.561,1.561,0,0,1-1.263.57,1.268,1.268,0,0,1-1.342-1.272c0-1.07.957-1.623,2.535-1.614v-.07c0-.28-.114-.745-.868-.745a2.257,2.257,0,0,0-1.149.316l-.21-.7a3.072,3.072,0,0,1,1.544-.377,1.6,1.6,0,0,1,1.764,1.807ZM134.458,33.5c-.763-.009-1.491.149-1.491.8a.566.566,0,0,0,.614.614.886.886,0,0,0,.851-.588.725.725,0,0,0,.026-.237Z" transform="translate(-111.171 -29.353)" fill="#fff"/>
        <path id="Path_23332" data-name="Path 23332" d="M141.014,27.9h1.079v2.553h.017a1.547,1.547,0,0,1,1.369-.684c1.044,0,1.79.868,1.781,2.167a2.046,2.046,0,0,1-1.938,2.3,1.471,1.471,0,0,1-1.351-.737h-.017l-.053.641h-.921c.017-.289.035-.763.035-1.193Zm1.079,4.474a1.2,1.2,0,0,0,.026.255.986.986,0,0,0,.957.755c.676,0,1.088-.535,1.088-1.4,0-.754-.36-1.369-1.079-1.369a1,1,0,0,0-.956.79,1.3,1.3,0,0,0-.035.281Z" transform="translate(-115.149 -27.896)" fill="#fff"/>
        <path id="Path_23333" data-name="Path 23333" d="M150.857,27.9h1.079v6.238h-1.079Z" transform="translate(-119.475 -27.896)" fill="#fff"/>
        <path id="Path_23334" data-name="Path 23334" d="M156.106,33.757a1.161,1.161,0,0,0,1.316,1.106,3.44,3.44,0,0,0,1.184-.193l.158.737a3.835,3.835,0,0,1-1.491.272,2.021,2.021,0,0,1-2.2-2.158,2.115,2.115,0,0,1,2.089-2.3A1.857,1.857,0,0,1,159,33.3a2.751,2.751,0,0,1-.034.456ZM157.983,33a.918.918,0,0,0-.886-1.044A1.055,1.055,0,0,0,156.106,33Z" transform="translate(-121.32 -29.353)" fill="#fff"/>
        <path id="Path_23335" data-name="Path 23335" d="M169.867,35.687a2.066,2.066,0,0,1-2.141-2.2,2.11,2.11,0,0,1,2.212-2.263,2.05,2.05,0,0,1,2.123,2.193,2.115,2.115,0,0,1-2.185,2.272Zm.035-.781c.614,0,1.044-.6,1.044-1.465,0-.667-.3-1.439-1.035-1.439-.764,0-1.071.746-1.071,1.456,0,.825.413,1.447,1.053,1.447Z" transform="translate(-126.863 -29.353)" fill="#fff"/>
        <path id="Path_23336" data-name="Path 23336" d="M177.671,32.591c0-.492-.017-.9-.035-1.272h.939l.053.641h.026a1.568,1.568,0,0,1,1.369-.737c.746,0,1.518.482,1.518,1.833v2.535h-1.079V33.178c0-.614-.229-1.08-.816-1.08a.906.906,0,0,0-.842.632,1,1,0,0,0-.053.342v2.518h-1.079Z" transform="translate(-131.203 -29.353)" fill="#fff"/>
        <path id="Path_23337" data-name="Path 23337" d="M192.13,29.442v1.1h1.026v.807H192.13v1.878c0,.526.141.79.553.79a1.417,1.417,0,0,0,.421-.044l.017.816a2.357,2.357,0,0,1-.781.114,1.236,1.236,0,0,1-.93-.351,1.683,1.683,0,0,1-.342-1.2v-2h-.606v-.807h.606v-.8Z" transform="translate(-136.821 -28.573)" fill="#fff"/>
        <path id="Path_23338" data-name="Path 23338" d="M197.393,27.9h1.079V30.44h.017a1.424,1.424,0,0,1,.535-.482,1.521,1.521,0,0,1,.746-.193c.728,0,1.491.482,1.491,1.851v2.518h-1.079v-2.4c0-.614-.228-1.088-.825-1.088a.9.9,0,0,0-.842.605.977.977,0,0,0-.044.325v2.562h-1.079Z" transform="translate(-139.856 -27.896)" fill="#fff"/>
        <path id="Path_23339" data-name="Path 23339" d="M207.557,33.757a1.161,1.161,0,0,0,1.316,1.106,3.441,3.441,0,0,0,1.184-.193l.158.737a3.835,3.835,0,0,1-1.491.272,2.021,2.021,0,0,1-2.2-2.158,2.115,2.115,0,0,1,2.089-2.3,1.857,1.857,0,0,1,1.842,2.079,2.751,2.751,0,0,1-.034.456ZM209.434,33a.918.918,0,0,0-.886-1.044A1.055,1.055,0,0,0,207.557,33Z" transform="translate(-143.854 -29.353)" fill="#fff"/>
      </g>
      <g id="Group_16153" data-name="Group 16153" transform="translate(37.013 23.128)">
        <g id="Group_16151" data-name="Group 16151">
          <path id="Path_23340" data-name="Path 23340" d="M61.758,43.954a5.262,5.262,0,0,1,2.507-4.416,5.389,5.389,0,0,0-4.246-2.3c-1.786-.187-3.519,1.071-4.427,1.071-.928,0-2.332-1.052-3.84-1.021a5.656,5.656,0,0,0-4.758,2.9c-2.057,3.562-.523,8.8,1.448,11.678.986,1.41,2.139,2.984,3.647,2.928,1.475-.061,2.026-.94,3.807-.94,1.765,0,2.283.94,3.821.9,1.583-.026,2.58-1.417,3.531-2.84a11.586,11.586,0,0,0,1.616-3.29,5.085,5.085,0,0,1-3.105-4.68" transform="translate(-46.016 -31.634)" fill="#fff"/>
          <path id="Path_23341" data-name="Path 23341" d="M66.149,30.993a5.173,5.173,0,0,0,1.185-3.713,5.267,5.267,0,0,0-3.41,1.765,4.928,4.928,0,0,0-1.218,3.576,4.361,4.361,0,0,0,3.443-1.628" transform="translate(-53.314 -27.28)" fill="#fff"/>
        </g>
        <g id="Group_16152" data-name="Group 16152" transform="translate(26.897 10.704)">
          <path id="Path_23342" data-name="Path 23342" d="M104.044,58.694h-2.055l-1.127-3.54H96.948l-1.073,3.54h-2l3.881-12.049h2.393Zm-3.52-5.025-1.018-3.146q-.164-.481-.609-2.269h-.035q-.18.77-.573,2.269l-1,3.146Z" transform="translate(-93.873 -46.465)" fill="#fff"/>
          <path id="Path_23343" data-name="Path 23343" d="M123.2,56.721a4.94,4.94,0,0,1-1.2,3.5,3.5,3.5,0,0,1-2.662,1.143,2.667,2.667,0,0,1-2.468-1.234h-.034v4.576H114.9V55.344q0-1.394-.071-2.86h1.7l.108,1.377h.037a3.433,3.433,0,0,1,5.5-.339,4.791,4.791,0,0,1,1.027,3.2m-1.966.071a3.583,3.583,0,0,0-.572-2.091,1.978,1.978,0,0,0-1.679-.859,2,2,0,0,0-1.3.474,2.2,2.2,0,0,0-.76,1.244,2.518,2.518,0,0,0-.088.588V57.6a2.319,2.319,0,0,0,.578,1.6,1.927,1.927,0,0,0,1.512.652,1.968,1.968,0,0,0,1.7-.839,3.689,3.689,0,0,0,.609-2.217" transform="translate(-103.053 -48.944)" fill="#fff"/>
          <path id="Path_23344" data-name="Path 23344" d="M140.978,56.721a4.938,4.938,0,0,1-1.2,3.5,3.5,3.5,0,0,1-2.663,1.143,2.664,2.664,0,0,1-2.466-1.234h-.036v4.576h-1.93V55.344q0-1.394-.071-2.86h1.7l.108,1.377h.037a3.432,3.432,0,0,1,5.5-.339,4.793,4.793,0,0,1,1.026,3.2m-1.965.071a3.575,3.575,0,0,0-.573-2.091,1.977,1.977,0,0,0-1.679-.859,2.009,2.009,0,0,0-1.3.474,2.2,2.2,0,0,0-.758,1.244,2.423,2.423,0,0,0-.09.588V57.6a2.312,2.312,0,0,0,.58,1.6,1.922,1.922,0,0,0,1.512.652,1.971,1.971,0,0,0,1.7-.839,3.708,3.708,0,0,0,.609-2.217" transform="translate(-110.84 -48.944)" fill="#fff"/>
          <path id="Path_23345" data-name="Path 23345" d="M161.551,55.174a3.207,3.207,0,0,1-1.071,2.5,4.737,4.737,0,0,1-3.281,1.054,5.76,5.76,0,0,1-3.124-.75l.447-1.609a5.294,5.294,0,0,0,2.792.768,2.641,2.641,0,0,0,1.7-.491,1.612,1.612,0,0,0,.606-1.317,1.683,1.683,0,0,0-.5-1.235,4.659,4.659,0,0,0-1.665-.931q-3.164-1.183-3.163-3.456a3.054,3.054,0,0,1,1.108-2.434,4.374,4.374,0,0,1,2.95-.951,5.852,5.852,0,0,1,2.734.573l-.482,1.573a4.763,4.763,0,0,0-2.307-.554,2.332,2.332,0,0,0-1.59.5,1.437,1.437,0,0,0-.482,1.09,1.469,1.469,0,0,0,.553,1.179,6.226,6.226,0,0,0,1.752.931,5.947,5.947,0,0,1,2.288,1.465,3.071,3.071,0,0,1,.733,2.091" transform="translate(-120.24 -46.325)" fill="#fff"/>
          <path id="Path_23346" data-name="Path 23346" d="M174.607,52.386h-2.127V56.6q0,1.609,1.127,1.609a3.506,3.506,0,0,0,.857-.088l.053,1.465a4.335,4.335,0,0,1-1.5.214,2.314,2.314,0,0,1-1.788-.7,3.424,3.424,0,0,1-.644-2.343v-4.38h-1.27V50.937h1.27v-1.59l1.895-.573v2.163h2.127Z" transform="translate(-126.914 -47.398)" fill="#fff"/>
          <path id="Path_23347" data-name="Path 23347" d="M189.181,56.757a4.765,4.765,0,0,1-1.144,3.29,4.086,4.086,0,0,1-3.182,1.322,3.883,3.883,0,0,1-3.048-1.27,4.613,4.613,0,0,1-1.135-3.2,4.716,4.716,0,0,1,1.171-3.308A4.045,4.045,0,0,1,185,52.306a3.972,3.972,0,0,1,3.075,1.269,4.579,4.579,0,0,1,1.108,3.182m-2,.062a3.912,3.912,0,0,0-.519-2.062,1.906,1.906,0,0,0-1.732-1.04,1.934,1.934,0,0,0-1.77,1.04,3.992,3.992,0,0,0-.517,2.1,3.91,3.91,0,0,0,.517,2.06,1.947,1.947,0,0,0,1.754,1.039,1.926,1.926,0,0,0,1.732-1.057,3.913,3.913,0,0,0,.536-2.08" transform="translate(-131.888 -48.944)" fill="#fff"/>
          <path id="Path_23348" data-name="Path 23348" d="M203.352,54.182a3.476,3.476,0,0,0-.607-.053,1.833,1.833,0,0,0-1.575.769,2.9,2.9,0,0,0-.482,1.715v4.558H198.76l.016-5.951q0-1.5-.071-2.736h1.681l.071,1.664h.052a2.976,2.976,0,0,1,.966-1.377,2.337,2.337,0,0,1,1.4-.465,3.179,3.179,0,0,1,.482.034Z" transform="translate(-139.786 -48.944)" fill="#fff"/>
          <path id="Path_23349" data-name="Path 23349" d="M216.316,56.4a4.654,4.654,0,0,1-.07.876h-5.791a2.524,2.524,0,0,0,.839,1.967,2.867,2.867,0,0,0,1.9.606,6.416,6.416,0,0,0,2.341-.41l.3,1.341a7.26,7.26,0,0,1-2.914.537,4.216,4.216,0,0,1-3.173-1.19A4.4,4.4,0,0,1,208.6,56.94a4.98,4.98,0,0,1,1.074-3.272,3.7,3.7,0,0,1,3.037-1.393,3.242,3.242,0,0,1,2.846,1.393,4.705,4.705,0,0,1,.765,2.736m-1.841-.5a2.615,2.615,0,0,0-.374-1.483,1.69,1.69,0,0,0-1.539-.8,1.836,1.836,0,0,0-1.536.787,2.859,2.859,0,0,0-.57,1.5Z" transform="translate(-144.118 -48.931)" fill="#fff"/>
        </g>
      </g>
    </g>
  </g>
</svg>
