<svg xmlns="http://www.w3.org/2000/svg" xmlns:xlink="http://www.w3.org/1999/xlink" width="266" height="266" viewBox="0 0 266 266">
  <defs>
    <linearGradient id="linear-gradient" x1="0.5" x2="0.5" y2="1" gradientUnits="objectBoundingBox">
      <stop offset="0" stop-color="#bb0711"/>
      <stop offset="1" stop-color="#8c040a"/>
    </linearGradient>
  </defs>
  <g id="Group_21557" data-name="Group 21557" transform="translate(5452 17335)">
    <rect id="Rectangle_6377" data-name="Rectangle 6377" width="266" height="266" transform="translate(-5452 -17335)" fill="url(#linear-gradient)"/>
    <g id="Group_21543" data-name="Group 21543">
      <path id="Path_28208" data-name="Path 28208" d="M716.2,219.871v-19a8.565,8.565,0,0,0-2.1-5.9c-4.1-4.8-8-9.8-12-14.7-1.8-2.2-3.4-4.5-5.2-6.6a7.384,7.384,0,0,0-6.1-2.8c-4.5.1-9,0-13.5,0a11.275,11.275,0,0,1-4.4-.7c-7.5-3.3-10.1-11-6.1-18.2,1.5-2.8,3.1-5.5,4.6-8.3.9-1.6.8-2.5-.8-3.9-4.5-3.8-5.9-8.7-5.6-14.3.2-2.7.9-3.6,3.7-3.6,4.6,0,9.3-.7,13.8,1.2a5.668,5.668,0,0,0,4.9-.4c4.2-2,8.4-1.7,12.6,0a9.789,9.789,0,0,0,8.2-.1,13.83,13.83,0,0,1,11.6,0,31.694,31.694,0,0,0,12.2,2.1h84.5a19.266,19.266,0,0,1,12.9,4.4,19.964,19.964,0,0,1,6.5,9.2,29.217,29.217,0,0,1,1.5,9.3c-.1,7.2-.3,14.3,0,21.5a27.489,27.489,0,0,1-3,14.5c-2.7,4.9-2.6,9.3,0,14.2,2.4,4.4,2.6,8.8.8,13.8-3.4,9.5-6.1,19.3-9,29a15.716,15.716,0,0,1-.9,2.3,3.215,3.215,0,0,1-3,2.2,55.26,55.26,0,0,1-11.5-.1c-2.2-.3-3-1.2-2.8-3.4.3-3.8.9-7.6,1.5-11.4,1-6.2,2.2-12.5,3.2-18.7a5.312,5.312,0,0,0-1.1-4.2c-2.7-4.1-6.3-6.3-11.4-5.3a29.809,29.809,0,0,1-6,.3H747.7c-6.8,0-5.8.1-7,5.8-2.3,10.4-4.2,20.9-6.2,31.3-1,5.3-1.4,5.6-6.9,5.7-2.8,0-5.7,0-8.5-.2-1.9-.1-2.7-1-2.9-2.9a26.8,26.8,0,0,1-.2-4c.2-5.8.2-11.9.2-18.1m53.9-23.7h23.5c1.3,0,2.7,0,4-.1s1.6-.9.9-2l-2.7-4.2a19.692,19.692,0,0,1-2.4-10.6c.1-2.4,1.2-3.3,3.5-3.3,2.1,0,2.7.5,2.8,2.5a20.021,20.021,0,0,0,.8,5.9c1.3,4,4.1,6.8,6.9,9.6,3.2,3.2,6.4,6.3,9.6,9.4,2.4,2.3,3,4.8,2.4,8.1-1.6,8.2-2.8,16.4-4.1,24.6-.2,1-.5,2.1.6,2.7a3.287,3.287,0,0,0,2.9-.1,4.365,4.365,0,0,0,2.3-3.1c2.3-7.5,4.6-14.9,6.9-22.4.8-2.7,2.1-5.5,2-8.2s-1.7-5.4-2.8-8a17,17,0,0,1,0-13.1c.9-2.2,1.8-4.3,2.7-6.5a16.885,16.885,0,0,0,.8-2.4c.7-3.8,0-4.6-3.9-4.4h-.5c-5.9.8-11.2-3.8-12.3-8.7a40.092,40.092,0,0,1-.9-5.9c-.3-3.2-1.4-4.5-4.5-5.1a19.979,19.979,0,0,0-3.5-.2c-1.3-.1-2.7,0-4-.2a1.909,1.909,0,0,1-1.7-1.6,6.477,6.477,0,0,1-.2-2c0-1.7.7-2.4,2.5-2.4,2.2-.1,4.3-.1,6.5,0,6.7.2,11.1,4.5,11.5,11.3.1,1.2,0,2.3.2,3.5a5.252,5.252,0,0,0,6.9,4.6,5.424,5.424,0,0,0,3.9-5.2c.1-3.8-.1-7.7.1-11.5a17.775,17.775,0,0,0-1.7-8.2,12.82,12.82,0,0,0-8.7-7.5,26.97,26.97,0,0,0-6.9-.7c-26,0-52,.1-78,0-4.1,0-6.7.9-8.8,4.9-2.6,4.8-7.2,7.2-12.9,6.9-2.3-.1-3.3-1.2-3.3-3.5,0-1.7.3-3,3.1-2.9.7,0,1.3-.1,2-.1,2.4-.1,4-1.5,5.3-3.3a2.045,2.045,0,0,0-.7-3c-3.4-1.5-6.9-2.9-10.5-.8a9.939,9.939,0,0,1-10,.3,24.546,24.546,0,0,0-2.9-.8c-5.3-1.6-9.5-.1-12.3,4.7-4,6.9-7.8,13.9-11.7,20.9a9.715,9.715,0,0,0-1.3,5.3,4.849,4.849,0,0,0,4.2,4.8,19.978,19.978,0,0,0,3.5.2c3.8,0,7.7.1,11.5,0a12.694,12.694,0,0,1,11.2,5.4c.2.3.4.5.6.8,5.4,6.6,10.7,13.1,16.1,19.7a16.832,16.832,0,0,1,4.1,11.4c-.2,10.2-.1,20.3-.1,30.5v4c.1,1.8.8,2.6,2.3,2.8,1.7.3,2.7-.3,3.4-2.2a34.523,34.523,0,0,0,1.2-4.3l5.4-27.9c1.1-5.6,4.3-8.4,10-8.4Zm-94.1-68.1h-2.3a1.816,1.816,0,0,0-1.7,2.4,13.351,13.351,0,0,0,.7,1.8c.6,1.3,1.4,2.4,2.9,2.3,1.4,0,1.7-1.4,2.3-2.4a10.087,10.087,0,0,0,.9-1.8,1.444,1.444,0,0,0-1.1-2.2c-.9-.1-1.7-.1-1.7-.1" transform="translate(-6069.933 -17409.281)" fill="#fff"/>
      <path id="Path_28209" data-name="Path 28209" d="M687.9,142.072c-.2-2,.7-3.7,3.6-3.4a3.176,3.176,0,0,1,2.7,3.9,2.48,2.48,0,0,1-2.6,2.4h-1c-2.2.1-2.7-.5-2.7-2.9" transform="translate(-6069.933 -17409.281)" fill="#fff"/>
    </g>
    <g id="Group_21542" data-name="Group 21542" transform="translate(0 -0.49)">
      <path id="Path_28210" data-name="Path 28210" d="M721.8,278.771v4.4h-9.3v4.8h6.9v4.3h-6.9v9.2H707v-22.7Z" transform="translate(-6069.933 -17409.281)" fill="#fff"/>
      <path id="Path_28211" data-name="Path 28211" d="M738.9,297.471h-8.5l-1.4,4h-5.8l8.2-22.7h6.4l8.2,22.7h-5.9Zm-1.5-4.2-2.8-8.3-2.8,8.3Z" transform="translate(-6069.933 -17409.281)" fill="#fff"/>
      <path id="Path_28212" data-name="Path 28212" d="M760.2,301.471l-4.7-8.6h-1.3v8.6h-5.5v-22.7H758a10.784,10.784,0,0,1,4.6.9,5.927,5.927,0,0,1,2.8,2.6,7.4,7.4,0,0,1,.9,3.6,6.2,6.2,0,0,1-1.3,4,6.91,6.91,0,0,1-3.8,2.5l5.2,9h-6.2Zm-6.1-12.4h3.4a3.174,3.174,0,0,0,2.3-.7,2.865,2.865,0,0,0,.8-2.1,2.629,2.629,0,0,0-.8-2,3.174,3.174,0,0,0-2.3-.7h-3.4Z" transform="translate(-6069.933 -17409.281)" fill="#fff"/>
      <path id="Path_28213" data-name="Path 28213" d="M795.4,278.771v22.7h-5.5v-13.6l-5.1,13.6h-4.5l-5.1-13.7v13.7h-5.5v-22.7h6.5l6.4,15.7,6.3-15.7Z" transform="translate(-6069.933 -17409.281)" fill="#fff"/>
    </g>
  </g>
</svg>
