<svg xmlns="http://www.w3.org/2000/svg" xmlns:xlink="http://www.w3.org/1999/xlink" width="266" height="266" viewBox="0 0 266 266">
  <defs>
    <linearGradient id="linear-gradient" x1="0.5" x2="0.5" y2="1" gradientUnits="objectBoundingBox">
      <stop offset="0" stop-color="#bb0711"/>
      <stop offset="1" stop-color="#8c040a"/>
    </linearGradient>
  </defs>
  <g id="Group_21554" data-name="Group 21554" transform="translate(6280 17335)">
    <rect id="Rectangle_6381" data-name="Rectangle 6381" width="266" height="266" transform="translate(-6280 -17335)" fill="url(#linear-gradient)"/>
    <g id="Group_21549" data-name="Group 21549" transform="translate(0 4.729)">
      <path id="Path_28226" data-name="Path 28226" d="M1008.7,682.021a5.927,5.927,0,0,1-2.8,2.6,9.616,9.616,0,0,1-4.7,1h-3.4v8.2h-5.5v-22.7h9a10.785,10.785,0,0,1,4.6.9,6.426,6.426,0,0,1,2.8,2.6,7.9,7.9,0,0,1,.9,3.8,7.4,7.4,0,0,1-.9,3.6m-5.5-1.5a3.156,3.156,0,0,0,0-4.2,3.286,3.286,0,0,0-2.4-.7h-3v5.7h3a3.794,3.794,0,0,0,2.4-.8" transform="translate(-7211.05 -17819.85)" fill="#fff"/>
      <path id="Path_28227" data-name="Path 28227" d="M1024,693.821l-4.7-8.6H1018v8.6h-5.5v-22.7h9.3a10.788,10.788,0,0,1,4.6.9,5.929,5.929,0,0,1,2.8,2.6,7.385,7.385,0,0,1,.9,3.6,6.207,6.207,0,0,1-1.3,4,6.914,6.914,0,0,1-3.8,2.5l5.2,9H1024Zm-6-12.5h3.4a3.174,3.174,0,0,0,2.3-.7,2.869,2.869,0,0,0,.8-2.1,2.633,2.633,0,0,0-.8-2,3.174,3.174,0,0,0-2.3-.7H1018Z" transform="translate(-7211.05 -17819.85)" fill="#fff"/>
      <path id="Path_28228" data-name="Path 28228" d="M1038.4,692.521a10.6,10.6,0,0,1-4.2-4.2,12.219,12.219,0,0,1-1.6-6,11.233,11.233,0,0,1,1.6-6,11.017,11.017,0,0,1,4.2-4.1,12.353,12.353,0,0,1,11.8,0,11.033,11.033,0,0,1,4.2,4.1,11.877,11.877,0,0,1,1.5,6,11.241,11.241,0,0,1-1.6,6,10.6,10.6,0,0,1-4.2,4.2,11.76,11.76,0,0,1-5.9,1.5,11.4,11.4,0,0,1-5.8-1.5m10.3-5.3a8,8,0,0,0,0-9.6,5.586,5.586,0,0,0-4.4-1.8,5.729,5.729,0,0,0-4.4,1.8,8,8,0,0,0,0,9.6,6.278,6.278,0,0,0,8.8,0" transform="translate(-7211.05 -17819.85)" fill="#fff"/>
      <path id="Path_28229" data-name="Path 28229" d="M1073.2,671.121v15.5a7.408,7.408,0,0,1-2,5.5,7.518,7.518,0,0,1-5.5,1.9,8.506,8.506,0,0,1-5.8-2,7.839,7.839,0,0,1-2.2-5.8h5.5a3.593,3.593,0,0,0,.6,2.2,1.939,1.939,0,0,0,1.7.7,2.107,2.107,0,0,0,1.6-.6,2.691,2.691,0,0,0,.5-1.9v-15.5Z" transform="translate(-7211.05 -17819.85)" fill="#fff"/>
      <path id="Path_28230" data-name="Path 28230" d="M1083.2,675.521v4.6h7.4v4.3h-7.4v5h8.4v4.4h-13.9v-22.7h13.9v4.4Z" transform="translate(-7211.05 -17819.85)" fill="#fff"/>
      <path id="Path_28231" data-name="Path 28231" d="M1095.7,676.421a10.117,10.117,0,0,1,4.1-4.1,11.5,11.5,0,0,1,5.9-1.5,11.3,11.3,0,0,1,6.9,2.1,10.764,10.764,0,0,1,3.9,5.8h-6.1a5.853,5.853,0,0,0-1.9-2.2,5.3,5.3,0,0,0-2.8-.7,5.1,5.1,0,0,0-4.1,1.8,8,8,0,0,0,0,9.6,5.242,5.242,0,0,0,4.1,1.8,5.073,5.073,0,0,0,2.8-.7,4.588,4.588,0,0,0,1.9-2.2h6.1a9.5,9.5,0,0,1-3.9,5.8,11.3,11.3,0,0,1-6.9,2.1,11.5,11.5,0,0,1-5.9-1.5,10.757,10.757,0,0,1-4.1-4.1,11.619,11.619,0,0,1-1.5-6,14.762,14.762,0,0,1,1.5-6" transform="translate(-7211.05 -17819.85)" fill="#fff"/>
      <path id="Path_28232" data-name="Path 28232" d="M1136.2,671.121v4.4h-6v18.3h-5.5v-18.3h-6v-4.4Z" transform="translate(-7211.05 -17819.85)" fill="#fff"/>
      <path id="Path_28233" data-name="Path 28233" d="M988.9,703.121v4.4h-9.3v4.8h6.9v4.3h-6.9v9.2h-5.5v-22.7Z" transform="translate(-7211.05 -17819.85)" fill="#fff"/>
      <rect id="Rectangle_6280" data-name="Rectangle 6280" width="5.5" height="22.7" transform="translate(-6219.148 -17116.729)" fill="#fff"/>
      <path id="Path_28234" data-name="Path 28234" d="M1021.7,725.821h-5.5l-9.3-14v14h-5.5v-22.7h5.5l9.3,14.1v-14.1h5.5Z" transform="translate(-7211.05 -17819.85)" fill="#fff"/>
      <path id="Path_28235" data-name="Path 28235" d="M1039.9,721.821h-8.5l-1.4,4h-5.8l8.2-22.7h6.4l8.2,22.7h-5.9Zm-1.5-4.3-2.8-8.3-2.8,8.3Z" transform="translate(-7211.05 -17819.85)" fill="#fff"/>
      <path id="Path_28236" data-name="Path 28236" d="M1069.9,725.821h-5.5l-9.3-14v14h-5.5v-22.7h5.5l9.3,14.1v-14.1h5.5Z" transform="translate(-7211.05 -17819.85)" fill="#fff"/>
      <path id="Path_28237" data-name="Path 28237" d="M1074.4,708.421a10.117,10.117,0,0,1,4.1-4.1,11.5,11.5,0,0,1,5.9-1.5,11.309,11.309,0,0,1,6.9,2.1,10.768,10.768,0,0,1,3.9,5.8h-6.1a5.853,5.853,0,0,0-1.9-2.2,5.3,5.3,0,0,0-2.8-.7,5.1,5.1,0,0,0-4.1,1.8,8,8,0,0,0,0,9.6,5.238,5.238,0,0,0,4.1,1.8,5.073,5.073,0,0,0,2.8-.7,4.588,4.588,0,0,0,1.9-2.2h6.1a9.5,9.5,0,0,1-3.9,5.8,11.309,11.309,0,0,1-6.9,2.1,11.5,11.5,0,0,1-5.9-1.5,10.764,10.764,0,0,1-4.1-4.1,11.619,11.619,0,0,1-1.5-6,14.758,14.758,0,0,1,1.5-6" transform="translate(-7211.05 -17819.85)" fill="#fff"/>
      <rect id="Rectangle_6281" data-name="Rectangle 6281" width="5.5" height="22.7" transform="translate(-6112.45 -17116.729)" fill="#fff"/>
      <path id="Path_28238" data-name="Path 28238" d="M1128.4,725.821h-5.5l-9.3-14v14h-5.5v-22.7h5.5l9.3,14.1v-14.1h5.5Z" transform="translate(-7211.05 -17819.85)" fill="#fff"/>
      <path id="Path_28239" data-name="Path 28239" d="M1147.5,710.321a3.72,3.72,0,0,0-1.8-1.7,5.954,5.954,0,0,0-2.7-.6,5.514,5.514,0,0,0-4.3,1.8,6.547,6.547,0,0,0-1.6,4.7,6.939,6.939,0,0,0,1.7,4.9,6.1,6.1,0,0,0,4.7,1.8,5.287,5.287,0,0,0,3.4-1,6.761,6.761,0,0,0,2.1-3h-7v-4.1h12v5.1a10.609,10.609,0,0,1-2.1,3.9,11.058,11.058,0,0,1-8.8,4,12.144,12.144,0,0,1-6-1.5,10.118,10.118,0,0,1-4.1-4.1,11.877,11.877,0,0,1-1.5-6,12.144,12.144,0,0,1,1.5-6,10.118,10.118,0,0,1,4.1-4.1,11.619,11.619,0,0,1,6-1.5,11.948,11.948,0,0,1,6.9,2,8.967,8.967,0,0,1,3.7,5.5h-6.2Z" transform="translate(-7211.05 -17819.85)" fill="#fff"/>
    </g>
    <g id="Group_21550" data-name="Group 21550" transform="translate(0 10.16)">
      <path id="Path_28240" data-name="Path 28240" d="M1058.274,644.945h-57.427c-1.667,0-3.427.278-4.909-.834a1.6,1.6,0,0,1-.093-2.686,3.936,3.936,0,0,1,2.964-.926c2.594,0,5.28,0,7.873-.093,1.112,0,1.667-.648,1.76-1.76V601.6c0-4.261.556-4.816,4.816-4.816,5.094-.093,10.189,0,15.283,0a12.408,12.408,0,0,1,1.852.093,2.207,2.207,0,0,1,2.13,2.038c.093,1.389.185,2.779.185,4.168v31.492c0,6.484.463,5.835,5.835,5.928h5.094c1.852-.093,2.316-.648,2.5-2.594.093-1.2,0-2.5,0-3.7V595.762c0-2.038,0-3.983.185-6.021a2.823,2.823,0,0,1,3.057-2.871c2.5-.093,4.909-.093,7.41-.093,3.427,0,6.762-.093,10.189,0,2.594.093,3.52,1.019,3.8,3.7.093,1.2.093,2.5.093,3.7V635.4c0,5.094,0,5.094,5.094,5.094,2.038,0,3.983,0,6.021-.093a1.653,1.653,0,0,0,1.76-1.76c.093-1.389.093-2.779.093-4.168v-65.3c.093-3.242.926-4.168,4.076-4.261,3.427-.093,6.761,0,10.189,0,2.316,0,4.631-.093,6.947.093,2.5.093,3.149.834,3.334,3.52.093,1.2,0,2.5,0,3.7v62.521c0,5.928-.278,5.835,5.835,5.835h4.168a5.213,5.213,0,0,1,2.964,1.2,1.311,1.311,0,0,1,0,2.038,5.707,5.707,0,0,1-3.427,1.2h-3.242q-28.065-.139-56.408-.093m45.849-39.458V572.142c-.185-2.13-.741-2.779-2.779-2.871-3.427-.093-6.762-.093-10.189,0-1.76,0-2.223.463-2.316,2.13-.093.926-.093,1.853-.093,2.779v63.911c.093,1.76.556,2.316,2.223,2.316q5.557.139,11.115,0c1.3,0,1.945-.648,2.038-2.038.093-1.2.093-2.5.093-3.7,0-9.726-.093-19.451-.093-29.177m-37.883,10.1V597.058c0-1.2,0-2.5-.093-3.7-.093-1.3-.741-2.038-2.038-2.038-2.593-.093-5.28-.093-7.873-.093-5.372,0-5.465.093-5.465,5.372v38.9c0,1.112,0,2.13.093,3.242a1.841,1.841,0,0,0,1.852,1.76c1.575.093,3.057.093,4.631.093,2.316,0,4.631,0,6.947-.093a1.762,1.762,0,0,0,1.852-1.667c.093-.926.093-1.852.093-2.779Zm-37.513,5.187V604.1c0-2.13-.648-2.779-2.779-2.871-2.964-.093-5.835-.093-8.8-.093-3.983,0-4.261.278-4.261,4.168v31.955c.185,2.408.648,3.057,3.057,3.057q4.863.139,9.726,0c2.5-.093,2.964-.556,3.057-2.964Z" transform="translate(-7211.05 -17823.627)" fill="#fff"/>
      <path id="Path_28241" data-name="Path 28241" d="M1095.988,528.723a32.109,32.109,0,0,1-3.427-2.408c-1.667-1.482-2.871-3.334-2.223-5.743.648-2.5,2.223-4.539,5-4.909,5.372-.741,10.745-1.389,16.024-1.945,3.334-.37,6.762,1.575,7.039,6.206a118.322,118.322,0,0,1-.093,16.209,5.475,5.475,0,0,1-3.89,5.187,5.907,5.907,0,0,1-6.391-1.482,8.651,8.651,0,0,1-1.2-1.389c-.834-.741-1.575-.648-2.408.185-4.353,5.187-9.726,9.448-14.727,13.986a16.424,16.424,0,0,1-4.631,2.964,1.545,1.545,0,0,1-1.667-.278,1.853,1.853,0,0,1-.556-2.13,4.651,4.651,0,0,1,1.667-2.13c3.612-3.057,7.317-6.113,10.744-9.448a130.025,130.025,0,0,0,9.726-10.467,8.651,8.651,0,0,1,1.2-1.389,2.843,2.843,0,0,1,3.057-.463c1.019.463,1.112,1.389,1.2,2.316a25.081,25.081,0,0,0,.37,3.7,1.533,1.533,0,0,0,1.575,1.389c.926,0,1.3-.648,1.667-1.389a.694.694,0,0,0,.093-.463,131.856,131.856,0,0,0,0-14.82c-.093-1.482-.926-2.13-2.408-2.223h-.926c-4.261.556-8.614,1.019-12.875,1.667-2.223.278-3.149,1.3-2.779,2.316.556,1.575,2.038,1.111,3.149,1.111,1.2,0,2.5-.185,3.7-.185,2.408.093,3.149,1.667,2.038,3.8a13.232,13.232,0,0,1-1.3,1.852,141.321,141.321,0,0,1-24.638,22.971,151.116,151.116,0,0,1-31.4,17.506,148.885,148.885,0,0,1-31.492,8.892,57.853,57.853,0,0,1-10.559,1.389c-.278,0-.648.093-.926.093-1.667.278-2.686,1.3-2.316,2.316.463,1.3,1.667,1.2,2.686,1.2a66.9,66.9,0,0,0,12.875-1.482,178.314,178.314,0,0,0,22.23-5.928A136.565,136.565,0,0,0,1057.086,568a157.98,157.98,0,0,0,16.858-9.54,4.2,4.2,0,0,1,3.427-.834,1.642,1.642,0,0,1,1.111,2.5,13.683,13.683,0,0,1-2.686,2.5,144.648,144.648,0,0,1-16.95,9.54c-4.909,2.223-9.818,4.446-14.913,6.3-5.928,2.13-11.856,4.261-18.154,5.28-2.871.463-5.65,1.482-8.521,2.038-3.983.741-7.966.648-11.949,1.482a10.627,10.627,0,0,1-4.168-.185c-4.724-1.019-5.557-6.391-3.334-9.54,1.019-1.482,2.686-1.852,4.446-2.13,7.132-1.111,14.357-1.852,21.4-3.52,3.427-.834,6.854-1.852,10.189-2.871a141.265,141.265,0,0,0,32.7-15.005,139.306,139.306,0,0,0,25.842-20.84,13.67,13.67,0,0,0,3.612-4.446" transform="translate(-7211.158 -17819.85)" fill="#fff"/>
    </g>
  </g>
</svg>
