<svg xmlns="http://www.w3.org/2000/svg" xmlns:xlink="http://www.w3.org/1999/xlink" width="266" height="266" viewBox="0 0 266 266">
  <defs>
    <linearGradient id="linear-gradient" x1="0.5" x2="0.5" y2="1" gradientUnits="objectBoundingBox">
      <stop offset="0" stop-color="#bb0711"/>
      <stop offset="1" stop-color="#8c040a"/>
    </linearGradient>
  </defs>
  <g id="Group_21556" data-name="Group 21556" transform="translate(5728 17335)">
    <rect id="Rectangle_6376" data-name="Rectangle 6376" width="266" height="266" transform="translate(-5728 -17335)" fill="url(#linear-gradient)"/>
    <g id="Group_21523" data-name="Group 21523" transform="translate(1076.402 416.678)">
      <path id="Path_28259" data-name="Path 28259" d="M409.2,259.071v4.4h-9.3v4.8h6.9v4.3h-6.9v9.2h-5.5v-22.7Z" transform="translate(-7110.103 -17819.85)" fill="#fff"/>
      <path id="Path_28260" data-name="Path 28260" d="M417,280.571a10.607,10.607,0,0,1-4.2-4.2,12.218,12.218,0,0,1-1.6-6,11.241,11.241,0,0,1,1.6-6,11.533,11.533,0,0,1,10.1-5.6,12.038,12.038,0,0,1,5.9,1.5,11.033,11.033,0,0,1,4.2,4.1,12.144,12.144,0,0,1,1.5,6,11.71,11.71,0,0,1-5.8,10.2,11.767,11.767,0,0,1-5.9,1.5,14.238,14.238,0,0,1-5.8-1.5m10.2-5.4a8,8,0,0,0,0-9.6,5.585,5.585,0,0,0-4.4-1.8,5.729,5.729,0,0,0-4.4,1.8,8,8,0,0,0,0,9.6,5.729,5.729,0,0,0,4.4,1.8,5.585,5.585,0,0,0,4.4-1.8" transform="translate(-7110.103 -17819.85)" fill="#fff"/>
      <path id="Path_28261" data-name="Path 28261" d="M442.4,280.571a10.607,10.607,0,0,1-4.2-4.2,12.218,12.218,0,0,1-1.6-6,11.241,11.241,0,0,1,1.6-6,11.533,11.533,0,0,1,10.1-5.6,12.038,12.038,0,0,1,5.9,1.5,11.034,11.034,0,0,1,4.2,4.1,12.144,12.144,0,0,1,1.5,6,11.71,11.71,0,0,1-5.8,10.2,11.767,11.767,0,0,1-5.9,1.5,14.663,14.663,0,0,1-5.8-1.5m10.3-5.4a8,8,0,0,0,0-9.6,5.585,5.585,0,0,0-4.4-1.8,5.729,5.729,0,0,0-4.4,1.8,8,8,0,0,0,0,9.6,6.278,6.278,0,0,0,8.8,0" transform="translate(-7110.103 -17819.85)" fill="#fff"/>
      <path id="Path_28262" data-name="Path 28262" d="M477.8,260.471a10.126,10.126,0,0,1,4.2,4,12.353,12.353,0,0,1,0,11.8,10.126,10.126,0,0,1-4.2,4,13.925,13.925,0,0,1-6.3,1.4H463v-22.7h8.5a15.382,15.382,0,0,1,6.3,1.5m-1.8,14.8a6.374,6.374,0,0,0,1.7-4.9,6.939,6.939,0,0,0-1.7-4.9,6.374,6.374,0,0,0-4.9-1.7h-2.6v13.2h2.6a6.374,6.374,0,0,0,4.9-1.7" transform="translate(-7110.103 -17819.85)" fill="#fff"/>
      <path id="Path_28263" data-name="Path 28263" d="M348,313.771l-2.1-2a12.017,12.017,0,0,1-7.5,2.4,11.106,11.106,0,0,1-4.6-.9,7.276,7.276,0,0,1-3-2.4,6.467,6.467,0,0,1-1.1-3.7,7.655,7.655,0,0,1,1.1-3.9,7.927,7.927,0,0,1,3.4-2.8,6.221,6.221,0,0,1-1.2-2,6.537,6.537,0,0,1-.4-2.1,5.467,5.467,0,0,1,.8-2.9,6.111,6.111,0,0,1,2.4-2.1,8.873,8.873,0,0,1,3.8-.8,8.552,8.552,0,0,1,3.8.8,5.437,5.437,0,0,1,2.3,2.2,5.14,5.14,0,0,1,.7,3h-5.2a1.7,1.7,0,0,0-.4-1.3,1.656,1.656,0,0,0-1.2-.5,2.106,2.106,0,0,0-1.3.5,1.656,1.656,0,0,0-.5,1.2,2.5,2.5,0,0,0,.4,1.4,6.556,6.556,0,0,0,1.4,1.7l5.5,5.4c0-.1.1-.2.2-.4s.2-.3.2-.5l1.2-2h5.5l-1.6,2.8a30.658,30.658,0,0,1-2,3.6l5.5,5.4H348Zm-5.5-5.3-5-4.9a3.525,3.525,0,0,0-2.3,3.2,2.643,2.643,0,0,0,1,2.1,3.537,3.537,0,0,0,2.6.8,6.284,6.284,0,0,0,3.7-1.2" transform="translate(-7110.103 -17819.85)" fill="#fff"/>
      <path id="Path_28264" data-name="Path 28264" d="M380.2,304.071a5.5,5.5,0,0,1,1.2,3.5,5.622,5.622,0,0,1-2,4.5,8.406,8.406,0,0,1-5.5,1.7H363.3v-22.7h10.2a8.094,8.094,0,0,1,5.4,1.6,5.362,5.362,0,0,1,2,4.3,5.245,5.245,0,0,1-1.1,3.3,4.908,4.908,0,0,1-2.8,1.8,5.374,5.374,0,0,1,3.2,2m-11.3-3.8h3.6a3.281,3.281,0,0,0,2.1-.6,2.664,2.664,0,0,0,0-3.6,3.281,3.281,0,0,0-2.1-.6h-3.6Zm6.2,8.4a2.2,2.2,0,0,0,.8-1.8,2.56,2.56,0,0,0-.8-1.9,3.069,3.069,0,0,0-2.2-.7h-4v5H373a3.281,3.281,0,0,0,2.1-.6" transform="translate(-7110.103 -17819.85)" fill="#fff"/>
      <path id="Path_28265" data-name="Path 28265" d="M390.2,295.471v4.6h7.4v4.3h-7.4v5h8.4v4.4H384.7v-22.7h13.9v4.4Z" transform="translate(-7110.103 -17819.85)" fill="#fff"/>
      <path id="Path_28266" data-name="Path 28266" d="M423.5,291.071l-8.1,22.7h-6.9l-8.1-22.7h5.9l5.6,17.2,5.7-17.2Z" transform="translate(-7110.103 -17819.85)" fill="#fff"/>
      <path id="Path_28267" data-name="Path 28267" d="M431.3,295.471v4.6h7.4v4.3h-7.4v5h8.4v4.4H425.8v-22.7h13.9v4.4Z" transform="translate(-7110.103 -17819.85)" fill="#fff"/>
      <path id="Path_28268" data-name="Path 28268" d="M454.9,313.771l-4.7-8.6h-1.3v8.6h-5.5v-22.7h9.3a10.784,10.784,0,0,1,4.6.9,5.927,5.927,0,0,1,2.8,2.6,7.4,7.4,0,0,1,.9,3.6,6.2,6.2,0,0,1-1.3,4,6.91,6.91,0,0,1-3.8,2.5l5.2,9h-6.2Zm-6.1-12.5h3.4a3.174,3.174,0,0,0,2.3-.7,2.865,2.865,0,0,0,.8-2.1,2.629,2.629,0,0,0-.8-2,3.174,3.174,0,0,0-2.3-.7h-3.4Z" transform="translate(-7110.103 -17819.85)" fill="#fff"/>
      <path id="Path_28269" data-name="Path 28269" d="M478.5,309.771H470l-1.4,4h-5.8l8.2-22.7h6.4l8.2,22.7h-5.9Zm-1.4-4.3-2.8-8.3-2.8,8.3Z" transform="translate(-7110.103 -17819.85)" fill="#fff"/>
      <path id="Path_28270" data-name="Path 28270" d="M503.3,298.271a3.72,3.72,0,0,0-1.8-1.7,5.953,5.953,0,0,0-2.7-.6,5.514,5.514,0,0,0-4.3,1.8,6.547,6.547,0,0,0-1.6,4.7,6.939,6.939,0,0,0,1.7,4.9,6.1,6.1,0,0,0,4.7,1.8,5.287,5.287,0,0,0,3.4-1,6.761,6.761,0,0,0,2.1-3h-7v-4.1h12v5.1a10.61,10.61,0,0,1-2.1,3.9,11.058,11.058,0,0,1-8.8,4,12.144,12.144,0,0,1-6-1.5,10.118,10.118,0,0,1-4.1-4.1,11.619,11.619,0,0,1-1.5-6,12.144,12.144,0,0,1,1.5-6,10.117,10.117,0,0,1,4.1-4.1,11.619,11.619,0,0,1,6-1.5,11.948,11.948,0,0,1,6.9,2,8.967,8.967,0,0,1,3.7,5.5Z" transform="translate(-7110.103 -17819.85)" fill="#fff"/>
      <path id="Path_28271" data-name="Path 28271" d="M518.4,295.471v4.6h7.4v4.3h-7.4v5h8.4v4.4H512.9v-22.7h13.9v4.4Z" transform="translate(-7110.103 -17819.85)" fill="#fff"/>
      <path id="Path_28272" data-name="Path 28272" d="M534.1,313.171a6.983,6.983,0,0,1-3.2-2.4,6.154,6.154,0,0,1-1.2-3.8h5.9a2.854,2.854,0,0,0,.9,1.9,2.935,2.935,0,0,0,1.9.7,2.707,2.707,0,0,0,1.9-.6,1.865,1.865,0,0,0,.7-1.6,1.816,1.816,0,0,0-.6-1.4,3.39,3.39,0,0,0-1.4-.9c-.6-.2-1.3-.5-2.3-.8a22.643,22.643,0,0,1-3.6-1.4,7.551,7.551,0,0,1-2.4-2,5.4,5.4,0,0,1-1-3.5,6.129,6.129,0,0,1,2.3-5,9.327,9.327,0,0,1,6-1.8,9.821,9.821,0,0,1,6.1,1.8,6.6,6.6,0,0,1,2.5,5h-6a2.136,2.136,0,0,0-.8-1.7,2.883,2.883,0,0,0-1.9-.6,2.545,2.545,0,0,0-1.6.5,2.035,2.035,0,0,0-.6,1.5,1.856,1.856,0,0,0,1,1.7,14.847,14.847,0,0,0,3.2,1.3c1.5.5,2.7,1,3.6,1.4a7.551,7.551,0,0,1,2.4,2,5.183,5.183,0,0,1,1,3.3,5.986,5.986,0,0,1-1,3.5,6.483,6.483,0,0,1-2.9,2.5,10.17,10.17,0,0,1-4.4.9,7.625,7.625,0,0,1-4.5-.5" transform="translate(-7110.103 -17819.85)" fill="#fff"/>
    </g>
    <path id="Path_28299" data-name="Path 28299" d="M503.2,226.071c-.4-3.7-2.3-6.5-4.8-9-9.5-9.6-19.1-19.1-28.6-28.6-4.5-4.4-9-8.9-13.4-13.4a1.777,1.777,0,0,1,.1-3,13.251,13.251,0,0,1,8-3.7,17.8,17.8,0,0,0,11.9-5.6c5.3-5.3,10.7-10.5,16-15.8,3-3,5.9-5.9,8.8-8.9,1.4-1.4,1.4-2.4.2-3.9-.5-.6-.9-1-1.4-1.5-2.1-2.1-2.8-2.1-4.9-.1l-2.8,2.8c-4.4,4.3-8.7,8.7-13.1,13-1.9,1.8-3,1.6-4.7-.1-1.6-1.6-1.8-2.6-.4-4.3,1.6-1.9,3.4-3.6,5.1-5.4,3.7-3.8,7.5-7.5,11.2-11.3,1.3-1.3,1.2-2.6,0-4a9.266,9.266,0,0,0-1.4-1.4c-1.7-1.5-2.6-1.7-4.3-.2-2.5,2.2-4.9,4.6-7.2,6.9-3.1,3-6,6.2-9.1,9.2-1.7,1.6-3.2,1.4-5.2-.6-1.4-1.4-1.3-2.6.4-4.3,5-5.1,10.1-10.2,15.2-15.2,2.7-2.6,2.7-3.9-.2-6.4a10.591,10.591,0,0,0-1.2-1c-1.3-.9-2.1-.9-3.2,0-.6.5-1,.9-1.5,1.4-7.6,7.7-15.3,15.3-22.9,23-3.7,3.7-6.2,8.1-6.5,13.6a10.113,10.113,0,0,1-3.3,7.1c-1.3,1.2-2,1.2-3.4-.1-1.9-1.8-3.8-3.7-5.7-5.6q-18.75-18.9-37.7-37.8a13.727,13.727,0,0,0-2.2-2c-3.1-2-6.2-1-7.4,2.6a86.2,86.2,0,0,0-2.5,11.2c-1,5.2.2,9.9,1.8,14.6,2,6,6.2,10.5,10.9,14.6,2.3,2,4.4,4.1,6.6,6.1,5.5,5.1,10,11.1,15.7,16,1.7,1.4,1.7,2.5.1,4.2-2.7,2.9-5.6,5.7-8.4,8.5-9.9,9.9-19.8,19.7-29.7,29.6a14.481,14.481,0,0,0-1.7,1.8c-3,4.1-3.8,8.2-1.3,13,3.3,6.4,11.9,7.7,17.2,3.7q1.65-1.35,3.3-3c11.9-11.9,23.7-23.8,35.6-35.7a66.293,66.293,0,0,1,5.4-5.2,2.532,2.532,0,0,1,3.6,0,17.382,17.382,0,0,1,1.5,1.3c8.9,9,17.9,18,26.8,26.9,5,5,10.2,10,15.2,15.1a10.817,10.817,0,0,0,7.2,3.1c7.9-.1,12.8-6.6,12.3-12.2m-57.3-65.4c.3-.4.7-.7,1-1.1a16.908,16.908,0,0,0,4.5-10.8,8.61,8.61,0,0,1,1-3.8c2.5-4.2,2.8-4.3,6.3-1s6.9,6.6,10.3,10c.5.6.9,1.3,1.3,1.8a2.774,2.774,0,0,1-1,2,10.111,10.111,0,0,1-6.3,2.6,18.29,18.29,0,0,0-12.7,5.9c-.9,1-1.6,1-2.5.2-.6-.6-1.2-1.2-1.7-1.8-1.3-1.5-1.3-2.4-.2-4m-19.3,29.3c-.9,1.1-2,2.1-3.1,3.2l-34.2,34.2a8.187,8.187,0,0,1-2.7,2.2c-2.4,1-4.4-.3-4.3-2.6.1-2.5,1.3-4,2.5-5.6l12-12c7.5-7.5,15.1-15,22.6-22.5l1.8-1.8c2.4-2.2,3-2.2,5.3.2,1.8,1.9,1.9,2.6.1,4.7m63.6,40a10.993,10.993,0,0,1-3.1-2.5c-7.2-7.2-14.4-14.3-21.6-21.5q-5.324-5.232-10.647-10.557l0,0-.076-.08q-3.487-3.479-6.975-6.965c-.474-.474-.948-.977-1.422-1.492h0l-7.587-7.089a5.994,5.994,0,0,0-2.626.635,4.005,4.005,0,0,1-.842.5c-.074.05-.147.1-.222.15l-.046-.068c-.86.214-1.614-.251-2.854-1.432-2.6-2.5-5.1-5.1-7.7-7.7-6.5-6.4-13-12.8-19.4-19.3-3.4-3.4-6.6-7-10.1-10.3-4.3-4-6.2-8.9-5.8-15.3.4-1.4-.9-3.7,1.1-5.4,2.3.2,3.3,2.2,4.6,3.5,6.1,6.1,12.4,12,18.3,18.3,7,7.5,14.6,14.4,21.9,21.6l25.572,25.673,0,0q15.512,15.515,30.931,31.025a25.467,25.467,0,0,1,2.6,3,7.076,7.076,0,0,1,.8,1.9c-.1,2.1-2.4,4.4-4.8,3.4" transform="translate(-6033.613 -17409.855)" fill="#fff"/>
  </g>
</svg>
