<svg xmlns="http://www.w3.org/2000/svg" xmlns:xlink="http://www.w3.org/1999/xlink" width="266" height="266" viewBox="0 0 266 266">
  <defs>
    <linearGradient id="linear-gradient" x1="0.5" x2="0.5" y2="1" gradientUnits="objectBoundingBox">
      <stop offset="0" stop-color="#bb0711"/>
      <stop offset="1" stop-color="#8c040a"/>
    </linearGradient>
  </defs>
  <g id="Group_21559" data-name="Group 21559" transform="translate(4900 17335)">
    <rect id="Rectangle_6382" data-name="Rectangle 6382" width="266" height="266" transform="translate(-4900 -17335)" fill="url(#linear-gradient)"/>
    <g id="Group_21547" data-name="Group 21547" transform="translate(0 -2.004)">
      <path id="Path_28283" data-name="Path 28283" d="M335.8,1122.6v22.7h-5.5v-13.6l-5.1,13.6h-4.5l-5.1-13.6v13.6h-5.5v-22.7h6.5l6.4,15.7,6.3-15.7Z" transform="translate(-5199.1 -18252.297)" fill="#fff"/>
      <path id="Path_28284" data-name="Path 28284" d="M353.9,1141.3h-8.5l-1.4,4h-5.7l8.2-22.7h6.4l8.2,22.7h-5.9Zm-1.4-4.3-2.8-8.3-2.8,8.3Z" transform="translate(-5199.1 -18252.297)" fill="#fff"/>
      <path id="Path_28285" data-name="Path 28285" d="M383.9,1145.3h-5.5l-9.2-14v14h-5.5v-22.7h5.5l9.2,14.1v-14.1h5.5Z" transform="translate(-5199.1 -18252.297)" fill="#fff"/>
      <path id="Path_28286" data-name="Path 28286" d="M393.3,1122.6v13.6a4.14,4.14,0,0,0,1,3.1,3.841,3.841,0,0,0,2.9,1.1,4.082,4.082,0,0,0,3-1.1,4.293,4.293,0,0,0,1-3.1v-13.6h5.5v13.5a9.218,9.218,0,0,1-1.3,5.1,8.309,8.309,0,0,1-3.5,3.2,11.364,11.364,0,0,1-4.9,1.1,10.608,10.608,0,0,1-4.8-1.1,7.826,7.826,0,0,1-3.3-3.2,10.259,10.259,0,0,1-1.2-5.2v-13.5h5.6Z" transform="translate(-5199.1 -18252.297)" fill="#fff"/>
      <path id="Path_28287" data-name="Path 28287" d="M425.5,1122.6v4.4h-9.2v4.8h6.9v4.3h-6.9v9.2h-5.5v-22.7Z" transform="translate(-5199.1 -18252.297)" fill="#fff"/>
      <path id="Path_28288" data-name="Path 28288" d="M442.5,1141.3H434l-1.4,4h-5.8l8.2-22.7h6.4l8.2,22.7h-5.9Zm-1.4-4.3-2.8-8.3-2.8,8.3Z" transform="translate(-5199.1 -18252.297)" fill="#fff"/>
      <path id="Path_28289" data-name="Path 28289" d="M452.7,1127.9a10.117,10.117,0,0,1,4.1-4.1,11.5,11.5,0,0,1,5.9-1.5,11.309,11.309,0,0,1,6.9,2.1,10.1,10.1,0,0,1,3.8,5.8h-6.1a5.854,5.854,0,0,0-1.9-2.2,5.3,5.3,0,0,0-2.8-.7,5.1,5.1,0,0,0-4.1,1.8,7.3,7.3,0,0,0-1.6,4.8,6.8,6.8,0,0,0,1.6,4.8,5.238,5.238,0,0,0,4.1,1.8,5.073,5.073,0,0,0,2.8-.7,4.588,4.588,0,0,0,1.9-2.2h6.1a9.8,9.8,0,0,1-3.8,5.8,11.309,11.309,0,0,1-6.9,2.1,11.5,11.5,0,0,1-5.9-1.5,10.764,10.764,0,0,1-4.1-4.1,11.619,11.619,0,0,1-1.5-6,13.318,13.318,0,0,1,1.5-6" transform="translate(-5199.1 -18252.297)" fill="#fff"/>
      <path id="Path_28290" data-name="Path 28290" d="M493.2,1122.6v4.4h-6v18.3h-5.5V1127h-6v-4.4Z" transform="translate(-5199.1 -18252.297)" fill="#fff"/>
      <path id="Path_28291" data-name="Path 28291" d="M501.4,1122.6v13.6a4.14,4.14,0,0,0,1,3.1,3.841,3.841,0,0,0,2.9,1.1,4.082,4.082,0,0,0,3-1.1,4.293,4.293,0,0,0,1-3.1v-13.6h5.5v13.5a9.218,9.218,0,0,1-1.3,5.1,8.309,8.309,0,0,1-3.5,3.2,11.364,11.364,0,0,1-4.9,1.1,10.608,10.608,0,0,1-4.8-1.1,7.826,7.826,0,0,1-3.3-3.2,10.259,10.259,0,0,1-1.2-5.2v-13.5h5.6Z" transform="translate(-5199.1 -18252.297)" fill="#fff"/>
      <path id="Path_28292" data-name="Path 28292" d="M530.3,1145.3l-4.7-8.6h-1.3v8.6h-5.5v-22.7h9.3a10.784,10.784,0,0,1,4.6.9,5.927,5.927,0,0,1,2.8,2.6,7.4,7.4,0,0,1,.9,3.6,6.2,6.2,0,0,1-1.3,4,6.91,6.91,0,0,1-3.8,2.5l5.2,9h-6.2Zm-6-12.5h3.4a3.174,3.174,0,0,0,2.3-.7,2.865,2.865,0,0,0,.8-2.1,2.629,2.629,0,0,0-.8-2,3.174,3.174,0,0,0-2.3-.7h-3.4Z" transform="translate(-5199.1 -18252.297)" fill="#fff"/>
      <path id="Path_28293" data-name="Path 28293" d="M545.3,1127v4.6h7.4v4.3h-7.4v5h8.4v4.4H539.8v-22.7h13.9v4.4Z" transform="translate(-5199.1 -18252.297)" fill="#fff"/>
    </g>
    <g id="Group_21546" data-name="Group 21546" transform="translate(2.145 -0.594)">
      <path id="Path_28294" data-name="Path 28294" d="M446.437,1034.552a10.631,10.631,0,0,0-3.333-.312c-.217,0-.434.006-.685.007-1.3.025-1.665-.577-1.849-1.175a6.313,6.313,0,0,0-.549-1.345,1.5,1.5,0,0,1,.421-2.017,22.56,22.56,0,0,0,1.951-2.063,7.255,7.255,0,0,0-.029-9.351,80.422,80.422,0,0,0-7.373-7.373,7.285,7.285,0,0,0-9.345-.13c-.564.452-1.09.966-1.6,1.462-.243.237-.484.473-.751.721a1.243,1.243,0,0,1-1.12.453c-2.459-.308-3.289-1.254-3.289-3.752a10.82,10.82,0,0,0-.054-1.331,7.25,7.25,0,0,0-6.923-6.891c-3.231-.107-6.535-.107-9.822,0a7.372,7.372,0,0,0-6.888,5.754,11.123,11.123,0,0,0-.252,3.129c0,.236.008.471.008.709,0,.814-.233,1.132-.591,1.37-2.353,1.494-2.952,1.432-4.923-.493l-.285-.285a7.613,7.613,0,0,0-11.022-.052c-1.995,1.888-3.962,3.907-5.864,5.861l-.069.07a7.535,7.535,0,0,0-1.237,9.459,11.746,11.746,0,0,0,1.762,2.049c.227.224.454.45.7.707a1.758,1.758,0,0,1,.657,1.076,3.529,3.529,0,0,1-1.026,2.609,2.879,2.879,0,0,1-2.151.881c-4.28-.191-7.154,1.554-8.548,5.152a1.134,1.134,0,0,0-.107.094l-.295.293v.416c0,3.9,0,7.929.159,11.746l.023.552.348.2.005.025a2.859,2.859,0,0,0,.122.464,7.5,7.5,0,0,0,6.44,4.825,11.054,11.054,0,0,0,1.389.06c2.539,0,3.267.623,3.7,3.139a1.37,1.37,0,0,1-.506,1.217,27.026,27.026,0,0,0-2.076,2.242,7.283,7.283,0,0,0,.08,9.456,70.968,70.968,0,0,0,7.259,7.26,7.3,7.3,0,0,0,9.426.111,16.3,16.3,0,0,0,1.941-1.764l.312-.314a1.24,1.24,0,0,1,1.559-.364,15.972,15.972,0,0,0,1.753.735,1.44,1.44,0,0,1,1.071,1.614,14.366,14.366,0,0,0,0,2.2,7.545,7.545,0,0,0,5,6.918l.178.054.074.014.108.375h12.238l.145-.045a8.257,8.257,0,0,0,5.629-4.665,10.062,10.062,0,0,0,.557-4.6,1.716,1.716,0,0,1,1.322-1.989c.276-.109.537-.22.8-.329.241-.1.481-.2.749-.31a1.194,1.194,0,0,1,1.5.33,28.952,28.952,0,0,0,2.334,2.166,7.325,7.325,0,0,0,9.229.037,63.188,63.188,0,0,0,7.545-7.546,7.241,7.241,0,0,0-.028-9.344,21.15,21.15,0,0,0-1.727-1.845l-.38-.375a1.424,1.424,0,0,1-.317-1.667c.979-2.713.979-2.713,3.857-2.713l.851,0a7.427,7.427,0,0,0,7.161-7.238c.1-3.171.1-6.386,0-9.561a7.318,7.318,0,0,0-5.349-6.772m-10.416,19.962a12.732,12.732,0,0,0-2.677,6.61,7.1,7.1,0,0,0,2.046,5.691c.238.261.495.512.756.765a12.739,12.739,0,0,1,.908.947c.7.821.551,1.288.091,1.774-2.053,2.158-4.094,4.2-6.235,6.235a1.133,1.133,0,0,1-1.669-.084c-.353-.3-.694-.631-1.034-.959-.372-.358-.743-.714-1.142-1.056a7.072,7.072,0,0,0-6.926-1.454,19.426,19.426,0,0,0-3.852,1.619,7.378,7.378,0,0,0-3.826,7.023c.06,1.565-.077,2.493-.419,2.836-.385.389-1.506.385-2.828.343-.694-.018-1.391-.022-2.085-.022s-1.382,0-2.06.01-1.365.012-2.048.012c-1.346,0-1.7-.363-1.741-1.74v-2.057a8.216,8.216,0,0,0-.876-3.355c-1.393-3.167-8.014-5.867-11.234-4.591a11.312,11.312,0,0,0-4.148,2.969c-.635.634-.983.912-1.507.868l-.065,0-.065.005c-.238.01-.5-.154-.956-.607q-.948-.948-1.893-1.882c-1.259-1.247-2.51-2.486-3.747-3.758-.807-.807-.809-1.3-.041-2.183l.1-.106c5.518-4.9,3.521-8.9,1.759-12.425a7.283,7.283,0,0,0-6.483-4.031c-.269,0-.544.005-.82.011-.517.012-1.053.024-1.531-.009-1.235-.091-1.394-.783-1.394-1.393-.051-2.77-.051-5.577,0-8.332.031-.935.281-1.416,1.585-1.458.326-.018.659-.024.992-.029a15.5,15.5,0,0,0,2.152-.138,7.026,7.026,0,0,0,5.667-4.253l.117-.244c1.019-2.14,2.073-4.352,1.313-7.1a10.156,10.156,0,0,0-2.954-4.453c-1.472-1.432-1.471-1.64.01-3.163.564-.564,1.12-1.126,1.675-1.688,1.105-1.116,2.2-2.224,3.333-3.321a2.122,2.122,0,0,1,1.271-.774,2.092,2.092,0,0,1,1.255.76c1.246,1.3,2.8,2.911,5.181,3.349a9.566,9.566,0,0,0,7.87-2.078,9.274,9.274,0,0,0,3.379-7.131c0-.153,0-.307-.007-.46a5.091,5.091,0,0,1,.051-1.092c.155-1.137.854-1.137,1.136-1.137,2.927-.054,5.894-.054,8.839,0,.5,0,1.028.141,1.112,1.2.04.437.038.886.037,1.359a11.772,11.772,0,0,0,.131,2.2,7.38,7.38,0,0,0,4.124,5.58,29.688,29.688,0,0,0,3.077,1.263,7.394,7.394,0,0,0,7.32-1.372,15.031,15.031,0,0,0,1.394-1.293c.239-.241.477-.482.695-.684.854-.732,1.361-.548,1.876-.034,2.1,1.993,4.127,4.074,6.079,6.078.536.565.69,1.032-.015,1.854-.247.273-.507.52-.767.767-.294.28-.587.561-.861.863a7.525,7.525,0,0,0-1.613,8.179l.789,1.894a7.639,7.639,0,0,0,7.5,5.048c1.252.017,2.672.035,2.949.319s.282,1.731.282,3v6.169c0,1.192-.248,1.6-1.689,1.636-.216,0-.438-.006-.664-.011a15.509,15.509,0,0,0-1.552.013,7.178,7.178,0,0,0-5.431,2.71" transform="translate(-5199.1 -18252.297)" fill="#fff"/>
      <path id="Path_28295" data-name="Path 28295" d="M490.86,1001.588c-2.083-.053-4.084-.053-6.088,0a1.513,1.513,0,0,1-1.606-1.12q-.324-.789-.639-1.574c-.5-1.246-1.023-2.535-1.6-3.8a1.459,1.459,0,0,1,.372-1.96c.945-.91,1.89-1.866,2.835-2.822q.723-.733,1.455-1.466c3.376-3.438,3.376-7.878,0-11.313-2.936-2.99-5.8-5.857-8.765-8.764-3.435-3.379-7.876-3.377-11.319.006l-4.29,4.29a1.442,1.442,0,0,1-1.948.366,48.16,48.16,0,0,0-5.419-2.253,1.393,1.393,0,0,1-1.081-1.567c.052-2.062.052-4.155,0-6.206a7.657,7.657,0,0,0-7.959-7.946h-6.169c-2.185,0-4.444,0-6.569-.155l-.051,0h-.052a7.367,7.367,0,0,0-7.4,6.892c-.128,1.978-.12,3.947-.112,5.85l.005,1.479a1.337,1.337,0,0,1-1.064,1.545,45.075,45.075,0,0,0-5.068,2.1c-1.3.632-1.4.613-2.494-.439-.39-.39-.776-.784-1.163-1.176-1.173-1.193-2.386-2.427-3.686-3.565a7.181,7.181,0,0,0-9.654-.094,139.5,139.5,0,0,0-10.467,10.467,7.19,7.19,0,0,0,.007,9.4c1.912,2.121,3.981,4.171,5.981,6.152q.85.843,1.7,1.689a3.222,3.222,0,0,0,5.423-1.862,3.668,3.668,0,0,0-1.154-2.865c-1.093-1.121-2.2-2.227-3.307-3.335-1.081-1.08-2.162-2.161-3.238-3.263-.979-.979-.979-1.457,0-2.436l8.54-8.54c.9-.9,1.336-1,2.447.065.652.629,1.284,1.268,1.914,1.905.833.841,1.694,1.711,2.582,2.537a7.378,7.378,0,0,0,8.543,1.512c.832-.338,1.664-.69,2.5-1.041.854-.36,1.709-.721,2.552-1.063,3.786-1.479,5.427-3.819,5.486-7.838,0-.651-.006-1.308-.012-1.968-.011-1.291-.023-2.625.012-3.936,0-1.27.379-1.637,1.69-1.637H444.6c1.392,0,1.794.391,1.794,1.741v6.064a7.439,7.439,0,0,0,5.193,7.529c1.7.618,3.387,1.357,5.046,2.081a7.423,7.423,0,0,0,9.063-1.614c.715-.69,1.418-1.392,2.121-2.094s1.389-1.39,2.1-2.072c1.091-1.051,1.474-1.053,2.552-.013q1.444,1.446,2.888,2.876c1.878,1.866,3.747,3.725,5.6,5.612,1.06,1.06,1.058,1.442-.012,2.553-.628.651-1.267,1.282-1.9,1.911-.842.834-1.712,1.7-2.532,2.576a7.35,7.35,0,0,0-1.5,8.441c.77,1.8,1.566,3.654,2.292,5.519a7.478,7.478,0,0,0,7.366,5.074c.689,0,1.377-.006,2.065-.012,1.339-.012,2.724-.023,4.076.012,1.373.037,1.769.439,1.769,1.794v11.966c0,1.48-.323,1.808-1.794,1.847-.686,0-1.367-.006-2.044-.012-1.326-.011-2.7-.023-4.035.012a7.434,7.434,0,0,0-7.456,5.23c-.55,1.438-1.124,2.785-1.732,4.211l-.408.958a7.341,7.341,0,0,0,1.629,8.865l4.113,4.111c1.267,1.269,1.273,1.583.046,2.812-1.784,1.817-3.59,3.612-5.4,5.416q-1.378,1.368-2.759,2.748c-1.2,1.2-1.567,1.2-2.8.008-2.137-2.19-4.23-4.282-6.4-6.4-1.575-1.507-3.469-1.6-4.825-.248a3.02,3.02,0,0,0-.921,2.43,3.951,3.951,0,0,0,1.237,2.41c2.218,2.219,4.488,4.488,6.762,6.709a7.866,7.866,0,0,0,5.474,2.366,8.024,8.024,0,0,0,5.621-2.477c2.959-2.907,5.925-5.873,8.816-8.818,3.33-3.387,3.309-7.787-.045-11.2-1.441-1.493-2.922-2.974-4.411-4.41a1.419,1.419,0,0,1-.3-1.863c.914-2.011,1.609-3.693,2.2-5.305a1.568,1.568,0,0,1,1.822-1.226c1.97.052,3.885.054,5.839,0,5-.059,8.106-3.19,8.106-8.17v-12.073c0-4.87-3.162-8.056-8.04-8.117" transform="translate(-5199.1 -18252.297)" fill="#fff"/>
      <path id="Path_28296" data-name="Path 28296" d="M467.623,1010.488c-2.4-14.326-15.02-24.336-30.724-24.242a29.22,29.22,0,0,0-9.267,2.071,28.662,28.662,0,0,0-9.71,6.322,3.183,3.183,0,1,0,4.162,4.815,4.392,4.392,0,0,0,.786-.661,22.651,22.651,0,0,1,18.562-6.071,23.175,23.175,0,0,1,20,27.032,23.511,23.511,0,0,1-6.276,12.193,3.754,3.754,0,0,0-1.175,2.657,3.226,3.226,0,0,0,3.111,3.018h.1a3.887,3.887,0,0,0,2.682-1.4,29,29,0,0,0,7.741-25.732" transform="translate(-5199.1 -18252.297)" fill="#fff"/>
      <path id="Path_28297" data-name="Path 28297" d="M406.812,1025.495a20.682,20.682,0,0,0-20.66,21.138,20.431,20.431,0,0,0,6.2,14.51,20.225,20.225,0,0,0,14.212,5.846c.166,0,.332,0,.5-.006,12.156-.356,20.428-8.7,20.583-20.758v-.017a20.864,20.864,0,0,0-20.828-20.713m14.348,21.278a14.351,14.351,0,1,1-14.372-14.851h.176a14.266,14.266,0,0,1,10.2,4.319,14.51,14.51,0,0,1,4,10.531" transform="translate(-5199.1 -18252.297)" fill="#fff"/>
    </g>
  </g>
</svg>
