<svg xmlns="http://www.w3.org/2000/svg" xmlns:xlink="http://www.w3.org/1999/xlink" width="266" height="266" viewBox="0 0 266 266">
  <defs>
    <linearGradient id="linear-gradient" x1="0.5" x2="0.5" y2="1" gradientUnits="objectBoundingBox">
      <stop offset="0" stop-color="#bb0711"/>
      <stop offset="1" stop-color="#8c040a"/>
    </linearGradient>
  </defs>
  <g id="Group_21553" data-name="Group 21553" transform="translate(6556 17335)">
    <rect id="Rectangle_6380" data-name="Rectangle 6380" width="266" height="266" transform="translate(-6556 -17335)" fill="url(#linear-gradient)"/>
    <g id="Group_21538" data-name="Group 21538" transform="translate(-64 -8.332)">
      <path id="Path_28215" data-name="Path 28215" d="M685.6,709.621a5.927,5.927,0,0,1-2.8,2.6,9.615,9.615,0,0,1-4.7,1h-3.4v8.2h-5.5v-22.7h9a10.784,10.784,0,0,1,4.6.9,5.927,5.927,0,0,1,2.8,2.6,7.9,7.9,0,0,1,.9,3.8,7.4,7.4,0,0,1-.9,3.6m-5.5-1.5a3.156,3.156,0,0,0,0-4.2,3.286,3.286,0,0,0-2.4-.7h-3v5.7h3a4.029,4.029,0,0,0,2.4-.8" transform="translate(-7110.202 -17821.988)" fill="#fff"/>
      <path id="Path_28216" data-name="Path 28216" d="M700.9,721.421l-4.7-8.6h-1.3v8.6h-5.5v-22.7h9.3a10.785,10.785,0,0,1,4.6.9,5.927,5.927,0,0,1,2.8,2.6,7.4,7.4,0,0,1,.9,3.6,6.2,6.2,0,0,1-1.3,4,6.91,6.91,0,0,1-3.8,2.5l5.2,9h-6.2Zm-6-12.5h3.4a3.174,3.174,0,0,0,2.3-.7,2.865,2.865,0,0,0,.8-2.1,2.629,2.629,0,0,0-.8-2,3.174,3.174,0,0,0-2.3-.7h-3.4Z" transform="translate(-7110.202 -17821.988)" fill="#fff"/>
      <path id="Path_28217" data-name="Path 28217" d="M715.3,720.121a10.607,10.607,0,0,1-4.2-4.2,12.218,12.218,0,0,1-1.6-6,11.241,11.241,0,0,1,1.6-6,11.533,11.533,0,0,1,10.1-5.6,12.038,12.038,0,0,1,5.9,1.5,11.034,11.034,0,0,1,4.2,4.1,12.144,12.144,0,0,1,1.5,6,11.242,11.242,0,0,1-1.6,6,10.607,10.607,0,0,1-4.2,4.2,11.767,11.767,0,0,1-5.9,1.5,11.939,11.939,0,0,1-5.8-1.5m10.2-5.3a8,8,0,0,0,0-9.6,5.585,5.585,0,0,0-4.4-1.8,5.729,5.729,0,0,0-4.4,1.8,8,8,0,0,0,0,9.6,5.729,5.729,0,0,0,4.4,1.8,5.446,5.446,0,0,0,4.4-1.8" transform="translate(-7110.202 -17821.988)" fill="#fff"/>
      <path id="Path_28218" data-name="Path 28218" d="M752.3,709.621a5.927,5.927,0,0,1-2.8,2.6,9.615,9.615,0,0,1-4.7,1h-3.4v8.2h-5.5v-22.7h9a10.784,10.784,0,0,1,4.6.9,6.426,6.426,0,0,1,2.8,2.6,7.9,7.9,0,0,1,.9,3.8,7.4,7.4,0,0,1-.9,3.6m-5.5-1.5a3.156,3.156,0,0,0,0-4.2,3.286,3.286,0,0,0-2.4-.7h-3v5.7h3a3.794,3.794,0,0,0,2.4-.8" transform="translate(-7110.202 -17821.988)" fill="#fff"/>
      <path id="Path_28219" data-name="Path 28219" d="M761.6,703.121v4.6H769v4.3h-7.4v5H770v4.4H756.1v-22.7H770v4.4Z" transform="translate(-7110.202 -17821.988)" fill="#fff"/>
      <path id="Path_28220" data-name="Path 28220" d="M785.2,721.421l-4.7-8.6h-1.3v8.6h-5.5v-22.7H783a10.784,10.784,0,0,1,4.6.9,5.927,5.927,0,0,1,2.8,2.6,7.4,7.4,0,0,1,.9,3.6,6.2,6.2,0,0,1-1.3,4,6.91,6.91,0,0,1-3.8,2.5l5.2,9h-6.2Zm-6.1-12.5h3.4a3.174,3.174,0,0,0,2.3-.7,2.865,2.865,0,0,0,.8-2.1,2.629,2.629,0,0,0-.8-2,3.174,3.174,0,0,0-2.3-.7h-3.4Z" transform="translate(-7110.202 -17821.988)" fill="#fff"/>
      <path id="Path_28221" data-name="Path 28221" d="M811,698.721v4.4h-6v18.3h-5.5v-18.3h-6v-4.4Z" transform="translate(-7110.202 -17821.988)" fill="#fff"/>
      <path id="Path_28222" data-name="Path 28222" d="M833.3,698.721l-7.9,15.2v7.5h-5.5v-7.5l-7.9-15.2h6.3l4.4,9.5,4.4-9.5Z" transform="translate(-7110.202 -17821.988)" fill="#fff"/>
    </g>
    <g id="Group_21537" data-name="Group 21537" transform="translate(-65.391 7.986)">
      <path id="Path_28223" data-name="Path 28223" d="M798.341,575.072c-.643,9-2.39,17.823-6.983,25.817-.184.367-.458.827-.642,1.194-3.032,5.421-3.124,5.421,1.378,9.922,7.258,7.35,14.7,14.7,22.05,22.05a52.171,52.171,0,0,1,4.317,4.686c3.216,3.951,2.572,8.728-.919,12.311a8.978,8.978,0,0,1-12.4.276c-3.032-2.848-5.971-5.7-8.911-8.636-6.523-6.523-12.954-13.046-19.385-19.477-2.021-2.021-3.124-2.205-5.6-.643a51.23,51.23,0,0,1-20.4,7.809c-13.689,2.021-26.734,0-38.862-7.258a56.279,56.279,0,0,1-21.224-22.785c-2.664-5.237-4.868-10.841-5.328-16.9-.184-2.756-.735-5.421-.827-8.177a51.458,51.458,0,0,1,2.113-15.894,57.973,57.973,0,0,1,10.932-20.947,58.708,58.708,0,0,1,22.326-16.354,55.129,55.129,0,0,1,13.23-3.491,56.148,56.148,0,0,1,24.989,1.929q23.428,7.58,34.27,29.767a57.167,57.167,0,0,1,4.5,14.424c.735,3.4,1.746,6.8,1.378,10.382m-56.87,51.357c28.3-.367,51.633-23.06,51.541-51.817,0-14.608-5.513-27.011-15.987-37.3a51.365,51.365,0,0,0-72.488,1.1c-9.739,10.106-15.066,22.417-14.883,36.382.459,28.389,22.6,50.99,51.817,51.633m59.9,3.307a6.237,6.237,0,0,0-1.561.827,26.033,26.033,0,0,0-2.2,2.3c-1.378,1.562-1.47,2.481-.092,3.951,3.216,3.307,6.431,6.431,9.647,9.647a8.809,8.809,0,0,0,2.112,1.654,3.9,3.9,0,0,0,4.594-.735,3.945,3.945,0,0,0,1.1-4.594,7.3,7.3,0,0,0-1.929-2.572c-2.848-2.756-5.605-5.6-8.453-8.36a17.1,17.1,0,0,0-2.02-1.746,9.562,9.562,0,0,0-1.2-.367m-4.134-4.5c0-.184-.091-.276-.091-.459-1.194-1.929-2.664-3.951-4.777-4.594-1.929-.551-2.849,1.837-4.227,2.94a4.813,4.813,0,0,0-.919,1.011,1.638,1.638,0,0,0,.093,2.389c5.053,5.053,3.951,5.512,9.187.184a2.213,2.213,0,0,0,.551-.735c.184-.092.183-.368.183-.735m-14.791-4.226a5.426,5.426,0,0,0,1.286-.551c1.194-1.1,2.481-2.2,3.583-3.4.919-1.011.826-1.562-.185-2.664-.551-.551-1.01-1.1-1.561-1.562a1.747,1.747,0,0,0-2.482,0c-1.378,1.194-2.663,2.481-3.95,3.675a1.091,1.091,0,0,0,0,1.654,17.261,17.261,0,0,0,2.2,2.3c.184.276.735.368,1.1.551" transform="translate(-7110.202 -17821.988)" fill="#fff"/>
      <path id="Path_28224" data-name="Path 28224" d="M789.467,574.5c.459,12.954-3.951,23.428-11.76,32.523a38.348,38.348,0,0,1-11.668,9.371,75.841,75.841,0,0,1-8.269,3.859c-7.534,2.756-15.343,2.94-23.06,1.929a38.417,38.417,0,0,1-13.414-4.41,51.7,51.7,0,0,1-11.944-8.361,43.023,43.023,0,0,1-9-12.035c-2.021-4.134-3.859-8.36-4.41-12.954-1.011-8.452-1.286-16.813,1.654-24.9a47.357,47.357,0,0,1,74.51-21.039,42.248,42.248,0,0,1,10.29,11.484c4.594,7.809,7.717,15.986,7.074,24.53m-22.233,9.187c0,3.859,0,7.626.092,11.484,0,1.562.735,2.205,2.2,2.389,1.194.092,2.481-.092,3.675.092,4.226.735,6.523-1.47,7.9-5.053a13.009,13.009,0,0,1,.735-1.654,40.191,40.191,0,0,0,2.848-18.834,42.362,42.362,0,0,0-11.209-25.541,39.378,39.378,0,0,0-14.057-10.014c-4.41-1.837-11.484-3.859-15.894-3.859a43.576,43.576,0,0,0-26.46,8.544c-8.544,6.247-13.505,14.7-16.262,24.714-1.01,3.583-.643,7.258-.827,10.933-.368,6.156,1.654,11.76,4.042,17.18,1.01,2.389,2.848,3.951,5.7,3.583,1.47-.184,3.032,0,4.594-.092,2.389-.184,3.124-1.011,3.216-3.583V573.3c0-1.378-.276-2.389-1.837-2.664a8.668,8.668,0,0,1-.827-.276c-1.838-.919-2.113-2.664-.643-4.042A18.261,18.261,0,0,1,716.7,564.3c7.442-5.6,14.884-11.209,22.417-16.721,2.573-1.929,3.583-1.929,6.247-.276.551.368,1.011.735,1.47,1.1,6.982,5.237,13.965,10.382,20.947,15.619.827.643,1.654,1.378,2.48,2.113a3.51,3.51,0,0,1,1.194,2.848c0,1.194-1.1,1.286-1.929,1.562-1.562.459-2.113,1.47-2.113,3.124-.092,3.307-.184,6.707-.184,10.014M762,582.033V569.171a4.787,4.787,0,0,0-2.113-4.318c-1.745-1.194-3.4-2.572-5.145-3.859-3.4-2.573-6.8-5.145-10.29-7.717-1.838-1.378-2.021-1.929-4.777.092-1.378,1.011-2.573,2.113-3.951,3.124-3.4,2.572-6.891,5.053-10.382,7.534a7.325,7.325,0,0,0-3.307,6.615c.184,7.534.092,14.975.092,22.509a19.221,19.221,0,0,0,.092,2.3,2.189,2.189,0,0,0,2.021,2.113c3.675.459,4.41-.551,4.226-3.583v-2.3c0-4.41-.092-8.912,0-13.322.092-3.4,1.654-5.145,4.961-5.421a62.074,62.074,0,0,1,8.269,0c3.583.276,5.329,2.021,5.237,5.6-.092,3.951,0,7.993,0,11.944v4.594c.092,1.837.735,2.481,2.572,2.481q4.823.138,9.647,0c2.205,0,2.664-.551,2.756-2.756.184-4.226.092-8.544.092-12.771m-19.569,20.58H715.785c-1.194,0-2.481.092-3.675.184-.551,0-.919.919-.643,1.47a4.615,4.615,0,0,0,.735,1.1c5.053,4.961,10.841,8.912,17.732,10.841,2.2.643,4.5.735,6.8,1.194,5.512,1.194,10.933.276,16.354-.827,5.972-1.194,11.117-4.226,15.8-7.993,1.654-1.286,3.491-2.572,4.318-4.686.184-.551,0-1.011-.459-1.1a18.357,18.357,0,0,0-3.216-.184Zm-.092-15.159c0-1.562.092-3.032,0-4.594,0-4.686-.551-5.237-5.145-5.237h-.919c-2.113.092-2.756.643-2.848,2.756-.092,3.859,0,7.625,0,11.484,0,6.064-.368,6.064,6.615,5.7a2.085,2.085,0,0,0,2.2-2.389c.184-2.481.092-5.053.092-7.717" transform="translate(-7111.067 -17822.795)" fill="#fff"/>
    </g>
  </g>
</svg>
