<svg xmlns="http://www.w3.org/2000/svg" xmlns:xlink="http://www.w3.org/1999/xlink" width="266" height="266" viewBox="0 0 266 266">
  <defs>
    <linearGradient id="linear-gradient" x1="0.5" x2="0.5" y2="1" gradientUnits="objectBoundingBox">
      <stop offset="0" stop-color="#bb0711"/>
      <stop offset="1" stop-color="#8c040a"/>
    </linearGradient>
  </defs>
  <g id="Group_21560" data-name="Group 21560" transform="translate(4624 17335)">
    <rect id="Rectangle_6383" data-name="Rectangle 6383" width="266" height="266" transform="translate(-4624 -17335)" fill="url(#linear-gradient)"/>
    <g id="Group_21548" data-name="Group 21548" transform="translate(-26.963 -34.713)">
      <path id="Path_28300" data-name="Path 28300" d="M714,1145.586l-5.014-8.75h-1.278v8.75h-5.6v-23.171h9.57a10.324,10.324,0,0,1,4.653.951,6.56,6.56,0,0,1,2.851,2.606,7.459,7.459,0,0,1,.951,3.785,6.727,6.727,0,0,1-1.393,4.293,7.122,7.122,0,0,1-4.047,2.425l5.506,9.111ZM707.709,1133h3.474a3.5,3.5,0,0,0,2.458-.737,2.849,2.849,0,0,0,.787-2.18,2.89,2.89,0,0,0-.8-2.163,3.368,3.368,0,0,0-2.442-.786h-3.474Z" transform="translate(-5218.103 -18219.701)" fill="#fff"/>
      <path id="Path_28301" data-name="Path 28301" d="M728.552,1126.872v4.851h7.833v4.227h-7.833v5.146h8.816v4.49h-14.42v-23.171h14.42v4.457Z" transform="translate(-5218.103 -18219.701)" fill="#fff"/>
      <path id="Path_28302" data-name="Path 28302" d="M757.2,1122.415v4.457H750.9v18.714h-5.637v-18.714h-6.227v-4.457Z" transform="translate(-5218.103 -18219.701)" fill="#fff"/>
      <path id="Path_28303" data-name="Path 28303" d="M773.909,1141.358h-8.685l-1.442,4.227h-5.9l8.488-23.007h6.457l8.488,23.007h-5.965Zm-1.442-4.261-2.884-8.521-2.917,8.521Z" transform="translate(-5218.103 -18219.701)" fill="#fff"/>
      <rect id="Rectangle_6284" data-name="Rectangle 6284" width="5.604" height="23.171" transform="translate(-4434.623 -17097.287)" fill="#fff"/>
      <path id="Path_28304" data-name="Path 28304" d="M798.554,1141.293h7.472v4.293H792.95v-23.171h5.6Z" transform="translate(-5218.103 -18219.701)" fill="#fff"/>
    </g>
    <path id="Path_28305" data-name="Path 28305" d="M819.318,993.79v-.031H720c-.161-1.606-.379-3.092-.447-4.586-.358-7.966-4.7-11.555-10.475-12.974-4.82-1.185-9.568-2.663-14.348-4.011l-4.568-1.289a3.8,3.8,0,0,0-1.349-.249,3.839,3.839,0,0,0-1.172,7.494v.009c.24.087.476.189.722.259q9.948,2.823,19.9,5.637a4.274,4.274,0,0,1,3.394,4.018c.471,4.83.978,9.656,1.458,14.484q1.344,13.525,2.674,27.052c.987,9.914,2.047,19.821,2.961,29.741.669,7.244,5.449,11.787,12.69,11.812,1.091,0,2.183,0,3.363,0-1.384,5.586-.095,10.155,4.5,13.382a10.667,10.667,0,0,0,12.141.553c5.3-3.1,6.828-7.937,5.445-13.819h24.23c-.1.415-.167.7-.232.991a11.583,11.583,0,0,0,19.289,11.091,11.473,11.473,0,0,0,2.238-13.624c-2.342-4.406-6.141-6.333-11.087-6.324q-29.719.051-59.44.011a11.544,11.544,0,0,1-1.795-.088,4.2,4.2,0,0,1,.3-8.331c1.28-.121,2.563-.216,3.843-.334q16.328-1.5,32.654-3c11.183-1.022,22.372-2,33.55-3.07,6.95-.666,11.255-5.5,11.26-12.476q.009-16.5,0-33v-1.6h7.628v-.048a3.839,3.839,0,0,0,0-7.678m-27.242,77.389a3.84,3.84,0,0,1,3.911,3.779,3.856,3.856,0,1,1-7.711.112,3.845,3.845,0,0,1,3.8-3.891m-46.287,0a3.833,3.833,0,0,1,3.875,3.811,3.856,3.856,0,1,1-7.711.047,3.851,3.851,0,0,1,3.836-3.858m-11.638-24.45-8.758,1.338c-.755-7.6-1.526-15.36-2.307-23.218h11.065Zm.005-29.707c-3.807,0-7.525.01-11.242-.026a.9.9,0,0,1-.645-.584c-.519-4.892-1-9.789-1.49-14.777h13.377Zm54.193-15.365h15.583v15.267H788.349Zm-31.036,43.124-15.3,1.383v-21.3h15.3Zm0-27.856H741.99v-15.27h15.323Zm23.162,25.751-15.295,1.389v-19.208h15.295Zm.009-25.739h-15.31v-15.294h15.31Zm23.482,19.419a4.137,4.137,0,0,1-3.952,4.513c-3.859.407-7.728.731-11.673,1.1v-17.141h15.537c.029.323.086.65.086.978.007,3.517.014,7.035,0,10.552" transform="translate(-5252.064 -18254.668)" fill="#fff"/>
  </g>
</svg>
