<svg xmlns="http://www.w3.org/2000/svg" width="27.5" height="25" viewBox="0 0 27.5 25">
  <g id="Symbol" transform="translate(-379.087 -217.974)">
    <path id="Path_16" data-name="Path 16" d="M387.765,221.486a10.348,10.348,0,0,1,10.15,0,.9.9,0,0,0,1.277-.512,1.159,1.159,0,0,0-.448-1.452,12.046,12.046,0,0,0-11.815,0,1.154,1.154,0,0,0-.442,1.452A.9.9,0,0,0,387.765,221.486Zm16.01,1.419H381.9a2.835,2.835,0,0,0-2.818,2.835v14.395a2.833,2.833,0,0,0,2.818,2.839h21.87a2.833,2.833,0,0,0,2.812-2.839V225.74A2.834,2.834,0,0,0,403.775,222.9Zm-2.22,15.289H384.3a.819.819,0,0,1,0-1.637h17.256a.818.818,0,0,1,0,1.637Zm-18.067-5.336a.812.812,0,0,1,.811-.812h17.256a.818.818,0,0,1,0,1.637H384.3A.813.813,0,0,1,383.488,232.858Zm18.072-3.9H384.3a.818.818,0,0,1,0-1.635H401.56a.818.818,0,0,1,0,1.635Z" fill="#fff"/>
  </g>
</svg>
