<svg xmlns="http://www.w3.org/2000/svg" width="35.5" height="31.001" viewBox="0 0 35.5 31.001">
  <g id="Symbol" transform="translate(-375.201 -298.937)">
    <path id="Path_18" data-name="Path 18" d="M408.789,311.9a.911.911,0,0,1-1.281,0L397.7,302.06a.918.918,0,0,1,0-1.287l1.649-1.57a.9.9,0,0,1,1.281,0l9.811,9.838a.914.914,0,0,1,0,1.285Zm-4.164,6.892-8.924-8.927-2.361.837-.67,1.939a3.206,3.206,0,0,1-5.3,1.221,3.246,3.246,0,0,1-.764-3.334l1.027-2.961-7.24,7.261a.761.761,0,0,0,0,1.07l.7.7,1.323-1.326a5.094,5.094,0,0,1,6.1,3.846,6.284,6.284,0,0,0,3.841,2.918,2.269,2.269,0,0,1,0,3.2l-1.323,1.329,2.922,2.93a1.506,1.506,0,0,0,2.127-2.133l-2.333-2.341a.512.512,0,0,1,0-.724.506.506,0,0,1,.724,0l2.335,2.341a1.505,1.505,0,0,0,2.126-2.131l-2.336-2.343a.519.519,0,0,1,0-.727.509.509,0,0,1,.725,0l2.341,2.343a1.5,1.5,0,0,0,2.12-2.134l-2.334-2.342a.512.512,0,0,1,.724-.724l2.338,2.338a1.5,1.5,0,0,0,2.119-2.133Zm-17.167-17.345a.91.91,0,0,0-1.282,0l-10.711,10.747a.91.91,0,0,0,0,1.282l1.541,1.464a.907.907,0,0,0,1.282,0L389,304.2a.916.916,0,0,0,0-1.284Zm16.613,11.816-1.7,1.7-6.322-6.339-3.454,1.23-.848,2.455a2.077,2.077,0,0,1-3.924-1.366l1.176-3.4a2.066,2.066,0,0,1,1.266-1.278s4.361-2,5.335-2.447a2.278,2.278,0,0,1,2.679.4l5.788,5.8A2.305,2.305,0,0,1,404.071,313.261Zm-19.228,4.453-1.854,1.863a1.189,1.189,0,0,1-1.678-1.685l1.857-1.861a1.187,1.187,0,1,1,1.675,1.683Zm2.251,2.252-1.856,1.862a1.186,1.186,0,1,1-1.675-1.68l1.853-1.86a1.187,1.187,0,1,1,1.678,1.678Zm4.5,2.832a1.19,1.19,0,0,1,0,1.68l-1.858,1.862a1.186,1.186,0,1,1-1.675-1.679l1.855-1.863A1.182,1.182,0,0,1,391.593,322.8Zm-2.247-.574-1.859,1.862a1.187,1.187,0,1,1-1.676-1.681l1.855-1.864a1.189,1.189,0,0,1,1.68,1.683Z" fill="#fff"/>
  </g>
</svg>
