<svg xmlns="http://www.w3.org/2000/svg" width="19.001" height="19.002" viewBox="0 0 19.001 19.002">
  <g id="Group_16378" data-name="Group 16378" transform="translate(1559.464 1075.16)">
    <path id="Path_23372" data-name="Path 23372" d="M-1544.715-1056.159h-5.243a9.479,9.479,0,0,1-6.5-2.57,9.46,9.46,0,0,1-2.985-6.317,9.463,9.463,0,0,1,2.147-6.648,9.478,9.478,0,0,1,6.116-3.384,9.407,9.407,0,0,1,3.866.29,9.429,9.429,0,0,1,3.425,1.814,9.5,9.5,0,0,1,2.406,3.007h0a9.48,9.48,0,0,1,1.02,3.711v5.847a4.23,4.23,0,0,1-1.247,3A4.239,4.239,0,0,1-1544.715-1056.159Zm-5.219-18a8.406,8.406,0,0,0-1.117.074,8.481,8.481,0,0,0-5.474,3.028,8.47,8.47,0,0,0-1.921,5.948,8.467,8.467,0,0,0,2.671,5.652,8.484,8.484,0,0,0,5.817,2.3h5.242a3.244,3.244,0,0,0,2.3-.953,3.238,3.238,0,0,0,.954-2.3v-5.766a8.467,8.467,0,0,0-.912-3.337h0a8.5,8.5,0,0,0-2.154-2.691,8.4,8.4,0,0,0-3.064-1.623A8.411,8.411,0,0,0-1549.934-1074.16Z" fill="#d2b353"/>
    <g id="Group_16377" data-name="Group 16377">
      <rect id="Rectangle_4886" data-name="Rectangle 4886" width="6.099" height="1.676" rx="0.838" transform="translate(-1555.157 -1069.583)" fill="#d2b353"/>
      <rect id="Rectangle_4887" data-name="Rectangle 4887" width="10.388" height="1.676" rx="0.838" transform="translate(-1555.157 -1066.016)" fill="#d2b353"/>
      <rect id="Rectangle_4888" data-name="Rectangle 4888" width="10.388" height="1.676" rx="0.838" transform="translate(-1555.157 -1062.448)" fill="#d2b353"/>
    </g>
  </g>
</svg>
