<svg xmlns="http://www.w3.org/2000/svg" xmlns:xlink="http://www.w3.org/1999/xlink" width="41" height="41" viewBox="0 0 41 41">
  <defs>
    <clipPath id="clip-path">
      <rect id="Rectangle_6356" data-name="Rectangle 6356" width="10.847" height="21.365" fill="none"/>
    </clipPath>
  </defs>
  <g id="Group_21383" data-name="Group 21383" transform="translate(0.752 0.5)">
    <circle id="Ellipse_471" data-name="Ellipse 471" cx="20" cy="20" r="20" transform="translate(-0.252)" fill="none" stroke="#fff" stroke-width="1"/>
    <g id="Group_21393" data-name="Group 21393" transform="translate(15.162 8.748)">
      <g id="Group_21392" data-name="Group 21392" clip-path="url(#clip-path)">
        <path id="Path_28458" data-name="Path 28458" d="M7.026,5.7V7.846H10.71l-.485,3.766h-3.2v9.753H3.185V11.612H0V7.846H3.185v-2.9a5.44,5.44,0,0,1,.7-2.782A4.335,4.335,0,0,1,8,0a23.4,23.4,0,0,1,2.843.164V3.534h-1.7c-1,0-1.62.226-1.859.677a1.43,1.43,0,0,0-.164.369,3.92,3.92,0,0,0-.1,1.121" transform="translate(0 0)" fill="#fff"/>
      </g>
    </g>
  </g>
</svg>
