<svg xmlns="http://www.w3.org/2000/svg" xmlns:xlink="http://www.w3.org/1999/xlink" width="13" height="13" viewBox="0 0 13 13">
  <defs>
    <filter id="Path_27958" x="0" y="0" width="13" height="13" filterUnits="userSpaceOnUse">
      <feOffset dy="1" input="SourceAlpha"/>
      <feGaussianBlur stdDeviation="0.5" result="blur"/>
      <feFlood flood-opacity="0.302"/>
      <feComposite operator="in" in2="blur"/>
      <feComposite in="SourceGraphic"/>
    </filter>
  </defs>
  <g transform="matrix(1, 0, 0, 1, 0, 0)" filter="url(#Path_27958)">
    <path id="Path_27958-2" data-name="Path 27958" d="M8.771,0H1.229A1.229,1.229,0,0,0,0,1.229V8.771A1.229,1.229,0,0,0,1.229,10H8.771A1.229,1.229,0,0,0,10,8.771V1.229A1.229,1.229,0,0,0,8.771,0M6.644,5H5.62V8.447H4.242V5H3.552V3.621h.684V3A1.345,1.345,0,0,1,5.687,1.553l1.065,0V2.738H5.978a.292.292,0,0,0-.3.331v.551h1.1Z" transform="translate(1.5 0.5)" fill="#fff"/>
  </g>
</svg>
