<svg id="Group_20656" data-name="Group 20656" xmlns="http://www.w3.org/2000/svg" xmlns:xlink="http://www.w3.org/1999/xlink" width="20.981" height="18.787" viewBox="0 0 20.981 18.787">
  <defs>
    <clipPath id="clip-path">
      <rect id="Rectangle_6264" data-name="Rectangle 6264" width="20.981" height="18.787" transform="translate(0 0)" fill="#bf2d30"/>
    </clipPath>
  </defs>
  <g id="Group_20655" data-name="Group 20655" clip-path="url(#clip-path)">
    <path id="Path_27991" data-name="Path 27991" d="M19.346,2.013A6.177,6.177,0,0,0,15.053,0h-.031a5.841,5.841,0,0,0-4.528,2.276A5.834,5.834,0,0,0,5.924,0,6.229,6.229,0,0,0,0,6.469c0,4.018,4.06,8.306,7.465,11.2a4.636,4.636,0,0,0,6.04,0c3.406-2.89,7.465-7.176,7.465-11.173a6.22,6.22,0,0,0-1.629-4.482" fill="#bf2d30"/>
  </g>
</svg>
