<svg xmlns="http://www.w3.org/2000/svg" width="20.98" height="18.781" viewBox="0 0 20.98 18.781">
  <path id="Path_23374" data-name="Path 23374" d="M-1522.413-1073.183a6.178,6.178,0,0,0-4.293-2.013h-.031a5.858,5.858,0,0,0-2.928.845,5.9,5.9,0,0,0-1.6,1.431,5.872,5.872,0,0,0-1.6-1.431,5.859,5.859,0,0,0-2.97-.844,6.175,6.175,0,0,0-4.287,2.013,6.211,6.211,0,0,0-1.632,4.455c0,4.018,4.06,8.306,7.465,11.2a4.648,4.648,0,0,0,3.018,1.118,4.645,4.645,0,0,0,3.022-1.119c3.406-2.89,7.465-7.176,7.465-11.173A6.223,6.223,0,0,0-1522.413-1073.183Zm.464,4.458c0,3.568-3.837,7.573-7.056,10.306a3.458,3.458,0,0,1-4.525,0c-3.219-2.731-7.056-6.74-7.056-10.329a5.074,5.074,0,0,1,1.33-3.648,5,5,0,0,1,3.449-1.633l.036,0a4.684,4.684,0,0,1,2.305.68,4.768,4.768,0,0,1,1.691,1.777l.51.94.51-.939a4.729,4.729,0,0,1,1.695-1.776,4.67,4.67,0,0,1,2.318-.677,5.008,5.008,0,0,1,3.464,1.633A5.085,5.085,0,0,1-1521.949-1068.725Z" transform="translate(1541.756 1075.195)" fill="#d2b353"/>
</svg>
