<svg xmlns="http://www.w3.org/2000/svg" xmlns:xlink="http://www.w3.org/1999/xlink" width="302.215" height="120.221" viewBox="0 0 302.215 120.221">
  <defs>
    <radialGradient id="radial-gradient" cx="0.41" cy="0.641" r="2.034" gradientTransform="matrix(0.553, 0, 0, -1, -1.059, 14.144)" gradientUnits="objectBoundingBox">
      <stop offset="0" stop-color="#ba071b"/>
      <stop offset="0.278" stop-color="#900c18"/>
      <stop offset="1" stop-color="#6b0911"/>
    </radialGradient>
    <linearGradient id="linear-gradient" x1="-1.372" y1="15.796" x2="-0.733" y2="17.482" gradientUnits="objectBoundingBox">
      <stop offset="0" stop-color="#bf061c"/>
      <stop offset="0.42" stop-color="#f47e61"/>
      <stop offset="0.761" stop-color="#a20c1a"/>
      <stop offset="0.988" stop-color="#f37f64"/>
      <stop offset="1" stop-color="#fff"/>
    </linearGradient>
  </defs>
  <g id="Group_16161" data-name="Group 16161" transform="translate(128.437 296.662)">
    <path id="Path_23350" data-name="Path 23350" d="M-20.923-195.907l19.1,31.948H19.768L-9.266-208.752,14.8-236.815l-19.968-1.727-5.5,5.5L-30.637-208.32l-.432,22.235Zm-69.4-26.876c-14.571,5.4-14.895,35.727-3.13,43.5,13.708,9.066,24.825-3.454,26.012-17.161.54-7.124-.863-17.486-6.476-22.991A16.043,16.043,0,0,0-90.324-222.784Zm40.8-13.492h14.571l.216,44.577c.216,24.285-12.089,33.46-35.4,25.041,0,0-13.816,5.72-26.012,1.187-20.292-7.663-25.149-39.936-12.952-57.961,8.743-12.844,23.314-15.435,35.51-10.793,7.016,2.806,16.838,9.5,19.428,26.444A47.083,47.083,0,0,1-59.131-176.8s9.606,2.7,9.606-9.606Z" transform="translate(-3.25 -14.857)" fill-rule="evenodd" fill="url(#radial-gradient)"/>
    <path id="Path_23351" data-name="Path 23351" d="M-85.3-273.025c-13.492,3.994-23.422,17.809-23.422,17.809a48.06,48.06,0,0,1,6.692,22.126c27.847-25.688,47.383-25.149,83.217-15.974,30.437,7.771,46.951,2.159,57.313-9.066,0,0-22.774,11.981-37.993,5.72,0,0-.216-.108-.756-.324-8.419.863-22.342-7.447-22.342-7.447C-40.611-270.111-67.378-278.206-85.3-273.025Z" transform="translate(-5.041 -5.63)" fill="#cecece" fill-rule="evenodd"/>
    <path id="Path_23352" data-name="Path 23352" d="M-113.758-262.25s9.93-13.815,23.422-17.7c17.917-5.289,44.685,2.806,62.71,12.844,0,0,13.923,8.31,22.342,7.34a93.835,93.835,0,0,1-24.393-15.111c-12.412-10.793-36.482-25.473-63.573-20.94s-35.186,15.543-35.186,15.543A67.767,67.767,0,0,1-113.758-262.25Z" fill-rule="evenodd" fill="url(#linear-gradient)"/>
    <path id="Path_23353" data-name="Path 23353" d="M-85.3-274.784c-13.492,3.886-23.422,17.7-23.422,17.7a48.5,48.5,0,0,1,6.692,22.234c27.847-25.8,47.383-25.257,83.217-16.082,30.437,7.771,46.951,2.267,57.313-8.958,0,0-22.774,11.873-37.993,5.613,0,0-.216-.108-.756-.324-8.419.971-22.342-7.34-22.342-7.34C-40.611-271.978-67.378-280.073-85.3-274.784Z" transform="translate(-5.041 -5.166)" fill="#fff" fill-rule="evenodd"/>
    <path id="Path_23354" data-name="Path 23354" d="M82.973-237.382h2.7V-161.4h-2.7Z" transform="translate(-54.042 -15.154)" fill="#6b0911" fill-rule="evenodd"/>
    <path id="Path_23355" data-name="Path 23355" d="M82.936-237.526H85.85v76.2H82.828v-76.2Zm2.59.216H83.044v75.662h2.482Z" transform="translate(-54.005 -15.117)" fill="#6b0911"/>
    <g id="Group_16162" data-name="Group 16162" transform="translate(44.257 -251.132)">
      <path id="Path_23356" data-name="Path 23356" d="M105.448-150.305v-18.457h3.13v8.419h.108l6.476-8.419h3.994l-7.232,9.174,7.771,9.282h-4.1l-6.908-8.311h-.108v8.311Zm18.565-2.806h8.527v2.806H120.883v-18.457h11.225v2.806h-8.1v4.857h6.908v2.806h-6.908Zm17.7,3.13a8.467,8.467,0,0,1-2.375-.216,8.1,8.1,0,0,1-1.943-.863,5.283,5.283,0,0,1-1.4-1.3,8.606,8.606,0,0,1-.863-1.727,4.525,4.525,0,0,1-.432-1.727,12.4,12.4,0,0,1-.108-2.051v-10.9h3.13v10.578a7.457,7.457,0,0,0,.432,3.022,3.514,3.514,0,0,0,1.4,1.835,5.017,5.017,0,0,0,2.267.54,4.251,4.251,0,0,0,2.159-.54,3.684,3.684,0,0,0,1.511-1.835,10.007,10.007,0,0,0,.432-3.022v-10.578h3.13v10.9a12.4,12.4,0,0,1-.108,2.051,8.086,8.086,0,0,1-.432,1.727,5.474,5.474,0,0,1-.971,1.727,4.042,4.042,0,0,1-1.4,1.3,8.1,8.1,0,0,1-1.943.863A8.867,8.867,0,0,1,141.714-149.982Zm19.968-4.965h-6.476l-1.727,4.641h-3.346l6.908-18.457h2.806l6.908,18.457h-3.346Zm-3.238-9.39-1.619,4.857-.648,1.619h4.533l-.54-1.619C159.631-160.775,159.091-162.394,158.444-164.337Zm18.457,4.209a47.327,47.327,0,0,1,3.022,4.965h.108c-.108-2.375-.216-4.1-.216-5.181v-8.419h3.238v18.457h-3.346l-5.613-8.527c-.971-1.4-2.051-3.13-3.13-5.073.108,2.267.108,3.994.108,5.289v8.311h-3.13v-18.457h3.346Zm19.644,2.806h-3.778v-2.914h7.016v9.39l-.971.324c-.432.108-.863.216-1.4.324a8.467,8.467,0,0,0-1.511.216h-1.511a11.683,11.683,0,0,1-4.1-.648,7.924,7.924,0,0,1-2.914-1.835,9.916,9.916,0,0,1-1.727-2.914,13.878,13.878,0,0,1-.54-3.778,11.526,11.526,0,0,1,.324-2.7,7.733,7.733,0,0,1,.863-2.375,13.745,13.745,0,0,1,1.4-2.051,8.574,8.574,0,0,1,1.943-1.511,9.162,9.162,0,0,1,2.375-.971,11.137,11.137,0,0,1,2.806-.324,16.711,16.711,0,0,1,2.375.108,11.472,11.472,0,0,1,1.943.54v2.806a11.465,11.465,0,0,0-2.051-.432,11.954,11.954,0,0,0-2.051-.216,6.88,6.88,0,0,0-2.59.432,5.751,5.751,0,0,0-2.159,1.4,6.236,6.236,0,0,0-1.4,2.159,8.241,8.241,0,0,0-.54,2.914,6.875,6.875,0,0,0,1.619,4.965,6.128,6.128,0,0,0,4.533,1.619,3.672,3.672,0,0,0,1.079-.108c.432,0,.756-.108.971-.108Zm15.758,2.375h-6.584l-1.619,4.641h-3.454l6.908-18.457h2.914l6.8,18.457h-3.346Zm-3.346-9.39-1.619,4.857-.648,1.619h4.533l-.54-1.619a42.359,42.359,0,0,1-1.619-4.857Zm18.457,4.209a47.329,47.329,0,0,1,3.022,4.965h.108c-.108-2.375-.108-4.1-.108-5.181v-8.419h3.13v18.457H230.22l-5.613-8.527a41.984,41.984,0,0,1-3.022-5.073h-.108c.108,2.267.108,3.994.108,5.289v8.311h-3.13v-18.457H221.8Z" transform="translate(-104.045 218.52)" fill="#708088"/>
      <path id="Path_23357" data-name="Path 23357" d="M108.42-202.113h3.13V-188.4a6.637,6.637,0,0,1-.108,1.511,3.866,3.866,0,0,1-.432,1.187,3.876,3.876,0,0,1-.756,1.079,6.552,6.552,0,0,1-1.079.756,5.344,5.344,0,0,1-1.4.432,6.154,6.154,0,0,1-1.4.108,8.169,8.169,0,0,1-1.619-.108c-.432-.108-.863-.216-1.187-.324v-2.914a3.866,3.866,0,0,0,1.187.432c.432,0,.863.108,1.3.108a1.986,1.986,0,0,0,1.727-.648,2.125,2.125,0,0,0,.648-1.727ZM124.178-188.3H117.7l-1.727,4.641h-3.346l6.908-18.457h2.806l6.908,18.457h-3.346Zm-3.238-9.39-1.619,4.857-.648,1.619h4.533l-.54-1.619C122.128-194.125,121.588-195.744,120.94-197.687Zm17.917,8.743a2.176,2.176,0,0,0-.324-1.187,2.98,2.98,0,0,0-.863-.648,3.866,3.866,0,0,0-1.187-.432c-.432-.108-.971-.216-1.511-.324-.648-.216-1.3-.432-1.835-.648a3.892,3.892,0,0,1-1.619-.863,4.844,4.844,0,0,1-1.187-1.4,7.176,7.176,0,0,1-.324-2.267,6.535,6.535,0,0,1,.432-2.591,5.2,5.2,0,0,1,1.3-1.727,4.317,4.317,0,0,1,1.943-1.079,8.653,8.653,0,0,1,2.482-.324,12.309,12.309,0,0,1,2.806.216,12.3,12.3,0,0,1,2.375.756v2.914a24.281,24.281,0,0,0-2.59-.863,19.772,19.772,0,0,0-2.267-.216,4.232,4.232,0,0,0-2.482.648,2.03,2.03,0,0,0-.863,1.836,1.611,1.611,0,0,0,.324,1.079,1.7,1.7,0,0,0,.756.756,3.377,3.377,0,0,0,1.079.54l1.3.324a15.777,15.777,0,0,1,2.159.54,5.474,5.474,0,0,1,1.727.971,2.792,2.792,0,0,1,1.187,1.511,4.918,4.918,0,0,1,.432,2.375,6.531,6.531,0,0,1-.432,2.59,4.62,4.62,0,0,1-1.511,1.727,5.525,5.525,0,0,1-2.267,1.079,13.653,13.653,0,0,1-3.022.324,11.39,11.39,0,0,1-2.7-.216,7.654,7.654,0,0,1-2.267-.863v-2.914a7.58,7.58,0,0,0,2.482.863,9.2,9.2,0,0,0,2.482.324,7.126,7.126,0,0,0,1.511-.108,6.084,6.084,0,0,0,1.3-.432,3.284,3.284,0,0,0,.863-.863A2.988,2.988,0,0,0,138.857-188.945Zm15.435.648h-6.584l-1.619,4.641h-3.346l6.8-18.457h2.914l6.8,18.457h-3.238Zm-3.346-9.39a42.354,42.354,0,0,1-1.619,4.857l-.54,1.619h4.533l-.648-1.619-1.619-4.857Z" transform="translate(-103.563 227.045)" fill="#708088"/>
      <path id="Path_23358" data-name="Path 23358" d="M118.033-225.89a11.821,11.821,0,0,0-.432-2.914,6.753,6.753,0,0,0-1.079-2.159,3.529,3.529,0,0,0-1.619-1.187,4.38,4.38,0,0,0-2.051-.432,4.38,4.38,0,0,0-2.051.432,3.529,3.529,0,0,0-1.619,1.187A6.752,6.752,0,0,0,108.1-228.8a8.271,8.271,0,0,0-.432,2.914,8.511,8.511,0,0,0,.432,3.022,5.282,5.282,0,0,0,1.079,2.051,4.779,4.779,0,0,0,1.619,1.3,4.38,4.38,0,0,0,2.051.432,4.38,4.38,0,0,0,2.051-.432,4.779,4.779,0,0,0,1.619-1.3,5.283,5.283,0,0,0,1.079-2.051A11.96,11.96,0,0,0,118.033-225.89Zm3.238,0a14.69,14.69,0,0,1-.54,3.886A8.229,8.229,0,0,1,119-218.982a7.064,7.064,0,0,1-2.59,2.051,9.507,9.507,0,0,1-3.562.648,9.507,9.507,0,0,1-3.562-.648,8.523,8.523,0,0,1-2.7-2.051A9.978,9.978,0,0,1,104.973-222a14.689,14.689,0,0,1-.54-3.886,14.689,14.689,0,0,1,.54-3.886,13.459,13.459,0,0,1,1.619-3.022,6.931,6.931,0,0,1,2.7-1.943,9.542,9.542,0,0,1,3.562-.756,9.542,9.542,0,0,1,3.562.756A5.893,5.893,0,0,1,119-232.8a10.475,10.475,0,0,1,1.727,3.022A14.69,14.69,0,0,1,121.271-225.89Zm8.527,9.282h-3.238v-15.65h-5.5v-2.806H135.3v2.806h-5.5Zm18.781-9.282a12.038,12.038,0,0,0-.324-2.914,10.072,10.072,0,0,0-1.079-2.159,3.529,3.529,0,0,0-1.619-1.187,4.38,4.38,0,0,0-2.051-.432,4.109,4.109,0,0,0-2.051.432,3.529,3.529,0,0,0-1.619,1.187,5.1,5.1,0,0,0-1.079,2.159,8.271,8.271,0,0,0-.432,2.914,8.511,8.511,0,0,0,.432,3.022,4.168,4.168,0,0,0,1.079,2.051,4.779,4.779,0,0,0,1.619,1.3,4.109,4.109,0,0,0,2.051.432,4.38,4.38,0,0,0,2.051-.432,4.779,4.779,0,0,0,1.619-1.3,7.272,7.272,0,0,0,1.079-2.051A12.341,12.341,0,0,0,148.578-225.89Zm3.346,0a14.689,14.689,0,0,1-.54,3.886,8.229,8.229,0,0,1-1.727,3.022,7.064,7.064,0,0,1-2.59,2.051,9.507,9.507,0,0,1-3.562.648,8.752,8.752,0,0,1-3.562-.648,8.523,8.523,0,0,1-2.7-2.051A8.08,8.08,0,0,1,135.626-222a14.689,14.689,0,0,1-.54-3.886,14.689,14.689,0,0,1,.54-3.886,10.187,10.187,0,0,1,1.619-3.022,6.931,6.931,0,0,1,2.7-1.943,8.688,8.688,0,0,1,3.562-.756,9.542,9.542,0,0,1,3.562.756,5.893,5.893,0,0,1,2.59,1.943,10.475,10.475,0,0,1,1.727,3.022A14.689,14.689,0,0,1,151.924-225.89Zm14.787-3.67a5.811,5.811,0,0,1-.971,3.346,6.015,6.015,0,0,1-3.13,1.943v.108l5.181,7.555h-3.778l-4.749-7.124H157.1v7.124h-3.13v-18.457h5.181a17.509,17.509,0,0,1,2.482.108,8.37,8.37,0,0,1,1.943.54,4.781,4.781,0,0,1,2.267,1.835A4.568,4.568,0,0,1,166.711-229.56Zm-7.987,3.022c.648,0,1.3-.108,1.835-.108.432-.108.863-.216,1.187-.324a3.721,3.721,0,0,0,1.4-1.079,3.447,3.447,0,0,0,.324-1.511,2.988,2.988,0,0,0-.324-1.4,1.572,1.572,0,0,0-.971-.863c-.324-.108-.648-.216-1.079-.324a8.192,8.192,0,0,0-1.727-.108H157.1v5.721Zm10.578,9.93v-18.457h3.13v18.457Zm13.06,0h-3.13v-15.65h-5.613v-2.806h14.355v2.806h-5.613Zm15.219-4.641H191l-1.619,4.641h-3.346l6.8-18.457h2.914l6.8,18.457H199.2Zm-3.346-9.39a42.352,42.352,0,0,1-1.619,4.857l-.54,1.619H196.5l-.54-1.619-1.619-4.857Zm18.025,8.743a2.176,2.176,0,0,0-.324-1.187,2.6,2.6,0,0,0-.863-.648,6.084,6.084,0,0,0-1.3-.432c-.432-.108-.863-.324-1.4-.432a13.051,13.051,0,0,1-1.943-.54,5.719,5.719,0,0,1-1.619-.863,3.872,3.872,0,0,1-1.079-1.511,4.281,4.281,0,0,1-.432-2.159,6.522,6.522,0,0,1,.54-2.59,4.07,4.07,0,0,1,1.3-1.727,4.585,4.585,0,0,1,1.835-1.079,9.2,9.2,0,0,1,2.482-.432,11.764,11.764,0,0,1,2.806.324,10.264,10.264,0,0,1,2.375.756v2.914a13.67,13.67,0,0,0-2.482-.863,19.38,19.38,0,0,0-2.375-.216,3.668,3.668,0,0,0-2.375.648,2.028,2.028,0,0,0-.863,1.835,1.823,1.823,0,0,0,.324,1.079c.108.324.432.54.648.756a3.99,3.99,0,0,0,1.187.54,11.207,11.207,0,0,0,1.3.324,11.383,11.383,0,0,1,2.051.54,6.453,6.453,0,0,1,1.727.863,4.779,4.779,0,0,1,1.3,1.619A4.918,4.918,0,0,1,215.5-222a6.521,6.521,0,0,1-.54,2.59,5.491,5.491,0,0,1-1.4,1.727,5.358,5.358,0,0,1-2.375,1.079,12.037,12.037,0,0,1-2.914.324,24.559,24.559,0,0,1-2.806-.216,11.041,11.041,0,0,1-2.267-.863v-2.914a8.537,8.537,0,0,0,2.482.863,9.8,9.8,0,0,0,2.482.324c.54,0,1.079-.108,1.511-.108a3.6,3.6,0,0,0,1.3-.54,2.457,2.457,0,0,0,.971-.863A2.3,2.3,0,0,0,212.259-221.9Z" transform="translate(-103.785 235.496)" fill="#708088"/>
    </g>
  </g>
</svg>
