<svg xmlns="http://www.w3.org/2000/svg" xmlns:xlink="http://www.w3.org/1999/xlink" width="13" height="13" viewBox="0 0 13 13">
  <defs>
    <filter id="Path_27975" x="0" y="0" width="13" height="13" filterUnits="userSpaceOnUse">
      <feOffset dy="1" input="SourceAlpha"/>
      <feGaussianBlur stdDeviation="0.5" result="blur"/>
      <feFlood flood-opacity="0.302"/>
      <feComposite operator="in" in2="blur"/>
      <feComposite in="SourceGraphic"/>
    </filter>
  </defs>
  <g transform="matrix(1, 0, 0, 1, 0, 0)" filter="url(#Path_27975)">
    <path id="Path_27975-2" data-name="Path 27975" d="M8.972,0H1.028A1.029,1.029,0,0,0,0,1.029V8.973A1.028,1.028,0,0,0,1.028,10H8.972A1.027,1.027,0,0,0,10,8.973V1.029A1.029,1.029,0,0,0,8.972,0M8.2,6.474c0,.408,0,.816,0,1.224a.341.341,0,0,1-.312.367.275.275,0,0,1-.064,0A5.808,5.808,0,0,1,2.19,3.437a5.494,5.494,0,0,1-.117-1.13.343.343,0,0,1,.313-.37.291.291,0,0,1,.059,0c.2,0,.4,0,.6,0s.405,0,.607,0a.337.337,0,0,1,.362.311.248.248,0,0,1,0,.047,3.874,3.874,0,0,0,.366,1.615.345.345,0,0,1-.111.475.306.306,0,0,1-.071.033c-.134.067-.267.132-.4.194-.05.023-.06.042-.028.091A4.834,4.834,0,0,0,5.44,6.377c.045.027.064.023.086-.025q.1-.212.2-.421a.339.339,0,0,1,.436-.2.275.275,0,0,1,.049.023,3.935,3.935,0,0,0,1.645.373A.331.331,0,0,1,8.2,6.45v.024" transform="translate(1.5 0.5)" fill="#fff"/>
  </g>
</svg>
