<svg xmlns="http://www.w3.org/2000/svg" width="16.895" height="18.016" viewBox="0 0 16.895 18.016">
  <path id="Path_25911" data-name="Path 25911" d="M791.07,1942.106a3.312,3.312,0,0,0-4.624-.725c-.21.169-.414.348-.607.536q-2.237-1.148-4.489-2.294a3.125,3.125,0,0,0-.088-1.8c1.574-.942,3.147-1.889,4.745-2.861a3.2,3.2,0,0,0,2.969.975,3.327,3.327,0,0,0,2.526-2.106,3.313,3.313,0,0,0-1.95-4.262,4.979,4.979,0,0,0-.524-.149l-.231-.058-.746-.009-.079.014a.632.632,0,0,1-.087.025,3.356,3.356,0,0,0-2.8,3.123,3.558,3.558,0,0,0,.155,1.168l-4.743,2.855a3.32,3.32,0,0,0-4.73,4.661,3.157,3.157,0,0,0,2.14.986,3.323,3.323,0,0,0,2.8-1.213l4.473,2.29a3.294,3.294,0,0,0,2.073,3.9,4.655,4.655,0,0,0,.518.146c.075.018.149.035.222.055l.77.008.1-.023c.054-.013.108-.026.163-.036a3.321,3.321,0,0,0,2.043-5.205Zm-.848,1.952a1.822,1.822,0,0,1-1.824,1.818h0a1.824,1.824,0,0,1,.005-3.647h0A1.826,1.826,0,0,1,790.222,1944.059Zm-3.648-11.375a1.819,1.819,0,0,1,1.814-1.826h.007a1.819,1.819,0,0,1,1.819,1.813,1.842,1.842,0,0,1-1.824,1.827A1.823,1.823,0,0,1,786.574,1932.683Zm-6.617,6.192a1.823,1.823,0,0,1-1.821,1.826,1.824,1.824,0,1,1-.006-3.648h0a1.824,1.824,0,0,1,1.824,1.822Z" transform="translate(-774.818 -1929.355)" fill="#d2b353"/>
</svg>
