<svg xmlns="http://www.w3.org/2000/svg" width="41" height="41" viewBox="0 0 41 41">
  <g id="Group_21575" data-name="Group 21575" transform="translate(0.671 0.5)">
    <g id="Group_21382" data-name="Group 21382" transform="translate(0 0)">
      <circle id="Ellipse_471" data-name="Ellipse 471" cx="20" cy="20" r="20" transform="translate(-0.171)" fill="none" stroke="#fff" stroke-width="1"/>
    </g>
    <path id="Path_28466" data-name="Path 28466" d="M171.883,198.462c-4.631-4.018-1.636-12.965,5.483-11.839v.829c-6.012-.28-8.659,6.892-5.483,11.01m12.986-15.52a5.377,5.377,0,0,0,3.131,1.1v.812a4.75,4.75,0,0,1-3.131-1.91m-1.931-4.273a5.6,5.6,0,0,0,.087.915h-2.838v14.13a6.876,6.876,0,0,1-.2,1.74,3.033,3.033,0,0,1-5.332.466,3.088,3.088,0,0,0,4.468-1.382,6.924,6.924,0,0,0,.2-1.74v-14.13Z" transform="translate(-160.247 -170.32)" fill="#fff" fill-rule="evenodd"/>
    <path id="Path_28467" data-name="Path 28467" d="M186.681,191.293a7.659,7.659,0,0,1,.864.087c0,3.923,0,0,0,3.923-3.4-.5-4.535,2.327-3.632,4.351.017.037.034.074.053.109a2.349,2.349,0,0,1-.918-1.024c-.9-2.024.234-4.851,3.632-4.351,0-3.6,0-.6,0-3.094m10.633-2.6a7.033,7.033,0,0,0,.865.1c0,4.4,0,0,0,3.655a8.7,8.7,0,0,1-5.069-1.794l-.006,7.116c.045,3.222-1.749,6.382-5.107,7.019a7.28,7.28,0,0,1-3.21-.112A6.929,6.929,0,0,1,181.2,202.3a6.95,6.95,0,0,0,5.936,1.574c3.358-.637,5.152-3.8,5.108-7.018l0-7.117a8.685,8.685,0,0,0,5.07,1.794c0-3.395,0,.158,0-2.843m-4.2-5.268v.018a6.229,6.229,0,0,0,1.065,3.34,5.434,5.434,0,0,1-1.844-3.358Z" transform="translate(-169.562 -174.16)" fill="#fff" fill-rule="evenodd"/>
    <path id="Path_28468" data-name="Path 28468" d="M183.815,197.556a6.868,6.868,0,0,1-.2,1.74c-.037.081-.075.158-.116.233-.009.017-.019.032-.029.049-.032.057-.065.114-.1.167-.012.019-.025.036-.038.054-.033.049-.066.1-.1.145-.015.02-.031.038-.046.057-.034.043-.067.085-.1.125-.017.02-.036.038-.053.057-.034.037-.069.075-.1.11-.019.019-.039.036-.059.054-.036.033-.071.066-.107.1-.022.018-.044.034-.065.051s-.072.057-.109.083-.048.032-.072.048-.072.049-.109.071l-.078.044c-.036.021-.072.041-.109.06l-.084.04c-.036.017-.071.034-.107.05l-.089.035c-.035.014-.07.028-.106.04l-.095.03-.1.031-.1.024-.1.023-.1.018-.1.016-.108.012-.095.009-.112.005-.09,0-.115,0-.087,0-.117-.009-.082-.008-.119-.017-.078-.013-.12-.024-.074-.017-.12-.032-.07-.021-.119-.04-.066-.024c-.039-.015-.078-.031-.117-.047l-.062-.028c-.039-.018-.076-.036-.114-.055l-.059-.031q-.056-.03-.11-.063l-.055-.034c-.036-.022-.071-.046-.105-.07l-.051-.037q-.051-.037-.1-.077l-.048-.04c-.032-.027-.063-.055-.094-.083l-.044-.043c-.03-.029-.059-.059-.087-.09l-.04-.046c-.027-.032-.054-.064-.079-.1l-.036-.049c-.025-.034-.048-.068-.071-.1-.011-.017-.021-.034-.032-.051-.022-.036-.043-.072-.062-.109l-.011-.019a2.35,2.35,0,0,1-.918-1.024c-.9-2.024.234-4.851,3.632-4.351,0-3.6,0-.6,0-3.094-6.012-.28-8.659,6.892-5.483,11.01a6.949,6.949,0,0,0,5.936,1.574c3.358-.637,5.152-3.8,5.108-7.018l0-7.117a8.685,8.685,0,0,0,5.07,1.794c0-3.395,0,.158,0-2.843h0l-.032-.007c-.111-.021-.218-.045-.323-.071l-.1-.026q-.138-.037-.27-.079l-.063-.02c-.1-.034-.2-.072-.3-.111l-.086-.036q-.109-.047-.214-.1l-.081-.039c-.088-.044-.173-.09-.255-.139l-.064-.039q-.095-.058-.185-.119l-.078-.053c-.068-.048-.134-.1-.2-.148l-.042-.034c-.063-.052-.124-.1-.184-.158l-.067-.062q-.072-.068-.14-.138l-.05-.051q-.086-.091-.164-.185l-.053-.064q-.057-.07-.11-.14l-.051-.068-.018-.024a5.434,5.434,0,0,1-1.844-3.358h-2.838Z" transform="translate(-163.877 -174.16)" fill="#fff"/>
  </g>
</svg>
